<?xml version="1.0" encoding="utf-8"?>
<!-- Generator: Adobe Illustrator 23.0.1, SVG Export Plug-In . SVG Version: 6.00 Build 0)  -->
<svg version="1.1" id="Bandeau" xmlns="http://www.w3.org/2000/svg" xmlns:xlink="http://www.w3.org/1999/xlink" x="0px" y="0px"
	 viewBox="0 0 458.2 134.18" style="enable-background:new 0 0 458.2 134.18;" xml:space="preserve">
<style type="text/css">
	.st0{fill:#EE7861;}
	.st1{fill:#DC3626;}
	.st2{fill:#135A73;}
</style>
<g>
	<path class="st0" d="M11.25,66.99L40.59,89.1c2.37,1.78,2.37,5.34,0,7.12l-29.34,22.11c-3.33,2.51-1.71,7.95,2.46,8.02
		c0.03,0,0.06,0,0.09,0h125.93c5.59,0,10.13-4.54,10.13-10.13V69.1c0-5.59-4.54-10.13-10.13-10.13H13.8c-0.03,0-0.06,0-0.09,0
		C9.54,59.04,7.92,64.48,11.25,66.99z"/>
</g>
<path class="st1" d="M141.96,125.64L62.11,81.65c-1.81-1-2.93-2.9-2.93-4.97v-56.8c0-4.31,4.63-7.05,8.4-4.97l79.85,43.99
	c1.81,1,2.93,2.9,2.93,4.97v56.81C150.36,124.99,145.74,127.72,141.96,125.64z"/>
<path class="st0" d="M444.51,58.97H318.58c-5.59,0-10.13,4.54-10.13,10.13v47.13c0,5.59,4.54,10.13,10.13,10.13h125.93
	c0.03,0,0.06,0,0.09,0c4.17-0.07,5.79-5.51,2.46-8.02l-29.34-22.11c-2.37-1.78-2.37-5.34,0-7.12l29.34-22.11
	c3.33-2.51,1.71-7.95-2.46-8.02C444.57,58.97,444.54,58.97,444.51,58.97z"/>
<path class="st1" d="M315.85,125.64l79.85-43.99c1.81-1,2.93-2.9,2.93-4.97v-56.8c0-4.31-4.63-7.05-8.4-4.97L310.38,58.9
	c-1.81,1-2.93,2.9-2.93,4.97v56.81C307.45,124.99,312.07,127.72,315.85,125.64z"/>
<path class="st0" d="M393.84,12.67c-21.48-7.62-308.71-7.62-330.18,0c-2.7,0.96-4.99,2.76-4.99,5.63v58.34
	c0,3.4,2.96,6.03,6.34,5.63c23.84-2.82,303.65-2.82,327.49,0c3.37,0.4,6.34-2.23,6.34-5.63V18.3
	C398.83,15.43,396.55,13.63,393.84,12.67z"/>
<circle class="st1" cx="-82.06" cy="-45.23" r="16.97"/>
<circle class="st0" cx="-82.06" cy="5.73" r="16.97"/>
<circle class="st2" cx="-82.06" cy="67.18" r="16.97"/>
</svg>
