<?xml version="1.0" encoding="utf-8"?>
<!-- Generator: Adobe Illustrator 23.0.0, SVG Export Plug-In . SVG Version: 6.00 Build 0)  -->
<svg version="1.1" xmlns="http://www.w3.org/2000/svg" xmlns:xlink="http://www.w3.org/1999/xlink" x="0px" y="0px"
	 viewBox="0 0 595.28 841.89" style="enable-background:new 0 0 595.28 841.89;" xml:space="preserve">
<style type="text/css">
	.st0{fill:none;stroke:#95D4EC;stroke-linecap:round;stroke-linejoin:round;}
	.st1{fill:#E9F6FE;stroke:#3272B8;stroke-width:2;stroke-miterlimit:10;}
	.st2{fill:#E8F6FE;stroke:#3272B8;stroke-width:2;stroke-linejoin:round;stroke-miterlimit:10;}
	.st3{fill:#B9E2FA;stroke:#3272B8;stroke-width:2;stroke-linejoin:round;stroke-miterlimit:10;}
	.st4{fill:#FFFFFF;stroke:#3272B8;stroke-width:2;stroke-linejoin:round;stroke-miterlimit:10;}
	.st5{fill:#FFFFFF;stroke:#3272B8;stroke-width:2;stroke-miterlimit:10;}
	.st6{fill:#B8E2FA;stroke:#3272B8;stroke-width:2;stroke-miterlimit:10;}
	.st7{fill:none;stroke:#FFFFFF;stroke-width:2;stroke-linejoin:round;stroke-miterlimit:10;}
	.st8{fill:#E9F6FE;}
	.st9{fill:#3272B8;}
	.st10{fill:#B8E2FA;}
	.st11{fill:#FFFFFF;}
	.st12{fill:#E9F6FE;stroke:#3272B8;stroke-width:2;stroke-linejoin:round;stroke-miterlimit:10;}
	.st13{fill:none;stroke:#E8F6FE;stroke-width:2;stroke-linejoin:round;stroke-miterlimit:10;}
	.st14{display:none;}
	.st15{display:inline;fill:#B9E2FA;stroke:#3272B8;stroke-width:2;stroke-linejoin:round;stroke-miterlimit:10;}
	.st16{display:inline;fill:#FFFFFF;stroke:#3272B8;stroke-width:2;stroke-linejoin:round;stroke-miterlimit:10;}
	.st17{display:inline;}
	.st18{display:inline;fill:#E8F6FE;stroke:#3272B8;stroke-width:2;stroke-linejoin:round;stroke-miterlimit:10;}
	.st19{display:inline;fill:#3272B8;}
	.st20{display:inline;fill:#FFFFFF;}
	.st21{display:inline;fill:#B9E2FA;}
	.st22{display:inline;fill:#E8F5FE;stroke:#3272B8;stroke-width:2;stroke-linejoin:round;stroke-miterlimit:10;}
	.st23{display:inline;fill:#E9F6FE;stroke:#3272B8;stroke-width:2;stroke-linejoin:round;stroke-miterlimit:10;}
	.st24{fill:none;stroke:#3272B8;stroke-width:2;stroke-linejoin:round;stroke-miterlimit:10;}
	.st25{fill:none;stroke:#E9F6FE;stroke-width:2;stroke-miterlimit:10;}
</style>
<g id="Calque_1">
	<g>
		<line class="st0" x1="-51.28" y1="19.46" x2="-15.01" y2="-1.48"/>
		<line class="st0" x1="577.86" y1="843.37" x2="238.87" y2="647.65"/>
		<line class="st0" x1="8.69" y1="843.37" x2="347.68" y2="647.65"/>
		<line class="st0" x1="44.96" y1="843.37" x2="383.95" y2="647.65"/>
		<line class="st0" x1="81.23" y1="843.37" x2="420.22" y2="647.65"/>
		<line class="st0" x1="117.49" y1="843.37" x2="456.49" y2="647.65"/>
		<line class="st0" x1="153.76" y1="843.37" x2="492.75" y2="647.65"/>
		<line class="st0" x1="190.03" y1="843.37" x2="529.02" y2="647.65"/>
		<line class="st0" x1="226.3" y1="843.37" x2="565.29" y2="647.65"/>
		<line class="st0" x1="262.57" y1="843.37" x2="601.56" y2="647.65"/>
		<line class="st0" x1="480.18" y1="843.37" x2="601.56" y2="773.29"/>
		<line class="st0" x1="516.45" y1="843.37" x2="601.56" y2="794.23"/>
		<line class="st0" x1="552.72" y1="843.37" x2="601.56" y2="815.17"/>
		<line class="st0" x1="588.99" y1="843.37" x2="601.56" y2="836.11"/>
		<line class="st0" x1="178.9" y1="843.37" x2="-51.28" y2="710.47"/>
		<line class="st0" x1="215.17" y1="843.37" x2="-51.28" y2="689.53"/>
		<line class="st0" x1="251.44" y1="843.37" x2="-51.28" y2="668.59"/>
		<line class="st0" x1="287.71" y1="843.37" x2="-51.28" y2="647.65"/>
		<line class="st0" x1="142.64" y1="843.37" x2="-51.28" y2="731.41"/>
		<line class="st0" x1="106.37" y1="843.37" x2="-51.28" y2="752.35"/>
		<line class="st0" x1="33.83" y1="843.37" x2="-51.28" y2="794.23"/>
		<line class="st0" x1="-2.44" y1="843.37" x2="-51.28" y2="815.17"/>
		<line class="st0" x1="-38.71" y1="843.37" x2="-51.28" y2="836.11"/>
		<line class="st0" x1="469.06" y1="843.37" x2="130.07" y2="647.65"/>
		<line class="st0" x1="505.32" y1="843.37" x2="166.33" y2="647.65"/>
		<line class="st0" x1="541.59" y1="843.37" x2="202.6" y2="647.65"/>
		<line class="st0" x1="335.11" y1="843.37" x2="601.56" y2="689.53"/>
		<line class="st0" x1="371.38" y1="843.37" x2="601.56" y2="710.47"/>
		<line class="st0" x1="407.65" y1="843.37" x2="601.56" y2="731.41"/>
		<line class="st0" x1="443.91" y1="843.37" x2="601.56" y2="752.35"/>
		<line class="st0" x1="323.98" y1="843.37" x2="-15.01" y2="647.65"/>
		<line class="st0" x1="360.25" y1="843.37" x2="21.26" y2="647.65"/>
		<line class="st0" x1="396.52" y1="843.37" x2="57.53" y2="647.65"/>
		<line class="st0" x1="432.79" y1="843.37" x2="93.8" y2="647.65"/>
		<line class="st0" x1="298.84" y1="843.37" x2="601.56" y2="668.59"/>
		<line class="st0" x1="-33.14" y1="843.37" x2="-33.14" y2="647.65"/>
		<line class="st0" x1="-15.01" y1="843.37" x2="-15.01" y2="647.65"/>
		<line class="st0" x1="3.12" y1="843.37" x2="3.12" y2="647.65"/>
		<line class="st0" x1="21.26" y1="843.37" x2="21.26" y2="647.65"/>
		<line class="st0" x1="39.39" y1="843.37" x2="39.39" y2="647.65"/>
		<line class="st0" x1="57.53" y1="843.37" x2="57.53" y2="647.65"/>
		<line class="st0" x1="75.66" y1="843.37" x2="75.66" y2="647.65"/>
		<line class="st0" x1="93.8" y1="843.37" x2="93.8" y2="647.65"/>
		<line class="st0" x1="111.93" y1="843.37" x2="111.93" y2="647.65"/>
		<line class="st0" x1="130.07" y1="843.37" x2="130.07" y2="647.65"/>
		<line class="st0" x1="148.2" y1="843.37" x2="148.2" y2="647.65"/>
		<line class="st0" x1="166.33" y1="843.37" x2="166.33" y2="647.65"/>
		<line class="st0" x1="184.47" y1="843.37" x2="184.47" y2="647.65"/>
		<line class="st0" x1="202.6" y1="843.37" x2="202.6" y2="647.65"/>
		<line class="st0" x1="220.74" y1="843.37" x2="220.74" y2="647.65"/>
		<line class="st0" x1="238.87" y1="843.37" x2="238.87" y2="647.65"/>
		<line class="st0" x1="257.01" y1="843.37" x2="257.01" y2="647.65"/>
		<line class="st0" x1="275.14" y1="843.37" x2="275.14" y2="647.65"/>
		<line class="st0" x1="293.28" y1="843.37" x2="293.28" y2="647.65"/>
		<line class="st0" x1="311.41" y1="843.37" x2="311.41" y2="647.65"/>
		<line class="st0" x1="329.54" y1="843.37" x2="329.54" y2="647.65"/>
		<line class="st0" x1="347.68" y1="843.37" x2="347.68" y2="647.65"/>
		<line class="st0" x1="365.81" y1="843.37" x2="365.81" y2="647.65"/>
		<line class="st0" x1="383.95" y1="843.37" x2="383.95" y2="647.65"/>
		<line class="st0" x1="402.08" y1="843.37" x2="402.08" y2="647.65"/>
		<line class="st0" x1="420.22" y1="843.37" x2="420.22" y2="647.65"/>
		<line class="st0" x1="438.35" y1="843.37" x2="438.35" y2="647.65"/>
		<line class="st0" x1="456.49" y1="843.37" x2="456.49" y2="647.65"/>
		<line class="st0" x1="474.62" y1="843.37" x2="474.62" y2="647.65"/>
		<line class="st0" x1="492.75" y1="843.37" x2="492.75" y2="647.65"/>
		<line class="st0" x1="510.89" y1="843.37" x2="510.89" y2="647.65"/>
		<line class="st0" x1="529.02" y1="843.37" x2="529.02" y2="647.65"/>
		<line class="st0" x1="547.16" y1="843.37" x2="547.16" y2="647.65"/>
		<line class="st0" x1="565.29" y1="843.37" x2="565.29" y2="647.65"/>
		<line class="st0" x1="583.43" y1="843.37" x2="583.43" y2="647.65"/>
		<line class="st0" x1="70.1" y1="843.37" x2="-51.28" y2="773.29"/>
		<line class="st0" x1="-51.28" y1="668.59" x2="-15.01" y2="647.65"/>
		<line class="st0" x1="-51.28" y1="689.53" x2="21.26" y2="647.65"/>
		<line class="st0" x1="-51.28" y1="710.47" x2="57.53" y2="647.65"/>
		<line class="st0" x1="-51.28" y1="731.41" x2="93.8" y2="647.65"/>
		<line class="st0" x1="-51.28" y1="752.35" x2="130.07" y2="647.65"/>
		<line class="st0" x1="-51.28" y1="773.29" x2="166.33" y2="647.65"/>
		<line class="st0" x1="-51.28" y1="794.23" x2="202.6" y2="647.65"/>
		<line class="st0" x1="-51.28" y1="815.17" x2="238.87" y2="647.65"/>
		<line class="st0" x1="-51.28" y1="836.11" x2="275.14" y2="647.65"/>
		<line class="st0" x1="601.56" y1="689.53" x2="529.02" y2="647.65"/>
		<line class="st0" x1="601.56" y1="836.11" x2="275.14" y2="647.65"/>
		<line class="st0" x1="601.56" y1="815.17" x2="311.41" y2="647.65"/>
		<line class="st0" x1="601.56" y1="794.23" x2="347.68" y2="647.65"/>
		<line class="st0" x1="601.56" y1="773.29" x2="383.95" y2="647.65"/>
		<line class="st0" x1="601.56" y1="752.35" x2="420.22" y2="647.65"/>
		<line class="st0" x1="601.56" y1="731.41" x2="456.49" y2="647.65"/>
		<line class="st0" x1="601.56" y1="710.47" x2="492.75" y2="647.65"/>
		<line class="st0" x1="601.56" y1="668.59" x2="565.29" y2="647.65"/>
		<line class="st0" x1="583.43" y1="647.65" x2="583.43" y2="-1.48"/>
		<line class="st0" x1="565.29" y1="647.65" x2="565.29" y2="-1.48"/>
		<line class="st0" x1="547.16" y1="647.65" x2="547.16" y2="-1.48"/>
		<line class="st0" x1="529.02" y1="647.65" x2="529.02" y2="-1.48"/>
		<line class="st0" x1="510.89" y1="647.65" x2="510.89" y2="-1.48"/>
		<line class="st0" x1="492.75" y1="647.65" x2="492.75" y2="-1.48"/>
		<line class="st0" x1="474.62" y1="647.65" x2="474.62" y2="-1.48"/>
		<line class="st0" x1="456.49" y1="647.65" x2="456.49" y2="-1.48"/>
		<line class="st0" x1="438.35" y1="647.65" x2="438.35" y2="-1.48"/>
		<line class="st0" x1="420.22" y1="647.65" x2="420.22" y2="-1.48"/>
		<line class="st0" x1="402.08" y1="647.65" x2="402.08" y2="-1.48"/>
		<line class="st0" x1="383.95" y1="647.65" x2="383.95" y2="-1.48"/>
		<line class="st0" x1="365.81" y1="647.65" x2="365.81" y2="-1.48"/>
		<line class="st0" x1="347.68" y1="647.65" x2="347.68" y2="-1.48"/>
		<line class="st0" x1="329.54" y1="647.65" x2="329.54" y2="-1.48"/>
		<line class="st0" x1="311.41" y1="647.65" x2="311.41" y2="-1.48"/>
		<line class="st0" x1="293.28" y1="647.65" x2="293.28" y2="-1.48"/>
		<line class="st0" x1="275.14" y1="647.65" x2="275.14" y2="-1.48"/>
		<line class="st0" x1="257.01" y1="647.65" x2="257.01" y2="-1.48"/>
		<line class="st0" x1="238.87" y1="647.65" x2="238.87" y2="-1.48"/>
		<line class="st0" x1="220.74" y1="647.65" x2="220.74" y2="-1.48"/>
		<line class="st0" x1="202.6" y1="647.65" x2="202.6" y2="-1.48"/>
		<line class="st0" x1="184.47" y1="647.65" x2="184.47" y2="-1.48"/>
		<line class="st0" x1="166.33" y1="647.65" x2="166.33" y2="-1.48"/>
		<line class="st0" x1="148.2" y1="647.65" x2="148.2" y2="-1.48"/>
		<line class="st0" x1="130.07" y1="647.65" x2="130.07" y2="-1.48"/>
		<line class="st0" x1="111.93" y1="647.65" x2="111.93" y2="-1.48"/>
		<line class="st0" x1="93.8" y1="647.65" x2="93.8" y2="-1.48"/>
		<line class="st0" x1="75.66" y1="647.65" x2="75.66" y2="-1.48"/>
		<line class="st0" x1="57.53" y1="647.65" x2="57.53" y2="-1.48"/>
		<line class="st0" x1="39.39" y1="647.65" x2="39.39" y2="-1.48"/>
		<line class="st0" x1="21.26" y1="647.65" x2="21.26" y2="-1.48"/>
		<line class="st0" x1="3.12" y1="647.65" x2="3.12" y2="-1.48"/>
		<line class="st0" x1="-15.01" y1="647.65" x2="-15.01" y2="-1.48"/>
		<line class="st0" x1="-33.14" y1="647.65" x2="-33.14" y2="-1.48"/>
		<line class="st0" x1="-51.28" y1="396.38" x2="601.56" y2="19.46"/>
		<line class="st0" x1="-15.01" y1="647.65" x2="601.56" y2="291.68"/>
		<line class="st0" x1="21.26" y1="647.65" x2="601.56" y2="312.62"/>
		<line class="st0" x1="57.53" y1="647.65" x2="601.56" y2="333.56"/>
		<line class="st0" x1="93.8" y1="647.65" x2="601.56" y2="354.5"/>
		<line class="st0" x1="130.07" y1="647.65" x2="601.56" y2="375.44"/>
		<line class="st0" x1="166.33" y1="647.65" x2="601.56" y2="396.38"/>
		<line class="st0" x1="202.6" y1="647.65" x2="601.56" y2="417.32"/>
		<line class="st0" x1="238.87" y1="647.65" x2="601.56" y2="438.26"/>
		<line class="st0" x1="275.14" y1="647.65" x2="601.56" y2="459.2"/>
		<line class="st0" x1="311.41" y1="647.65" x2="601.56" y2="480.14"/>
		<line class="st0" x1="347.68" y1="647.65" x2="601.56" y2="501.08"/>
		<line class="st0" x1="383.95" y1="647.65" x2="601.56" y2="522.02"/>
		<line class="st0" x1="420.22" y1="647.65" x2="601.56" y2="542.96"/>
		<line class="st0" x1="456.49" y1="647.65" x2="601.56" y2="563.89"/>
		<line class="st0" x1="492.75" y1="647.65" x2="601.56" y2="584.83"/>
		<line class="st0" x1="529.02" y1="647.65" x2="601.56" y2="605.77"/>
		<line class="st0" x1="565.29" y1="647.65" x2="601.56" y2="626.71"/>
		<line class="st0" x1="-15.01" y1="647.65" x2="-51.28" y2="626.71"/>
		<line class="st0" x1="21.26" y1="647.65" x2="-51.28" y2="605.77"/>
		<line class="st0" x1="57.53" y1="647.65" x2="-51.28" y2="584.83"/>
		<line class="st0" x1="93.8" y1="647.65" x2="-51.28" y2="563.89"/>
		<line class="st0" x1="130.07" y1="647.65" x2="-51.28" y2="542.96"/>
		<line class="st0" x1="601.56" y1="291.68" x2="93.8" y2="-1.48"/>
		<line class="st0" x1="601.56" y1="312.62" x2="57.53" y2="-1.48"/>
		<line class="st0" x1="601.56" y1="333.56" x2="21.26" y2="-1.48"/>
		<line class="st0" x1="601.56" y1="354.5" x2="-15.01" y2="-1.48"/>
		<line class="st0" x1="-51.28" y1="480.14" x2="601.56" y2="103.22"/>
		<line class="st0" x1="-51.28" y1="459.2" x2="601.56" y2="82.28"/>
		<line class="st0" x1="-51.28" y1="438.26" x2="601.56" y2="61.34"/>
		<line class="st0" x1="-51.28" y1="417.32" x2="601.56" y2="40.4"/>
		<line class="st0" x1="601.56" y1="19.46" x2="565.29" y2="-1.48"/>
		<line class="st0" x1="601.56" y1="61.34" x2="492.75" y2="-1.48"/>
		<line class="st0" x1="601.56" y1="82.28" x2="456.49" y2="-1.48"/>
		<line class="st0" x1="601.56" y1="103.22" x2="420.22" y2="-1.48"/>
		<line class="st0" x1="601.56" y1="124.16" x2="383.95" y2="-1.48"/>
		<line class="st0" x1="601.56" y1="145.1" x2="347.68" y2="-1.48"/>
		<line class="st0" x1="601.56" y1="166.04" x2="311.41" y2="-1.48"/>
		<line class="st0" x1="601.56" y1="186.98" x2="275.14" y2="-1.48"/>
		<line class="st0" x1="601.56" y1="207.92" x2="238.87" y2="-1.48"/>
		<line class="st0" x1="601.56" y1="228.86" x2="202.6" y2="-1.48"/>
		<line class="st0" x1="601.56" y1="249.8" x2="166.33" y2="-1.48"/>
		<line class="st0" x1="601.56" y1="270.74" x2="130.07" y2="-1.48"/>
		<line class="st0" x1="601.56" y1="40.4" x2="529.02" y2="-1.48"/>
		<line class="st0" x1="166.33" y1="647.65" x2="-51.28" y2="522.02"/>
		<line class="st0" x1="202.6" y1="647.65" x2="-51.28" y2="501.08"/>
		<line class="st0" x1="238.87" y1="647.65" x2="-51.28" y2="480.14"/>
		<line class="st0" x1="275.14" y1="647.65" x2="-51.28" y2="459.2"/>
		<line class="st0" x1="311.41" y1="647.65" x2="-51.28" y2="438.26"/>
		<line class="st0" x1="347.68" y1="647.65" x2="-51.28" y2="417.32"/>
		<line class="st0" x1="383.95" y1="647.65" x2="-51.28" y2="396.38"/>
		<line class="st0" x1="420.22" y1="647.65" x2="-51.28" y2="375.44"/>
		<line class="st0" x1="456.49" y1="647.65" x2="-51.28" y2="354.5"/>
		<line class="st0" x1="492.75" y1="647.65" x2="-51.28" y2="333.56"/>
		<line class="st0" x1="529.02" y1="647.65" x2="-51.28" y2="312.62"/>
		<line class="st0" x1="565.29" y1="647.65" x2="-51.28" y2="291.68"/>
		<line class="st0" x1="601.56" y1="647.65" x2="-51.28" y2="270.74"/>
		<line class="st0" x1="601.56" y1="626.71" x2="-51.28" y2="249.8"/>
		<line class="st0" x1="601.56" y1="605.77" x2="-51.28" y2="228.86"/>
		<line class="st0" x1="601.56" y1="584.83" x2="-51.28" y2="207.92"/>
		<line class="st0" x1="601.56" y1="563.89" x2="-51.28" y2="186.98"/>
		<line class="st0" x1="601.56" y1="542.96" x2="-51.28" y2="166.04"/>
		<line class="st0" x1="601.56" y1="522.02" x2="-51.28" y2="145.1"/>
		<line class="st0" x1="601.56" y1="501.08" x2="-51.28" y2="124.16"/>
		<line class="st0" x1="601.56" y1="480.14" x2="-51.28" y2="103.22"/>
		<line class="st0" x1="601.56" y1="459.2" x2="-51.28" y2="82.28"/>
		<line class="st0" x1="601.56" y1="375.44" x2="-51.28" y2="-1.48"/>
		<line class="st0" x1="601.56" y1="396.38" x2="-51.28" y2="19.46"/>
		<line class="st0" x1="601.56" y1="417.32" x2="-51.28" y2="40.4"/>
		<line class="st0" x1="601.56" y1="438.26" x2="-51.28" y2="61.34"/>
		<line class="st0" x1="-51.28" y1="563.89" x2="601.56" y2="186.98"/>
		<line class="st0" x1="-51.28" y1="542.96" x2="601.56" y2="166.04"/>
		<line class="st0" x1="-51.28" y1="522.02" x2="601.56" y2="145.1"/>
		<line class="st0" x1="-51.28" y1="501.08" x2="601.56" y2="124.16"/>
		<line class="st0" x1="-51.28" y1="584.83" x2="601.56" y2="207.92"/>
		<line class="st0" x1="-51.28" y1="605.77" x2="601.56" y2="228.86"/>
		<line class="st0" x1="-51.28" y1="626.71" x2="601.56" y2="249.8"/>
		<line class="st0" x1="-51.28" y1="647.65" x2="601.56" y2="270.74"/>
		<line class="st0" x1="-51.28" y1="375.44" x2="601.56" y2="-1.48"/>
		<line class="st0" x1="-51.28" y1="354.5" x2="565.29" y2="-1.48"/>
		<line class="st0" x1="-51.28" y1="333.56" x2="529.02" y2="-1.48"/>
		<line class="st0" x1="-51.28" y1="312.62" x2="492.75" y2="-1.48"/>
		<line class="st0" x1="-51.28" y1="291.68" x2="456.49" y2="-1.48"/>
		<line class="st0" x1="-51.28" y1="270.74" x2="420.22" y2="-1.48"/>
		<line class="st0" x1="-51.28" y1="249.8" x2="383.95" y2="-1.48"/>
		<line class="st0" x1="-51.28" y1="228.86" x2="347.68" y2="-1.48"/>
		<line class="st0" x1="-51.28" y1="207.92" x2="311.41" y2="-1.48"/>
		<line class="st0" x1="-51.28" y1="186.98" x2="275.14" y2="-1.48"/>
		<line class="st0" x1="-51.28" y1="166.04" x2="238.87" y2="-1.48"/>
		<line class="st0" x1="-51.28" y1="145.1" x2="202.6" y2="-1.48"/>
		<line class="st0" x1="-51.28" y1="124.16" x2="166.33" y2="-1.48"/>
		<line class="st0" x1="-51.28" y1="103.22" x2="130.07" y2="-1.48"/>
		<line class="st0" x1="-51.28" y1="82.28" x2="93.8" y2="-1.48"/>
		<line class="st0" x1="-51.28" y1="61.34" x2="57.53" y2="-1.48"/>
		<line class="st0" x1="-51.28" y1="40.4" x2="21.26" y2="-1.48"/>
		<line class="st0" x1="-27.58" y1="843.37" x2="311.41" y2="647.65"/>
	</g>
</g>
<g id="Calque_9">
	<path class="st1" d="M528.05,185.98c-12.43,0-22.5,10.07-22.5,22.5v522.93c0,12.43,10.07,22.5,22.5,22.5
		c12.43,0,22.5-10.07,22.5-22.5V208.48C550.55,196.05,540.47,185.98,528.05,185.98z"/>
</g>
<g id="Calque_7">
	<polygon class="st2" points="34.16,580.58 253.29,707.68 471.24,582.71 265.07,450.58 	"/>
	<polygon class="st3" points="34.66,580.58 253.78,707.68 253.85,716.16 35.53,588.99 	"/>
	<polygon class="st4" points="472.35,582.58 253.22,707.68 253.15,716.16 471.48,589.99 	"/>
	<g>
		<polygon class="st5" points="254.64,308.23 319.25,270.92 383.87,308.23 383.87,546.3 319.25,583.61 254.64,546.3 		"/>
		<polygon class="st6" points="319.25,345.53 319.25,270.92 254.64,233.61 190.02,270.92 190.02,509 227.78,530.8 254.64,546.3 
			319.25,583.61 		"/>
		<polygon class="st1" points="319.25,270.92 319.25,270.92 254.64,233.61 190.02,270.92 254.64,308.23 319.25,345.53 
			383.87,308.23 		"/>
		<polygon class="st5" points="265.86,286.05 319.25,255.23 372.65,286.05 372.65,301.03 319.25,331.85 265.86,301.03 		"/>
		<polygon class="st6" points="319.25,316.88 319.25,255.23 265.86,224.4 212.47,255.23 212.47,270.2 243.67,288.21 265.86,301.03 
			319.25,331.85 		"/>
		<polygon class="st1" points="319.25,255.23 319.25,255.23 265.86,224.4 212.47,255.23 265.86,286.05 319.25,316.88 372.65,286.05 
					"/>
		<polygon class="st1" points="319.25,439.8 254.64,402.5 190.02,365.19 190.02,378.61 254.64,415.92 319.25,453.22 383.87,415.92 
			383.87,402.5 		"/>
		<polygon class="st1" points="319.25,405.36 254.64,368.05 190.02,330.75 190.02,344.17 254.64,381.47 319.25,418.78 
			383.87,381.47 383.87,368.05 		"/>
		<polygon class="st1" points="319.25,370.91 254.64,333.61 190.02,296.3 190.02,309.72 254.64,347.03 319.25,384.33 383.87,347.03 
			383.87,333.61 		"/>
		<polygon class="st1" points="319.25,543.14 254.64,505.83 254.64,505.83 190.02,468.53 190.02,481.95 254.64,519.25 
			254.64,519.25 319.25,556.56 383.87,519.25 383.87,505.83 		"/>
		<polygon class="st1" points="319.25,508.69 254.64,471.39 190.02,434.08 190.02,447.5 254.64,484.81 319.25,522.11 383.87,484.81 
			383.87,471.39 		"/>
		<polygon class="st1" points="319.25,474.25 254.64,436.94 254.64,436.94 190.02,399.64 190.02,413.06 254.64,450.36 
			254.64,450.36 319.25,487.67 383.87,450.36 383.87,436.94 		"/>
		<line class="st1" x1="319.25" y1="345.53" x2="319.25" y2="583.61"/>
	</g>
	<polyline class="st7" points="165.35,529.22 183.48,518.75 201.62,529.22 183.48,539.69 	"/>
	<polyline class="st7" points="183.48,539.69 201.62,529.22 219.75,539.69 201.62,550.16 	"/>
	<polyline class="st7" points="201.62,550.16 219.75,539.69 237.88,550.16 219.75,560.63 	"/>
	<g>
		<polygon class="st8" points="158.98,516.84 131.35,500.89 103.71,516.84 131.35,532.8 		"/>
		<path class="st9" d="M158.98,516.84l-0.43,0.74l-27.21-15.71l-25.93,14.97l25.93,14.97l27.21-15.71L158.98,516.84l-0.43,0.74
			L158.98,516.84l0.43,0.74l-27.63,15.95c-0.26,0.15-0.59,0.15-0.85,0l-27.63-15.95c-0.26-0.15-0.43-0.43-0.43-0.74
			c0-0.3,0.16-0.58,0.43-0.74l27.63-15.95c0.26-0.15,0.59-0.15,0.85,0l27.63,15.95c0.26,0.15,0.43,0.43,0.43,0.74
			c0,0.3-0.16,0.58-0.43,0.74L158.98,516.84z"/>
		<polygon class="st4" points="214.25,548.75 214.25,605.59 186.62,621.55 186.62,564.7 		"/>
		<path class="st9" d="M214.25,548.75h0.85v56.84c0,0.3-0.16,0.58-0.43,0.74l-27.63,15.95c-0.26,0.15-0.59,0.15-0.85,0
			c-0.26-0.15-0.43-0.43-0.43-0.74V564.7c0-0.3,0.16-0.58,0.43-0.74l27.63-15.95c0.26-0.15,0.59-0.15,0.85,0
			c0.26,0.15,0.43,0.43,0.43,0.74H214.25l0.43,0.74l-27.21,15.71v54.88l25.93-14.97v-56.35H214.25l0.43,0.74L214.25,548.75z"/>
		<polygon class="st8" points="158.98,506.2 186.62,522.16 158.98,538.11 131.35,522.16 		"/>
		<path class="st9" d="M158.98,506.2l0.43-0.74l27.63,15.95c0.26,0.15,0.43,0.43,0.43,0.74c0,0.3-0.16,0.58-0.43,0.74l-27.63,15.95
			c-0.26,0.15-0.59,0.15-0.85,0l-27.63-15.95c-0.26-0.15-0.43-0.43-0.43-0.74c0-0.3,0.16-0.58,0.43-0.74l27.63-15.95
			c0.26-0.15,0.59-0.15,0.85,0L158.98,506.2l0.43,0.74l-26.36,15.22l25.93,14.97l25.93-14.97l-26.36-15.22L158.98,506.2l0.43,0.74
			L158.98,506.2z"/>
		<polygon class="st8" points="186.62,532.8 186.62,522.16 158.98,538.11 158.98,548.75 		"/>
		<path class="st9" d="M186.62,532.8h-0.85v-9.17l-25.93,14.97v8.68l26.36-15.22L186.62,532.8h-0.85H186.62l0.43,0.74l-27.63,15.95
			c-0.26,0.15-0.59,0.15-0.85,0c-0.26-0.15-0.43-0.43-0.43-0.74v-10.64c0-0.3,0.16-0.58,0.43-0.74l27.63-15.95
			c0.26-0.15,0.59-0.15,0.85,0c0.26,0.15,0.43,0.43,0.43,0.74v10.64c0,0.3-0.16,0.58-0.43,0.74L186.62,532.8z"/>
		<polygon class="st6" points="131.35,532.8 131.35,522.16 158.98,538.11 158.98,548.75 186.62,564.7 186.62,621.55 158.98,605.59 
			131.35,589.64 103.71,573.68 103.71,516.84 		"/>
		<path class="st9" d="M131.35,532.8h-0.85v-10.64c0-0.3,0.16-0.58,0.43-0.74c0.26-0.15,0.59-0.15,0.85,0l27.63,15.95
			c0.26,0.15,0.43,0.43,0.43,0.74v10.15l27.21,15.71c0.26,0.15,0.43,0.43,0.43,0.74v56.84c0,0.3-0.16,0.58-0.43,0.74
			c-0.26,0.15-0.59,0.15-0.85,0l-27.63-15.95l-27.63-15.95l-27.63-15.95c-0.26-0.15-0.43-0.43-0.43-0.74v-56.84
			c0-0.3,0.16-0.58,0.43-0.74c0.26-0.15,0.59-0.15,0.85,0l27.63,15.95L131.35,532.8h-0.85H131.35l-0.43,0.74l-26.36-15.22v54.88
			l27.21,15.71l27.63,15.95l26.36,15.22V565.2l-27.21-15.71c-0.26-0.15-0.43-0.43-0.43-0.74V538.6l-25.93-14.97l0,9.17
			c0,0.3-0.16,0.58-0.43,0.74c-0.26,0.15-0.59,0.15-0.85,0L131.35,532.8z"/>
		<polygon class="st8" points="202.57,579.8 208.48,576.39 208.48,586.42 202.57,589.83 		"/>
		<path class="st9" d="M202.57,579.8l-0.43-0.74l5.91-3.41c0.26-0.15,0.59-0.15,0.85,0c0.26,0.15,0.43,0.43,0.43,0.74v10.03
			c0,0.3-0.16,0.58-0.43,0.74l-5.91,3.41c-0.26,0.15-0.59,0.15-0.85,0s-0.43-0.43-0.43-0.74V579.8c0-0.3,0.16-0.58,0.43-0.74
			L202.57,579.8h0.85v8.56l4.21-2.43v-8.07l-4.63,2.67L202.57,579.8h0.85H202.57z"/>
		<polygon class="st8" points="202.57,595.16 208.48,591.74 208.48,601.78 202.57,605.19 		"/>
		<path class="st9" d="M202.57,595.16l-0.43-0.74l5.91-3.41c0.26-0.15,0.59-0.15,0.85,0c0.26,0.15,0.43,0.43,0.43,0.74v10.03
			c0,0.3-0.16,0.58-0.43,0.74l-5.91,3.41c-0.26,0.15-0.59,0.15-0.85,0c-0.26-0.15-0.43-0.43-0.43-0.74v-10.03
			c0-0.3,0.16-0.58,0.43-0.74L202.57,595.16h0.85v8.56l4.21-2.43v-8.07l-4.63,2.67L202.57,595.16h0.85H202.57z"/>
		<polygon class="st8" points="202.57,564.45 208.48,561.04 208.48,571.07 202.57,574.48 		"/>
		<path class="st9" d="M202.57,564.45l-0.43-0.74l5.91-3.41c0.26-0.15,0.59-0.15,0.85,0s0.43,0.43,0.43,0.74v10.03
			c0,0.3-0.16,0.58-0.43,0.74l-5.91,3.41c-0.26,0.15-0.59,0.15-0.85,0c-0.26-0.15-0.43-0.43-0.43-0.74v-10.03
			c0-0.3,0.16-0.58,0.43-0.74L202.57,564.45h0.85v8.56l4.21-2.43v-8.07l-4.63,2.67L202.57,564.45h0.85H202.57z"/>
		<polygon class="st8" points="192.39,570.32 198.3,566.91 198.3,576.94 192.39,580.35 		"/>
		<path class="st9" d="M192.39,570.32l-0.43-0.74l5.91-3.41c0.26-0.15,0.59-0.15,0.85,0c0.26,0.15,0.43,0.43,0.43,0.74v10.03
			c0,0.3-0.16,0.58-0.43,0.74l-5.91,3.41c-0.26,0.15-0.59,0.15-0.85,0c-0.26-0.15-0.43-0.43-0.43-0.74v-10.03
			c0-0.3,0.16-0.58,0.43-0.74L192.39,570.32h0.85v8.56l4.21-2.43v-8.07l-4.63,2.67L192.39,570.32h0.85H192.39z"/>
		<polygon class="st8" points="192.39,585.68 198.3,582.27 198.3,592.3 192.39,595.71 		"/>
		<path class="st9" d="M192.39,585.68l-0.43-0.74l5.91-3.41c0.26-0.15,0.59-0.15,0.85,0c0.26,0.15,0.43,0.43,0.43,0.74v10.03
			c0,0.3-0.16,0.58-0.43,0.74l-5.91,3.41c-0.26,0.15-0.59,0.15-0.85,0s-0.43-0.43-0.43-0.74v-10.03c0-0.3,0.16-0.58,0.43-0.74
			L192.39,585.68h0.85v8.56l4.21-2.43v-8.07l-4.63,2.67L192.39,585.68h0.85H192.39z"/>
		<polygon class="st8" points="192.39,601.03 198.3,597.62 198.3,607.65 192.39,611.06 		"/>
		<path class="st9" d="M192.39,601.03l-0.43-0.74l5.91-3.41c0.26-0.15,0.59-0.15,0.85,0c0.26,0.15,0.43,0.43,0.43,0.74v10.03
			c0,0.3-0.16,0.58-0.43,0.74l-5.91,3.41c-0.26,0.15-0.59,0.15-0.85,0c-0.26-0.15-0.43-0.43-0.43-0.74v-10.03
			c0-0.3,0.16-0.58,0.43-0.74L192.39,601.03h0.85v8.56l4.21-2.43v-8.07l-4.63,2.67L192.39,601.03h0.85H192.39z"/>
		<polygon class="st8" points="170.24,579.69 164.33,576.28 164.33,586.31 170.24,589.72 		"/>
		<path class="st9" d="M170.24,579.69l-0.43,0.74l-4.63-2.67v8.07l4.21,2.43v-8.56H170.24l-0.43,0.74L170.24,579.69h0.85v10.03
			c0,0.3-0.16,0.58-0.43,0.74c-0.26,0.15-0.59,0.15-0.85,0l-5.91-3.41c-0.26-0.15-0.43-0.43-0.43-0.74v-10.03
			c0-0.3,0.16-0.58,0.43-0.74c0.26-0.15,0.59-0.15,0.85,0l5.91,3.41c0.26,0.15,0.43,0.43,0.43,0.74H170.24z"/>
		<polygon class="st8" points="170.24,595.05 164.33,591.63 164.33,601.67 170.24,605.08 		"/>
		<path class="st9" d="M170.24,595.05l-0.43,0.74l-4.63-2.67v8.07l4.21,2.43v-8.56H170.24l-0.43,0.74L170.24,595.05h0.85v10.03
			c0,0.3-0.16,0.58-0.43,0.74c-0.26,0.15-0.59,0.15-0.85,0l-5.91-3.41c-0.26-0.15-0.43-0.43-0.43-0.74v-10.03
			c0-0.3,0.16-0.58,0.43-0.74c0.26-0.15,0.59-0.15,0.85,0l5.91,3.41c0.26,0.15,0.43,0.43,0.43,0.74H170.24z"/>
		<polygon class="st8" points="170.24,564.34 164.33,560.93 164.33,570.96 170.24,574.37 		"/>
		<path class="st9" d="M170.24,564.34l-0.43,0.74l-4.63-2.67v8.07l4.21,2.43v-8.56H170.24l-0.43,0.74L170.24,564.34h0.85v10.03
			c0,0.3-0.16,0.58-0.43,0.74c-0.26,0.15-0.59,0.15-0.85,0l-5.91-3.41c-0.26-0.15-0.43-0.43-0.43-0.74v-10.03
			c0-0.3,0.16-0.58,0.43-0.74c0.26-0.15,0.59-0.15,0.85,0l5.91,3.41c0.26,0.15,0.43,0.43,0.43,0.74H170.24z"/>
		<polygon class="st8" points="180.41,570.21 174.51,566.8 174.51,576.83 180.41,580.25 		"/>
		<path class="st9" d="M180.41,570.21l-0.43,0.74l-4.63-2.67v8.07l4.21,2.43v-8.56H180.41l-0.43,0.74L180.41,570.21h0.85v10.03
			c0,0.3-0.16,0.58-0.43,0.74c-0.26,0.15-0.59,0.15-0.85,0l-5.91-3.41c-0.26-0.15-0.43-0.43-0.43-0.74V566.8
			c0-0.3,0.16-0.58,0.43-0.74c0.26-0.15,0.59-0.15,0.85,0l5.91,3.41c0.26,0.15,0.43,0.43,0.43,0.74H180.41z"/>
		<polygon class="st8" points="180.41,585.57 174.51,582.16 174.51,592.19 180.41,595.6 		"/>
		<path class="st9" d="M180.41,585.57l-0.43,0.74l-4.63-2.67v8.07l4.21,2.43v-8.56H180.41l-0.43,0.74L180.41,585.57h0.85v10.03
			c0,0.3-0.16,0.58-0.43,0.74c-0.26,0.15-0.59,0.15-0.85,0l-5.91-3.41c-0.26-0.15-0.43-0.43-0.43-0.74v-10.03
			c0-0.3,0.16-0.58,0.43-0.74c0.26-0.15,0.59-0.15,0.85,0l5.91,3.41c0.26,0.15,0.43,0.43,0.43,0.74H180.41z"/>
		<polygon class="st8" points="180.41,600.92 174.51,597.51 174.51,607.54 180.41,610.95 		"/>
		<path class="st9" d="M180.41,600.92l-0.43,0.74l-4.63-2.67v8.07l4.21,2.43v-8.56H180.41l-0.43,0.74L180.41,600.92h0.85v10.03
			c0,0.3-0.16,0.58-0.43,0.74c-0.26,0.15-0.59,0.15-0.85,0l-5.91-3.41c-0.26-0.15-0.43-0.43-0.43-0.74v-10.03
			c0-0.3,0.16-0.58,0.43-0.74s0.59-0.15,0.85,0l5.91,3.41c0.26,0.15,0.43,0.43,0.43,0.74H180.41z"/>
		<polygon class="st8" points="143.03,548.37 137.12,544.96 137.12,554.99 143.03,558.4 		"/>
		<path class="st9" d="M143.03,548.37l-0.43,0.74l-4.63-2.67v8.07l4.21,2.43v-8.56H143.03l-0.43,0.74L143.03,548.37h0.85v10.03
			c0,0.3-0.16,0.58-0.43,0.74c-0.26,0.15-0.59,0.15-0.85,0l-5.91-3.41c-0.26-0.15-0.43-0.43-0.43-0.74v-10.03
			c0-0.3,0.16-0.58,0.43-0.74s0.59-0.15,0.85,0l5.91,3.41c0.26,0.15,0.43,0.43,0.43,0.74H143.03z"/>
		<polygon class="st8" points="153.21,554.24 147.3,550.83 147.3,560.86 153.21,564.27 		"/>
		<path class="st9" d="M153.63,553.51c0.26,0.15,0.43,0.43,0.43,0.74h-0.85l-0.43,0.74l-4.63-2.67v8.07l4.21,2.43v-8.56h0.85
			l-0.43,0.74l0.43-0.74h0.85v10.03c0,0.3-0.16,0.58-0.43,0.74c-0.26,0.15-0.59,0.15-0.85,0l-5.91-3.41
			c-0.26-0.15-0.43-0.43-0.43-0.74v-10.03c0-0.3,0.16-0.58,0.43-0.74"/>
		<polygon class="st8" points="115.62,547.73 109.71,544.32 109.71,554.36 115.62,557.77 		"/>
		<path class="st9" d="M115.62,547.73l-0.43,0.74l-4.63-2.67v8.07l4.21,2.43v-8.56H115.62l-0.43,0.74L115.62,547.73h0.85v10.03
			c0,0.3-0.16,0.58-0.43,0.74c-0.26,0.15-0.59,0.15-0.85,0l-5.91-3.41c-0.26-0.15-0.43-0.43-0.43-0.74v-10.03
			c0-0.3,0.16-0.58,0.43-0.74c0.26-0.15,0.59-0.15,0.85,0l5.91,3.41c0.26,0.15,0.43,0.43,0.43,0.74H115.62z"/>
		<polygon class="st8" points="115.62,563.09 109.71,559.68 109.71,569.71 115.62,573.12 		"/>
		<path class="st9" d="M115.62,563.09l-0.43,0.74l-4.63-2.67v8.07l4.21,2.43l0-8.56H115.62l-0.43,0.74L115.62,563.09h0.85v10.03
			c0,0.3-0.16,0.58-0.43,0.74c-0.26,0.15-0.59,0.15-0.85,0l-5.91-3.41c-0.26-0.15-0.43-0.43-0.43-0.74v-10.03
			c0-0.3,0.16-0.58,0.43-0.74c0.26-0.15,0.59-0.15,0.85,0l5.91,3.41c0.26,0.15,0.43,0.43,0.43,0.74H115.62z"/>
		<polygon class="st8" points="115.62,532.38 109.71,528.97 109.71,539 115.62,542.41 		"/>
		<path class="st9" d="M115.62,532.38l-0.43,0.74l-4.63-2.67v8.07l4.21,2.43l0-8.56H115.62l-0.43,0.74L115.62,532.38h0.85v10.03
			c0,0.3-0.16,0.58-0.43,0.74c-0.26,0.15-0.59,0.15-0.85,0l-5.91-3.41c-0.26-0.15-0.43-0.43-0.43-0.74v-10.03
			c0-0.3,0.16-0.58,0.43-0.74c0.26-0.15,0.59-0.15,0.85,0l5.91,3.41c0.26,0.15,0.43,0.43,0.43,0.74H115.62z"/>
		<polygon class="st8" points="125.8,538.26 119.89,534.84 119.89,544.88 125.8,548.29 		"/>
		<path class="st9" d="M125.8,538.26l-0.43,0.74l-4.63-2.67v8.07l4.21,2.43v-8.56H125.8l-0.43,0.74L125.8,538.26h0.85v10.03
			c0,0.3-0.16,0.58-0.43,0.74c-0.26,0.15-0.59,0.15-0.85,0l-5.91-3.41c-0.26-0.15-0.43-0.43-0.43-0.74v-10.03
			c0-0.3,0.16-0.58,0.43-0.74c0.26-0.15,0.59-0.15,0.85,0l5.91,3.41c0.26,0.15,0.43,0.43,0.43,0.74H125.8z"/>
		<polygon class="st8" points="125.8,553.61 119.89,550.2 119.89,560.23 125.8,563.64 		"/>
		<path class="st9" d="M125.8,553.61l-0.43,0.74l-4.63-2.67v8.07l4.21,2.43l0-8.56H125.8l-0.43,0.74L125.8,553.61h0.85v10.03
			c0,0.3-0.16,0.58-0.43,0.74c-0.26,0.15-0.59,0.15-0.85,0l-5.91-3.41c-0.26-0.15-0.43-0.43-0.43-0.74V550.2
			c0-0.3,0.16-0.58,0.43-0.74c0.26-0.15,0.59-0.15,0.85,0l5.91,3.41c0.26,0.15,0.43,0.43,0.43,0.74H125.8z"/>
		<polygon class="st8" points="125.8,568.96 119.89,565.55 119.89,575.58 125.8,579 		"/>
		<path class="st9" d="M125.8,568.96l-0.43,0.74l-4.63-2.67v8.07l4.21,2.43v-8.56H125.8l-0.43,0.74L125.8,568.96h0.85V579
			c0,0.3-0.16,0.58-0.43,0.74c-0.26,0.15-0.59,0.15-0.85,0l-5.91-3.41c-0.26-0.15-0.43-0.43-0.43-0.74v-10.03
			c0-0.3,0.16-0.58,0.43-0.74c0.26-0.15,0.59-0.15,0.85,0l5.91,3.41c0.26,0.15,0.43,0.43,0.43,0.74H125.8z"/>
		<polygon class="st8" points="152.54,574.58 137.79,566.07 137.79,593.19 152.54,601.7 		"/>
		<path class="st9" d="M152.54,574.58l-0.43,0.74l-13.47-7.78v25.16l13.05,7.53v-25.65H152.54l-0.43,0.74L152.54,574.58h0.85v27.12
			c0,0.3-0.16,0.58-0.43,0.74c-0.26,0.15-0.59,0.15-0.85,0l-14.75-8.51c-0.26-0.15-0.43-0.43-0.43-0.74v-27.12
			c0-0.3,0.16-0.58,0.43-0.74c0.26-0.15,0.59-0.15,0.85,0l14.75,8.51c0.26,0.15,0.43,0.43,0.43,0.74H152.54z"/>
		<polygon class="st10" points="140.45,591.77 140.45,567.61 152.54,574.58 152.54,598.75 		"/>
		<path class="st9" d="M140.45,591.77h-0.85v-24.17c0-0.3,0.16-0.58,0.43-0.74c0.26-0.15,0.59-0.15,0.85,0l12.09,6.98
			c0.26,0.15,0.43,0.43,0.43,0.74v24.17c0,0.3-0.16,0.58-0.43,0.74c-0.26,0.15-0.59,0.15-0.85,0l-12.09-6.98
			c-0.26-0.15-0.43-0.43-0.43-0.74H140.45l0.43-0.74l10.81,6.24v-22.2l-10.39-6v22.69H140.45l0.43-0.74L140.45,591.77z"/>
		<polygon class="st8" points="214.25,548.75 186.62,532.8 158.98,548.75 186.62,564.7 		"/>
		<path class="st9" d="M214.25,548.75l-0.43,0.74l-27.21-15.71l-25.93,14.97l25.93,14.97l27.21-15.71L214.25,548.75l-0.43,0.74
			L214.25,548.75l0.43,0.74l-27.63,15.95c-0.26,0.15-0.59,0.15-0.85,0l-27.63-15.95c-0.26-0.15-0.43-0.43-0.43-0.74
			s0.16-0.58,0.43-0.74l27.63-15.95c0.26-0.15,0.59-0.15,0.85,0l27.63,15.95c0.26,0.15,0.43,0.43,0.43,0.74s-0.16,0.58-0.43,0.74
			L214.25,548.75z"/>
		<line class="st8" x1="140.45" y1="591.77" x2="137.79" y2="593.19"/>
		<path class="st9" d="M140.85,592.52l-2.66,1.42c-0.41,0.22-0.93,0.06-1.15-0.35c-0.22-0.41-0.06-0.93,0.35-1.15l2.66-1.42
			c0.41-0.22,0.93-0.06,1.15,0.35C141.42,591.79,141.27,592.3,140.85,592.52"/>
	</g>
	<polygon class="st3" points="329.59,569.23 345.3,578.85 345.3,556.43 329.35,547.33 	"/>
	<g>
		<polygon class="st10" points="377.94,494.24 363.25,507.26 363.25,567.71 392.64,584.68 392.64,524.22 		"/>
		<path class="st9" d="M377.94,494.24l-0.6-0.68l-14.69,13.02c-0.19,0.17-0.3,0.42-0.3,0.68v60.45c0,0.32,0.17,0.62,0.45,0.78
			l29.39,16.97c0.28,0.16,0.62,0.16,0.9,0c0.28-0.16,0.45-0.46,0.45-0.78v-60.45c0-0.14-0.03-0.27-0.09-0.4l-14.69-29.98
			c-0.12-0.25-0.36-0.43-0.64-0.49c-0.28-0.05-0.56,0.02-0.77,0.21L377.94,494.24l-0.81,0.4l14.6,29.8v58.68l-27.58-15.92v-59.52
			l14.39-12.75L377.94,494.24l-0.81,0.4L377.94,494.24z"/>
		<polygon class="st11" points="392.64,524.22 422.03,507.26 422.03,567.71 392.64,584.68 		"/>
		<path class="st9" d="M392.64,524.22l0.45,0.78l28.03-16.18v58.36l-27.58,15.92l0-58.89H392.64l0.45,0.78L392.64,524.22h-0.9v60.45
			c0,0.32,0.17,0.62,0.45,0.78c0.28,0.16,0.62,0.16,0.9,0l29.39-16.97c0.28-0.16,0.45-0.46,0.45-0.78v-60.45
			c0-0.32-0.17-0.62-0.45-0.78c-0.28-0.16-0.62-0.16-0.9,0l-29.39,16.97c-0.28,0.16-0.45,0.46-0.45,0.78H392.64z"/>
		<polygon class="st8" points="392.64,524.22 377.94,494.24 407.33,477.27 422.03,507.26 		"/>
		<path class="st9" d="M392.64,524.22l0.81-0.4l-14.32-29.22l27.82-16.06l13.9,28.36l-28.66,16.55L392.64,524.22l0.81-0.4
			L392.64,524.22l0.45,0.78l29.39-16.97c0.41-0.24,0.57-0.75,0.36-1.18l-14.69-29.98c-0.11-0.23-0.31-0.39-0.55-0.47
			c-0.24-0.07-0.5-0.04-0.72,0.08l-29.39,16.97c-0.41,0.24-0.57,0.75-0.36,1.18l14.69,29.98c0.11,0.23,0.31,0.39,0.55,0.47
			c0.24,0.07,0.5,0.04,0.72-0.08L392.64,524.22z"/>
		<polygon class="st8" points="375.67,540.28 369.39,536.65 369.39,547.32 375.67,550.95 		"/>
		<path class="st9" d="M375.67,540.28l0.45-0.78l-6.28-3.63c-0.28-0.16-0.62-0.16-0.9,0c-0.28,0.16-0.45,0.46-0.45,0.78v10.67
			c0,0.32,0.17,0.62,0.45,0.78l6.28,3.63c0.28,0.16,0.62,0.16,0.9,0c0.28-0.16,0.45-0.46,0.45-0.78v-10.67
			c0-0.32-0.17-0.62-0.45-0.78L375.67,540.28h-0.9v9.1l-4.47-2.58v-8.58l4.93,2.84L375.67,540.28h-0.9H375.67z"/>
		<polygon class="st8" points="375.67,556.61 369.39,552.98 369.39,563.65 375.67,567.28 		"/>
		<path class="st9" d="M375.67,556.61l0.45-0.78l-6.28-3.63c-0.28-0.16-0.62-0.16-0.9,0c-0.28,0.16-0.45,0.46-0.45,0.78v10.67
			c0,0.32,0.17,0.62,0.45,0.78l6.28,3.63c0.28,0.16,0.62,0.16,0.9,0c0.28-0.16,0.45-0.46,0.45-0.78v-10.67
			c0-0.32-0.17-0.62-0.45-0.78L375.67,556.61h-0.9v9.1l-4.47-2.58v-8.58l4.93,2.84L375.67,556.61h-0.9H375.67z"/>
		<polygon class="st8" points="375.67,523.95 369.39,520.32 369.39,530.99 375.67,534.62 		"/>
		<path class="st9" d="M375.67,523.95l0.45-0.78l-6.28-3.63c-0.28-0.16-0.62-0.16-0.9,0c-0.28,0.16-0.45,0.46-0.45,0.78v10.67
			c0,0.32,0.17,0.62,0.45,0.78l6.28,3.63c0.28,0.16,0.62,0.16,0.9,0c0.28-0.16,0.45-0.46,0.45-0.78v-10.67
			c0-0.32-0.17-0.62-0.45-0.78L375.67,523.95h-0.9v9.1l-4.47-2.58v-8.58l4.93,2.84L375.67,523.95h-0.9H375.67z"/>
		<polygon class="st8" points="386.5,530.2 380.21,526.57 380.21,537.24 386.5,540.87 		"/>
		<path class="st9" d="M386.5,530.2l0.45-0.78l-6.28-3.63c-0.28-0.16-0.62-0.16-0.9,0c-0.28,0.16-0.45,0.46-0.45,0.78v10.67
			c0,0.32,0.17,0.62,0.45,0.78l6.28,3.63c0.28,0.16,0.62,0.16,0.9,0c0.28-0.16,0.45-0.46,0.45-0.78V530.2
			c0-0.32-0.17-0.62-0.45-0.78L386.5,530.2h-0.9v9.1l-4.48-2.58v-8.58l4.93,2.84L386.5,530.2h-0.9H386.5z"/>
		<polygon class="st8" points="386.5,546.53 380.21,542.9 380.21,553.57 386.5,557.2 		"/>
		<path class="st9" d="M386.5,546.53l0.45-0.78l-6.28-3.63c-0.28-0.16-0.62-0.16-0.9,0c-0.28,0.16-0.45,0.46-0.45,0.78v10.67
			c0,0.32,0.17,0.62,0.45,0.78l6.28,3.63c0.28,0.16,0.62,0.16,0.9,0c0.28-0.16,0.45-0.46,0.45-0.78v-10.67
			c0-0.32-0.17-0.62-0.45-0.78L386.5,546.53h-0.9v9.1l-4.48-2.58v-8.58l4.93,2.84L386.5,546.53h-0.9H386.5z"/>
		<polygon class="st8" points="386.5,562.86 380.21,559.23 380.21,569.9 386.5,573.53 		"/>
		<path class="st9" d="M386.5,562.86l0.45-0.78l-6.28-3.63c-0.28-0.16-0.62-0.16-0.9,0c-0.28,0.16-0.45,0.46-0.45,0.78v10.67
			c0,0.32,0.17,0.62,0.45,0.78l6.28,3.63c0.28,0.16,0.62,0.16,0.9,0c0.28-0.16,0.45-0.46,0.45-0.78v-10.67
			c0-0.32-0.17-0.62-0.45-0.78L386.5,562.86h-0.9v9.1l-4.48-2.58v-8.58l4.93,2.84L386.5,562.86h-0.9H386.5z"/>
		<polygon class="st8" points="409.31,540.5 415.59,536.87 415.59,547.54 409.31,551.17 		"/>
		<path class="st9" d="M409.31,540.5l0.45,0.78l4.93-2.84v8.58l-4.48,2.58l0-9.1H409.31l0.45,0.78L409.31,540.5h-0.9v10.67
			c0,0.32,0.17,0.62,0.45,0.78c0.28,0.16,0.62,0.16,0.9,0l6.28-3.63c0.28-0.16,0.45-0.46,0.45-0.78v-10.67
			c0-0.32-0.17-0.62-0.45-0.78c-0.28-0.16-0.62-0.16-0.9,0l-6.28,3.63c-0.28,0.16-0.45,0.46-0.45,0.78H409.31z"/>
		<polygon class="st8" points="409.31,556.83 415.59,553.2 415.59,563.87 409.31,567.49 		"/>
		<path class="st9" d="M409.31,556.83l0.45,0.78l4.93-2.84v8.58l-4.48,2.58v-9.1H409.31l0.45,0.78L409.31,556.83h-0.9v10.67
			c0,0.32,0.17,0.62,0.45,0.78c0.28,0.16,0.62,0.16,0.9,0l6.28-3.63c0.28-0.16,0.45-0.46,0.45-0.78V553.2
			c0-0.32-0.17-0.62-0.45-0.78c-0.28-0.16-0.62-0.16-0.9,0l-6.28,3.63c-0.28,0.16-0.45,0.46-0.45,0.78H409.31z"/>
		<polygon class="st8" points="409.31,524.17 415.59,520.54 415.59,531.21 409.31,534.84 		"/>
		<path class="st9" d="M409.31,524.17l0.45,0.78l4.93-2.84v8.58l-4.48,2.58l0-9.1H409.31l0.45,0.78L409.31,524.17h-0.9v10.67
			c0,0.32,0.17,0.62,0.45,0.78c0.28,0.16,0.62,0.16,0.9,0l6.28-3.63c0.28-0.16,0.45-0.46,0.45-0.78v-10.67
			c0-0.32-0.17-0.62-0.45-0.78c-0.28-0.16-0.62-0.16-0.9,0l-6.28,3.63c-0.28,0.16-0.45,0.46-0.45,0.78H409.31z"/>
		<polygon class="st8" points="398.49,530.42 404.77,526.79 404.77,537.46 398.49,541.08 		"/>
		<path class="st9" d="M398.49,530.42l0.45,0.78l4.93-2.84v8.58l-4.47,2.58v-9.1H398.49l0.45,0.78L398.49,530.42h-0.9v10.67
			c0,0.32,0.17,0.62,0.45,0.78c0.28,0.16,0.62,0.16,0.9,0l6.28-3.63c0.28-0.16,0.45-0.46,0.45-0.78v-10.67
			c0-0.32-0.17-0.62-0.45-0.78s-0.62-0.16-0.9,0l-6.28,3.63c-0.28,0.16-0.45,0.46-0.45,0.78H398.49z"/>
		<polygon class="st8" points="398.49,546.75 404.77,543.12 404.77,553.79 398.49,557.41 		"/>
		<path class="st9" d="M398.49,546.75l0.45,0.78l4.93-2.84v8.58l-4.47,2.58v-9.1H398.49l0.45,0.78L398.49,546.75h-0.9v10.67
			c0,0.32,0.17,0.62,0.45,0.78s0.62,0.16,0.9,0l6.28-3.63c0.28-0.16,0.45-0.46,0.45-0.78v-10.67c0-0.32-0.17-0.62-0.45-0.78
			c-0.28-0.16-0.62-0.16-0.9,0l-6.28,3.63c-0.28,0.16-0.45,0.46-0.45,0.78H398.49z"/>
		<polygon class="st8" points="398.49,563.07 404.77,559.45 404.77,570.11 398.49,573.74 		"/>
		<path class="st9" d="M398.49,563.07l0.45,0.78l4.93-2.84v8.58l-4.47,2.58v-9.1H398.49l0.45,0.78L398.49,563.07h-0.9v10.67
			c0,0.32,0.17,0.62,0.45,0.78c0.28,0.16,0.62,0.16,0.9,0l6.28-3.63c0.28-0.16,0.45-0.46,0.45-0.78v-10.67
			c0-0.32-0.17-0.62-0.45-0.78c-0.28-0.16-0.62-0.16-0.9,0l-6.28,3.63c-0.28,0.16-0.45,0.46-0.45,0.78H398.49z"/>
	</g>
	<g>
		<polygon class="st10" points="406.59,510.65 391.89,523.66 391.89,584.12 421.28,601.08 421.28,540.63 		"/>
		<path class="st9" d="M406.59,510.65l-0.6-0.68l-14.69,13.02c-0.19,0.17-0.3,0.42-0.3,0.68v60.45c0,0.32,0.17,0.62,0.45,0.78
			l29.39,16.97c0.28,0.16,0.62,0.16,0.9,0c0.28-0.16,0.45-0.46,0.45-0.78v-60.45c0-0.14-0.03-0.27-0.09-0.4l-14.69-29.98
			c-0.12-0.25-0.36-0.43-0.64-0.49c-0.28-0.05-0.56,0.02-0.77,0.21L406.59,510.65l-0.81,0.4l14.6,29.8v58.68l-27.58-15.92v-59.52
			l14.39-12.75L406.59,510.65l-0.81,0.4L406.59,510.65z"/>
		<polygon class="st11" points="421.28,540.63 450.67,523.66 450.67,584.12 421.28,601.08 		"/>
		<path class="st9" d="M421.28,540.63l0.45,0.78l28.03-16.18v58.36l-27.58,15.92l0-58.89H421.28l0.45,0.78L421.28,540.63h-0.9v60.45
			c0,0.32,0.17,0.62,0.45,0.78c0.28,0.16,0.62,0.16,0.9,0l29.39-16.97c0.28-0.16,0.45-0.46,0.45-0.78v-60.45
			c0-0.32-0.17-0.62-0.45-0.78c-0.28-0.16-0.62-0.16-0.9,0l-29.39,16.97c-0.28,0.16-0.45,0.46-0.45,0.78H421.28z"/>
		<polygon class="st8" points="421.28,540.63 406.59,510.65 435.98,493.68 450.67,523.66 		"/>
		<path class="st9" d="M421.28,540.63l0.81-0.4l-14.32-29.22l27.82-16.06l13.9,28.36l-28.66,16.55L421.28,540.63l0.81-0.4
			L421.28,540.63l0.45,0.78l29.39-16.97c0.41-0.24,0.57-0.75,0.36-1.18l-14.69-29.98c-0.11-0.23-0.31-0.39-0.55-0.47
			c-0.24-0.07-0.5-0.04-0.72,0.08l-29.39,16.97c-0.41,0.24-0.57,0.75-0.36,1.18l14.69,29.98c0.11,0.23,0.31,0.39,0.55,0.47
			c0.24,0.07,0.5,0.04,0.72-0.08L421.28,540.63z"/>
		<polygon class="st8" points="404.32,556.69 398.03,553.06 398.03,563.73 404.32,567.36 		"/>
		<path class="st9" d="M404.32,556.69l0.45-0.78l-6.28-3.63c-0.28-0.16-0.62-0.16-0.9,0c-0.28,0.16-0.45,0.46-0.45,0.78v10.67
			c0,0.32,0.17,0.62,0.45,0.78l6.28,3.63c0.28,0.16,0.62,0.16,0.9,0c0.28-0.16,0.45-0.46,0.45-0.78v-10.67
			c0-0.32-0.17-0.62-0.45-0.78L404.32,556.69h-0.9v9.1l-4.47-2.58v-8.58l4.93,2.84L404.32,556.69h-0.9H404.32z"/>
		<polygon class="st8" points="404.32,573.02 398.03,569.39 398.03,580.06 404.32,583.69 		"/>
		<path class="st9" d="M404.32,573.02l0.45-0.78l-6.28-3.63c-0.28-0.16-0.62-0.16-0.9,0c-0.28,0.16-0.45,0.46-0.45,0.78v10.67
			c0,0.32,0.17,0.62,0.45,0.78l6.28,3.63c0.28,0.16,0.62,0.16,0.9,0c0.28-0.16,0.45-0.46,0.45-0.78v-10.67
			c0-0.32-0.17-0.62-0.45-0.78L404.32,573.02h-0.9v9.1l-4.47-2.58v-8.58l4.93,2.84L404.32,573.02h-0.9H404.32z"/>
		<polygon class="st8" points="404.32,540.36 398.03,536.73 398.03,547.4 404.32,551.03 		"/>
		<path class="st9" d="M404.32,540.36l0.45-0.78l-6.28-3.63c-0.28-0.16-0.62-0.16-0.9,0c-0.28,0.16-0.45,0.46-0.45,0.78v10.67
			c0,0.32,0.17,0.62,0.45,0.78l6.28,3.63c0.28,0.16,0.62,0.16,0.9,0c0.28-0.16,0.45-0.46,0.45-0.78v-10.67
			c0-0.32-0.17-0.62-0.45-0.78L404.32,540.36h-0.9v9.1l-4.47-2.58v-8.58l4.93,2.84L404.32,540.36h-0.9H404.32z"/>
		<polygon class="st8" points="415.14,546.61 408.86,542.98 408.86,553.65 415.14,557.28 		"/>
		<path class="st9" d="M415.14,546.61l0.45-0.78l-6.28-3.63c-0.28-0.16-0.62-0.16-0.9,0c-0.28,0.16-0.45,0.46-0.45,0.78v10.67
			c0,0.32,0.17,0.62,0.45,0.78l6.28,3.63c0.28,0.16,0.62,0.16,0.9,0c0.28-0.16,0.45-0.46,0.45-0.78v-10.67
			c0-0.32-0.17-0.62-0.45-0.78L415.14,546.61h-0.9v9.1l-4.48-2.58v-8.58l4.93,2.84L415.14,546.61h-0.9H415.14z"/>
		<polygon class="st8" points="415.14,562.94 408.86,559.31 408.86,569.98 415.14,573.6 		"/>
		<path class="st9" d="M415.14,562.94l0.45-0.78l-6.28-3.63c-0.28-0.16-0.62-0.16-0.9,0c-0.28,0.16-0.45,0.46-0.45,0.78v10.67
			c0,0.32,0.17,0.62,0.45,0.78l6.28,3.63c0.28,0.16,0.62,0.16,0.9,0c0.28-0.16,0.45-0.46,0.45-0.78v-10.67
			c0-0.32-0.17-0.62-0.45-0.78L415.14,562.94h-0.9v9.1l-4.48-2.58v-8.58l4.93,2.84L415.14,562.94h-0.9H415.14z"/>
		<polygon class="st8" points="415.14,579.26 408.86,575.64 408.86,586.31 415.14,589.93 		"/>
		<path class="st9" d="M415.14,579.26l0.45-0.78l-6.28-3.63c-0.28-0.16-0.62-0.16-0.9,0c-0.28,0.16-0.45,0.46-0.45,0.78v10.67
			c0,0.32,0.17,0.62,0.45,0.78l6.28,3.63c0.28,0.16,0.62,0.16,0.9,0c0.28-0.16,0.45-0.46,0.45-0.78v-10.67
			c0-0.32-0.17-0.62-0.45-0.78L415.14,579.26h-0.9v9.1l-4.48-2.58v-8.58l4.93,2.84L415.14,579.26h-0.9H415.14z"/>
		<polygon class="st8" points="437.95,556.9 444.24,553.28 444.24,563.95 437.95,567.57 		"/>
		<path class="st9" d="M437.95,556.9l0.45,0.78l4.93-2.84v8.58l-4.48,2.58v-9.1H437.95l0.45,0.78L437.95,556.9h-0.9v10.67
			c0,0.32,0.17,0.62,0.45,0.78c0.28,0.16,0.62,0.16,0.9,0l6.28-3.63c0.28-0.16,0.45-0.46,0.45-0.78v-10.67
			c0-0.32-0.17-0.62-0.45-0.78c-0.28-0.16-0.62-0.16-0.9,0l-6.28,3.63c-0.28,0.16-0.45,0.46-0.45,0.78H437.95z"/>
		<polygon class="st8" points="437.95,573.23 444.24,569.61 444.24,580.27 437.95,583.9 		"/>
		<path class="st9" d="M437.95,573.23l0.45,0.78l4.93-2.84v8.58l-4.48,2.58v-9.1H437.95l0.45,0.78L437.95,573.23h-0.9v10.67
			c0,0.32,0.17,0.62,0.45,0.78c0.28,0.16,0.62,0.16,0.9,0l6.28-3.63c0.28-0.16,0.45-0.46,0.45-0.78v-10.67
			c0-0.32-0.17-0.62-0.45-0.78c-0.28-0.16-0.62-0.16-0.9,0l-6.28,3.63c-0.28,0.16-0.45,0.46-0.45,0.78H437.95z"/>
		<polygon class="st8" points="437.95,540.58 444.24,536.95 444.24,547.62 437.95,551.24 		"/>
		<path class="st9" d="M437.95,540.58l0.45,0.78l4.93-2.84v8.58l-4.48,2.58v-9.1H437.95l0.45,0.78L437.95,540.58h-0.9v10.67
			c0,0.32,0.17,0.62,0.45,0.78c0.28,0.16,0.62,0.16,0.9,0l6.28-3.63c0.28-0.16,0.45-0.46,0.45-0.78v-10.67
			c0-0.32-0.17-0.62-0.45-0.78c-0.28-0.16-0.62-0.16-0.9,0l-6.28,3.63c-0.28,0.16-0.45,0.46-0.45,0.78H437.95z"/>
		<polygon class="st8" points="427.13,546.82 433.42,543.2 433.42,553.86 427.13,557.49 		"/>
		<path class="st9" d="M427.13,546.82l0.45,0.78l4.93-2.84v8.58l-4.47,2.58v-9.1H427.13l0.45,0.78L427.13,546.82h-0.9v10.67
			c0,0.32,0.17,0.62,0.45,0.78c0.28,0.16,0.62,0.16,0.9,0l6.28-3.63c0.28-0.16,0.45-0.46,0.45-0.78V543.2
			c0-0.32-0.17-0.62-0.45-0.78c-0.28-0.16-0.62-0.16-0.9,0l-6.28,3.63c-0.28,0.16-0.45,0.46-0.45,0.78H427.13z"/>
		<polygon class="st8" points="427.13,563.15 433.42,559.53 433.42,570.19 427.13,573.82 		"/>
		<path class="st9" d="M427.13,563.15l0.45,0.78l4.93-2.84v8.58l-4.47,2.58v-9.1H427.13l0.45,0.78L427.13,563.15h-0.9v10.67
			c0,0.32,0.17,0.62,0.45,0.78c0.28,0.16,0.62,0.16,0.9,0l6.28-3.63c0.28-0.16,0.45-0.46,0.45-0.78v-10.67
			c0-0.32-0.17-0.62-0.45-0.78c-0.28-0.16-0.62-0.16-0.9,0l-6.28,3.63c-0.28,0.16-0.45,0.46-0.45,0.78H427.13z"/>
		<polygon class="st8" points="427.13,579.48 433.42,575.85 433.42,586.52 427.13,590.15 		"/>
		<path class="st9" d="M427.13,579.48l0.45,0.78l4.93-2.84V586l-4.47,2.58v-9.1H427.13l0.45,0.78L427.13,579.48h-0.9v10.67
			c0,0.32,0.17,0.62,0.45,0.78c0.28,0.16,0.62,0.16,0.9,0l6.28-3.63c0.28-0.16,0.45-0.46,0.45-0.78v-10.67
			c0-0.32-0.17-0.62-0.45-0.78c-0.28-0.16-0.62-0.16-0.9,0l-6.28,3.63c-0.28,0.16-0.45,0.46-0.45,0.78H427.13z"/>
	</g>
	<g>
		<g>
			<polygon class="st3" points="361.22,595.44 366.78,598.84 366.78,577.5 361.14,574.28 			"/>
			<polygon class="st4" points="372.33,595.44 366.78,598.84 366.78,577.5 372.42,574.28 			"/>
		</g>
		<polygon class="st3" points="341.69,563.51 367.47,579.29 367.47,542.51 341.3,527.58 		"/>
		<polygon class="st4" points="393.24,563.51 367.47,579.29 367.47,542.51 393.63,527.58 		"/>
		<polygon class="st12" points="393.63,527.58 367.47,542.51 341.3,527.58 368.93,513.08 		"/>
		<polygon class="st4" points="361.01,569.23 345.3,578.85 345.3,556.43 361.25,547.33 		"/>
		<polygon class="st12" points="361.25,547.33 345.3,556.43 329.35,547.33 346.19,538.49 		"/>
	</g>
	<g>
		<g>
			<polygon class="st3" points="372.28,628.98 375.3,630.83 375.3,619.22 372.23,617.47 			"/>
			<polygon class="st4" points="378.32,628.98 375.3,630.83 375.3,619.22 378.36,617.47 			"/>
		</g>
		<polygon class="st3" points="361.66,611.61 375.67,620.19 375.67,600.19 361.44,592.07 		"/>
		<polygon class="st4" points="389.69,611.61 375.67,620.19 375.67,600.19 389.9,592.07 		"/>
		<polygon class="st12" points="389.9,592.07 375.67,600.19 361.44,592.07 376.47,584.19 		"/>
	</g>
	<g>
		<g>
			<polygon class="st3" points="80.11,570.22 83.13,572.07 83.13,560.46 80.07,558.71 			"/>
			<polygon class="st4" points="86.15,570.22 83.13,572.07 83.13,560.46 86.2,558.71 			"/>
		</g>
		<polygon class="st3" points="69.49,552.85 83.51,561.44 83.51,541.44 69.28,533.32 		"/>
		<polygon class="st4" points="97.52,552.85 83.51,561.44 83.51,541.44 97.74,533.32 		"/>
		<polygon class="st12" points="97.74,533.32 83.51,541.44 69.28,533.32 84.31,525.43 		"/>
	</g>
</g>
<g id="Calque_6">
	<polygon class="st3" points="198.67,653.73 253.07,685.14 253.07,616.64 198.67,585.23 	"/>
	<polygon class="st4" points="344.61,632.79 253.07,685.14 253.07,616.64 344.61,533.92 	"/>
	<g>
		<polygon class="st4" points="297.49,659.3 297.49,613.5 279.8,623.71 279.8,669.51 		"/>
		<polygon class="st3" points="297.49,659.19 293.05,656.63 293.05,616.06 297.49,613.5 		"/>
		<polygon class="st3" points="293.05,656.63 279.8,664.4 279.8,669.51 297.49,659.19 		"/>
		<polygon class="st4" points="278.91,670.05 278.91,624.25 261.22,634.46 261.22,680.26 		"/>
		<polygon class="st3" points="278.91,664.78 261.22,675.16 261.22,680.26 278.91,669.94 		"/>
	</g>
	<g>
		<polygon class="st2" points="212.03,637.95 212.03,626.24 218.79,630.14 218.79,641.85 		"/>
	</g>
	<g>
		<polygon class="st2" points="239.84,652.25 239.84,640.55 246.59,644.45 246.59,656.15 		"/>
	</g>
	<polygon class="st4" points="316.2,610.5 309.25,602.25 305.32,604.52 312.27,612.76 	"/>
	<polygon class="st3" points="320.12,608.23 313.17,599.98 309.25,602.25 316.2,610.5 	"/>
	<polygon class="st4" points="324.05,605.96 317.1,597.72 313.17,599.98 320.12,608.23 	"/>
	<polygon class="st3" points="343.77,594.63 336.87,586.38 336.87,586.38 332.97,588.65 339.87,596.9 	"/>
	<polygon class="st4" points="347.66,592.36 340.77,584.11 336.87,586.38 343.77,594.63 	"/>
	<polygon class="st3" points="351.56,590.09 344.66,581.85 340.77,584.11 347.66,592.36 	"/>
	<polygon class="st3" points="327.98,603.7 321.03,595.45 317.1,597.72 324.05,605.96 	"/>
	<polygon class="st4" points="331.9,601.43 324.95,593.18 324.95,593.18 321.03,595.45 327.98,603.7 	"/>
	<polygon class="st3" points="335.83,599.16 328.88,590.91 328.88,590.91 324.95,593.18 331.9,601.43 	"/>
	<polygon class="st4" points="339.76,596.9 332.81,588.65 328.88,590.91 335.83,599.16 	"/>
	<polygon class="st2" points="321.33,636.69 321.33,613.17 344.61,599.83 344.61,623.36 	"/>
	<g>
		<polygon class="st3" points="199.6,614.91 206.5,606.66 206.5,606.66 210.39,608.93 203.5,617.18 		"/>
		<polygon class="st4" points="195.7,612.64 202.6,604.39 206.5,606.66 199.6,614.91 		"/>
		<polygon class="st3" points="191.8,610.37 198.7,602.13 202.6,604.39 195.7,612.64 		"/>
		<polygon class="st3" points="215.39,623.98 222.34,615.73 226.26,618 219.31,626.24 		"/>
		<polygon class="st4" points="211.46,621.71 218.41,613.46 218.41,613.46 222.34,615.73 215.39,623.98 		"/>
		<polygon class="st3" points="207.53,619.44 214.48,611.2 214.48,611.19 218.41,613.46 211.46,621.71 		"/>
		<polygon class="st4" points="203.61,617.18 210.56,608.93 214.48,611.2 207.53,619.44 		"/>
	</g>
	<polygon class="st2" points="207.53,649.29 207.53,625.77 198.75,620.75 198.75,644.27 	"/>
	<path class="st4" d="M285.19,499.25"/>
	<polygon class="st2" points="198.67,585.23 253.07,616.64 344.61,533.92 290.82,503.64 	"/>
	<polygon class="st4" points="210.29,584.03 291.17,512.42 331.84,535.32 251.56,607.86 	"/>
	<polygon class="st13" points="233.64,584.38 294.34,530.65 311.5,540.31 251.39,594.63 	"/>
	<polygon class="st3" points="291.17,512.42 331.84,535.32 327.97,538.72 291.21,518.08 	"/>
	<polygon class="st3" points="291.17,512.42 291.21,518.08 214.48,586.38 210.29,584.03 	"/>
	<g>
		<g>
			<polygon class="st3" points="283.82,513.66 293.27,519.16 293.32,532.95 283.82,527.3 			"/>
		</g>
		<g>
			<polygon class="st4" points="302.8,513.66 293.27,519.16 293.3,532.95 302.8,525.28 			"/>
		</g>
		<g>
			<polygon class="st4" points="302.52,513.41 293.17,508.22 284.1,513.41 293.27,518.75 			"/>
		</g>
		<g>
			<polygon class="st2" points="299.68,510.95 293.22,507.36 286.95,510.95 293.28,514.64 			"/>
		</g>
	</g>
	<g>
		<g>
			<polygon class="st3" points="301.83,510.05 311.29,515.55 311.34,543.31 301.83,537.67 			"/>
		</g>
		<g>
			<polygon class="st4" points="320.82,510.05 311.29,515.55 311.32,543.39 320.82,534.72 			"/>
		</g>
		<g>
			<polygon class="st4" points="320.54,509.8 311.19,504.61 302.12,509.8 311.29,515.14 			"/>
		</g>
		<g>
			<polygon class="st2" points="317.69,507.34 311.23,503.75 304.96,507.34 311.3,511.03 			"/>
		</g>
	</g>
</g>
<g id="Calque_3" class="st14">
	<polygon class="st15" points="198.63,654.25 253.03,685.66 253.03,518.14 198.63,486.73 	"/>
	<polygon class="st16" points="344.57,633.31 253.03,685.66 253.03,518.14 285.15,499.77 285.34,520.93 344.57,486.73 	"/>
	<g class="st17">
		<polygon class="st4" points="297.45,659.82 297.45,614.02 279.76,624.24 279.76,670.03 		"/>
		<polygon class="st3" points="297.45,659.71 293.01,657.15 293.01,616.58 297.45,614.02 		"/>
		<polygon class="st3" points="293.01,657.15 279.76,664.93 279.76,670.03 297.45,659.71 		"/>
		<polygon class="st4" points="278.87,670.57 278.87,624.77 261.18,634.99 261.18,680.79 		"/>
		<polygon class="st3" points="278.87,665.31 261.18,675.68 261.18,680.79 278.87,670.46 		"/>
	</g>
	<polygon class="st18" points="285.15,499.77 253.03,518.14 198.63,486.73 229.76,468.84 	"/>
	<polygon class="st18" points="344.57,486.73 290.17,455.32 248.57,479.34 285.15,499.77 285.34,520.93 	"/>
	<polygon class="st16" points="255.24,483.07 289.4,463.61 329.47,486.74 285.27,512.27 285.15,499.77 	"/>
	<polygon class="st15" points="289.26,468.4 325.51,488.75 330.14,486.62 289.26,463.61 	"/>
	<polygon class="st15" points="259.74,485.58 289.26,468.71 289.26,463.61 255.24,483.07 	"/>
	<g class="st17">
		<g>
			<polygon class="st3" points="279.77,468.29 289.22,473.8 289.27,487.58 279.77,481.93 			"/>
		</g>
		<g>
			<polygon class="st4" points="298.76,468.29 289.22,473.8 289.25,487.58 298.76,481.93 			"/>
		</g>
		<g>
			<polygon class="st4" points="298.47,468.04 289.13,462.85 280.05,468.04 289.22,473.38 			"/>
		</g>
		<g>
			<polygon class="st2" points="295.63,465.59 289.17,462 282.9,465.59 289.24,469.28 			"/>
		</g>
	</g>
	<g class="st17">
		<polygon class="st2" points="268.9,609.38 268.9,597.68 262.15,601.58 262.15,613.28 		"/>
	</g>
	<g class="st17">
		<polygon class="st2" points="282.81,601.58 282.81,589.88 276.05,593.78 276.05,605.48 		"/>
	</g>
	<g class="st17">
		<polygon class="st2" points="296.71,593.78 296.71,582.07 289.95,585.98 289.95,597.68 		"/>
	</g>
	<g class="st17">
		<polygon class="st2" points="310.61,585.98 310.61,574.27 303.86,578.17 303.86,589.88 		"/>
	</g>
	<g class="st17">
		<polygon class="st2" points="236.42,537.06 236.42,525.36 243.18,529.26 243.18,540.96 		"/>
	</g>
	<g class="st17">
		<polygon class="st2" points="208.61,521.46 208.61,509.76 215.37,513.66 215.37,525.36 		"/>
	</g>
	<g class="st17">
		<polygon class="st2" points="211.99,638.47 211.99,626.77 218.75,630.67 218.75,642.37 		"/>
	</g>
	<g class="st17">
		<polygon class="st2" points="239.8,652.78 239.8,641.08 246.55,644.98 246.55,656.68 		"/>
	</g>
	<polygon class="st16" points="316.16,611.02 309.21,602.77 305.28,605.04 312.23,613.29 	"/>
	<polygon class="st15" points="320.08,608.76 313.13,600.51 309.21,602.77 316.16,611.02 	"/>
	<polygon class="st16" points="324.01,606.49 317.06,598.24 313.13,600.51 320.08,608.76 	"/>
	<polygon class="st15" points="343.73,595.15 336.83,586.91 336.83,586.91 332.93,589.17 339.83,597.42 	"/>
	<polygon class="st16" points="347.63,592.89 340.73,584.64 336.83,586.91 343.73,595.15 	"/>
	<polygon class="st15" points="351.52,590.62 344.63,582.37 340.73,584.64 347.63,592.89 	"/>
	<polygon class="st15" points="327.94,604.22 320.99,595.97 317.06,598.24 324.01,606.49 	"/>
	<polygon class="st16" points="331.86,601.95 324.91,593.71 324.91,593.71 320.99,595.97 327.94,604.22 	"/>
	<polygon class="st15" points="335.79,599.69 328.84,591.44 328.84,591.44 324.91,593.71 331.86,601.95 	"/>
	<polygon class="st16" points="339.72,597.42 332.77,589.17 328.84,591.44 335.79,599.69 	"/>
	<line class="st18" x1="253.03" y1="564.23" x2="253.03" y2="574.8"/>
	<g class="st17">
		<polygon class="st2" points="252.99,556.84 253.08,567.36 344.57,514.09 344.57,503.49 		"/>
		<line class="st2" x1="261.3" y1="551.97" x2="261.3" y2="562.54"/>
		<line class="st2" x1="269.66" y1="547.68" x2="269.66" y2="558.25"/>
		<line class="st2" x1="278.02" y1="542.11" x2="278.02" y2="552.68"/>
		<line class="st2" x1="286.38" y1="537.39" x2="286.38" y2="547.96"/>
		<line class="st2" x1="294.6" y1="532.78" x2="294.6" y2="543.35"/>
		<line class="st2" x1="302.87" y1="527.52" x2="302.87" y2="538.09"/>
		<line class="st2" x1="311.23" y1="522.92" x2="311.23" y2="533.49"/>
		<line class="st2" x1="319.59" y1="517.63" x2="319.59" y2="528.2"/>
		<line class="st2" x1="336.31" y1="508.06" x2="336.31" y2="518.63"/>
		<line class="st2" x1="327.95" y1="513.35" x2="327.95" y2="523.92"/>
		<polygon class="st2" points="252.99,556.72 252.9,567.23 198.63,535.43 198.63,524.83 		"/>
		<line class="st2" x1="246.62" y1="552.97" x2="246.62" y2="563.54"/>
		<line class="st2" x1="238.26" y1="548.68" x2="238.26" y2="559.25"/>
		<line class="st2" x1="229.89" y1="543.11" x2="229.89" y2="553.68"/>
		<line class="st2" x1="221.53" y1="538.39" x2="221.53" y2="548.96"/>
		<line class="st2" x1="213.41" y1="533.81" x2="213.41" y2="544.37"/>
		<line class="st2" x1="205.05" y1="528.52" x2="205.05" y2="539.09"/>
	</g>
	<g class="st17">
		<polygon class="st2" points="252.99,583.82 253.08,594.34 344.57,541.07 344.57,530.47 		"/>
		<line class="st2" x1="261.3" y1="578.95" x2="261.3" y2="589.52"/>
		<line class="st2" x1="269.66" y1="574.66" x2="269.66" y2="585.23"/>
		<line class="st2" x1="278.02" y1="569.09" x2="278.02" y2="579.66"/>
		<line class="st2" x1="286.38" y1="564.37" x2="286.38" y2="574.94"/>
		<line class="st2" x1="294.6" y1="559.76" x2="294.6" y2="570.33"/>
		<line class="st2" x1="302.87" y1="554.5" x2="302.87" y2="565.07"/>
		<line class="st2" x1="311.23" y1="549.9" x2="311.23" y2="560.47"/>
		<line class="st2" x1="319.59" y1="544.61" x2="319.59" y2="555.18"/>
		<line class="st2" x1="336.31" y1="535.04" x2="336.31" y2="545.61"/>
		<line class="st2" x1="327.95" y1="540.33" x2="327.95" y2="550.9"/>
		<polygon class="st2" points="252.99,583.7 252.9,594.21 198.63,562.41 198.63,551.81 		"/>
		<line class="st2" x1="246.62" y1="579.95" x2="246.62" y2="590.52"/>
		<line class="st2" x1="238.26" y1="575.66" x2="238.26" y2="586.23"/>
		<line class="st2" x1="229.89" y1="570.09" x2="229.89" y2="580.66"/>
		<line class="st2" x1="221.53" y1="565.37" x2="221.53" y2="575.94"/>
		<line class="st2" x1="213.41" y1="560.79" x2="213.41" y2="571.35"/>
		<line class="st2" x1="205.05" y1="555.5" x2="205.05" y2="566.07"/>
	</g>
	<polygon class="st18" points="321.29,637.22 321.29,613.69 344.57,600.36 344.57,623.88 	"/>
	<g class="st17">
		<polygon class="st3" points="199.56,615.43 206.46,607.19 206.46,607.19 210.35,609.45 203.46,617.7 		"/>
		<polygon class="st4" points="195.66,613.17 202.56,604.92 206.46,607.19 199.56,615.43 		"/>
		<polygon class="st3" points="191.76,610.9 198.66,602.65 202.56,604.92 195.66,613.17 		"/>
		<polygon class="st3" points="215.35,624.5 222.3,616.25 226.22,618.52 219.27,626.77 		"/>
		<polygon class="st4" points="211.42,622.23 218.37,613.99 218.37,613.99 222.3,616.25 215.35,624.5 		"/>
		<polygon class="st3" points="207.49,619.97 214.44,611.72 214.44,611.72 218.37,613.99 211.42,622.23 		"/>
		<polygon class="st4" points="203.57,617.7 210.52,609.45 214.44,611.72 207.49,619.97 		"/>
	</g>
	<polygon class="st18" points="207.49,649.81 207.49,626.29 198.72,621.27 198.72,644.8 	"/>
	<path class="st19" d="M515.47,602.99v126.49c0,6.94,5.64,12.58,12.58,12.58c6.94,0,12.58-5.64,12.58-12.58V602.99H515.47z"/>
</g>
<g id="Calque_4" class="st14">
	<polygon class="st16" points="344.57,486.73 253.03,539.08 253.03,448.37 309.11,380.05 309.3,401.2 344.57,380.15 	"/>
	<polygon class="st20" points="343.57,498.82 254.03,550.28 254.23,528.86 343.57,479.49 	"/>
	<polygon class="st15" points="198.63,493.23 253.03,524.64 253.16,447.9 198.75,416.49 	"/>
	<polygon class="st21" points="199.61,499.61 251.92,527.55 251.92,507.42 199.75,480.14 	"/>
	<polygon class="st22" points="198.75,416.49 253.16,447.9 309.11,380.05 256.13,349.34 	"/>
	<polygon class="st22" points="309.3,401.2 344.57,380.15 289.22,350.08 274.23,359.83 309.11,380.05 	"/>
	<polygon class="st16" points="280.4,363.41 290.19,357.77 329.4,380.82 309.4,393.51 309.11,380.05 	"/>
	<polygon class="st15" points="290.44,362.64 324.76,382.99 329.4,380.85 290.44,357.84 	"/>
	<polygon class="st15" points="284.9,365.99 290.44,362.95 290.44,357.84 280.4,363.47 	"/>
	<g class="st17">
		<g>
			<polygon class="st3" points="244.36,357.26 253.81,362.77 253.86,376.55 244.36,370.9 			"/>
		</g>
		<g>
			<polygon class="st4" points="263.35,357.26 253.81,362.77 253.85,376.55 263.35,365.1 			"/>
		</g>
		<g>
			<polygon class="st4" points="263.06,357.02 253.72,351.82 244.65,357.02 253.81,362.36 			"/>
		</g>
		<g>
			<polygon class="st2" points="260.22,354.56 253.76,350.97 247.49,354.56 253.83,358.25 			"/>
		</g>
	</g>
	<g class="st17">
		<g>
			<polygon class="st3" points="270.82,373.45 277.99,377.63 278.03,388.08 270.82,383.8 			"/>
		</g>
		<g>
			<polygon class="st4" points="285.22,373.45 277.99,377.63 278.01,388.08 285.22,379.39 			"/>
		</g>
		<g>
			<polygon class="st4" points="285,373.26 277.92,369.32 271.04,373.26 277.99,377.31 			"/>
		</g>
		<g>
			<polygon class="st2" points="282.85,371.4 277.95,368.68 273.19,371.4 278,374.2 			"/>
		</g>
	</g>
	<g class="st17">
		<polygon class="st2" points="252.99,466.7 253.08,477.21 344.57,423.95 344.57,413.35 		"/>
		<line class="st2" x1="261.3" y1="461.82" x2="261.3" y2="472.39"/>
		<line class="st2" x1="269.66" y1="457.54" x2="269.66" y2="468.11"/>
		<line class="st2" x1="278.02" y1="451.96" x2="278.02" y2="462.53"/>
		<line class="st2" x1="286.38" y1="447.24" x2="286.38" y2="457.81"/>
		<line class="st2" x1="294.6" y1="442.64" x2="294.6" y2="453.21"/>
		<line class="st2" x1="302.87" y1="437.37" x2="302.87" y2="447.94"/>
		<line class="st2" x1="311.23" y1="432.77" x2="311.23" y2="443.34"/>
		<line class="st2" x1="319.59" y1="427.49" x2="319.59" y2="438.06"/>
		<line class="st2" x1="336.31" y1="417.92" x2="336.31" y2="428.49"/>
		<line class="st2" x1="327.95" y1="423.2" x2="327.95" y2="433.77"/>
		<polygon class="st2" points="252.99,466.57 252.9,477.09 198.63,445.28 198.63,434.68 		"/>
		<line class="st2" x1="246.62" y1="462.82" x2="246.62" y2="473.39"/>
		<line class="st2" x1="238.26" y1="458.54" x2="238.26" y2="469.11"/>
		<line class="st2" x1="229.89" y1="452.96" x2="229.89" y2="463.53"/>
		<line class="st2" x1="221.53" y1="448.24" x2="221.53" y2="458.81"/>
		<line class="st2" x1="213.41" y1="443.66" x2="213.41" y2="454.23"/>
		<line class="st2" x1="205.05" y1="438.38" x2="205.05" y2="448.94"/>
	</g>
	<g class="st17">
		<polygon class="st2" points="297.17,471.51 297.17,459.81 290.41,463.71 290.41,475.41 		"/>
	</g>
	<g class="st17">
		<polygon class="st2" points="311.07,463.71 311.07,452.01 304.31,455.91 304.31,467.61 		"/>
	</g>
	<g class="st17">
		<polygon class="st2" points="259.78,522.46 259.78,496.99 253.02,500.89 253.02,526.36 		"/>
	</g>
	<g class="st17">
		<polygon class="st2" points="266.53,518.6 266.53,493.13 259.78,497.03 259.78,522.5 		"/>
	</g>
	<g class="st17">
		<polygon class="st2" points="246.25,522.46 246.25,496.99 253,500.89 253,526.36 		"/>
	</g>
	<g class="st17">
		<polygon class="st2" points="239.49,518.6 239.49,493.13 246.25,497.03 246.25,522.5 		"/>
	</g>
	<g class="st17">
		<polygon class="st2" points="232.87,514.74 232.87,489.27 239.63,493.17 239.63,518.64 		"/>
	</g>
	<g class="st17">
		<polygon class="st2" points="226.59,510.99 226.59,485.52 233.35,489.42 233.35,514.89 		"/>
	</g>
	<g class="st17">
		<polygon class="st2" points="219.83,507.16 219.83,481.69 226.59,485.59 226.59,511.06 		"/>
	</g>
	<g class="st17">
		<polygon class="st2" points="213.41,503.46 213.41,477.99 220.17,481.89 220.17,507.37 		"/>
	</g>
	<g class="st17">
		<polygon class="st2" points="206.65,499.64 206.65,474.17 213.41,478.07 213.41,503.54 		"/>
	</g>
	<g class="st17">
		<polygon class="st2" points="324.98,455.91 324.98,444.2 318.22,448.11 318.22,459.81 		"/>
	</g>
	<g class="st17">
		<polygon class="st2" points="338.88,448.11 338.88,436.4 332.12,440.3 332.12,452.01 		"/>
	</g>
	<g class="st17">
		<polygon class="st2" points="308.61,491.36 308.61,479.65 301.85,483.55 301.85,495.26 		"/>
	</g>
	<g class="st17">
		<polygon class="st2" points="336.42,475.75 336.42,464.05 329.66,467.95 329.66,479.65 		"/>
	</g>
	<path class="st19" d="M515.47,463.91v265.77c0,6.94,5.64,12.58,12.58,12.58c6.94,0,12.58-5.64,12.58-12.58V463.91H515.47z"/>
</g>
<g id="Calque_5" class="st14">
	<polygon class="st16" points="253.16,446.73 254.25,353.22 344.79,300.79 344.57,386.91 	"/>
	<polygon class="st20" points="343.59,397.05 254.21,455.27 254.36,427.03 343.54,377.74 	"/>
	<polygon class="st15" points="198.63,424.35 253.03,455.76 254.03,352.88 199.71,320.76 	"/>
	<polygon class="st21" points="199.61,430.73 251.92,458.67 251.92,438.55 199.75,411.26 	"/>
	<polygon class="st18" points="199.71,321.2 254.25,353.22 344.79,300.79 290.38,269.38 	"/>
	<polygon class="st18" points="214.01,308.28 290.37,264.64 330.47,287.8 254.27,331.92 	"/>
	<g class="st17">
		<polygon class="st2" points="252.99,432.68 253.08,443.19 344.57,389.93 344.57,379.33 		"/>
		<line class="st2" x1="261.3" y1="427.8" x2="261.3" y2="438.37"/>
		<line class="st2" x1="269.66" y1="423.52" x2="269.66" y2="434.09"/>
		<line class="st2" x1="278.02" y1="417.94" x2="278.02" y2="428.51"/>
		<line class="st2" x1="286.38" y1="413.22" x2="286.38" y2="423.79"/>
		<line class="st2" x1="294.6" y1="408.62" x2="294.6" y2="419.19"/>
		<line class="st2" x1="302.87" y1="403.35" x2="302.87" y2="413.92"/>
		<line class="st2" x1="311.23" y1="398.75" x2="311.23" y2="409.32"/>
		<line class="st2" x1="319.59" y1="393.47" x2="319.59" y2="404.04"/>
		<line class="st2" x1="336.31" y1="383.9" x2="336.31" y2="394.47"/>
		<line class="st2" x1="327.95" y1="389.18" x2="327.95" y2="399.75"/>
		<polygon class="st2" points="252.99,432.55 252.9,443.07 198.63,411.26 198.63,400.66 		"/>
		<line class="st2" x1="246.62" y1="428.8" x2="246.62" y2="439.37"/>
		<line class="st2" x1="238.26" y1="424.52" x2="238.26" y2="435.09"/>
		<line class="st2" x1="229.89" y1="418.94" x2="229.89" y2="429.51"/>
		<line class="st2" x1="221.53" y1="414.22" x2="221.53" y2="424.79"/>
		<line class="st2" x1="213.41" y1="409.64" x2="213.41" y2="420.21"/>
		<line class="st2" x1="205.05" y1="404.35" x2="205.05" y2="414.92"/>
	</g>
	<g class="st17">
		<g>
			<polygon class="st2" points="268.6,408.39 268.6,396.69 261.84,400.59 261.84,412.29 			"/>
		</g>
		<g>
			<polygon class="st2" points="282.5,400.59 282.5,388.89 275.74,392.79 275.74,404.49 			"/>
		</g>
		<g>
			<polygon class="st2" points="296.15,392.79 296.15,381.09 289.4,384.99 289.4,396.69 			"/>
		</g>
		<g>
			<polygon class="st2" points="310.06,384.99 310.06,373.29 303.3,377.19 303.3,388.89 			"/>
		</g>
		<g>
			<polygon class="st2" points="323.96,377.19 323.96,365.48 317.2,369.39 317.2,381.09 			"/>
		</g>
		<g>
			<polygon class="st2" points="337.86,369.39 337.86,357.68 331.11,361.58 331.11,373.29 			"/>
		</g>
	</g>
	<g class="st17">
		<polygon class="st2" points="267.5,372.75 267.5,361.04 260.75,364.94 260.75,376.65 		"/>
	</g>
	<g class="st17">
		<polygon class="st2" points="295.06,357.14 295.06,345.44 288.3,349.34 288.3,361.05 		"/>
	</g>
	<g class="st17">
		<polygon class="st2" points="308.96,349.34 308.96,337.64 302.2,341.54 302.2,353.24 		"/>
	</g>
	<g class="st17">
		<polygon class="st2" points="336.77,333.74 336.77,322.03 330.01,325.93 330.01,337.64 		"/>
	</g>
	<g class="st17">
		<g>
			<polygon class="st2" points="236.16,406.88 236.16,395.18 242.92,399.08 242.92,410.78 			"/>
		</g>
		<g>
			<polygon class="st2" points="222.26,399.08 222.26,387.38 229.02,391.28 229.02,402.98 			"/>
		</g>
		<g>
			<polygon class="st2" points="208.61,391.28 208.61,379.58 215.37,383.48 215.37,395.18 			"/>
		</g>
	</g>
	<polygon class="st16" points="254.27,331.92 254.03,342.03 330.47,297.35 330.47,287.8 	"/>
	<polygon class="st15" points="254.27,331.92 254.03,342.03 213.71,318.27 214.01,308.28 	"/>
	<g class="st17">
		<g>
			<polygon class="st3" points="279.04,263.95 288.49,269.45 288.54,283.24 279.04,277.59 			"/>
		</g>
		<g>
			<polygon class="st4" points="298.02,263.95 288.49,269.45 288.52,283.24 298.02,277.59 			"/>
		</g>
		<g>
			<polygon class="st4" points="297.74,263.7 288.39,258.51 279.32,263.7 288.49,269.04 			"/>
		</g>
		<g>
			<polygon class="st2" points="294.9,261.24 288.43,257.65 282.16,261.24 288.5,264.93 			"/>
		</g>
	</g>
	<g class="st17">
		<g>
			<polygon class="st3" points="260.22,266.22 269.67,271.72 269.72,292.51 260.22,286.86 			"/>
		</g>
		<g>
			<polygon class="st4" points="279.21,266.22 269.67,271.72 269.71,292.51 279.21,286.86 			"/>
		</g>
		<g>
			<polygon class="st4" points="278.92,265.97 269.58,260.78 260.51,265.97 269.67,271.31 			"/>
		</g>
		<g>
			<polygon class="st2" points="276.08,263.51 269.62,259.92 263.35,263.51 269.69,267.2 			"/>
		</g>
	</g>
	<g class="st17">
		<polygon class="st2" points="233.18,377.51 233.18,352.03 239.94,355.94 239.94,381.41 		"/>
	</g>
	<g class="st17">
		<polygon class="st2" points="226.43,373.68 226.43,348.21 233.18,352.11 233.18,377.58 		"/>
	</g>
	<g class="st17">
		<polygon class="st2" points="220,369.98 220,344.51 226.76,348.41 226.76,373.88 		"/>
	</g>
	<g class="st17">
		<polygon class="st2" points="213.24,366.15 213.24,340.68 220,344.59 220,370.06 		"/>
	</g>
	<g class="st17">
		<polygon class="st2" points="282.55,373.16 282.55,347.69 275.8,351.59 275.8,377.07 		"/>
	</g>
	<g class="st17">
		<polygon class="st2" points="289.31,369.3 289.31,343.83 282.55,347.73 282.55,373.2 		"/>
	</g>
	<g class="st17">
		<polygon class="st2" points="295.93,365.44 295.93,339.97 289.17,343.87 289.17,369.34 		"/>
	</g>
	<g class="st17">
		<polygon class="st2" points="302.21,361.69 302.21,336.22 295.45,340.12 295.45,365.59 		"/>
	</g>
	<g class="st17">
		<polygon class="st2" points="308.97,357.87 308.97,332.4 302.21,336.3 302.21,361.77 		"/>
	</g>
	<g class="st17">
		<polygon class="st2" points="315.39,354.17 315.39,328.7 308.63,332.6 308.63,358.07 		"/>
	</g>
	<g class="st17">
		<polygon class="st2" points="322.15,350.34 322.15,324.87 315.39,328.77 315.39,354.24 		"/>
	</g>
	<path class="st19" d="M515.47,322.39v406.54c0,6.94,5.64,12.58,12.58,12.58c6.94,0,12.58-5.64,12.58-12.58V322.39H515.47z"/>
</g>
<g id="Calque_8" class="st14">
	<polygon class="st23" points="200.65,232.58 345.73,211.64 291.33,180.23 	"/>
	<polygon class="st15" points="200.65,232.58 200.73,245.5 345.81,224.54 345.73,211.64 	"/>
	<polygon class="st23" points="200.5,245.42 254.9,276.83 345.57,224.48 	"/>
	<g class="st17">
		<polygon class="st24" points="254.83,266.36 254.92,276.88 346.41,223.61 346.41,213.01 		"/>
		<line class="st24" x1="263.14" y1="261.49" x2="263.14" y2="272.06"/>
		<line class="st24" x1="271.5" y1="257.2" x2="271.5" y2="267.77"/>
		<line class="st24" x1="279.86" y1="251.62" x2="279.86" y2="262.19"/>
		<line class="st24" x1="288.22" y1="246.91" x2="288.22" y2="257.48"/>
		<line class="st24" x1="296.44" y1="242.3" x2="296.44" y2="252.87"/>
		<line class="st24" x1="304.7" y1="237.04" x2="304.7" y2="247.61"/>
		<line class="st24" x1="313.07" y1="232.44" x2="313.07" y2="243.01"/>
		<line class="st24" x1="321.43" y1="227.15" x2="321.43" y2="237.72"/>
		<line class="st24" x1="338.15" y1="218.58" x2="338.15" y2="228.15"/>
		<line class="st24" x1="329.79" y1="222.87" x2="329.79" y2="233.44"/>
		<polygon class="st24" points="254.83,266.24 254.74,276.75 200.47,244.94 200.47,234.34 		"/>
		<line class="st24" x1="248.45" y1="262.49" x2="248.45" y2="273.06"/>
		<line class="st24" x1="240.09" y1="258.2" x2="240.09" y2="268.77"/>
		<line class="st24" x1="231.73" y1="252.62" x2="231.73" y2="263.19"/>
		<line class="st24" x1="223.37" y1="247.91" x2="223.37" y2="258.48"/>
		<line class="st24" x1="215.25" y1="243.32" x2="215.25" y2="253.89"/>
		<line class="st24" x1="206.89" y1="238.04" x2="206.89" y2="248.61"/>
	</g>
	<g class="st17">
		<polygon class="st24" points="291.65,179.84 291.56,169.32 200.06,222.59 200.06,233.19 		"/>
		<line class="st24" x1="283.34" y1="184.71" x2="283.34" y2="174.15"/>
		<line class="st24" x1="274.98" y1="189" x2="274.98" y2="178.43"/>
		<line class="st24" x1="266.62" y1="194.58" x2="266.62" y2="184.01"/>
		<line class="st24" x1="258.26" y1="199.3" x2="258.26" y2="188.73"/>
		<line class="st24" x1="250.04" y1="203.9" x2="250.04" y2="193.33"/>
		<line class="st24" x1="241.77" y1="209.16" x2="241.77" y2="198.59"/>
		<line class="st24" x1="233.41" y1="213.77" x2="233.41" y2="203.2"/>
		<line class="st24" x1="225.05" y1="219.05" x2="225.05" y2="208.48"/>
		<line class="st24" x1="208.33" y1="227.62" x2="208.33" y2="218.05"/>
		<line class="st24" x1="216.69" y1="223.34" x2="216.69" y2="212.77"/>
		<polygon class="st24" points="291.65,179.97 291.74,169.45 346.01,201.26 346.01,211.86 		"/>
		<line class="st24" x1="298.02" y1="183.71" x2="298.02" y2="173.14"/>
		<line class="st24" x1="306.38" y1="188" x2="306.38" y2="177.43"/>
		<line class="st24" x1="314.74" y1="193.58" x2="314.74" y2="183.01"/>
		<line class="st24" x1="323.1" y1="198.29" x2="323.1" y2="187.72"/>
		<line class="st24" x1="331.23" y1="202.88" x2="331.23" y2="192.31"/>
		<line class="st24" x1="339.59" y1="208.16" x2="339.59" y2="197.59"/>
	</g>
	<polygon class="st16" points="254.18,350.48 255.27,276.96 345.81,224.54 344.79,300.79 	"/>
	<polygon class="st20" points="343.66,307.27 254.28,358.48 254.44,343.25 343.62,293.95 	"/>
	<polygon class="st15" points="199.65,328.1 254.06,359.51 255.06,276.62 200.73,244.5 	"/>
	<polygon class="st21" points="200.63,332.48 252.94,360.41 252.94,348.29 200.77,321.01 	"/>
	<g class="st17">
		<polygon class="st2" points="254.58,292.73 254.67,303.24 346.16,249.98 346.16,239.38 		"/>
		<line class="st2" x1="262.89" y1="287.85" x2="262.89" y2="298.42"/>
		<line class="st2" x1="271.25" y1="283.57" x2="271.25" y2="294.14"/>
		<line class="st2" x1="279.61" y1="277.99" x2="279.61" y2="288.56"/>
		<line class="st2" x1="287.97" y1="273.27" x2="287.97" y2="283.84"/>
		<line class="st2" x1="296.19" y1="268.67" x2="296.19" y2="279.24"/>
		<line class="st2" x1="304.46" y1="263.4" x2="304.46" y2="273.97"/>
		<line class="st2" x1="312.82" y1="258.8" x2="312.82" y2="269.37"/>
		<line class="st2" x1="321.18" y1="253.51" x2="321.18" y2="264.08"/>
		<line class="st2" x1="337.9" y1="243.94" x2="337.9" y2="254.51"/>
		<line class="st2" x1="329.54" y1="249.23" x2="329.54" y2="259.8"/>
		<polygon class="st2" points="254.58,292.6 254.49,303.12 200.22,271.31 200.22,260.71 		"/>
		<line class="st2" x1="248.21" y1="288.85" x2="248.21" y2="299.42"/>
		<line class="st2" x1="239.85" y1="284.57" x2="239.85" y2="295.14"/>
		<line class="st2" x1="231.48" y1="278.99" x2="231.48" y2="289.56"/>
		<line class="st2" x1="223.12" y1="274.27" x2="223.12" y2="284.84"/>
		<line class="st2" x1="215" y1="269.69" x2="215" y2="280.26"/>
		<line class="st2" x1="206.64" y1="264.4" x2="206.64" y2="274.97"/>
	</g>
	<g class="st17">
		<polygon class="st2" points="253.58,335.85 253.67,346.37 345.16,293.1 345.16,282.5 		"/>
		<line class="st2" x1="261.89" y1="330.97" x2="261.89" y2="341.54"/>
		<line class="st2" x1="270.25" y1="326.69" x2="270.25" y2="337.26"/>
		<line class="st2" x1="278.61" y1="321.11" x2="278.61" y2="331.68"/>
		<line class="st2" x1="286.97" y1="316.39" x2="286.97" y2="326.96"/>
		<line class="st2" x1="295.19" y1="311.79" x2="295.19" y2="322.36"/>
		<line class="st2" x1="303.46" y1="306.53" x2="303.46" y2="317.1"/>
		<line class="st2" x1="311.82" y1="301.92" x2="311.82" y2="312.49"/>
		<line class="st2" x1="320.18" y1="296.64" x2="320.18" y2="307.21"/>
		<line class="st2" x1="336.9" y1="287.07" x2="336.9" y2="297.64"/>
		<line class="st2" x1="328.54" y1="292.35" x2="328.54" y2="302.92"/>
		<polygon class="st2" points="253.58,335.72 253.49,346.24 199.22,314.43 199.22,303.83 		"/>
		<line class="st2" x1="247.21" y1="331.98" x2="247.21" y2="342.55"/>
		<line class="st2" x1="238.85" y1="327.69" x2="238.85" y2="338.26"/>
		<line class="st2" x1="230.48" y1="322.11" x2="230.48" y2="332.68"/>
		<line class="st2" x1="222.12" y1="317.4" x2="222.12" y2="327.97"/>
		<line class="st2" x1="214" y1="312.81" x2="214" y2="323.38"/>
		<line class="st2" x1="205.64" y1="307.53" x2="205.64" y2="318.1"/>
	</g>
	<g class="st17">
		<polygon class="st2" points="271.28,314.63 271.28,302.92 264.53,306.82 264.53,318.53 		"/>
	</g>
	<g class="st17">
		<polygon class="st2" points="285.19,306.82 285.19,295.12 278.43,299.02 278.43,310.73 		"/>
	</g>
	<g class="st17">
		<polygon class="st2" points="299.09,299.02 299.09,287.32 292.33,291.22 292.33,302.92 		"/>
	</g>
	<g class="st17">
		<g>
			<polygon class="st3" points="280.94,167.05 290.39,172.55 290.45,193.34 280.94,187.69 			"/>
		</g>
		<g>
			<polygon class="st4" points="299.93,167.05 290.39,172.55 290.43,193.34 299.93,187.69 			"/>
		</g>
		<g>
			<polygon class="st4" points="299.65,166.8 290.3,161.61 281.23,166.8 290.4,172.14 			"/>
		</g>
		<g>
			<polygon class="st2" points="296.8,164.34 290.34,160.75 284.07,164.34 290.41,168.03 			"/>
		</g>
	</g>
	<g class="st17">
		<g>
			<polygon class="st3" points="301.21,182.8 310.66,188.3 310.71,202.09 301.21,196.44 			"/>
		</g>
		<g>
			<polygon class="st4" points="320.2,182.8 310.66,188.3 310.7,202.09 320.2,196.44 			"/>
		</g>
		<g>
			<polygon class="st4" points="319.91,182.55 310.57,177.36 301.5,182.55 310.66,187.89 			"/>
		</g>
		<g>
			<polygon class="st2" points="317.07,180.09 310.61,176.5 304.34,180.09 310.68,183.78 			"/>
		</g>
	</g>
	<path class="st19" d="M528.03,743.15c-6.94,0-12.58-5.64-12.58-12.58V207.64c0-6.94,5.64-12.58,12.58-12.58
		c6.94,0,12.58,5.64,12.58,12.58v522.93C540.61,737.51,534.97,743.15,528.03,743.15z"/>
</g>
<g id="Calque_10">
	<line class="st25" x1="515.47" y1="322.39" x2="540.62" y2="322.39"/>
	<line class="st25" x1="515.47" y1="463.9" x2="540.62" y2="463.9"/>
	<line class="st25" x1="515.47" y1="602.9" x2="540.62" y2="602.9"/>
</g>
</svg>
