<?xml version="1.0" encoding="utf-8"?>
<!-- Generator: Adobe Illustrator 23.0.0, SVG Export Plug-In . SVG Version: 6.00 Build 0)  -->
<svg version="1.1" xmlns="http://www.w3.org/2000/svg" xmlns:xlink="http://www.w3.org/1999/xlink" x="0px" y="0px"
	 viewBox="0 0 447.78 566.14" style="enable-background:new 0 0 447.78 566.14;" xml:space="preserve">
<style type="text/css">
	.st0{display:none;}
	.st1{display:inline;}
	.st2{fill:none;stroke:#95D4EC;stroke-linecap:round;stroke-linejoin:round;}
	.st3{fill:#E8F6FE;stroke:#3272B8;stroke-width:2;stroke-linejoin:round;stroke-miterlimit:10;}
	.st4{fill:#B9E2FA;stroke:#3272B8;stroke-width:2;stroke-linejoin:round;stroke-miterlimit:10;}
	.st5{fill:#FFFFFF;stroke:#3272B8;stroke-width:2;stroke-linejoin:round;stroke-miterlimit:10;}
	.st6{fill:#FFFFFF;stroke:#3272B8;stroke-width:2;stroke-miterlimit:10;}
	.st7{fill:#B8E2FA;stroke:#3272B8;stroke-width:2;stroke-miterlimit:10;}
	.st8{fill:#E9F6FE;stroke:#3272B8;stroke-width:2;stroke-miterlimit:10;}
	.st9{fill:none;stroke:#FFFFFF;stroke-width:2;stroke-linejoin:round;stroke-miterlimit:10;}
	.st10{fill:#E9F6FE;}
	.st11{fill:#3272B8;}
	.st12{fill:#B8E2FA;}
	.st13{fill:#FFFFFF;}
	.st14{fill:#E9F6FE;stroke:#3272B8;stroke-width:2;stroke-linejoin:round;stroke-miterlimit:10;}
	.st15{fill:none;stroke:#E8F6FE;stroke-width:2;stroke-linejoin:round;stroke-miterlimit:10;}
	.st16{fill:#B9E2FA;}
	.st17{fill:#E8F5FE;stroke:#3272B8;stroke-width:2;stroke-linejoin:round;stroke-miterlimit:10;}
	.st18{display:inline;fill:#E9F6FE;stroke:#3272B8;stroke-width:2;stroke-linejoin:round;stroke-miterlimit:10;}
	.st19{display:inline;fill:#B9E2FA;stroke:#3272B8;stroke-width:2;stroke-linejoin:round;stroke-miterlimit:10;}
	.st20{fill:none;stroke:#3272B8;stroke-width:2;stroke-linejoin:round;stroke-miterlimit:10;}
	.st21{display:inline;fill:#FFFFFF;stroke:#3272B8;stroke-width:2;stroke-linejoin:round;stroke-miterlimit:10;}
	.st22{display:inline;fill:#FFFFFF;}
	.st23{display:inline;fill:#B9E2FA;}
	.st24{fill:none;stroke:#E9F6FE;stroke-width:2;stroke-miterlimit:10;}
</style>
<g id="Calque_1" class="st0">
	<g class="st1">
		<line class="st2" x1="-81.24" y1="-136.46" x2="-44.97" y2="-157.4"/>
		<line class="st2" x1="547.9" y1="687.45" x2="208.91" y2="491.74"/>
		<line class="st2" x1="-21.27" y1="687.45" x2="317.72" y2="491.74"/>
		<line class="st2" x1="15" y1="687.45" x2="353.99" y2="491.74"/>
		<line class="st2" x1="51.27" y1="687.45" x2="390.26" y2="491.74"/>
		<line class="st2" x1="87.54" y1="687.45" x2="426.53" y2="491.74"/>
		<line class="st2" x1="123.8" y1="687.45" x2="462.8" y2="491.74"/>
		<line class="st2" x1="160.07" y1="687.45" x2="499.06" y2="491.74"/>
		<line class="st2" x1="196.34" y1="687.45" x2="535.33" y2="491.74"/>
		<line class="st2" x1="232.61" y1="687.45" x2="571.6" y2="491.74"/>
		<line class="st2" x1="450.22" y1="687.45" x2="571.6" y2="617.38"/>
		<line class="st2" x1="486.49" y1="687.45" x2="571.6" y2="638.32"/>
		<line class="st2" x1="522.76" y1="687.45" x2="571.6" y2="659.26"/>
		<line class="st2" x1="559.03" y1="687.45" x2="571.6" y2="680.2"/>
		<line class="st2" x1="148.95" y1="687.45" x2="-81.24" y2="554.56"/>
		<line class="st2" x1="185.21" y1="687.45" x2="-81.24" y2="533.62"/>
		<line class="st2" x1="221.48" y1="687.45" x2="-81.24" y2="512.68"/>
		<line class="st2" x1="257.75" y1="687.45" x2="-81.24" y2="491.74"/>
		<line class="st2" x1="112.68" y1="687.45" x2="-81.24" y2="575.5"/>
		<line class="st2" x1="76.41" y1="687.45" x2="-81.24" y2="596.44"/>
		<line class="st2" x1="3.87" y1="687.45" x2="-81.24" y2="638.32"/>
		<line class="st2" x1="-32.4" y1="687.45" x2="-81.24" y2="659.26"/>
		<line class="st2" x1="-68.67" y1="687.45" x2="-81.24" y2="680.2"/>
		<line class="st2" x1="439.1" y1="687.45" x2="100.11" y2="491.74"/>
		<line class="st2" x1="475.37" y1="687.45" x2="136.38" y2="491.74"/>
		<line class="st2" x1="511.63" y1="687.45" x2="172.64" y2="491.74"/>
		<line class="st2" x1="305.15" y1="687.45" x2="571.6" y2="533.62"/>
		<line class="st2" x1="341.42" y1="687.45" x2="571.6" y2="554.56"/>
		<line class="st2" x1="377.69" y1="687.45" x2="571.6" y2="575.5"/>
		<line class="st2" x1="413.96" y1="687.45" x2="571.6" y2="596.44"/>
		<line class="st2" x1="294.02" y1="687.45" x2="-44.97" y2="491.74"/>
		<line class="st2" x1="330.29" y1="687.45" x2="-8.7" y2="491.74"/>
		<line class="st2" x1="366.56" y1="687.45" x2="27.57" y2="491.74"/>
		<line class="st2" x1="402.83" y1="687.45" x2="63.84" y2="491.74"/>
		<line class="st2" x1="268.88" y1="687.45" x2="571.6" y2="512.68"/>
		<line class="st2" x1="-63.1" y1="687.45" x2="-63.1" y2="491.74"/>
		<line class="st2" x1="-44.97" y1="687.45" x2="-44.97" y2="491.74"/>
		<line class="st2" x1="-26.83" y1="687.45" x2="-26.83" y2="491.74"/>
		<line class="st2" x1="-8.7" y1="687.45" x2="-8.7" y2="491.74"/>
		<line class="st2" x1="9.43" y1="687.45" x2="9.43" y2="491.74"/>
		<line class="st2" x1="27.57" y1="687.45" x2="27.57" y2="491.74"/>
		<line class="st2" x1="45.7" y1="687.45" x2="45.7" y2="491.74"/>
		<line class="st2" x1="63.84" y1="687.45" x2="63.84" y2="491.74"/>
		<line class="st2" x1="81.97" y1="687.45" x2="81.97" y2="491.74"/>
		<line class="st2" x1="100.11" y1="687.45" x2="100.11" y2="491.74"/>
		<line class="st2" x1="118.24" y1="687.45" x2="118.24" y2="491.74"/>
		<line class="st2" x1="136.38" y1="687.45" x2="136.38" y2="491.74"/>
		<line class="st2" x1="154.51" y1="687.45" x2="154.51" y2="491.74"/>
		<line class="st2" x1="172.64" y1="687.45" x2="172.64" y2="491.74"/>
		<line class="st2" x1="190.78" y1="687.45" x2="190.78" y2="491.74"/>
		<line class="st2" x1="208.91" y1="687.45" x2="208.91" y2="491.74"/>
		<line class="st2" x1="227.05" y1="687.45" x2="227.05" y2="491.74"/>
		<line class="st2" x1="245.18" y1="687.45" x2="245.18" y2="491.74"/>
		<line class="st2" x1="263.32" y1="687.45" x2="263.32" y2="491.74"/>
		<line class="st2" x1="281.45" y1="687.45" x2="281.45" y2="491.74"/>
		<line class="st2" x1="299.59" y1="687.45" x2="299.59" y2="491.74"/>
		<line class="st2" x1="317.72" y1="687.45" x2="317.72" y2="491.74"/>
		<line class="st2" x1="335.85" y1="687.45" x2="335.85" y2="491.74"/>
		<line class="st2" x1="353.99" y1="687.45" x2="353.99" y2="491.74"/>
		<line class="st2" x1="372.12" y1="687.45" x2="372.12" y2="491.74"/>
		<line class="st2" x1="390.26" y1="687.45" x2="390.26" y2="491.74"/>
		<line class="st2" x1="408.39" y1="687.45" x2="408.39" y2="491.74"/>
		<line class="st2" x1="426.53" y1="687.45" x2="426.53" y2="491.74"/>
		<line class="st2" x1="444.66" y1="687.45" x2="444.66" y2="491.74"/>
		<line class="st2" x1="462.8" y1="687.45" x2="462.8" y2="491.74"/>
		<line class="st2" x1="480.93" y1="687.45" x2="480.93" y2="491.74"/>
		<line class="st2" x1="499.06" y1="687.45" x2="499.06" y2="491.74"/>
		<line class="st2" x1="517.2" y1="687.45" x2="517.2" y2="491.74"/>
		<line class="st2" x1="535.33" y1="687.45" x2="535.33" y2="491.74"/>
		<line class="st2" x1="553.47" y1="687.45" x2="553.47" y2="491.74"/>
		<line class="st2" x1="40.14" y1="687.45" x2="-81.24" y2="617.38"/>
		<line class="st2" x1="-81.24" y1="512.68" x2="-44.97" y2="491.74"/>
		<line class="st2" x1="-81.24" y1="533.62" x2="-8.7" y2="491.74"/>
		<line class="st2" x1="-81.24" y1="554.56" x2="27.57" y2="491.74"/>
		<line class="st2" x1="-81.24" y1="575.5" x2="63.84" y2="491.74"/>
		<line class="st2" x1="-81.24" y1="596.44" x2="100.11" y2="491.74"/>
		<line class="st2" x1="-81.24" y1="617.38" x2="136.38" y2="491.74"/>
		<line class="st2" x1="-81.24" y1="638.32" x2="172.64" y2="491.74"/>
		<line class="st2" x1="-81.24" y1="659.26" x2="208.91" y2="491.74"/>
		<line class="st2" x1="-81.24" y1="680.2" x2="245.18" y2="491.74"/>
		<line class="st2" x1="571.6" y1="533.62" x2="499.06" y2="491.74"/>
		<line class="st2" x1="571.6" y1="680.2" x2="245.18" y2="491.74"/>
		<line class="st2" x1="571.6" y1="659.26" x2="281.45" y2="491.74"/>
		<line class="st2" x1="571.6" y1="638.32" x2="317.72" y2="491.74"/>
		<line class="st2" x1="571.6" y1="617.38" x2="353.99" y2="491.74"/>
		<line class="st2" x1="571.6" y1="596.44" x2="390.26" y2="491.74"/>
		<line class="st2" x1="571.6" y1="575.5" x2="426.53" y2="491.74"/>
		<line class="st2" x1="571.6" y1="554.56" x2="462.8" y2="491.74"/>
		<line class="st2" x1="571.6" y1="512.68" x2="535.33" y2="491.74"/>
		<line class="st2" x1="553.47" y1="491.74" x2="553.47" y2="-157.4"/>
		<line class="st2" x1="535.33" y1="491.74" x2="535.33" y2="-157.4"/>
		<line class="st2" x1="517.2" y1="491.74" x2="517.2" y2="-157.4"/>
		<line class="st2" x1="499.06" y1="491.74" x2="499.06" y2="-157.4"/>
		<line class="st2" x1="480.93" y1="491.74" x2="480.93" y2="-157.4"/>
		<line class="st2" x1="462.8" y1="491.74" x2="462.8" y2="-157.4"/>
		<line class="st2" x1="444.66" y1="491.74" x2="444.66" y2="-157.4"/>
		<line class="st2" x1="426.53" y1="491.74" x2="426.53" y2="-157.4"/>
		<line class="st2" x1="408.39" y1="491.74" x2="408.39" y2="-157.4"/>
		<line class="st2" x1="390.26" y1="491.74" x2="390.26" y2="-157.4"/>
		<line class="st2" x1="372.12" y1="491.74" x2="372.12" y2="-157.4"/>
		<line class="st2" x1="353.99" y1="491.74" x2="353.99" y2="-157.4"/>
		<line class="st2" x1="335.85" y1="491.74" x2="335.85" y2="-157.4"/>
		<line class="st2" x1="317.72" y1="491.74" x2="317.72" y2="-157.4"/>
		<line class="st2" x1="299.59" y1="491.74" x2="299.59" y2="-157.4"/>
		<line class="st2" x1="281.45" y1="491.74" x2="281.45" y2="-157.4"/>
		<line class="st2" x1="263.32" y1="491.74" x2="263.32" y2="-157.4"/>
		<line class="st2" x1="245.18" y1="491.74" x2="245.18" y2="-157.4"/>
		<line class="st2" x1="227.05" y1="491.74" x2="227.05" y2="-157.4"/>
		<line class="st2" x1="208.91" y1="491.74" x2="208.91" y2="-157.4"/>
		<line class="st2" x1="190.78" y1="491.74" x2="190.78" y2="-157.4"/>
		<line class="st2" x1="172.64" y1="491.74" x2="172.64" y2="-157.4"/>
		<line class="st2" x1="154.51" y1="491.74" x2="154.51" y2="-157.4"/>
		<line class="st2" x1="136.38" y1="491.74" x2="136.38" y2="-157.4"/>
		<line class="st2" x1="118.24" y1="491.74" x2="118.24" y2="-157.4"/>
		<line class="st2" x1="100.11" y1="491.74" x2="100.11" y2="-157.4"/>
		<line class="st2" x1="81.97" y1="491.74" x2="81.97" y2="-157.4"/>
		<line class="st2" x1="63.84" y1="491.74" x2="63.84" y2="-157.4"/>
		<line class="st2" x1="45.7" y1="491.74" x2="45.7" y2="-157.4"/>
		<line class="st2" x1="27.57" y1="491.74" x2="27.57" y2="-157.4"/>
		<line class="st2" x1="9.43" y1="491.74" x2="9.43" y2="-157.4"/>
		<line class="st2" x1="-8.7" y1="491.74" x2="-8.7" y2="-157.4"/>
		<line class="st2" x1="-26.83" y1="491.74" x2="-26.83" y2="-157.4"/>
		<line class="st2" x1="-44.97" y1="491.74" x2="-44.97" y2="-157.4"/>
		<line class="st2" x1="-63.1" y1="491.74" x2="-63.1" y2="-157.4"/>
		<line class="st2" x1="-81.24" y1="240.46" x2="571.6" y2="-136.46"/>
		<line class="st2" x1="-44.97" y1="491.74" x2="571.6" y2="135.76"/>
		<line class="st2" x1="-8.7" y1="491.74" x2="571.6" y2="156.7"/>
		<line class="st2" x1="27.57" y1="491.74" x2="571.6" y2="177.64"/>
		<line class="st2" x1="63.84" y1="491.74" x2="571.6" y2="198.58"/>
		<line class="st2" x1="100.11" y1="491.74" x2="571.6" y2="219.52"/>
		<line class="st2" x1="136.38" y1="491.74" x2="571.6" y2="240.46"/>
		<line class="st2" x1="172.64" y1="491.74" x2="571.6" y2="261.4"/>
		<line class="st2" x1="208.91" y1="491.74" x2="571.6" y2="282.34"/>
		<line class="st2" x1="245.18" y1="491.74" x2="571.6" y2="303.28"/>
		<line class="st2" x1="281.45" y1="491.74" x2="571.6" y2="324.22"/>
		<line class="st2" x1="317.72" y1="491.74" x2="571.6" y2="345.16"/>
		<line class="st2" x1="353.99" y1="491.74" x2="571.6" y2="366.1"/>
		<line class="st2" x1="390.26" y1="491.74" x2="571.6" y2="387.04"/>
		<line class="st2" x1="426.53" y1="491.74" x2="571.6" y2="407.98"/>
		<line class="st2" x1="462.8" y1="491.74" x2="571.6" y2="428.92"/>
		<line class="st2" x1="499.06" y1="491.74" x2="571.6" y2="449.86"/>
		<line class="st2" x1="535.33" y1="491.74" x2="571.6" y2="470.8"/>
		<line class="st2" x1="-44.97" y1="491.74" x2="-81.24" y2="470.8"/>
		<line class="st2" x1="-8.7" y1="491.74" x2="-81.24" y2="449.86"/>
		<line class="st2" x1="27.57" y1="491.74" x2="-81.24" y2="428.92"/>
		<line class="st2" x1="63.84" y1="491.74" x2="-81.24" y2="407.98"/>
		<line class="st2" x1="100.11" y1="491.74" x2="-81.24" y2="387.04"/>
		<line class="st2" x1="571.6" y1="135.76" x2="63.84" y2="-157.4"/>
		<line class="st2" x1="571.6" y1="156.7" x2="27.57" y2="-157.4"/>
		<line class="st2" x1="571.6" y1="177.64" x2="-8.7" y2="-157.4"/>
		<line class="st2" x1="571.6" y1="198.58" x2="-44.97" y2="-157.4"/>
		<line class="st2" x1="-81.24" y1="324.22" x2="571.6" y2="-52.7"/>
		<line class="st2" x1="-81.24" y1="303.28" x2="571.6" y2="-73.64"/>
		<line class="st2" x1="-81.24" y1="282.34" x2="571.6" y2="-94.58"/>
		<line class="st2" x1="-81.24" y1="261.4" x2="571.6" y2="-115.52"/>
		<line class="st2" x1="571.6" y1="-136.46" x2="535.33" y2="-157.4"/>
		<line class="st2" x1="571.6" y1="-94.58" x2="462.8" y2="-157.4"/>
		<line class="st2" x1="571.6" y1="-73.64" x2="426.53" y2="-157.4"/>
		<line class="st2" x1="571.6" y1="-52.7" x2="390.26" y2="-157.4"/>
		<line class="st2" x1="571.6" y1="-31.76" x2="353.99" y2="-157.4"/>
		<line class="st2" x1="571.6" y1="-10.82" x2="317.72" y2="-157.4"/>
		<line class="st2" x1="571.6" y1="10.12" x2="281.45" y2="-157.4"/>
		<line class="st2" x1="571.6" y1="31.06" x2="245.18" y2="-157.4"/>
		<line class="st2" x1="571.6" y1="52" x2="208.91" y2="-157.4"/>
		<line class="st2" x1="571.6" y1="72.94" x2="172.64" y2="-157.4"/>
		<line class="st2" x1="571.6" y1="93.88" x2="136.38" y2="-157.4"/>
		<line class="st2" x1="571.6" y1="114.82" x2="100.11" y2="-157.4"/>
		<line class="st2" x1="571.6" y1="-115.52" x2="499.06" y2="-157.4"/>
		<line class="st2" x1="136.38" y1="491.74" x2="-81.24" y2="366.1"/>
		<line class="st2" x1="172.64" y1="491.74" x2="-81.24" y2="345.16"/>
		<line class="st2" x1="208.91" y1="491.74" x2="-81.24" y2="324.22"/>
		<line class="st2" x1="245.18" y1="491.74" x2="-81.24" y2="303.28"/>
		<line class="st2" x1="281.45" y1="491.74" x2="-81.24" y2="282.34"/>
		<line class="st2" x1="317.72" y1="491.74" x2="-81.24" y2="261.4"/>
		<line class="st2" x1="353.99" y1="491.74" x2="-81.24" y2="240.46"/>
		<line class="st2" x1="390.26" y1="491.74" x2="-81.24" y2="219.52"/>
		<line class="st2" x1="426.53" y1="491.74" x2="-81.24" y2="198.58"/>
		<line class="st2" x1="462.8" y1="491.74" x2="-81.24" y2="177.64"/>
		<line class="st2" x1="499.06" y1="491.74" x2="-81.24" y2="156.7"/>
		<line class="st2" x1="535.33" y1="491.74" x2="-81.24" y2="135.76"/>
		<line class="st2" x1="571.6" y1="491.74" x2="-81.24" y2="114.82"/>
		<line class="st2" x1="571.6" y1="470.8" x2="-81.24" y2="93.88"/>
		<line class="st2" x1="571.6" y1="449.86" x2="-81.24" y2="72.94"/>
		<line class="st2" x1="571.6" y1="428.92" x2="-81.24" y2="52"/>
		<line class="st2" x1="571.6" y1="407.98" x2="-81.24" y2="31.06"/>
		<line class="st2" x1="571.6" y1="387.04" x2="-81.24" y2="10.12"/>
		<line class="st2" x1="571.6" y1="366.1" x2="-81.24" y2="-10.82"/>
		<line class="st2" x1="571.6" y1="345.16" x2="-81.24" y2="-31.76"/>
		<line class="st2" x1="571.6" y1="324.22" x2="-81.24" y2="-52.7"/>
		<line class="st2" x1="571.6" y1="303.28" x2="-81.24" y2="-73.64"/>
		<line class="st2" x1="571.6" y1="219.52" x2="-81.24" y2="-157.4"/>
		<line class="st2" x1="571.6" y1="240.46" x2="-81.24" y2="-136.46"/>
		<line class="st2" x1="571.6" y1="261.4" x2="-81.24" y2="-115.52"/>
		<line class="st2" x1="571.6" y1="282.34" x2="-81.24" y2="-94.58"/>
		<line class="st2" x1="-81.24" y1="407.98" x2="571.6" y2="31.06"/>
		<line class="st2" x1="-81.24" y1="387.04" x2="571.6" y2="10.12"/>
		<line class="st2" x1="-81.24" y1="366.1" x2="571.6" y2="-10.82"/>
		<line class="st2" x1="-81.24" y1="345.16" x2="571.6" y2="-31.76"/>
		<line class="st2" x1="-81.24" y1="428.92" x2="571.6" y2="52"/>
		<line class="st2" x1="-81.24" y1="449.86" x2="571.6" y2="72.94"/>
		<line class="st2" x1="-81.24" y1="470.8" x2="571.6" y2="93.88"/>
		<line class="st2" x1="-81.24" y1="491.74" x2="571.6" y2="114.82"/>
		<line class="st2" x1="-81.24" y1="219.52" x2="571.6" y2="-157.4"/>
		<line class="st2" x1="-81.24" y1="198.58" x2="535.33" y2="-157.4"/>
		<line class="st2" x1="-81.24" y1="177.64" x2="499.06" y2="-157.4"/>
		<line class="st2" x1="-81.24" y1="156.7" x2="462.8" y2="-157.4"/>
		<line class="st2" x1="-81.24" y1="135.76" x2="426.53" y2="-157.4"/>
		<line class="st2" x1="-81.24" y1="114.82" x2="390.26" y2="-157.4"/>
		<line class="st2" x1="-81.24" y1="93.88" x2="353.99" y2="-157.4"/>
		<line class="st2" x1="-81.24" y1="72.94" x2="317.72" y2="-157.4"/>
		<line class="st2" x1="-81.24" y1="52" x2="281.45" y2="-157.4"/>
		<line class="st2" x1="-81.24" y1="31.06" x2="245.18" y2="-157.4"/>
		<line class="st2" x1="-81.24" y1="10.12" x2="208.91" y2="-157.4"/>
		<line class="st2" x1="-81.24" y1="-10.82" x2="172.64" y2="-157.4"/>
		<line class="st2" x1="-81.24" y1="-31.76" x2="136.38" y2="-157.4"/>
		<line class="st2" x1="-81.24" y1="-52.7" x2="100.11" y2="-157.4"/>
		<line class="st2" x1="-81.24" y1="-73.64" x2="63.84" y2="-157.4"/>
		<line class="st2" x1="-81.24" y1="-94.58" x2="27.57" y2="-157.4"/>
		<line class="st2" x1="-81.24" y1="-115.52" x2="-8.7" y2="-157.4"/>
		<line class="st2" x1="-57.54" y1="687.45" x2="281.45" y2="491.74"/>
	</g>
</g>
<g id="Calque_9">
</g>
<g id="Calque_7">
	<polygon class="st3" points="4.2,424.66 223.33,551.77 441.28,426.79 235.12,294.66 	"/>
	<polygon class="st4" points="4.7,424.66 223.82,551.77 223.89,560.24 5.57,433.08 	"/>
	<polygon class="st5" points="442.39,426.66 223.26,551.77 223.19,560.24 441.52,434.08 	"/>
	<g>
		<polygon class="st6" points="224.68,152.31 289.29,115 353.91,152.31 353.91,390.39 289.29,427.69 224.68,390.39 		"/>
		<polygon class="st7" points="289.29,189.61 289.29,115 224.68,77.7 160.06,115 160.06,353.08 197.82,374.88 224.68,390.39 
			289.29,427.69 		"/>
		<polygon class="st8" points="289.29,115 289.29,115 224.68,77.7 160.06,115 224.68,152.31 289.29,189.61 353.91,152.31 		"/>
		<polygon class="st6" points="235.9,130.14 289.29,99.31 342.69,130.14 342.69,145.11 289.29,175.94 235.9,145.11 		"/>
		<polygon class="st7" points="289.29,160.96 289.29,99.31 235.9,68.48 182.51,99.31 182.51,114.28 213.71,132.3 235.9,145.11 
			289.29,175.94 		"/>
		<polygon class="st8" points="289.29,99.31 289.29,99.31 235.9,68.48 182.51,99.31 235.9,130.14 289.29,160.96 342.69,130.14 		"/>
		<polygon class="st8" points="289.29,283.89 224.68,246.58 160.06,209.27 160.06,222.69 224.68,260 289.29,297.31 353.91,260 
			353.91,246.58 		"/>
		<polygon class="st8" points="289.29,249.44 224.68,212.14 160.06,174.83 160.06,188.25 224.68,225.55 289.29,262.86 
			353.91,225.55 353.91,212.14 		"/>
		<polygon class="st8" points="289.29,215 224.68,177.69 160.06,140.38 160.06,153.8 224.68,191.11 289.29,228.41 353.91,191.11 
			353.91,177.69 		"/>
		<polygon class="st8" points="289.29,387.22 224.68,349.92 224.68,349.92 160.06,312.61 160.06,326.03 224.68,363.33 
			224.68,363.33 289.29,400.64 353.91,363.33 353.91,349.92 		"/>
		<polygon class="st8" points="289.29,352.78 224.68,315.47 160.06,278.16 160.06,291.58 224.68,328.89 289.29,366.2 353.91,328.89 
			353.91,315.47 		"/>
		<polygon class="st8" points="289.29,318.33 224.68,281.03 224.68,281.03 160.06,243.72 160.06,257.14 224.68,294.44 
			224.68,294.44 289.29,331.75 353.91,294.44 353.91,281.03 		"/>
		<line class="st8" x1="289.29" y1="189.61" x2="289.29" y2="427.69"/>
	</g>
	<polyline class="st9" points="135.39,373.3 153.52,362.83 171.66,373.3 153.52,383.77 	"/>
	<polyline class="st9" points="153.52,383.77 171.66,373.3 189.79,383.77 171.66,394.24 	"/>
	<polyline class="st9" points="171.66,394.24 189.79,383.77 207.93,394.24 189.79,404.71 	"/>
	<g>
		<polygon class="st10" points="129.02,360.92 101.39,344.97 73.76,360.92 101.39,376.88 		"/>
		<path class="st11" d="M129.02,360.92l-0.43,0.74l-27.21-15.71l-25.93,14.97l25.93,14.97l27.21-15.71L129.02,360.92l-0.43,0.74
			L129.02,360.92l0.43,0.74l-27.63,15.95c-0.26,0.15-0.59,0.15-0.85,0l-27.63-15.95c-0.26-0.15-0.43-0.43-0.43-0.74
			c0-0.3,0.16-0.58,0.43-0.74l27.63-15.95c0.26-0.15,0.59-0.15,0.85,0l27.63,15.95c0.26,0.15,0.43,0.43,0.43,0.74
			s-0.16,0.58-0.43,0.74L129.02,360.92z"/>
		<polygon class="st5" points="184.29,392.83 184.29,449.68 156.66,465.63 156.66,408.79 		"/>
		<path class="st11" d="M184.29,392.83h0.85v56.84c0,0.3-0.16,0.58-0.43,0.74l-27.63,15.95c-0.26,0.15-0.59,0.15-0.85,0
			c-0.26-0.15-0.43-0.43-0.43-0.74v-56.84c0-0.3,0.16-0.58,0.43-0.74l27.63-15.95c0.26-0.15,0.59-0.15,0.85,0
			c0.26,0.15,0.43,0.43,0.43,0.74H184.29l0.43,0.74l-27.21,15.71v54.88l25.93-14.97v-56.35H184.29l0.43,0.74L184.29,392.83z"/>
		<polygon class="st10" points="129.02,350.28 156.66,366.24 129.02,382.19 101.39,366.24 		"/>
		<path class="st11" d="M129.02,350.28l0.43-0.74l27.63,15.95c0.26,0.15,0.43,0.43,0.43,0.74s-0.16,0.58-0.43,0.74l-27.63,15.95
			c-0.26,0.15-0.59,0.15-0.85,0l-27.63-15.95c-0.26-0.15-0.43-0.43-0.43-0.74c0-0.3,0.16-0.58,0.43-0.74l27.63-15.95
			c0.26-0.15,0.59-0.15,0.85,0L129.02,350.28l0.43,0.74l-26.36,15.22l25.93,14.97l25.93-14.97l-26.36-15.22L129.02,350.28l0.43,0.74
			L129.02,350.28z"/>
		<polygon class="st10" points="156.66,376.88 156.66,366.24 129.02,382.19 129.02,392.83 		"/>
		<path class="st11" d="M156.66,376.88h-0.85v-9.17l-25.93,14.97v8.68l26.36-15.22L156.66,376.88h-0.85H156.66l0.43,0.74
			l-27.63,15.95c-0.26,0.15-0.59,0.15-0.85,0c-0.26-0.15-0.43-0.43-0.43-0.74v-10.64c0-0.3,0.16-0.58,0.43-0.74l27.63-15.95
			c0.26-0.15,0.59-0.15,0.85,0c0.26,0.15,0.43,0.43,0.43,0.74v10.64c0,0.3-0.16,0.58-0.43,0.74L156.66,376.88z"/>
		<polygon class="st7" points="101.39,376.88 101.39,366.24 129.02,382.19 129.02,392.83 156.66,408.79 156.66,465.63 
			129.02,449.68 101.39,433.72 73.76,417.77 73.76,360.92 		"/>
		<path class="st11" d="M101.39,376.88h-0.85v-10.64c0-0.3,0.16-0.58,0.43-0.74c0.26-0.15,0.59-0.15,0.85,0l27.63,15.95
			c0.26,0.15,0.43,0.43,0.43,0.74v10.15l27.21,15.71c0.26,0.15,0.43,0.43,0.43,0.74v56.84c0,0.3-0.16,0.58-0.43,0.74
			c-0.26,0.15-0.59,0.15-0.85,0l-27.63-15.95l-27.63-15.95L73.33,418.5c-0.26-0.15-0.43-0.43-0.43-0.74v-56.84
			c0-0.3,0.16-0.58,0.43-0.74c0.26-0.15,0.59-0.15,0.85,0l27.63,15.95L101.39,376.88h-0.85H101.39l-0.43,0.74L74.61,362.4v54.88
			l27.21,15.71l27.63,15.95l26.36,15.22v-54.88l-27.21-15.71c-0.26-0.15-0.43-0.43-0.43-0.74v-10.15l-25.93-14.97v9.17
			c0,0.3-0.16,0.58-0.43,0.74c-0.26,0.15-0.59,0.15-0.85,0L101.39,376.88z"/>
		<polygon class="st10" points="172.61,423.88 178.52,420.47 178.52,430.5 172.61,433.92 		"/>
		<path class="st11" d="M172.61,423.88l-0.43-0.74l5.91-3.41c0.26-0.15,0.59-0.15,0.85,0c0.26,0.15,0.43,0.43,0.43,0.74v10.03
			c0,0.3-0.16,0.58-0.43,0.74l-5.91,3.41c-0.26,0.15-0.59,0.15-0.85,0c-0.26-0.15-0.43-0.43-0.43-0.74v-10.03
			c0-0.3,0.16-0.58,0.43-0.74L172.61,423.88h0.85v8.56l4.21-2.43v-8.07l-4.63,2.67L172.61,423.88h0.85H172.61z"/>
		<polygon class="st10" points="172.61,439.24 178.52,435.83 178.52,445.86 172.61,449.27 		"/>
		<path class="st11" d="M172.61,439.24l-0.43-0.74l5.91-3.41c0.26-0.15,0.59-0.15,0.85,0c0.26,0.15,0.43,0.43,0.43,0.74v10.03
			c0,0.3-0.16,0.58-0.43,0.74l-5.91,3.41c-0.26,0.15-0.59,0.15-0.85,0c-0.26-0.15-0.43-0.43-0.43-0.74v-10.03
			c0-0.3,0.16-0.58,0.43-0.74L172.61,439.24h0.85v8.56l4.21-2.43v-8.07l-4.63,2.67L172.61,439.24h0.85H172.61z"/>
		<polygon class="st10" points="172.61,408.53 178.52,405.12 178.52,415.15 172.61,418.56 		"/>
		<path class="st11" d="M172.61,408.53l-0.43-0.74l5.91-3.41c0.26-0.15,0.59-0.15,0.85,0c0.26,0.15,0.43,0.43,0.43,0.74v10.03
			c0,0.3-0.16,0.58-0.43,0.74l-5.91,3.41c-0.26,0.15-0.59,0.15-0.85,0c-0.26-0.15-0.43-0.43-0.43-0.74v-10.03
			c0-0.3,0.16-0.58,0.43-0.74L172.61,408.53h0.85v8.56l4.21-2.43v-8.07l-4.63,2.67L172.61,408.53h0.85H172.61z"/>
		<polygon class="st10" points="162.43,414.41 168.34,410.99 168.34,421.03 162.43,424.44 		"/>
		<path class="st11" d="M162.43,414.41l-0.43-0.74l5.91-3.41c0.26-0.15,0.59-0.15,0.85,0c0.26,0.15,0.43,0.43,0.43,0.74v10.03
			c0,0.3-0.16,0.58-0.43,0.74l-5.91,3.41c-0.26,0.15-0.59,0.15-0.85,0c-0.26-0.15-0.43-0.43-0.43-0.74v-10.03
			c0-0.3,0.16-0.58,0.43-0.74L162.43,414.41h0.85v8.56l4.21-2.43v-8.07l-4.63,2.67L162.43,414.41h0.85H162.43z"/>
		<polygon class="st10" points="162.43,429.76 168.34,426.35 168.34,436.38 162.43,439.79 		"/>
		<path class="st11" d="M162.43,429.76l-0.43-0.74l5.91-3.41c0.26-0.15,0.59-0.15,0.85,0c0.26,0.15,0.43,0.43,0.43,0.74v10.03
			c0,0.3-0.16,0.58-0.43,0.74l-5.91,3.41c-0.26,0.15-0.59,0.15-0.85,0c-0.26-0.15-0.43-0.43-0.43-0.74v-10.03
			c0-0.3,0.16-0.58,0.43-0.74L162.43,429.76h0.85v8.56l4.21-2.43v-8.07l-4.63,2.67L162.43,429.76h0.85H162.43z"/>
		<polygon class="st10" points="162.43,445.11 168.34,441.7 168.34,451.73 162.43,455.15 		"/>
		<path class="st11" d="M162.43,445.11l-0.43-0.74l5.91-3.41c0.26-0.15,0.59-0.15,0.85,0c0.26,0.15,0.43,0.43,0.43,0.74v10.03
			c0,0.3-0.16,0.58-0.43,0.74l-5.91,3.41c-0.26,0.15-0.59,0.15-0.85,0c-0.26-0.15-0.43-0.43-0.43-0.74v-10.03
			c0-0.3,0.16-0.58,0.43-0.74L162.43,445.11h0.85v8.56l4.21-2.43v-8.07l-4.63,2.67L162.43,445.11h0.85H162.43z"/>
		<polygon class="st10" points="140.28,423.77 134.37,420.36 134.37,430.39 140.28,433.81 		"/>
		<path class="st11" d="M140.28,423.77l-0.43,0.74l-4.63-2.67v8.07l4.21,2.43v-8.56H140.28l-0.43,0.74L140.28,423.77h0.85v10.03
			c0,0.3-0.16,0.58-0.43,0.74c-0.26,0.15-0.59,0.15-0.85,0l-5.91-3.41c-0.26-0.15-0.43-0.43-0.43-0.74v-10.03
			c0-0.3,0.16-0.58,0.43-0.74c0.26-0.15,0.59-0.15,0.85,0l5.91,3.41c0.26,0.15,0.43,0.43,0.43,0.74H140.28z"/>
		<polygon class="st10" points="140.28,439.13 134.37,435.72 134.37,445.75 140.28,449.16 		"/>
		<path class="st11" d="M140.28,439.13l-0.43,0.74l-4.63-2.67v8.07l4.21,2.43v-8.56H140.28l-0.43,0.74L140.28,439.13h0.85v10.03
			c0,0.3-0.16,0.58-0.43,0.74c-0.26,0.15-0.59,0.15-0.85,0l-5.91-3.41c-0.26-0.15-0.43-0.43-0.43-0.74v-10.03
			c0-0.3,0.16-0.58,0.43-0.74c0.26-0.15,0.59-0.15,0.85,0l5.91,3.41c0.26,0.15,0.43,0.43,0.43,0.74H140.28z"/>
		<polygon class="st10" points="140.28,408.42 134.37,405.01 134.37,415.04 140.28,418.45 		"/>
		<path class="st11" d="M140.28,408.42l-0.43,0.74l-4.63-2.67v8.07l4.21,2.43v-8.56H140.28l-0.43,0.74L140.28,408.42h0.85v10.03
			c0,0.3-0.16,0.58-0.43,0.74c-0.26,0.15-0.59,0.15-0.85,0l-5.91-3.41c-0.26-0.15-0.43-0.43-0.43-0.74v-10.03
			c0-0.3,0.16-0.58,0.43-0.74c0.26-0.15,0.59-0.15,0.85,0l5.91,3.41c0.26,0.15,0.43,0.43,0.43,0.74H140.28z"/>
		<polygon class="st10" points="150.46,414.3 144.55,410.88 144.55,420.92 150.46,424.33 		"/>
		<path class="st11" d="M150.46,414.3l-0.43,0.74l-4.63-2.67v8.07l4.21,2.43v-8.56H150.46l-0.43,0.74L150.46,414.3h0.85v10.03
			c0,0.3-0.16,0.58-0.43,0.74c-0.26,0.15-0.59,0.15-0.85,0l-5.91-3.41c-0.26-0.15-0.43-0.43-0.43-0.74v-10.03
			c0-0.3,0.16-0.58,0.43-0.74c0.26-0.15,0.59-0.15,0.85,0l5.91,3.41c0.26,0.15,0.43,0.43,0.43,0.74H150.46z"/>
		<polygon class="st10" points="150.46,429.65 144.55,426.24 144.55,436.27 150.46,439.68 		"/>
		<path class="st11" d="M150.46,429.65l-0.43,0.74l-4.63-2.67v8.07l4.21,2.43v-8.56H150.46l-0.43,0.74L150.46,429.65h0.85v10.03
			c0,0.3-0.16,0.58-0.43,0.74c-0.26,0.15-0.59,0.15-0.85,0l-5.91-3.41c-0.26-0.15-0.43-0.43-0.43-0.74v-10.03
			c0-0.3,0.16-0.58,0.43-0.74c0.26-0.15,0.59-0.15,0.85,0l5.91,3.41c0.26,0.15,0.43,0.43,0.43,0.74H150.46z"/>
		<polygon class="st10" points="150.46,445 144.55,441.59 144.55,451.62 150.46,455.04 		"/>
		<path class="st11" d="M150.46,445l-0.43,0.74l-4.63-2.67v8.07l4.21,2.43V445H150.46l-0.43,0.74L150.46,445h0.85v10.03
			c0,0.3-0.16,0.58-0.43,0.74c-0.26,0.15-0.59,0.15-0.85,0l-5.91-3.41c-0.26-0.15-0.43-0.43-0.43-0.74v-10.03
			c0-0.3,0.16-0.58,0.43-0.74c0.26-0.15,0.59-0.15,0.85,0l5.91,3.41c0.26,0.15,0.43,0.43,0.43,0.74H150.46z"/>
		<polygon class="st10" points="113.07,392.45 107.16,389.04 107.16,399.07 113.07,402.48 		"/>
		<path class="st11" d="M113.07,392.45l-0.43,0.74l-4.63-2.67v8.07l4.21,2.43l0-8.56H113.07l-0.43,0.74L113.07,392.45h0.85v10.03
			c0,0.3-0.16,0.58-0.43,0.74c-0.26,0.15-0.59,0.15-0.85,0l-5.91-3.41c-0.26-0.15-0.43-0.43-0.43-0.74v-10.03
			c0-0.3,0.16-0.58,0.43-0.74c0.26-0.15,0.59-0.15,0.85,0l5.91,3.41c0.26,0.15,0.43,0.43,0.43,0.74H113.07z"/>
		<polygon class="st10" points="123.25,398.32 117.34,394.91 117.34,404.94 123.25,408.36 		"/>
		<path class="st11" d="M123.67,397.59c0.26,0.15,0.43,0.43,0.43,0.74h-0.85l-0.43,0.74l-4.63-2.67v8.07l4.21,2.43v-8.56h0.85
			l-0.43,0.74l0.43-0.74h0.85v10.03c0,0.3-0.16,0.58-0.43,0.74c-0.26,0.15-0.59,0.15-0.85,0l-5.91-3.41
			c-0.26-0.15-0.43-0.43-0.43-0.74v-10.03c0-0.3,0.16-0.58,0.43-0.74"/>
		<polygon class="st10" points="85.66,391.82 79.75,388.41 79.75,398.44 85.66,401.85 		"/>
		<path class="st11" d="M85.66,391.82l-0.43,0.74l-4.63-2.67v8.07l4.21,2.43v-8.56H85.66l-0.43,0.74L85.66,391.82h0.85v10.03
			c0,0.3-0.16,0.58-0.43,0.74c-0.26,0.15-0.59,0.15-0.85,0l-5.91-3.41c-0.26-0.15-0.43-0.43-0.43-0.74v-10.03
			c0-0.3,0.16-0.58,0.43-0.74c0.26-0.15,0.59-0.15,0.85,0l5.91,3.41c0.26,0.15,0.43,0.43,0.43,0.74H85.66z"/>
		<polygon class="st10" points="85.66,407.17 79.75,403.76 79.75,413.79 85.66,417.2 		"/>
		<path class="st11" d="M85.66,407.17l-0.43,0.74l-4.63-2.67v8.07l4.21,2.43v-8.56H85.66l-0.43,0.74L85.66,407.17h0.85v10.03
			c0,0.3-0.16,0.58-0.43,0.74c-0.26,0.15-0.59,0.15-0.85,0l-5.91-3.41c-0.26-0.15-0.43-0.43-0.43-0.74v-10.03
			c0-0.3,0.16-0.58,0.43-0.74c0.26-0.15,0.59-0.15,0.85,0l5.91,3.41c0.26,0.15,0.43,0.43,0.43,0.74H85.66z"/>
		<polygon class="st10" points="85.66,376.46 79.75,373.05 79.75,383.08 85.66,386.49 		"/>
		<path class="st11" d="M85.66,376.46l-0.43,0.74l-4.63-2.67v8.07l4.21,2.43v-8.56H85.66l-0.43,0.74L85.66,376.46h0.85v10.03
			c0,0.3-0.16,0.58-0.43,0.74c-0.26,0.15-0.59,0.15-0.85,0l-5.91-3.41c-0.26-0.15-0.43-0.43-0.43-0.74v-10.03
			c0-0.3,0.16-0.58,0.43-0.74c0.26-0.15,0.59-0.15,0.85,0l5.91,3.41c0.26,0.15,0.43,0.43,0.43,0.74H85.66z"/>
		<polygon class="st10" points="95.84,382.34 89.93,378.93 89.93,388.96 95.84,392.37 		"/>
		<path class="st11" d="M95.84,382.34l-0.43,0.74l-4.63-2.67v8.07l4.21,2.43v-8.56H95.84l-0.43,0.74L95.84,382.34h0.85v10.03
			c0,0.3-0.16,0.58-0.43,0.74c-0.26,0.15-0.59,0.15-0.85,0l-5.91-3.41c-0.26-0.15-0.43-0.43-0.43-0.74v-10.03
			c0-0.3,0.16-0.58,0.43-0.74c0.26-0.15,0.59-0.15,0.85,0l5.91,3.41c0.26,0.15,0.43,0.43,0.43,0.74H95.84z"/>
		<polygon class="st10" points="95.84,397.69 89.93,394.28 89.93,404.31 95.84,407.72 		"/>
		<path class="st11" d="M95.84,397.69l-0.43,0.74l-4.63-2.67v8.07l4.21,2.43v-8.56H95.84l-0.43,0.74L95.84,397.69h0.85v10.03
			c0,0.3-0.16,0.58-0.43,0.74c-0.26,0.15-0.59,0.15-0.85,0l-5.91-3.41c-0.26-0.15-0.43-0.43-0.43-0.74v-10.03
			c0-0.3,0.16-0.58,0.43-0.74c0.26-0.15,0.59-0.15,0.85,0l5.91,3.41c0.26,0.15,0.43,0.43,0.43,0.74H95.84z"/>
		<polygon class="st10" points="95.84,413.05 89.93,409.64 89.93,419.67 95.84,423.08 		"/>
		<path class="st11" d="M95.84,413.05l-0.43,0.74l-4.63-2.67v8.07l4.21,2.43v-8.56H95.84l-0.43,0.74L95.84,413.05h0.85v10.03
			c0,0.3-0.16,0.58-0.43,0.74c-0.26,0.15-0.59,0.15-0.85,0l-5.91-3.41c-0.26-0.15-0.43-0.43-0.43-0.74v-10.03
			c0-0.3,0.16-0.58,0.43-0.74c0.26-0.15,0.59-0.15,0.85,0l5.91,3.41c0.26,0.15,0.43,0.43,0.43,0.74H95.84z"/>
		<polygon class="st10" points="122.58,418.67 107.83,410.15 107.83,437.27 122.58,445.79 		"/>
		<path class="st11" d="M122.58,418.67l-0.43,0.74l-13.47-7.78v25.16l13.05,7.53v-25.65H122.58l-0.43,0.74L122.58,418.67h0.85v27.12
			c0,0.3-0.16,0.58-0.43,0.74c-0.26,0.15-0.59,0.15-0.85,0l-14.75-8.51c-0.26-0.15-0.43-0.43-0.43-0.74v-27.12
			c0-0.3,0.16-0.58,0.43-0.74c0.26-0.15,0.59-0.15,0.85,0l14.75,8.51c0.26,0.15,0.43,0.43,0.43,0.74H122.58z"/>
		<polygon class="st12" points="110.49,435.85 110.49,411.69 122.58,418.67 122.58,442.83 		"/>
		<path class="st11" d="M110.49,435.85h-0.85v-24.17c0-0.3,0.16-0.58,0.43-0.74c0.26-0.15,0.59-0.15,0.85,0l12.09,6.98
			c0.26,0.15,0.43,0.43,0.43,0.74v24.17c0,0.3-0.16,0.58-0.43,0.74c-0.26,0.15-0.59,0.15-0.85,0l-12.09-6.98
			c-0.26-0.15-0.43-0.43-0.43-0.74H110.49l0.43-0.74l10.81,6.24v-22.2l-10.39-6v22.69H110.49l0.43-0.74L110.49,435.85z"/>
		<polygon class="st10" points="184.29,392.83 156.66,376.88 129.02,392.83 156.66,408.79 		"/>
		<path class="st11" d="M184.29,392.83l-0.43,0.74l-27.21-15.71l-25.93,14.97l25.93,14.97l27.21-15.71L184.29,392.83l-0.43,0.74
			L184.29,392.83l0.43,0.74l-27.63,15.95c-0.26,0.15-0.59,0.15-0.85,0l-27.63-15.95c-0.26-0.15-0.43-0.43-0.43-0.74
			s0.16-0.58,0.43-0.74l27.63-15.95c0.26-0.15,0.59-0.15,0.85,0l27.63,15.95c0.26,0.15,0.43,0.43,0.43,0.74s-0.16,0.58-0.43,0.74
			L184.29,392.83z"/>
		<line class="st10" x1="110.49" y1="435.85" x2="107.83" y2="437.27"/>
		<path class="st11" d="M110.89,436.6l-2.66,1.42c-0.41,0.22-0.93,0.06-1.15-0.35c-0.22-0.41-0.06-0.93,0.35-1.15l2.66-1.42
			c0.41-0.22,0.93-0.06,1.15,0.35C111.47,435.87,111.31,436.38,110.89,436.6"/>
	</g>
	<polygon class="st4" points="299.63,413.31 315.34,422.93 315.34,400.52 299.39,391.41 	"/>
	<g>
		<polygon class="st12" points="347.98,338.32 333.29,351.34 333.29,411.79 362.68,428.76 362.68,368.31 		"/>
		<path class="st11" d="M347.98,338.32l-0.6-0.68l-14.69,13.02c-0.19,0.17-0.3,0.42-0.3,0.68v60.45c0,0.32,0.17,0.62,0.45,0.78
			l29.39,16.97c0.28,0.16,0.62,0.16,0.9,0c0.28-0.16,0.45-0.46,0.45-0.78v-60.45c0-0.14-0.03-0.27-0.09-0.4l-14.69-29.98
			c-0.12-0.25-0.36-0.43-0.64-0.49c-0.28-0.05-0.56,0.02-0.77,0.21L347.98,338.32l-0.81,0.4l14.6,29.8v58.68l-27.58-15.92v-59.52
			L348.58,339L347.98,338.32l-0.81,0.4L347.98,338.32z"/>
		<polygon class="st13" points="362.68,368.31 392.07,351.34 392.07,411.79 362.68,428.76 		"/>
		<path class="st11" d="M362.68,368.31l0.45,0.78l28.03-16.18v58.36l-27.58,15.92v-58.89H362.68l0.45,0.78L362.68,368.31h-0.9v60.45
			c0,0.32,0.17,0.62,0.45,0.78c0.28,0.16,0.62,0.16,0.9,0l29.39-16.97c0.28-0.16,0.45-0.46,0.45-0.78v-60.45
			c0-0.32-0.17-0.62-0.45-0.78c-0.28-0.16-0.62-0.16-0.9,0l-29.39,16.97c-0.28,0.16-0.45,0.46-0.45,0.78H362.68z"/>
		<polygon class="st10" points="362.68,368.31 347.98,338.32 377.37,321.36 392.07,351.34 		"/>
		<path class="st11" d="M362.68,368.31l0.81-0.4l-14.32-29.22l27.82-16.06l13.9,28.36l-28.66,16.55L362.68,368.31l0.81-0.4
			L362.68,368.31l0.45,0.78l29.39-16.97c0.41-0.24,0.57-0.75,0.36-1.18l-14.69-29.98c-0.11-0.23-0.31-0.39-0.55-0.47
			c-0.24-0.07-0.5-0.04-0.72,0.08l-29.39,16.97c-0.41,0.24-0.57,0.75-0.36,1.18l14.69,29.98c0.11,0.23,0.31,0.39,0.55,0.47
			c0.24,0.07,0.5,0.04,0.72-0.08L362.68,368.31z"/>
		<polygon class="st10" points="345.71,384.36 339.43,380.73 339.43,391.4 345.71,395.03 		"/>
		<path class="st11" d="M345.71,384.36l0.45-0.78l-6.28-3.63c-0.28-0.16-0.62-0.16-0.9,0c-0.28,0.16-0.45,0.46-0.45,0.78v10.67
			c0,0.32,0.17,0.62,0.45,0.78l6.28,3.63c0.28,0.16,0.62,0.16,0.9,0c0.28-0.16,0.45-0.46,0.45-0.78v-10.67
			c0-0.32-0.17-0.62-0.45-0.78L345.71,384.36h-0.9v9.1l-4.47-2.58v-8.58l4.93,2.84L345.71,384.36h-0.9H345.71z"/>
		<polygon class="st10" points="345.71,400.69 339.43,397.06 339.43,407.73 345.71,411.36 		"/>
		<path class="st11" d="M345.71,400.69l0.45-0.78l-6.28-3.63c-0.28-0.16-0.62-0.16-0.9,0c-0.28,0.16-0.45,0.46-0.45,0.78v10.67
			c0,0.32,0.17,0.62,0.45,0.78l6.28,3.63c0.28,0.16,0.62,0.16,0.9,0c0.28-0.16,0.45-0.46,0.45-0.78v-10.67
			c0-0.32-0.17-0.62-0.45-0.78L345.71,400.69h-0.9v9.1l-4.47-2.58v-8.58l4.93,2.84L345.71,400.69h-0.9H345.71z"/>
		<polygon class="st10" points="345.71,368.03 339.43,364.41 339.43,375.07 345.71,378.7 		"/>
		<path class="st11" d="M345.71,368.03l0.45-0.78l-6.28-3.63c-0.28-0.16-0.62-0.16-0.9,0c-0.28,0.16-0.45,0.46-0.45,0.78v10.67
			c0,0.32,0.17,0.62,0.45,0.78l6.28,3.63c0.28,0.16,0.62,0.16,0.9,0c0.28-0.16,0.45-0.46,0.45-0.78v-10.67
			c0-0.32-0.17-0.62-0.45-0.78L345.71,368.03h-0.9v9.1l-4.47-2.58v-8.58l4.93,2.84L345.71,368.03h-0.9H345.71z"/>
		<polygon class="st10" points="356.54,374.28 350.25,370.65 350.25,381.32 356.54,384.95 		"/>
		<path class="st11" d="M356.54,374.28l0.45-0.78l-6.28-3.63c-0.28-0.16-0.62-0.16-0.9,0c-0.28,0.16-0.45,0.46-0.45,0.78v10.67
			c0,0.32,0.17,0.62,0.45,0.78l6.28,3.63c0.28,0.16,0.62,0.16,0.9,0c0.28-0.16,0.45-0.46,0.45-0.78v-10.67
			c0-0.32-0.17-0.62-0.45-0.78L356.54,374.28h-0.9v9.1l-4.48-2.58v-8.58l4.93,2.84L356.54,374.28h-0.9H356.54z"/>
		<polygon class="st10" points="356.54,390.61 350.25,386.98 350.25,397.65 356.54,401.28 		"/>
		<path class="st11" d="M356.54,390.61l0.45-0.78l-6.28-3.63c-0.28-0.16-0.62-0.16-0.9,0c-0.28,0.16-0.45,0.46-0.45,0.78v10.67
			c0,0.32,0.17,0.62,0.45,0.78l6.28,3.63c0.28,0.16,0.62,0.16,0.9,0c0.28-0.16,0.45-0.46,0.45-0.78v-10.67
			c0-0.32-0.17-0.62-0.45-0.78L356.54,390.61h-0.9v9.1l-4.48-2.58v-8.58l4.93,2.84L356.54,390.61h-0.9H356.54z"/>
		<polygon class="st10" points="356.54,406.94 350.25,403.31 350.25,413.98 356.54,417.61 		"/>
		<path class="st11" d="M356.54,406.94l0.45-0.78l-6.28-3.63c-0.28-0.16-0.62-0.16-0.9,0c-0.28,0.16-0.45,0.46-0.45,0.78v10.67
			c0,0.32,0.17,0.62,0.45,0.78l6.28,3.63c0.28,0.16,0.62,0.16,0.9,0c0.28-0.16,0.45-0.46,0.45-0.78v-10.67
			c0-0.32-0.17-0.62-0.45-0.78L356.54,406.94h-0.9v9.1l-4.48-2.58v-8.58l4.93,2.84L356.54,406.94h-0.9H356.54z"/>
		<polygon class="st10" points="379.35,384.58 385.63,380.95 385.63,391.62 379.35,395.25 		"/>
		<path class="st11" d="M379.35,384.58l0.45,0.78l4.93-2.84v8.58l-4.48,2.58v-9.1H379.35l0.45,0.78L379.35,384.58h-0.9v10.67
			c0,0.32,0.17,0.62,0.45,0.78c0.28,0.16,0.62,0.16,0.9,0l6.28-3.63c0.28-0.16,0.45-0.46,0.45-0.78v-10.67
			c0-0.32-0.17-0.62-0.45-0.78c-0.28-0.16-0.62-0.16-0.9,0l-6.28,3.63c-0.28,0.16-0.45,0.46-0.45,0.78H379.35z"/>
		<polygon class="st10" points="379.35,400.91 385.63,397.28 385.63,407.95 379.35,411.58 		"/>
		<path class="st11" d="M379.35,400.91l0.45,0.78l4.93-2.84v8.58l-4.48,2.58v-9.1H379.35l0.45,0.78L379.35,400.91h-0.9v10.67
			c0,0.32,0.17,0.62,0.45,0.78c0.28,0.16,0.62,0.16,0.9,0l6.28-3.63c0.28-0.16,0.45-0.46,0.45-0.78v-10.67
			c0-0.32-0.17-0.62-0.45-0.78c-0.28-0.16-0.62-0.16-0.9,0l-6.28,3.63c-0.28,0.16-0.45,0.46-0.45,0.78H379.35z"/>
		<polygon class="st10" points="379.35,368.25 385.63,364.62 385.63,375.29 379.35,378.92 		"/>
		<path class="st11" d="M379.35,368.25l0.45,0.78l4.93-2.84v8.58l-4.48,2.58v-9.1H379.35l0.45,0.78L379.35,368.25h-0.9v10.67
			c0,0.32,0.17,0.62,0.45,0.78c0.28,0.16,0.62,0.16,0.9,0l6.28-3.63c0.28-0.16,0.45-0.46,0.45-0.78v-10.67
			c0-0.32-0.17-0.62-0.45-0.78c-0.28-0.16-0.62-0.16-0.9,0l-6.28,3.63c-0.28,0.16-0.45,0.46-0.45,0.78H379.35z"/>
		<polygon class="st10" points="368.53,374.5 374.81,370.87 374.81,381.54 368.53,385.17 		"/>
		<path class="st11" d="M368.53,374.5l0.45,0.78l4.93-2.84v8.58l-4.47,2.58l0-9.1H368.53l0.45,0.78L368.53,374.5h-0.9v10.67
			c0,0.32,0.17,0.62,0.45,0.78c0.28,0.16,0.62,0.16,0.9,0l6.28-3.63c0.28-0.16,0.45-0.46,0.45-0.78v-10.67
			c0-0.32-0.17-0.62-0.45-0.78c-0.28-0.16-0.62-0.16-0.9,0l-6.28,3.63c-0.28,0.16-0.45,0.46-0.45,0.78H368.53z"/>
		<polygon class="st10" points="368.53,390.83 374.81,387.2 374.81,397.87 368.53,401.5 		"/>
		<path class="st11" d="M368.53,390.83l0.45,0.78l4.93-2.84v8.58l-4.47,2.58v-9.1H368.53l0.45,0.78L368.53,390.83h-0.9v10.67
			c0,0.32,0.17,0.62,0.45,0.78c0.28,0.16,0.62,0.16,0.9,0l6.28-3.63c0.28-0.16,0.45-0.46,0.45-0.78V387.2
			c0-0.32-0.17-0.62-0.45-0.78c-0.28-0.16-0.62-0.16-0.9,0l-6.28,3.63c-0.28,0.16-0.45,0.46-0.45,0.78H368.53z"/>
		<polygon class="st10" points="368.53,407.16 374.81,403.53 374.81,414.2 368.53,417.82 		"/>
		<path class="st11" d="M368.53,407.16l0.45,0.78l4.93-2.84v8.58l-4.47,2.58l0-9.1H368.53l0.45,0.78L368.53,407.16h-0.9v10.67
			c0,0.32,0.17,0.62,0.45,0.78c0.28,0.16,0.62,0.16,0.9,0l6.28-3.63c0.28-0.16,0.45-0.46,0.45-0.78v-10.67
			c0-0.32-0.17-0.62-0.45-0.78c-0.28-0.16-0.62-0.16-0.9,0l-6.28,3.63c-0.28,0.16-0.45,0.46-0.45,0.78H368.53z"/>
	</g>
	<g>
		<polygon class="st12" points="376.63,354.73 361.93,367.75 361.93,428.2 391.32,445.17 391.32,384.71 		"/>
		<path class="st11" d="M376.63,354.73l-0.6-0.68l-14.69,13.02c-0.19,0.17-0.3,0.42-0.3,0.68v60.45c0,0.32,0.17,0.62,0.45,0.78
			l29.39,16.97c0.28,0.16,0.62,0.16,0.9,0c0.28-0.16,0.45-0.46,0.45-0.78v-60.45c0-0.14-0.03-0.27-0.09-0.4l-14.69-29.98
			c-0.12-0.25-0.36-0.43-0.64-0.49c-0.28-0.05-0.56,0.02-0.77,0.21L376.63,354.73l-0.81,0.4l14.6,29.8v58.68l-27.58-15.92v-59.52
			l14.39-12.75L376.63,354.73l-0.81,0.4L376.63,354.73z"/>
		<polygon class="st13" points="391.32,384.71 420.71,367.75 420.71,428.2 391.32,445.17 		"/>
		<path class="st11" d="M391.32,384.71l0.45,0.78l28.03-16.18v58.36l-27.58,15.92v-58.89H391.32l0.45,0.78L391.32,384.71h-0.9v60.45
			c0,0.32,0.17,0.62,0.45,0.78c0.28,0.16,0.62,0.16,0.9,0l29.39-16.97c0.28-0.16,0.45-0.46,0.45-0.78v-60.45
			c0-0.32-0.17-0.62-0.45-0.78c-0.28-0.16-0.62-0.16-0.9,0l-29.39,16.97c-0.28,0.16-0.45,0.46-0.45,0.78H391.32z"/>
		<polygon class="st10" points="391.32,384.71 376.63,354.73 406.02,337.76 420.71,367.75 		"/>
		<path class="st11" d="M391.32,384.71l0.81-0.4l-14.32-29.22l27.82-16.06l13.9,28.36l-28.66,16.55L391.32,384.71l0.81-0.4
			L391.32,384.71l0.45,0.78l29.39-16.97c0.41-0.24,0.57-0.75,0.36-1.18l-14.69-29.98c-0.11-0.23-0.31-0.39-0.55-0.47
			c-0.24-0.07-0.5-0.04-0.72,0.08l-29.39,16.97c-0.41,0.24-0.57,0.75-0.36,1.18l14.69,29.98c0.11,0.23,0.31,0.39,0.55,0.47
			c0.24,0.07,0.5,0.04,0.72-0.08L391.32,384.71z"/>
		<polygon class="st10" points="374.36,400.77 368.08,397.14 368.08,407.81 374.36,411.44 		"/>
		<path class="st11" d="M374.36,400.77l0.45-0.78l-6.28-3.63c-0.28-0.16-0.62-0.16-0.9,0c-0.28,0.16-0.45,0.46-0.45,0.78v10.67
			c0,0.32,0.17,0.62,0.45,0.78l6.28,3.63c0.28,0.16,0.62,0.16,0.9,0c0.28-0.16,0.45-0.46,0.45-0.78v-10.67
			c0-0.32-0.17-0.62-0.45-0.78L374.36,400.77h-0.9v9.1l-4.47-2.58v-8.58l4.93,2.84L374.36,400.77h-0.9H374.36z"/>
		<polygon class="st10" points="374.36,417.1 368.08,413.47 368.08,424.14 374.36,427.77 		"/>
		<path class="st11" d="M374.36,417.1l0.45-0.78l-6.28-3.63c-0.28-0.16-0.62-0.16-0.9,0c-0.28,0.16-0.45,0.46-0.45,0.78v10.67
			c0,0.32,0.17,0.62,0.45,0.78l6.28,3.63c0.28,0.16,0.62,0.16,0.9,0c0.28-0.16,0.45-0.46,0.45-0.78V417.1
			c0-0.32-0.17-0.62-0.45-0.78L374.36,417.1h-0.9v9.1l-4.47-2.58v-8.58l4.93,2.84L374.36,417.1h-0.9H374.36z"/>
		<polygon class="st10" points="374.36,384.44 368.08,380.81 368.08,391.48 374.36,395.11 		"/>
		<path class="st11" d="M374.36,384.44l0.45-0.78l-6.28-3.63c-0.28-0.16-0.62-0.16-0.9,0c-0.28,0.16-0.45,0.46-0.45,0.78v10.67
			c0,0.32,0.17,0.62,0.45,0.78l6.28,3.63c0.28,0.16,0.62,0.16,0.9,0c0.28-0.16,0.45-0.46,0.45-0.78v-10.67
			c0-0.32-0.17-0.62-0.45-0.78L374.36,384.44h-0.9v9.1l-4.47-2.58v-8.58l4.93,2.84L374.36,384.44h-0.9H374.36z"/>
		<polygon class="st10" points="385.18,390.69 378.9,387.06 378.9,397.73 385.18,401.36 		"/>
		<path class="st11" d="M385.18,390.69l0.45-0.78l-6.28-3.63c-0.28-0.16-0.62-0.16-0.9,0c-0.28,0.16-0.45,0.46-0.45,0.78v10.67
			c0,0.32,0.17,0.62,0.45,0.78l6.28,3.63c0.28,0.16,0.62,0.16,0.9,0c0.28-0.16,0.45-0.46,0.45-0.78v-10.67
			c0-0.32-0.17-0.62-0.45-0.78L385.18,390.69h-0.9v9.1l-4.48-2.58v-8.58l4.93,2.84L385.18,390.69h-0.9H385.18z"/>
		<polygon class="st10" points="385.18,407.02 378.9,403.39 378.9,414.06 385.18,417.69 		"/>
		<path class="st11" d="M385.18,407.02l0.45-0.78l-6.28-3.63c-0.28-0.16-0.62-0.16-0.9,0c-0.28,0.16-0.45,0.46-0.45,0.78v10.67
			c0,0.32,0.17,0.62,0.45,0.78l6.28,3.63c0.28,0.16,0.62,0.16,0.9,0c0.28-0.16,0.45-0.46,0.45-0.78v-10.67
			c0-0.32-0.17-0.62-0.45-0.78L385.18,407.02h-0.9v9.1l-4.48-2.58v-8.58l4.93,2.84L385.18,407.02h-0.9H385.18z"/>
		<polygon class="st10" points="385.18,423.35 378.9,419.72 378.9,430.39 385.18,434.02 		"/>
		<path class="st11" d="M385.18,423.35l0.45-0.78l-6.28-3.63c-0.28-0.16-0.62-0.16-0.9,0c-0.28,0.16-0.45,0.46-0.45,0.78v10.67
			c0,0.32,0.17,0.62,0.45,0.78l6.28,3.63c0.28,0.16,0.62,0.16,0.9,0c0.28-0.16,0.45-0.46,0.45-0.78v-10.67
			c0-0.32-0.17-0.62-0.45-0.78L385.18,423.35h-0.9v9.1l-4.48-2.58v-8.58l4.93,2.84L385.18,423.35h-0.9H385.18z"/>
		<polygon class="st10" points="408,400.99 414.28,397.36 414.28,408.03 408,411.66 		"/>
		<path class="st11" d="M408,400.99l0.45,0.78l4.93-2.84v8.58l-4.48,2.58l0-9.1H408l0.45,0.78L408,400.99h-0.9v10.67
			c0,0.32,0.17,0.62,0.45,0.78c0.28,0.16,0.62,0.16,0.9,0l6.28-3.63c0.28-0.16,0.45-0.46,0.45-0.78v-10.67
			c0-0.32-0.17-0.62-0.45-0.78c-0.28-0.16-0.62-0.16-0.9,0l-6.28,3.63c-0.28,0.16-0.45,0.46-0.45,0.78H408z"/>
		<polygon class="st10" points="408,417.32 414.28,413.69 414.28,424.36 408,427.98 		"/>
		<path class="st11" d="M408,417.32l0.45,0.78l4.93-2.84v8.58l-4.48,2.58v-9.1H408l0.45,0.78L408,417.32h-0.9v10.67
			c0,0.32,0.17,0.62,0.45,0.78c0.28,0.16,0.62,0.16,0.9,0l6.28-3.63c0.28-0.16,0.45-0.46,0.45-0.78v-10.67
			c0-0.32-0.17-0.62-0.45-0.78c-0.28-0.16-0.62-0.16-0.9,0l-6.28,3.63c-0.28,0.16-0.45,0.46-0.45,0.78H408z"/>
		<polygon class="st10" points="408,384.66 414.28,381.03 414.28,391.7 408,395.33 		"/>
		<path class="st11" d="M408,384.66l0.45,0.78l4.93-2.84v8.58l-4.48,2.58l0-9.1H408l0.45,0.78L408,384.66h-0.9v10.67
			c0,0.32,0.17,0.62,0.45,0.78c0.28,0.16,0.62,0.16,0.9,0l6.28-3.63c0.28-0.16,0.45-0.46,0.45-0.78v-10.67
			c0-0.32-0.17-0.62-0.45-0.78c-0.28-0.16-0.62-0.16-0.9,0l-6.28,3.63c-0.28,0.16-0.45,0.46-0.45,0.78H408z"/>
		<polygon class="st10" points="397.17,390.91 403.46,387.28 403.46,397.95 397.17,401.57 		"/>
		<path class="st11" d="M397.17,390.91l0.45,0.78l4.93-2.84v8.58l-4.47,2.58l0-9.1H397.17l0.45,0.78L397.17,390.91h-0.9v10.67
			c0,0.32,0.17,0.62,0.45,0.78c0.28,0.16,0.62,0.16,0.9,0l6.28-3.63c0.28-0.16,0.45-0.46,0.45-0.78v-10.67
			c0-0.32-0.17-0.62-0.45-0.78c-0.28-0.16-0.62-0.16-0.9,0l-6.28,3.63c-0.28,0.16-0.45,0.46-0.45,0.78H397.17z"/>
		<polygon class="st10" points="397.17,407.24 403.46,403.61 403.46,414.28 397.17,417.9 		"/>
		<path class="st11" d="M397.17,407.24l0.45,0.78l4.93-2.84v8.58l-4.47,2.58v-9.1H397.17l0.45,0.78L397.17,407.24h-0.9v10.67
			c0,0.32,0.17,0.62,0.45,0.78c0.28,0.16,0.62,0.16,0.9,0l6.28-3.63c0.28-0.16,0.45-0.46,0.45-0.78v-10.67
			c0-0.32-0.17-0.62-0.45-0.78c-0.28-0.16-0.62-0.16-0.9,0l-6.28,3.63c-0.28,0.16-0.45,0.46-0.45,0.78H397.17z"/>
		<polygon class="st10" points="397.17,423.56 403.46,419.94 403.46,430.6 397.17,434.23 		"/>
		<path class="st11" d="M397.17,423.56l0.45,0.78l4.93-2.84v8.58l-4.47,2.58l0-9.1H397.17l0.45,0.78L397.17,423.56h-0.9v10.67
			c0,0.32,0.17,0.62,0.45,0.78c0.28,0.16,0.62,0.16,0.9,0l6.28-3.63c0.28-0.16,0.45-0.46,0.45-0.78v-10.67
			c0-0.32-0.17-0.62-0.45-0.78c-0.28-0.16-0.62-0.16-0.9,0l-6.28,3.63c-0.28,0.16-0.45,0.46-0.45,0.78H397.17z"/>
	</g>
	<g>
		<g>
			<polygon class="st4" points="331.27,439.53 336.82,442.93 336.82,421.58 331.18,418.36 			"/>
			<polygon class="st5" points="342.37,439.53 336.82,442.93 336.82,421.58 342.46,418.36 			"/>
		</g>
		<polygon class="st4" points="311.73,407.59 337.51,423.38 337.51,386.6 311.34,371.66 		"/>
		<polygon class="st5" points="363.28,407.59 337.51,423.38 337.51,386.6 363.67,371.66 		"/>
		<polygon class="st14" points="363.67,371.66 337.51,386.6 311.34,371.66 338.98,357.16 		"/>
		<polygon class="st5" points="331.05,413.31 315.34,422.93 315.34,400.52 331.29,391.41 		"/>
		<polygon class="st14" points="331.29,391.41 315.34,400.52 299.39,391.41 316.23,382.58 		"/>
	</g>
	<g>
		<g>
			<polygon class="st4" points="342.32,473.06 345.34,474.91 345.34,463.3 342.27,461.55 			"/>
			<polygon class="st5" points="348.36,473.06 345.34,474.91 345.34,463.3 348.41,461.55 			"/>
		</g>
		<polygon class="st4" points="331.7,455.69 345.71,464.28 345.71,444.28 331.48,436.16 		"/>
		<polygon class="st5" points="359.73,455.69 345.71,464.28 345.71,444.28 359.94,436.16 		"/>
		<polygon class="st14" points="359.94,436.16 345.71,444.28 331.48,436.16 346.51,428.27 		"/>
	</g>
	<g>
		<g>
			<polygon class="st4" points="50.16,414.3 53.18,416.15 53.18,404.54 50.11,402.79 			"/>
			<polygon class="st5" points="56.2,414.3 53.18,416.15 53.18,404.54 56.24,402.79 			"/>
		</g>
		<polygon class="st4" points="39.54,396.93 53.55,405.52 53.55,385.52 39.32,377.4 		"/>
		<polygon class="st5" points="67.56,396.93 53.55,405.52 53.55,385.52 67.78,377.4 		"/>
		<polygon class="st14" points="67.78,377.4 53.55,385.52 39.32,377.4 54.35,369.51 		"/>
	</g>
</g>
<g id="Calque_6">
	<polygon class="st4" points="168.71,497.81 223.11,529.22 223.11,460.72 168.71,429.31 	"/>
	<polygon class="st5" points="314.65,476.87 223.11,529.22 223.11,460.72 314.65,378.01 	"/>
	<g>
		<polygon class="st5" points="267.53,503.38 267.53,457.58 249.84,467.79 249.84,513.59 		"/>
		<polygon class="st4" points="267.53,503.27 263.1,500.71 263.1,460.14 267.53,457.58 		"/>
		<polygon class="st4" points="263.1,500.71 249.84,508.49 249.84,513.59 267.53,503.27 		"/>
		<polygon class="st5" points="248.95,514.13 248.95,468.33 231.26,478.54 231.26,524.34 		"/>
		<polygon class="st4" points="248.95,508.87 231.26,519.24 231.26,524.34 248.95,514.02 		"/>
	</g>
	<g>
		<polygon class="st3" points="182.07,482.03 182.07,470.33 188.83,474.23 188.83,485.93 		"/>
	</g>
	<g>
		<polygon class="st3" points="209.88,496.34 209.88,484.63 216.63,488.53 216.63,500.24 		"/>
	</g>
	<polygon class="st5" points="286.24,454.58 279.29,446.33 275.36,448.6 282.31,456.85 	"/>
	<polygon class="st4" points="290.16,452.31 283.21,444.06 279.29,446.33 286.24,454.58 	"/>
	<polygon class="st5" points="294.09,450.05 287.14,441.8 283.21,444.06 290.16,452.31 	"/>
	<polygon class="st4" points="313.81,438.71 306.91,430.46 306.91,430.46 303.01,432.73 309.91,440.98 	"/>
	<polygon class="st5" points="317.71,436.44 310.81,428.2 306.91,430.46 313.81,438.71 	"/>
	<polygon class="st4" points="321.6,434.18 314.71,425.93 310.81,428.2 317.71,436.44 	"/>
	<polygon class="st4" points="298.02,447.78 291.07,439.53 287.14,441.8 294.09,450.05 	"/>
	<polygon class="st5" points="301.94,445.51 294.99,437.26 294.99,437.26 291.07,439.53 298.02,447.78 	"/>
	<polygon class="st4" points="305.87,443.24 298.92,435 298.92,435 294.99,437.26 301.94,445.51 	"/>
	<polygon class="st5" points="309.8,440.98 302.85,432.73 298.92,435 305.87,443.24 	"/>
	<polygon class="st3" points="291.37,480.78 291.37,457.25 314.65,443.91 314.65,467.44 	"/>
	<g>
		<polygon class="st4" points="169.64,458.99 176.54,450.74 176.54,450.74 180.44,453.01 173.54,461.26 		"/>
		<polygon class="st5" points="165.74,456.72 172.64,448.48 176.54,450.74 169.64,458.99 		"/>
		<polygon class="st4" points="161.84,454.46 168.74,446.21 172.64,448.48 165.74,456.72 		"/>
		<polygon class="st4" points="185.43,468.06 192.38,459.81 196.3,462.08 189.35,470.33 		"/>
		<polygon class="st5" points="181.5,465.79 188.45,457.54 188.45,457.54 192.38,459.81 185.43,468.06 		"/>
		<polygon class="st4" points="177.57,463.52 184.52,455.28 184.52,455.28 188.45,457.54 181.5,465.79 		"/>
		<polygon class="st5" points="173.65,461.26 180.6,453.01 184.52,455.28 177.57,463.52 		"/>
	</g>
	<polygon class="st3" points="177.57,493.37 177.57,469.85 168.8,464.83 168.8,488.36 	"/>
	<path class="st5" d="M255.24,343.33"/>
	<polygon class="st3" points="168.71,429.31 223.11,460.72 314.65,378.01 260.86,347.73 	"/>
	<polygon class="st5" points="180.33,428.11 261.21,356.51 301.88,379.4 221.6,451.94 	"/>
	<polygon class="st15" points="203.68,428.46 264.38,374.73 281.54,384.39 221.43,438.71 	"/>
	<polygon class="st4" points="261.21,356.51 301.88,379.4 298.01,382.8 261.25,362.17 	"/>
	<polygon class="st4" points="261.21,356.51 261.25,362.17 184.52,430.46 180.33,428.11 	"/>
	<g>
		<g>
			<polygon class="st4" points="253.86,357.74 263.31,363.25 263.36,377.03 253.86,371.38 			"/>
		</g>
		<g>
			<polygon class="st5" points="272.85,357.74 263.31,363.25 263.34,377.03 272.85,369.36 			"/>
		</g>
		<g>
			<polygon class="st5" points="272.56,357.49 263.21,352.3 254.14,357.49 263.31,362.83 			"/>
		</g>
		<g>
			<polygon class="st3" points="269.72,355.03 263.26,351.45 256.99,355.03 263.32,358.73 			"/>
		</g>
	</g>
	<g>
		<g>
			<polygon class="st4" points="271.88,354.13 281.33,359.63 281.38,387.4 271.88,381.75 			"/>
		</g>
		<g>
			<polygon class="st5" points="290.86,354.13 281.33,359.63 281.36,387.47 290.86,378.8 			"/>
		</g>
		<g>
			<polygon class="st5" points="290.58,353.88 281.23,348.69 272.16,353.88 281.33,359.22 			"/>
		</g>
		<g>
			<polygon class="st3" points="287.73,351.42 281.27,347.83 275,351.42 281.34,355.11 			"/>
		</g>
	</g>
</g>
<g id="Calque_3">
	<polygon class="st4" points="168.67,498.33 223.08,529.74 223.08,362.23 168.67,330.82 	"/>
	<polygon class="st5" points="314.61,477.39 223.08,529.74 223.08,362.23 255.2,343.86 255.39,365.01 314.61,330.82 	"/>
	<g>
		<polygon class="st5" points="267.49,503.9 267.49,458.1 249.8,468.32 249.8,514.12 		"/>
		<polygon class="st4" points="267.49,503.79 263.06,501.24 263.06,460.66 267.49,458.1 		"/>
		<polygon class="st4" points="263.06,501.24 249.8,509.01 249.8,514.12 267.49,503.79 		"/>
		<polygon class="st5" points="248.91,514.66 248.91,468.86 231.22,479.07 231.22,524.87 		"/>
		<polygon class="st4" points="248.91,509.39 231.22,519.76 231.22,524.87 248.91,514.55 		"/>
	</g>
	<polygon class="st3" points="255.2,343.86 223.08,362.23 168.67,330.82 199.8,312.92 	"/>
	<polygon class="st3" points="314.61,330.82 260.21,299.41 218.61,323.42 255.2,343.86 255.39,365.01 	"/>
	<polygon class="st5" points="225.28,327.15 259.44,307.69 299.51,330.82 255.31,356.35 255.2,343.86 	"/>
	<polygon class="st4" points="259.3,312.49 295.55,332.84 300.19,330.7 259.3,307.69 	"/>
	<polygon class="st4" points="229.78,329.66 259.3,312.8 259.3,307.69 225.28,327.15 	"/>
	<g>
		<g>
			<polygon class="st4" points="249.81,312.38 259.26,317.88 259.31,331.66 249.81,326.02 			"/>
		</g>
		<g>
			<polygon class="st5" points="268.8,312.38 259.26,317.88 259.3,331.66 268.8,326.02 			"/>
		</g>
		<g>
			<polygon class="st5" points="268.51,312.13 259.17,306.94 250.1,312.13 259.26,317.47 			"/>
		</g>
		<g>
			<polygon class="st3" points="265.67,309.67 259.21,306.08 252.94,309.67 259.28,313.36 			"/>
		</g>
	</g>
	<g>
		<polygon class="st3" points="238.95,453.46 238.95,441.76 232.19,445.66 232.19,457.37 		"/>
	</g>
	<g>
		<polygon class="st3" points="252.85,445.66 252.85,433.96 246.09,437.86 246.09,449.56 		"/>
	</g>
	<g>
		<polygon class="st3" points="266.75,437.86 266.75,426.16 259.99,430.06 259.99,441.76 		"/>
	</g>
	<g>
		<polygon class="st3" points="280.66,430.06 280.66,418.35 273.9,422.26 273.9,433.96 		"/>
	</g>
	<g>
		<polygon class="st3" points="206.46,381.15 206.46,369.44 213.22,373.34 213.22,385.05 		"/>
	</g>
	<g>
		<polygon class="st3" points="178.65,365.54 178.65,353.84 185.41,357.74 185.41,369.44 		"/>
	</g>
	<g>
		<polygon class="st3" points="182.03,482.55 182.03,470.85 188.79,474.75 188.79,486.46 		"/>
	</g>
	<g>
		<polygon class="st3" points="209.84,496.86 209.84,485.16 216.59,489.06 216.59,500.76 		"/>
	</g>
	<polygon class="st5" points="286.2,455.1 279.25,446.86 275.32,449.12 282.27,457.37 	"/>
	<polygon class="st4" points="290.12,452.84 283.17,444.59 279.25,446.86 286.2,455.1 	"/>
	<polygon class="st5" points="294.05,450.57 287.1,442.32 283.17,444.59 290.12,452.84 	"/>
	<polygon class="st4" points="313.77,439.24 306.87,430.99 306.87,430.99 302.97,433.25 309.87,441.5 	"/>
	<polygon class="st5" points="317.67,436.97 310.77,428.72 306.87,430.99 313.77,439.24 	"/>
	<polygon class="st4" points="321.57,434.7 314.67,426.45 310.77,428.72 317.67,436.97 	"/>
	<polygon class="st4" points="297.98,448.3 291.03,440.06 287.1,442.32 294.05,450.57 	"/>
	<polygon class="st5" points="301.9,446.04 294.95,437.79 294.95,437.79 291.03,440.06 297.98,448.3 	"/>
	<polygon class="st4" points="305.83,443.77 298.88,435.52 298.88,435.52 294.95,437.79 301.9,446.04 	"/>
	<polygon class="st5" points="309.76,441.5 302.81,433.25 298.88,435.52 305.83,443.77 	"/>
	<line class="st3" x1="223.08" y1="408.31" x2="223.08" y2="418.88"/>
	<g>
		<polygon class="st3" points="223.03,400.93 223.12,411.44 314.61,358.18 314.61,347.58 		"/>
		<line class="st3" x1="231.34" y1="396.05" x2="231.34" y2="406.62"/>
		<line class="st3" x1="239.7" y1="391.77" x2="239.7" y2="402.34"/>
		<line class="st3" x1="248.06" y1="386.19" x2="248.06" y2="396.76"/>
		<line class="st3" x1="256.42" y1="381.47" x2="256.42" y2="392.04"/>
		<line class="st3" x1="264.64" y1="376.87" x2="264.64" y2="387.44"/>
		<line class="st3" x1="272.91" y1="371.6" x2="272.91" y2="382.17"/>
		<line class="st3" x1="281.27" y1="367" x2="281.27" y2="377.57"/>
		<line class="st3" x1="289.63" y1="361.71" x2="289.63" y2="372.28"/>
		<line class="st3" x1="306.35" y1="352.14" x2="306.35" y2="362.71"/>
		<line class="st3" x1="297.99" y1="357.43" x2="297.99" y2="368"/>
		<polygon class="st3" points="223.03,400.8 222.94,411.31 168.67,379.51 168.67,368.91 		"/>
		<line class="st3" x1="216.66" y1="397.05" x2="216.66" y2="407.62"/>
		<line class="st3" x1="208.3" y1="392.77" x2="208.3" y2="403.34"/>
		<line class="st3" x1="199.94" y1="387.19" x2="199.94" y2="397.76"/>
		<line class="st3" x1="191.57" y1="382.47" x2="191.57" y2="393.04"/>
		<line class="st3" x1="183.45" y1="377.89" x2="183.45" y2="388.46"/>
		<line class="st3" x1="175.09" y1="372.6" x2="175.09" y2="383.17"/>
	</g>
	<g>
		<polygon class="st3" points="223.03,427.91 223.12,438.42 314.61,385.16 314.61,374.56 		"/>
		<line class="st3" x1="231.34" y1="423.03" x2="231.34" y2="433.6"/>
		<line class="st3" x1="239.7" y1="418.75" x2="239.7" y2="429.32"/>
		<line class="st3" x1="248.06" y1="413.17" x2="248.06" y2="423.74"/>
		<line class="st3" x1="256.42" y1="408.45" x2="256.42" y2="419.02"/>
		<line class="st3" x1="264.64" y1="403.85" x2="264.64" y2="414.42"/>
		<line class="st3" x1="272.91" y1="398.58" x2="272.91" y2="409.15"/>
		<line class="st3" x1="281.27" y1="393.98" x2="281.27" y2="404.55"/>
		<line class="st3" x1="289.63" y1="388.69" x2="289.63" y2="399.26"/>
		<line class="st3" x1="306.35" y1="379.12" x2="306.35" y2="389.69"/>
		<line class="st3" x1="297.99" y1="384.41" x2="297.99" y2="394.98"/>
		<polygon class="st3" points="223.03,427.78 222.94,438.29 168.67,406.49 168.67,395.89 		"/>
		<line class="st3" x1="216.66" y1="424.03" x2="216.66" y2="434.6"/>
		<line class="st3" x1="208.3" y1="419.75" x2="208.3" y2="430.32"/>
		<line class="st3" x1="199.94" y1="414.17" x2="199.94" y2="424.74"/>
		<line class="st3" x1="191.57" y1="409.45" x2="191.57" y2="420.02"/>
		<line class="st3" x1="183.45" y1="404.87" x2="183.45" y2="415.44"/>
		<line class="st3" x1="175.09" y1="399.58" x2="175.09" y2="410.15"/>
	</g>
	<polygon class="st3" points="291.33,481.3 291.33,457.78 314.61,444.44 314.61,467.96 	"/>
	<g>
		<polygon class="st4" points="169.6,459.52 176.5,451.27 176.5,451.27 180.4,453.53 173.5,461.78 		"/>
		<polygon class="st5" points="165.7,457.25 172.6,449 176.5,451.27 169.6,459.52 		"/>
		<polygon class="st4" points="161.8,454.98 168.7,446.73 172.6,449 165.7,457.25 		"/>
		<polygon class="st4" points="185.39,468.58 192.34,460.34 196.26,462.6 189.31,470.85 		"/>
		<polygon class="st5" points="181.46,466.32 188.41,458.07 188.41,458.07 192.34,460.34 185.39,468.58 		"/>
		<polygon class="st4" points="177.53,464.05 184.48,455.8 184.48,455.8 188.41,458.07 181.46,466.32 		"/>
		<polygon class="st5" points="173.61,461.78 180.56,453.53 184.48,455.8 177.53,464.05 		"/>
	</g>
	<polygon class="st3" points="177.53,493.9 177.53,470.37 168.76,465.36 168.76,488.88 	"/>
</g>
<g id="Calque_4">
	<polygon class="st5" points="314.61,330.82 223.08,383.17 223.08,292.45 279.15,224.13 279.34,245.28 314.61,224.24 	"/>
	<polygon class="st13" points="313.61,342.9 224.08,394.36 224.27,372.94 313.61,323.58 	"/>
	<polygon class="st4" points="168.67,337.31 223.08,368.72 223.2,291.98 168.79,260.57 	"/>
	<polygon class="st16" points="169.65,343.69 221.96,371.63 221.96,351.51 169.79,324.22 	"/>
	<polygon class="st17" points="168.79,260.57 223.2,291.98 279.15,224.13 226.17,193.42 	"/>
	<polygon class="st17" points="279.34,245.28 314.61,224.24 259.26,194.16 244.27,203.91 279.15,224.13 	"/>
	<polygon class="st5" points="250.44,207.49 260.23,201.85 299.44,224.9 279.44,237.6 279.15,224.13 	"/>
	<polygon class="st4" points="260.48,206.72 294.8,227.07 299.44,224.93 260.48,201.92 	"/>
	<polygon class="st4" points="254.94,210.07 260.48,207.03 260.48,201.92 250.44,207.55 	"/>
	<g>
		<g>
			<polygon class="st4" points="214.4,201.35 223.85,206.85 223.91,220.64 214.4,214.99 			"/>
		</g>
		<g>
			<polygon class="st5" points="233.39,201.35 223.85,206.85 223.89,220.64 233.39,209.18 			"/>
		</g>
		<g>
			<polygon class="st5" points="233.11,201.1 223.76,195.91 214.69,201.1 223.86,206.44 			"/>
		</g>
		<g>
			<polygon class="st3" points="230.26,198.64 223.8,195.05 217.53,198.64 223.87,202.33 			"/>
		</g>
	</g>
	<g>
		<g>
			<polygon class="st4" points="240.86,217.53 248.03,221.71 248.07,232.16 240.86,227.88 			"/>
		</g>
		<g>
			<polygon class="st5" points="255.26,217.53 248.03,221.71 248.05,232.16 255.26,223.47 			"/>
		</g>
		<g>
			<polygon class="st5" points="255.05,217.34 247.96,213.41 241.08,217.34 248.03,221.39 			"/>
		</g>
		<g>
			<polygon class="st3" points="252.89,215.48 247.99,212.76 243.23,215.48 248.04,218.28 			"/>
		</g>
	</g>
	<g>
		<polygon class="st3" points="223.03,310.78 223.12,321.3 314.61,268.03 314.61,257.43 		"/>
		<line class="st3" x1="231.34" y1="305.91" x2="231.34" y2="316.47"/>
		<line class="st3" x1="239.7" y1="301.62" x2="239.7" y2="312.19"/>
		<line class="st3" x1="248.06" y1="296.04" x2="248.06" y2="306.61"/>
		<line class="st3" x1="256.42" y1="291.32" x2="256.42" y2="301.89"/>
		<line class="st3" x1="264.64" y1="286.72" x2="264.64" y2="297.29"/>
		<line class="st3" x1="272.91" y1="281.46" x2="272.91" y2="292.03"/>
		<line class="st3" x1="281.27" y1="276.85" x2="281.27" y2="287.42"/>
		<line class="st3" x1="289.63" y1="271.57" x2="289.63" y2="282.14"/>
		<line class="st3" x1="306.35" y1="262" x2="306.35" y2="272.57"/>
		<line class="st3" x1="297.99" y1="267.28" x2="297.99" y2="277.85"/>
		<polygon class="st3" points="223.03,310.65 222.94,321.17 168.67,289.36 168.67,278.76 		"/>
		<line class="st3" x1="216.66" y1="306.91" x2="216.66" y2="317.48"/>
		<line class="st3" x1="208.3" y1="302.62" x2="208.3" y2="313.19"/>
		<line class="st3" x1="199.94" y1="297.04" x2="199.94" y2="307.61"/>
		<line class="st3" x1="191.57" y1="292.33" x2="191.57" y2="302.9"/>
		<line class="st3" x1="183.45" y1="287.74" x2="183.45" y2="298.31"/>
		<line class="st3" x1="175.09" y1="282.46" x2="175.09" y2="293.03"/>
	</g>
	<g>
		<polygon class="st3" points="267.21,315.59 267.21,303.89 260.45,307.79 260.45,319.5 		"/>
	</g>
	<g>
		<polygon class="st3" points="281.11,307.79 281.11,296.09 274.36,299.99 274.36,311.69 		"/>
	</g>
	<g>
		<polygon class="st3" points="229.82,366.54 229.82,341.07 223.06,344.97 223.06,370.44 		"/>
	</g>
	<g>
		<polygon class="st3" points="236.57,362.68 236.57,337.21 229.82,341.11 229.82,366.58 		"/>
	</g>
	<g>
		<polygon class="st3" points="216.29,366.54 216.29,341.07 223.04,344.97 223.04,370.44 		"/>
	</g>
	<g>
		<polygon class="st3" points="209.53,362.68 209.53,337.21 216.29,341.11 216.29,366.58 		"/>
	</g>
	<g>
		<polygon class="st3" points="202.91,358.82 202.91,333.35 209.67,337.25 209.67,362.72 		"/>
	</g>
	<g>
		<polygon class="st3" points="196.63,355.07 196.63,329.6 203.39,333.5 203.39,358.97 		"/>
	</g>
	<g>
		<polygon class="st3" points="189.88,351.24 189.88,325.77 196.63,329.67 196.63,355.14 		"/>
	</g>
	<g>
		<polygon class="st3" points="183.45,347.55 183.45,322.08 190.21,325.98 190.21,351.45 		"/>
	</g>
	<g>
		<polygon class="st3" points="176.69,343.72 176.69,318.25 183.45,322.15 183.45,347.62 		"/>
	</g>
	<g>
		<polygon class="st3" points="295.02,299.99 295.02,288.29 288.26,292.19 288.26,303.89 		"/>
	</g>
	<g>
		<polygon class="st3" points="308.92,292.19 308.92,280.48 302.16,284.39 302.16,296.09 		"/>
	</g>
	<g>
		<polygon class="st3" points="278.65,335.44 278.65,323.73 271.89,327.63 271.89,339.34 		"/>
	</g>
	<g>
		<polygon class="st3" points="306.46,319.83 306.46,308.13 299.7,312.03 299.7,323.73 		"/>
	</g>
</g>
<g id="Calque_5">
	<polygon class="st5" points="223.2,290.81 224.29,197.3 314.83,144.87 314.61,231 	"/>
	<polygon class="st13" points="313.63,241.13 224.25,299.35 224.4,271.12 313.58,221.82 	"/>
	<polygon class="st4" points="168.67,268.44 223.08,299.85 224.08,196.96 169.75,164.84 	"/>
	<polygon class="st16" points="169.65,274.82 221.96,302.75 221.96,282.63 169.79,255.34 	"/>
	<polygon class="st3" points="169.75,165.28 224.29,197.3 314.83,144.87 260.43,113.46 	"/>
	<polygon class="st3" points="184.05,152.36 260.41,108.73 300.51,131.88 224.31,176 	"/>
	<g>
		<polygon class="st3" points="223.03,276.76 223.12,287.27 314.61,234.01 314.61,223.41 		"/>
		<line class="st3" x1="231.34" y1="271.88" x2="231.34" y2="282.45"/>
		<line class="st3" x1="239.7" y1="267.6" x2="239.7" y2="278.17"/>
		<line class="st3" x1="248.06" y1="262.02" x2="248.06" y2="272.59"/>
		<line class="st3" x1="256.42" y1="257.3" x2="256.42" y2="267.87"/>
		<line class="st3" x1="264.64" y1="252.7" x2="264.64" y2="263.27"/>
		<line class="st3" x1="272.91" y1="247.44" x2="272.91" y2="258.01"/>
		<line class="st3" x1="281.27" y1="242.83" x2="281.27" y2="253.4"/>
		<line class="st3" x1="289.63" y1="237.55" x2="289.63" y2="248.12"/>
		<line class="st3" x1="306.35" y1="227.98" x2="306.35" y2="238.55"/>
		<line class="st3" x1="297.99" y1="233.26" x2="297.99" y2="243.83"/>
		<polygon class="st3" points="223.03,276.63 222.94,287.15 168.67,255.34 168.67,244.74 		"/>
		<line class="st3" x1="216.66" y1="272.88" x2="216.66" y2="283.45"/>
		<line class="st3" x1="208.3" y1="268.6" x2="208.3" y2="279.17"/>
		<line class="st3" x1="199.94" y1="263.02" x2="199.94" y2="273.59"/>
		<line class="st3" x1="191.57" y1="258.3" x2="191.57" y2="268.87"/>
		<line class="st3" x1="183.45" y1="253.72" x2="183.45" y2="264.29"/>
		<line class="st3" x1="175.09" y1="248.44" x2="175.09" y2="259.01"/>
	</g>
	<g>
		<g>
			<polygon class="st3" points="238.64,252.48 238.64,240.77 231.88,244.67 231.88,256.38 			"/>
		</g>
		<g>
			<polygon class="st3" points="252.54,244.67 252.54,232.97 245.78,236.87 245.78,248.57 			"/>
		</g>
		<g>
			<polygon class="st3" points="266.19,236.87 266.19,225.17 259.44,229.07 259.44,240.78 			"/>
		</g>
		<g>
			<polygon class="st3" points="280.1,229.07 280.1,217.37 273.34,221.27 273.34,232.97 			"/>
		</g>
		<g>
			<polygon class="st3" points="294,221.27 294,209.57 287.24,213.47 287.24,225.17 			"/>
		</g>
		<g>
			<polygon class="st3" points="307.9,213.47 307.9,201.76 301.15,205.67 301.15,217.37 			"/>
		</g>
	</g>
	<g>
		<polygon class="st3" points="237.54,216.83 237.54,205.12 230.79,209.03 230.79,220.73 		"/>
	</g>
	<g>
		<polygon class="st3" points="265.1,201.23 265.1,189.52 258.34,193.42 258.34,205.13 		"/>
	</g>
	<g>
		<polygon class="st3" points="279,193.42 279,181.72 272.25,185.62 272.25,197.33 		"/>
	</g>
	<g>
		<polygon class="st3" points="306.81,177.82 306.81,166.12 300.05,170.02 300.05,181.72 		"/>
	</g>
	<g>
		<g>
			<polygon class="st3" points="206.21,250.96 206.21,239.26 212.96,243.16 212.96,254.87 			"/>
		</g>
		<g>
			<polygon class="st3" points="192.3,243.16 192.3,231.46 199.06,235.36 199.06,247.06 			"/>
		</g>
		<g>
			<polygon class="st3" points="178.65,235.36 178.65,223.66 185.41,227.56 185.41,239.26 			"/>
		</g>
	</g>
	<polygon class="st5" points="224.31,176 224.08,186.12 300.51,141.43 300.51,131.88 	"/>
	<polygon class="st4" points="224.31,176 224.08,186.12 183.75,162.35 184.05,152.36 	"/>
	<g>
		<g>
			<polygon class="st4" points="249.08,108.03 258.53,113.53 258.58,127.32 249.08,121.67 			"/>
		</g>
		<g>
			<polygon class="st5" points="268.06,108.03 258.53,113.53 258.56,127.32 268.06,121.67 			"/>
		</g>
		<g>
			<polygon class="st5" points="267.78,107.78 258.43,102.59 249.36,107.78 258.53,113.12 			"/>
		</g>
		<g>
			<polygon class="st3" points="264.94,105.32 258.48,101.73 252.2,105.32 258.54,109.01 			"/>
		</g>
	</g>
	<g>
		<g>
			<polygon class="st4" points="230.26,110.3 239.71,115.8 239.76,136.59 230.26,130.94 			"/>
		</g>
		<g>
			<polygon class="st5" points="249.25,110.3 239.71,115.8 239.75,136.59 249.25,130.94 			"/>
		</g>
		<g>
			<polygon class="st5" points="248.96,110.05 239.62,104.86 230.55,110.05 239.72,115.39 			"/>
		</g>
		<g>
			<polygon class="st3" points="246.12,107.59 239.66,104 233.39,107.59 239.73,111.28 			"/>
		</g>
	</g>
	<g>
		<polygon class="st3" points="203.22,221.59 203.22,196.12 209.98,200.02 209.98,225.49 		"/>
	</g>
	<g>
		<polygon class="st3" points="196.47,217.76 196.47,192.29 203.22,196.19 203.22,221.66 		"/>
	</g>
	<g>
		<polygon class="st3" points="190.04,214.06 190.04,188.59 196.8,192.49 196.8,217.96 		"/>
	</g>
	<g>
		<polygon class="st3" points="183.28,210.24 183.28,184.77 190.04,188.67 190.04,214.14 		"/>
	</g>
	<g>
		<polygon class="st3" points="252.6,217.25 252.6,191.78 245.84,195.68 245.84,221.15 		"/>
	</g>
	<g>
		<polygon class="st3" points="259.35,213.38 259.35,187.91 252.6,191.81 252.6,217.29 		"/>
	</g>
	<g>
		<polygon class="st3" points="265.97,209.52 265.97,184.05 259.21,187.96 259.21,213.43 		"/>
	</g>
	<g>
		<polygon class="st3" points="272.25,205.78 272.25,180.3 265.49,184.21 265.49,209.68 		"/>
	</g>
	<g>
		<polygon class="st3" points="279.01,201.95 279.01,176.48 272.25,180.38 272.25,205.85 		"/>
	</g>
	<g>
		<polygon class="st3" points="285.43,198.25 285.43,172.78 278.67,176.68 278.67,202.15 		"/>
	</g>
	<g>
		<polygon class="st3" points="292.19,194.43 292.19,168.95 285.43,172.86 285.43,198.33 		"/>
	</g>
</g>
<g id="Calque_8" class="st0">
	<polygon class="st18" points="170.7,76.66 315.77,55.72 261.37,24.31 	"/>
	<polygon class="st19" points="170.7,76.66 170.78,89.58 315.85,68.62 315.77,55.72 	"/>
	<polygon class="st18" points="170.54,89.5 224.94,120.91 315.61,68.56 	"/>
	<g class="st1">
		<polygon class="st20" points="224.87,110.44 224.96,120.96 316.45,67.69 316.45,57.09 		"/>
		<line class="st20" x1="233.18" y1="105.57" x2="233.18" y2="116.14"/>
		<line class="st20" x1="241.54" y1="101.28" x2="241.54" y2="111.85"/>
		<line class="st20" x1="249.9" y1="95.71" x2="249.9" y2="106.28"/>
		<line class="st20" x1="258.26" y1="90.99" x2="258.26" y2="101.56"/>
		<line class="st20" x1="266.48" y1="86.38" x2="266.48" y2="96.95"/>
		<line class="st20" x1="274.75" y1="81.12" x2="274.75" y2="91.69"/>
		<line class="st20" x1="283.11" y1="76.52" x2="283.11" y2="87.09"/>
		<line class="st20" x1="291.47" y1="71.23" x2="291.47" y2="81.8"/>
		<line class="st20" x1="308.19" y1="62.66" x2="308.19" y2="72.23"/>
		<line class="st20" x1="299.83" y1="66.95" x2="299.83" y2="77.52"/>
		<polygon class="st20" points="224.87,110.32 224.78,120.83 170.51,89.03 170.51,78.43 		"/>
		<line class="st20" x1="218.5" y1="106.57" x2="218.5" y2="117.14"/>
		<line class="st20" x1="210.13" y1="102.28" x2="210.13" y2="112.85"/>
		<line class="st20" x1="201.77" y1="96.71" x2="201.77" y2="107.28"/>
		<line class="st20" x1="193.41" y1="91.99" x2="193.41" y2="102.56"/>
		<line class="st20" x1="185.29" y1="87.41" x2="185.29" y2="97.98"/>
		<line class="st20" x1="176.93" y1="82.12" x2="176.93" y2="92.69"/>
	</g>
	<g class="st1">
		<polygon class="st20" points="261.69,23.92 261.6,13.41 170.11,66.67 170.11,77.27 		"/>
		<line class="st20" x1="253.38" y1="28.8" x2="253.38" y2="18.23"/>
		<line class="st20" x1="245.02" y1="33.08" x2="245.02" y2="22.51"/>
		<line class="st20" x1="236.66" y1="38.66" x2="236.66" y2="28.09"/>
		<line class="st20" x1="228.3" y1="43.38" x2="228.3" y2="32.81"/>
		<line class="st20" x1="220.08" y1="47.98" x2="220.08" y2="37.41"/>
		<line class="st20" x1="211.81" y1="53.25" x2="211.81" y2="42.68"/>
		<line class="st20" x1="203.45" y1="57.85" x2="203.45" y2="47.28"/>
		<line class="st20" x1="195.09" y1="63.13" x2="195.09" y2="52.56"/>
		<line class="st20" x1="178.37" y1="71.7" x2="178.37" y2="62.13"/>
		<line class="st20" x1="186.73" y1="67.42" x2="186.73" y2="56.85"/>
		<polygon class="st20" points="261.69,24.05 261.78,13.53 316.05,45.34 316.05,55.94 		"/>
		<line class="st20" x1="268.06" y1="27.8" x2="268.06" y2="17.23"/>
		<line class="st20" x1="276.42" y1="32.08" x2="276.42" y2="21.51"/>
		<line class="st20" x1="284.78" y1="37.66" x2="284.78" y2="27.09"/>
		<line class="st20" x1="293.14" y1="42.38" x2="293.14" y2="31.81"/>
		<line class="st20" x1="301.27" y1="46.96" x2="301.27" y2="36.39"/>
		<line class="st20" x1="309.63" y1="52.25" x2="309.63" y2="41.68"/>
	</g>
	<polygon class="st21" points="224.22,194.56 225.31,121.04 315.85,68.62 314.83,144.87 	"/>
	<polygon class="st22" points="313.7,151.35 224.32,202.57 224.48,187.33 313.66,138.04 	"/>
	<polygon class="st19" points="169.69,172.18 224.1,203.59 225.1,120.71 170.78,88.58 	"/>
	<polygon class="st23" points="170.67,176.56 222.98,204.5 222.98,192.38 170.81,165.09 	"/>
	<g class="st1">
		<polygon class="st3" points="224.62,136.81 224.71,147.32 316.2,94.06 316.2,83.46 		"/>
		<line class="st3" x1="232.93" y1="131.93" x2="232.93" y2="142.5"/>
		<line class="st3" x1="241.29" y1="127.65" x2="241.29" y2="138.22"/>
		<line class="st3" x1="249.65" y1="122.07" x2="249.65" y2="132.64"/>
		<line class="st3" x1="258.01" y1="117.35" x2="258.01" y2="127.92"/>
		<line class="st3" x1="266.23" y1="112.75" x2="266.23" y2="123.32"/>
		<line class="st3" x1="274.5" y1="107.48" x2="274.5" y2="118.05"/>
		<line class="st3" x1="282.86" y1="102.88" x2="282.86" y2="113.45"/>
		<line class="st3" x1="291.22" y1="97.6" x2="291.22" y2="108.17"/>
		<line class="st3" x1="307.94" y1="88.03" x2="307.94" y2="98.6"/>
		<line class="st3" x1="299.58" y1="93.31" x2="299.58" y2="103.88"/>
		<polygon class="st3" points="224.62,136.68 224.53,147.2 170.26,115.39 170.26,104.79 		"/>
		<line class="st3" x1="218.25" y1="132.93" x2="218.25" y2="143.5"/>
		<line class="st3" x1="209.89" y1="128.65" x2="209.89" y2="139.22"/>
		<line class="st3" x1="201.53" y1="123.07" x2="201.53" y2="133.64"/>
		<line class="st3" x1="193.17" y1="118.35" x2="193.17" y2="128.92"/>
		<line class="st3" x1="185.04" y1="113.77" x2="185.04" y2="124.34"/>
		<line class="st3" x1="176.68" y1="108.49" x2="176.68" y2="119.05"/>
	</g>
	<g class="st1">
		<polygon class="st3" points="223.62,179.93 223.71,190.45 315.2,137.18 315.2,126.58 		"/>
		<line class="st3" x1="231.93" y1="175.06" x2="231.93" y2="185.63"/>
		<line class="st3" x1="240.29" y1="170.77" x2="240.29" y2="181.34"/>
		<line class="st3" x1="248.65" y1="165.19" x2="248.65" y2="175.76"/>
		<line class="st3" x1="257.01" y1="160.48" x2="257.01" y2="171.05"/>
		<line class="st3" x1="265.23" y1="155.87" x2="265.23" y2="166.44"/>
		<line class="st3" x1="273.5" y1="150.61" x2="273.5" y2="161.18"/>
		<line class="st3" x1="281.86" y1="146.01" x2="281.86" y2="156.58"/>
		<line class="st3" x1="290.22" y1="140.72" x2="290.22" y2="151.29"/>
		<line class="st3" x1="306.94" y1="131.15" x2="306.94" y2="141.72"/>
		<line class="st3" x1="298.58" y1="136.44" x2="298.58" y2="147.01"/>
		<polygon class="st3" points="223.62,179.81 223.53,190.32 169.26,158.52 169.26,147.92 		"/>
		<line class="st3" x1="217.25" y1="176.06" x2="217.25" y2="186.63"/>
		<line class="st3" x1="208.89" y1="171.77" x2="208.89" y2="182.34"/>
		<line class="st3" x1="200.53" y1="166.19" x2="200.53" y2="176.76"/>
		<line class="st3" x1="192.17" y1="161.48" x2="192.17" y2="172.05"/>
		<line class="st3" x1="184.04" y1="156.89" x2="184.04" y2="167.46"/>
		<line class="st3" x1="175.68" y1="151.61" x2="175.68" y2="162.18"/>
	</g>
	<g class="st1">
		<polygon class="st3" points="241.32,158.71 241.32,147.01 234.57,150.91 234.57,162.61 		"/>
	</g>
	<g class="st1">
		<polygon class="st3" points="255.23,150.91 255.23,139.2 248.47,143.1 248.47,154.81 		"/>
	</g>
	<g class="st1">
		<polygon class="st3" points="269.13,143.1 269.13,131.4 262.37,135.3 262.37,147.01 		"/>
	</g>
	<g class="st1">
		<g>
			<polygon class="st4" points="250.98,11.13 260.44,16.64 260.49,37.42 250.98,31.77 			"/>
		</g>
		<g>
			<polygon class="st5" points="269.97,11.13 260.44,16.64 260.47,37.42 269.97,31.77 			"/>
		</g>
		<g>
			<polygon class="st5" points="269.69,10.88 260.34,5.69 251.27,10.88 260.44,16.22 			"/>
		</g>
		<g>
			<polygon class="st3" points="266.84,8.42 260.38,4.84 254.11,8.42 260.45,12.12 			"/>
		</g>
	</g>
	<g class="st1">
		<g>
			<polygon class="st4" points="271.25,26.88 280.7,32.38 280.75,46.17 271.25,40.52 			"/>
		</g>
		<g>
			<polygon class="st5" points="290.24,26.88 280.7,32.38 280.74,46.17 290.24,40.52 			"/>
		</g>
		<g>
			<polygon class="st5" points="289.95,26.63 280.61,21.44 271.54,26.63 280.7,31.97 			"/>
		</g>
		<g>
			<polygon class="st3" points="287.11,24.17 280.65,20.58 274.38,24.17 280.72,27.86 			"/>
		</g>
	</g>
</g>
<g id="Calque_10">
	<line class="st24" x1="485.51" y1="166.47" x2="510.67" y2="166.47"/>
	<line class="st24" x1="485.51" y1="446.98" x2="510.67" y2="446.98"/>
</g>
</svg>
