<?xml version="1.0" encoding="utf-8"?>
<!-- Generator: Adobe Illustrator 23.0.1, SVG Export Plug-In . SVG Version: 6.00 Build 0)  -->
<svg version="1.1" id="Calque_1" xmlns="http://www.w3.org/2000/svg" xmlns:xlink="http://www.w3.org/1999/xlink" x="0px" y="0px"
	 viewBox="0 0 124.79 305.68" style="enable-background:new 0 0 124.79 305.68;" xml:space="preserve">
<style type="text/css">
	.st0{fill:#EF7961;}
	.st1{fill:#69150C;}
	.st2{fill:#F6C292;}
	.st3{fill:#DD3626;}
	.st4{fill:#135A73;}
	.st5{fill:#949798;}
	.st6{fill:#92928F;}
	.st7{fill:#A8988D;}
	.st8{fill:#AA9889;}
	.st9{fill:#A9988C;}
	.st10{fill:#A9988A;}
	.st11{fill:#919089;}
	.st12{fill:#908F8A;}
	.st13{fill:#91908A;}
	.st14{fill:#D1D6D9;}
	.st15{fill:#D2D6D9;}
	.st16{fill:#B1B6B9;}
	.st17{fill:#AAB0B2;}
	.st18{fill:#B9BEC0;}
	.st19{fill:#E8EBEB;}
	.st20{fill:#E7EAEB;}
	.st21{fill:#DFE2E4;}
	.st22{fill:#E3E6E8;}
</style>
<g>
	<path class="st0" d="M101.05,142.89c-3.7-5.57-11.83-4.44-13.13-4.16c-1.11,0.24-2.46,0.63-3.46,0.36
		c-0.75-0.2-0.85-0.71-1.37-1.46c-0.89-1.29-2.13-2.21-3.69-2.53c-1.24-0.26-2.47-0.12-3.72-0.21c-0.55-0.04-0.76-0.1-1.06-0.68
		c-0.55-1.07-0.39-2.49-0.44-3.64c-0.06-1.47-0.2-2.97-0.71-4.36c-2.05-5.54-7.84-9.21-13.71-9.06c-3.53,0.09-6.51,1.68-8.46,4.64
		c-1.49,2.27-1.98,4.95-2.23,7.62c-0.37,13.41,3.27,16.15,5.51,17.42c2.57,1.45,5.55,1.17,8.35,1.71c2.16,0.42,3.85,1.56,5.18,3.32
		c1.3,1.72,2.18,3.74,2.88,5.77c0.26,0.75,0.55,1.48,0.88,2.17c-0.6,1.11-0.53,2.66,0.47,3.52c3.31,2.83,7.78,3.02,11.59,1.05
		c1.69-0.88,3.2-2.2,4.44-3.63c0.08-0.09,0.68-0.81,1.15-1.38c0.41,0.12,0.81,0.22,1.22,0.3c0.15,0.05,0.29,0.1,0.43,0.14
		c4.08,1.17,8.23-1.49,10.24-4.94C103.43,151.4,103.29,146.27,101.05,142.89z"/>
	<path class="st1" d="M119.14,253.75c0.71-8.42-0.54-10.25-8.79-14.8c-8.76-4.83-8.65-2.28-14.9-12.65
		c-6.04-10.02-8.41-19.92-10.1-29.82c-1.61-9.44-6.12-18.66-6.08-28.25c0.04-10.3-3.29-8.76-6.02-12.49
		c-3.33-4.56-7.77-8.7-13.88-7.52c-0.2,0.04-0.39,0.09-0.59,0.14c-0.22-0.41-0.5-0.79-0.85-1.11c-1.98-1.82-4.83-1.83-6.81,0
		c-11.36,10.51-14.69,26.19-16.8,40.86c-1.17,8.1-4.05,13.73-5.49,21.81c-2.04,11.44-1.52,18.85-2.21,28.04
		c-0.71,9.4-3.49,15.05-0.13,22.72c1.15,2.62,1.92,2.92,4.01,3.79c1.53,0.64,3.32,0.62,3.9,0.58c1.24-0.09,2.49-0.11,3.73-0.08
		c5.32,0.14,10.51,1.17,15.84,0.49c1.52-0.19,3.03-0.43,4.54-0.68c0.58-0.1,1.17-0.2,1.76-0.29c0.17-0.03,0.34-0.05,0.51-0.08
		c-0.02,0.01,0.63-0.08,0.73-0.09c2.63-0.29,5.27-0.24,7.91-0.08c1.32,0.08,2.65,0.2,3.97,0.31c0.54,0.05,1.08,0.09,1.62,0.15
		c0.31,0.03,0.62,0.06,0.93,0.1c0.12,0.01,0.68,0.09,0.68,0.09c0.95,0.16,1.89,0.34,2.82,0.6c0.52,0.14,1.02,0.33,1.52,0.5
		c0.01,0,0.02,0.01,0.03,0.01c0.02,0.02,0.05,0.03,0.08,0.05c0.32,0.2,0.67,0.35,0.99,0.54c4.17,2.48,16.77,2.15,22.89,0.64
		C109.89,266,118.41,262.42,119.14,253.75z"/>
	<path class="st2" d="M72.25,148.41c-3.99-1.99-8.47-2.99-12.88-3.14c-4.31-0.14-8.45,0.32-12.34,2.3c-3.7,1.9-5.5,22.21-5.5,22.21
		s2.83,12.59,3.3,19.69c0.12,1.87-3.39,10.43-1.43,10.43c2.09,0,3.23-1.61,3.48-3.48c0.07-0.54,0.15-1.09,0.23-1.63
		c0.87,0.79,2.19,1.03,3.34,0.75c0.62,0.82,1.59,1.37,2.61,1.44c1.34,0.32,2.66-0.2,3.48-1.2c0.57,0.54,1.3,0.9,2,0.99
		c0.58,0.07,1.2-0.01,1.76-0.23c-0.01,1.51-0.02,3.02-0.02,4.53c0,1.2,0.49,2.07,1.21,2.62c0.18,1.51,1.52,2.77,2.99,2.94
		c1.52,0.18,3.56-16.04,3.79-17.78c1.34-9.85,1.43-9.05,2.76-18.9C71.05,169.96,78.94,151.74,72.25,148.41z"/>
	<path class="st2" d="M41.54,169.79c0,0-15.69-11.32-19.36-27.91c-3.74-16.89-1.79-25.88,1.81-36.53c1.17-3.45,6.14-14,10.83-11.39
		c2.98,1.66,0.04,6.58-1.32,10.83c-1.69,5.27-3.38,12.28-3.38,23.73c0,8.52,3.89,13.36,8.35,16.73c3.14,2.37,8.57,2.33,8.57,2.33"/>
	<path class="st2" d="M71.05,169.96c0,0,21.24-7.74,26.02-27.28c4.03-16.51,0.94-31.53-3.13-40.3c-1.53-3.3-6.42-12.04-11.11-9.43
		c-2.98,1.66,0,6.36,1.36,10.61c1.69,5.27,4.93,14.31,4.93,25.76c0,8.52-3.89,13.36-8.35,16.73c-3.14,2.37-8.57,2.33-8.57,2.33"/>
	<path class="st2" d="M61.94,138c-0.18-0.04-0.37-0.04-0.55,0c-0.37-0.24-0.87-0.27-1.19-0.01c-0.02-0.01-0.05-0.01-0.07-0.02
		c0-0.06,0.01-0.12,0.01-0.18c0.02-0.45-0.32-0.76-0.73-0.87c-0.23-0.84-1.61-1.1-1.93-0.07c-0.07,0.21-0.12,0.43-0.19,0.64
		c0,0-0.01,0-0.01-0.01c0.01-1.2-1.89-1.14-2.02,0.03c-0.47,4.16-0.84,8.33-1.11,12.51c-0.06,0.89,1.01,1.11,1.62,0.69
		c0.04,0.09,0.08,0.19,0.13,0.28c0.41,0.78,1.48,0.47,1.81-0.16c0.05,0.02,0.09,0.05,0.13,0.07c0.47,0.18,1.17-0.2,1.24-0.65
		c0.01-0.03,0.01-0.07,0.02-0.1c0.45,0.38,1.3,0.39,1.6-0.11c0.37-0.11,0.7-0.39,0.75-0.85l0.05-0.42c0.33-0.02,0.65-0.17,0.8-0.45
		c0.64-1.22,0.57-2.97,0.7-4.3c0.17-1.73,0.27-3.47,0.31-5.2C63.33,138.02,62.54,137.77,61.94,138z"/>
	<path class="st2" d="M55.31,121.08c2.1-1.65,5.28-1.95,7.72-0.52c0.45,0.17,0.89,0.47,1.28,0.9c3.45,3.81,3.03,10.13,1.58,14.37
		c-0.69,2-1.77,4.36-3.66,5.57c-0.86,0.55-1.78,0.76-2.68,0.71c-1.04,0.05-2.8,0.18-3.65-0.51c-0.43-0.33-1.17-0.87-1.75-1.94
		c-2.08-3.46-2.14-8.1-2.08-10.73C52.15,126.01,52.93,122.96,55.31,121.08z"/>
	<path class="st1" d="M40.25,287.54c-0.28,0.03-0.53,0.19-0.7,0.4c-0.9,0.41-5.51,8.81-5.08,10.04c0.35,0.99,1.48,1.06,2.55,0.89
		c0.31-0.05,0.61-0.13,0.9-0.24c3.36-1.66,4.78-4.64,5.6-5.87c0.61-0.91,0.94-1.95,0.86-3.05
		C44.03,285.05,42.32,287.32,40.25,287.54z"/>
	<path class="st2" d="M48.66,258.42c1.2-10.86,2.81-21.24,3.56-32.14c0.43-6.2,0.79-12.41,1.11-18.62c0.15-2.9-3.84-3.68-4.67-1.08
		c-1.21-0.27-2.6,0.27-2.89,1.8c-0.18-0.07-0.36-0.13-0.53-0.15c-1.42-0.19-2.37,0.8-2.71,2.06c-2.59,9.72-2.48,19.87-2.7,29.85
		c-0.22,10.2-0.29,42.17-0.42,47.93c-0.05,2.35,2.56,3.26,3.83,1.08C44.04,287.79,48.06,263.8,48.66,258.42z"/>
	<path class="st1" d="M69.3,287.57c-0.27,0.08-0.49,0.27-0.62,0.51c-0.82,0.55-3.95,9.62-3.32,10.75c0.51,0.92,1.64,0.8,2.67,0.45
		c0.3-0.1,0.58-0.23,0.84-0.38c3.03-2.2,3.94-5.38,4.53-6.72c0.45-1,0.6-2.08,0.34-3.15C72.61,284.48,71.32,287.01,69.3,287.57z"/>
	<path class="st2" d="M72.7,257.46c-0.64-10.9-0.81-21.41-1.9-32.28c-0.62-6.19-1.31-12.36-2.04-18.54
		c-0.34-2.89-4.41-2.98-4.78-0.28c-1.24-0.06-2.52,0.71-2.55,2.26c-0.19-0.04-0.37-0.07-0.55-0.06c-1.44,0.05-2.21,1.19-2.33,2.49
		c-0.92,10.01,0.9,20,2.36,29.88c1.5,10.09,6.81,41.62,7.65,47.32c0.35,2.33,3.07,2.79,3.96,0.42
		C73.09,287.19,73.01,262.86,72.7,257.46z"/>
	<path class="st0" d="M64.23,119.42c-0.36-0.45-1.01-0.68-1.71-0.37c-0.1,0.04-0.2,0.09-0.3,0.13c-0.2-0.16-0.45-0.27-0.76-0.31
		c-1.76-0.2-3.5,0.08-5.07,0.76c-2.41,0.73-4.56,2.07-5.85,4.46c-0.31,0.58-0.17,1.13,0.17,1.51c-0.63,0.8-1.12,1.75-1.56,2.85
		c-0.51,1.3,1.35,2.18,2.24,1.3c3.71-3.67,13.86-2.33,14.23-9.05C65.67,119.79,64.94,119.36,64.23,119.42z"/>
	<path class="st1" d="M71.36,148.05c0,0,6.8,0.49,9.67-2.19c3.89-3.64,7.46-6.86,8.1-16.56l9.83,1.92
		c-0.18,4.29-0.75,7.57-2.07,12.16c-5.84,20.43-24.56,27.18-24.56,27.18L71.36,148.05z"/>
	<path class="st1" d="M47.35,147.44c0,0-4.85,0.97-9.09-2.35c-4.19-3.28-7.1-6.1-8.14-16.41l-9.68,2.54
		c0.18,4.29,0.7,8.05,2.14,12.61c5.12,16.2,18.75,26.12,18.75,26.12l5.71-22.37"/>
	<path class="st3" d="M68.9,184.69c-0.38-3.16-0.88-6.3-1.52-9.41c-0.06-2.3-0.12-4.6-0.18-6.89c-0.03-1.26-0.94-2.35-2.2-2.5
		c-0.16-0.02-0.33-0.02-0.51-0.01c1.69-4.8,3.09-9.7,4.17-14.68c0.51-2.33-2.45-4.47-4.25-2.47c-2.34,2.6-4.69,5.2-7.08,7.74
		c-1.08-2.69-2.17-5.37-3.25-8.06c-0.23-0.57-0.58-1-0.99-1.29c-0.43-0.45-1.03-0.74-1.75-0.74c-1.26,0-2.68,1.17-2.54,2.54
		c0.29,2.79,0.86,5.48,1.83,8.1c-0.76,0.98-1.31,2.24-1.73,3.19c-0.74,1.68-1.3,3.44-2.12,5.09c-2.94,5.95-9.22,13.7-3.94,20.18
		c0.65,0.8,2,0.94,2.95,0.48c-0.06,0.47-0.12,0.93-0.18,1.4c-0.16,1.23,1.09,2.36,2.2,2.5c1.29,0.15,14.89-2.99,18.55-2.63
		C67.62,187.36,69.06,185.96,68.9,184.69z"/>
	<path class="st4" d="M69.58,186.43c-0.25-0.4-11.75,0-17.51,0c-2.62,0-9.48,0.47-9.2,2.33c-1.16,5.17-7.27,46.3-7.15,49.51
		c-0.52,7.16-1.05,14.32-1.57,21.48c-0.19,2.64-0.39,5.27-0.58,7.91c-0.15,2.06-0.88,4.86,0.33,6.73c1.33,2.07,18.75,0.79,18.81-0.7
		c0.09-2.2,2.28-35.46,1.96-48.91c0.07-0.59,0.15-1.17,0.23-1.75c0.11,1.3,0.23,2.6,0.33,3.89c0.33,4.01,3.78,44.93,3.92,46.41
		c0.13,1.38,1.26,2.44,2.71,2.06c2.83-0.74,14.41-3.03,15.41-5.54C77.74,268.68,70.12,186.39,69.58,186.43z"/>
	<path class="st1" d="M41.37,152.1c0,0-0.01,0.14-0.01,0.22c-0.24,5.98-1.32,11.61-2.58,17.74c-0.6,1.94-3.88,20.77-3.99,27.05
		c-0.04,2.2-6.36,26.5-4.24,26.78c1.97,0.26,9.24-6.6,12.91-25.61c1.85-9.57,4.4-18.73,7.97-27.77c1.81-4.58,3.15-9.2,3.4-14.15
		c0.18-3.5-0.19-7.07-1.06-10.5c-0.02-0.09-0.12-0.34-0.12-0.34s-2.64,0.2-6.62,2.05C43.85,149.06,41.37,152.1,41.37,152.1z"/>
	<path class="st1" d="M75.16,184.03c-1.35-9.14-2.66-18.33-2.52-27.89c0.04-2.48,0.16-4.75,0.39-6.98c0.01-0.09,0.03-0.26,0.03-0.26
		s-1.55-1.02-4.31-1.95c-2.27-0.76-4.15-1.1-4.15-1.1s-0.02,0.16-0.03,0.24c-0.97,7.19-0.91,14.49-0.28,21.72
		c0.43,5,1.12,9.97,1.83,14.94c0.36,2.5,0.74,5,1.1,7.5c0.36,2.5,0.61,4.24,0.9,6.59c0.68,5.52,1.98,15.71,3.18,21.14
		c2.76,12.4,5.59,26.44,7.98,26.33c2.39-0.11-1.18-28.38-1.18-30.85C78.07,203.58,76.59,193.78,75.16,184.03z"/>
	<g>
		<path class="st5" d="M48.64,6.23c0.35-0.01,0.69-0.02,1.04-0.03c2.13-0.07,4.27-0.05,6.41-0.04c0.69,0,1.39,0.02,2.08,0.04
			c0.33,0.01,0.66-0.1,0.99-0.02c2.99,0,5.99,0,8.98,0c7.34,0,14.67,0,22.01,0c0.16,0,0.33-0.04,0.49,0.03
			c0.94-0.06,1.88-0.1,2.82-0.01c0.34,0.03,0.69,0.02,1.04,0.02c0.68,0,1.35,0.01,2.03,0.08c0.19,0.02,0.38-0.01,0.57-0.05
			c0.69-0.15,1.28,0.26,1.42,0.98c-0.06,0.15-0.03,0.3-0.03,0.45c0,7.26,0,14.51,0,21.77c0,0.14-0.08,0.3,0.07,0.42
			c1.13-0.27,2.26-0.54,3.4-0.75c1.69-0.3,3.31-0.07,4.88,0.58c1.94,0.81,3.45,2.14,4.67,3.83c1.35,1.87,2.19,3.94,2.44,6.24
			c0.27,2.45-0.01,4.81-1.18,7.02c-0.84,1.57-2.01,2.84-3.41,3.92c-1.58,1.22-3.33,2.15-5.14,2.96c-1.81,0.81-3.66,1.52-5.53,2.18
			c-0.04,0.01-0.08,0.02-0.12,0.02c-0.15,0.08-0.08,0.22-0.08,0.33c0,8.33,0,16.66,0,24.99c0,0.11-0.03,0.22,0.04,0.32
			c-0.11,0.75-0.72,1.17-1.45,1.03c-0.51-0.1-1.02-0.05-1.53,0c-0.76,0.07-1.52,0.02-2.27,0.05c-0.72-0.05-1.44-0.05-2.15,0
			c-2.05,0.11-4.1,0.08-6.16,0.08c-7.67,0-15.34,0-23.02-0.01c-1.77,0-3.55-0.05-5.32-0.07c-0.3-0.07-0.61-0.03-0.91-0.03
			c-1.48,0-2.97,0-4.45,0c-0.15,0-0.31-0.03-0.45,0.03c-1.11,0-2.22,0-3.32,0c-1.68,0-3.35,0.01-5.03,0
			c-1.11-0.01-2.21-0.05-3.32-0.08c-0.84-0.07-1.69-0.02-2.53-0.03c-0.65,0-1.3-0.04-1.95,0.03c-0.72,0-1.44,0-2.16,0
			c-1.5,0-2.99,0.01-4.49,0c-0.93-0.01-1.85-0.05-2.78-0.07c-0.91-0.04-1.83-0.08-2.74,0.02c-0.73,0.35-1.6-0.16-1.66-0.97
			c-0.01-0.11,0-0.22,0-0.33c0-8.4,0-16.79,0-25.19c0-0.52,0-0.52-0.5-0.66c-1.48-0.42-2.96-0.81-4.43-1.26
			c-2.12-0.65-4.04-1.67-5.75-3.1c-2.36-1.97-3.91-4.44-4.47-7.48c-0.18-0.96-0.24-1.93-0.17-2.9c0.23-2.97,1.27-5.63,3.23-7.9
			c1.35-1.57,2.99-2.71,4.99-3.31c0.82-0.25,1.65-0.36,2.5-0.36c0.85,0,1.68,0.17,2.5,0.35c0.67,0.15,1.35,0.3,2.04,0.45
			c0.09-0.16,0.05-0.33,0.05-0.49c0-5.33,0-10.66,0-15.99c0-1.93,0-3.86,0-5.79c0-0.38,0.1-0.7,0.38-0.97
			c0.32-0.31,0.7-0.4,1.11-0.3c0.22,0.06,0.44,0.07,0.66,0.07c1.05-0.01,2.11,0.02,3.16,0.06c0.15-0.07,0.3-0.03,0.45-0.03
			c1.92,0,3.85,0,5.77,0c0.15,0,0.3,0.02,0.45-0.02c1.68-0.07,3.36-0.1,5.03-0.08c0.79,0.01,1.58,0.04,2.37,0.06
			c0.15-0.07,0.3-0.03,0.45-0.03c2.51,0,5.01,0,7.52,0C48.34,6.26,48.49,6.28,48.64,6.23z"/>
		<path class="st6" d="M98.54,81.51c-0.13-0.11-0.08-0.26-0.08-0.39c0-8.28,0-16.57,0-24.85c0-0.14-0.07-0.31,0.12-0.41
			c-0.01,0.18-0.02,0.36-0.02,0.54c0,8.19,0,16.38,0,24.57C98.55,81.15,98.54,81.33,98.54,81.51z"/>
		<path class="st6" d="M98.57,29.87c-0.07-0.03-0.11-0.08-0.11-0.16c0-0.11,0-0.22,0-0.33c0-7.23,0-14.45,0-21.68
			c0-0.16-0.06-0.33,0.07-0.48c0.01,0.18,0.02,0.36,0.02,0.54c0,7.19,0,14.38,0,21.57C98.56,29.51,98.57,29.69,98.57,29.87z"/>
		<path class="st7" d="M90.64,6.21c-1.53,0-3.05,0-4.58,0c-5.98,0-11.95,0-17.93,0c-0.03-0.02-0.04-0.03-0.03-0.05
			c0.01-0.02,0.02-0.02,0.03-0.02c0.83,0,1.66-0.01,2.5-0.01c6.37,0,12.74,0,19.11,0.01C90.04,6.14,90.35,6.09,90.64,6.21z"/>
		<path class="st8" d="M68.14,6.15c0,0.02,0,0.05,0,0.07c-2.87,0-5.74,0-8.61,0c-0.12,0-0.25,0.03-0.37-0.04
			c0.43-0.06,0.86-0.03,1.29-0.03c2.47-0.01,4.93-0.01,7.4-0.01C67.94,6.13,68.04,6.14,68.14,6.15z"/>
		<path class="st9" d="M48.64,6.23c-0.1,0.1-0.24,0.07-0.36,0.07c-2.69,0-5.38,0-8.07,0c0.07-0.05,0.15-0.06,0.24-0.06
			C43.19,6.21,45.91,6.2,48.64,6.23z"/>
		<path class="st10" d="M32.82,6.32c-0.09,0.09-0.21,0.06-0.32,0.06c-2.12,0-4.24,0-6.36,0c0.07-0.06,0.15-0.05,0.24-0.06
			C28.52,6.29,30.67,6.28,32.82,6.32z"/>
		<path class="st11" d="M50.82,82.58c0.1-0.1,0.23-0.07,0.35-0.07c1.7,0,3.41,0,5.11,0c0.12,0,0.25-0.04,0.35,0.07
			C54.7,82.6,52.76,82.61,50.82,82.58z"/>
		<path class="st11" d="M34.66,82.5c0.09-0.09,0.2-0.07,0.31-0.07c1.29,0,2.57,0,3.86,0c0.11,0,0.22-0.03,0.31,0.07
			C37.65,82.52,36.15,82.52,34.66,82.5z"/>
		<path class="st12" d="M22.5,82.44c0.05-0.08,0.13-0.09,0.21-0.09c0.78,0,1.56,0,2.34,0c0.07,0,0.13,0.02,0.18,0.07
			C24.32,82.42,23.41,82.43,22.5,82.44z"/>
		<path class="st13" d="M91.13,82.58c0.02-0.02,0.04-0.05,0.07-0.05c0.67-0.04,1.35-0.04,2.02,0c0.02,0,0.04,0.03,0.07,0.05
			C92.57,82.61,91.85,82.6,91.13,82.58z"/>
		<path class="st14" d="M60.05,58.18c-0.76,0-1.53,0.03-2.29-0.01c-1.9-0.1-3.8,0-5.7-0.09c-0.93-0.04-1.86-0.02-2.78-0.07
			c-1.26-0.07-2.52-0.11-3.78-0.17c-0.9-0.04-1.8-0.11-2.69-0.16c-1.04-0.06-2.07-0.14-3.1-0.25c-1.57-0.17-3.13-0.33-4.7-0.55
			c-2.54-0.35-5.05-0.82-7.54-1.39c-1.39-0.32-2.76-0.71-4.14-1.06c-0.2-0.05-0.38-0.12-0.47-0.35c-0.12-0.29-0.38-0.44-0.67-0.52
			c-1.53-0.43-3.07-0.86-4.6-1.27c-1.97-0.54-3.81-1.34-5.46-2.56c-1.41-1.05-2.57-2.33-3.37-3.9c-0.55-1.07-0.89-2.2-1-3.41
			c-0.03-0.36-0.07-0.72-0.07-1.08c-0.01-1.5,0.31-2.94,0.89-4.32c0.58-1.37,1.39-2.59,2.47-3.62c1.19-1.13,2.58-1.92,4.23-2.16
			c0.79-0.11,1.6-0.07,2.4,0.09c1.3,0.27,2.6,0.56,3.88,0.89c0.38,0.1,0.72,0.09,1.02-0.15c0.19-0.15,0.35-0.06,0.51-0.02
			c0.97,0.27,1.95,0.54,2.92,0.82c2.93,0.84,5.87,1.6,8.87,2.17c1.59,0.31,3.18,0.57,4.78,0.8c1.03,0.15,2.06,0.27,3.09,0.37
			c1.16,0.11,2.31,0.24,3.47,0.33c1.2,0.09,2.4,0.19,3.6,0.25c1.16,0.06,2.32,0.11,3.49,0.17c0.83,0.05,1.66,0.03,2.49,0.07
			c3.58,0.16,7.16,0.08,10.74,0.06c1.52-0.01,3.05-0.09,4.57-0.17c0.83-0.05,1.66-0.09,2.49-0.16c1.29-0.12,2.59-0.23,3.88-0.38
			c1.17-0.13,2.33-0.28,3.5-0.45c1.45-0.22,2.89-0.47,4.33-0.77c2.82-0.59,5.6-1.34,8.36-2.17c0.94-0.28,1.89-0.54,2.83-0.82
			c0.18-0.05,0.32-0.05,0.47,0.05c0.29,0.18,0.6,0.17,0.92,0.08c1.36-0.37,2.73-0.71,4.12-0.99c2.14-0.42,4.08,0.06,5.79,1.39
			c2.09,1.63,3.33,3.79,3.91,6.35c0.28,1.21,0.27,2.44,0.13,3.68c-0.17,1.6-0.78,3.02-1.76,4.29c-0.71,0.92-1.58,1.67-2.52,2.34
			c-1.45,1.02-3.02,1.81-4.64,2.51c-1.86,0.8-3.74,1.53-5.67,2.16c-0.35,0.11-0.62,0.33-0.74,0.67c-0.06,0.15-0.15,0.21-0.3,0.25
			c-1.23,0.37-2.48,0.69-3.74,0.97c-1.25,0.29-2.52,0.52-3.79,0.72c-0.9,0.14-1.8,0.28-2.71,0.37c-0.87,0.09-1.73,0.22-2.59,0.31
			c-0.77,0.08-1.54,0.13-2.32,0.19c-1.03,0.08-2.07,0.16-3.1,0.23c-0.06,0-0.11,0.01-0.17,0.01c-0.9-0.01-1.8,0.07-2.7,0.11
			c-1.81,0.08-3.63,0.1-5.44,0.17c-1.94,0.08-3.88,0.01-5.82,0.08C62.54,58.17,61.29,58.18,60.05,58.18z"/>
		<path class="st15" d="M24.45,80.24c6.05-6.05,13.01-10.43,21.11-12.91c9.56-2.93,19.15-2.9,28.7,0.06
			c9.41,2.91,16.83,8.57,20.91,12.92c-0.2,0.13-0.42,0.11-0.63,0.12c-2.04,0.01-4.08-0.01-6.12,0.03
			c-7.77,0.13-15.54,0.09-23.32,0.04c-6.97-0.05-13.93,0.02-20.9-0.08c-4.86-0.07-9.71,0-14.57-0.08c-1.64-0.03-3.27-0.03-4.91-0.05
			C24.67,80.26,24.61,80.26,24.45,80.24z"/>
		<path class="st15" d="M95.23,8.39c-0.04,0.19-0.17,0.26-0.27,0.35c-1.61,1.62-3.34,3.12-5.16,4.52c-2.2,1.7-4.53,3.19-6.97,4.52
			c-2.84,1.54-5.8,2.76-8.88,3.72c-1.83,0.57-3.68,1.01-5.56,1.35c-1.03,0.19-2.07,0.34-3.12,0.45c-1.16,0.12-2.32,0.2-3.48,0.27
			c-1.1,0.06-2.19,0.08-3.28,0.04c-1.06-0.04-2.13-0.1-3.19-0.2c-1.35-0.13-2.69-0.31-4.03-0.54c-1.31-0.23-2.61-0.51-3.89-0.86
			c-2.05-0.55-4.06-1.22-6.02-2.03c-1.87-0.77-3.69-1.65-5.46-2.65c-1.13-0.64-2.25-1.31-3.33-2.04c-1.7-1.14-3.34-2.38-4.9-3.71
			c-1.01-0.87-2-1.76-2.94-2.7c-0.09-0.09-0.23-0.16-0.24-0.34c0.15-0.07,0.3-0.04,0.45-0.04c4.12-0.01,8.25,0.03,12.37-0.04
			c5.9-0.1,11.8-0.01,17.69-0.08c12.1-0.13,24.2-0.06,36.31-0.04C92.62,8.33,93.91,8.35,95.23,8.39z"/>
		<path class="st15" d="M29.07,14.13c0.36,0.16,0.64,0.44,0.95,0.66c1.68,1.23,3.42,2.36,5.23,3.39c2.18,1.25,4.45,2.32,6.8,3.21
			c2.36,0.9,4.76,1.64,7.23,2.17c1.33,0.28,2.66,0.53,4,0.71c0.94,0.12,1.9,0.21,2.85,0.29c1.65,0.13,3.29,0.19,4.94,0.13
			c1.15-0.04,2.29-0.11,3.44-0.22c1.93-0.18,3.84-0.48,5.73-0.88c2.03-0.43,4.02-1.02,5.99-1.7c2.36-0.82,4.64-1.83,6.85-3
			c2.53-1.34,4.92-2.89,7.21-4.61c0.08-0.01,0.12,0.01,0.09,0.1c-1.36,1.83-2.59,3.73-3.7,5.72c-1.22,2.18-2.27,4.44-3.16,6.77
			c-0.86,2.25-1.54,4.56-2.05,6.92c-0.05,0.24-0.13,0.48-0.15,0.73c-0.02,0.22-0.13,0.29-0.31,0.32c-0.64,0.1-1.28,0.19-1.93,0.27
			c-0.86,0.11-1.73,0.21-2.59,0.31c-0.33,0.04-0.66,0.07-0.99,0.09c-0.84,0.06-1.68,0.15-2.52,0.2c-0.97,0.06-1.93,0.11-2.9,0.17
			c-0.69,0.05-1.39,0.02-2.08,0.08c-1.66,0.13-3.33,0.05-4.99,0.08c-0.35,0.01-0.69,0.08-1.04,0.06c-1.88-0.12-3.77-0.01-5.66-0.1
			c-0.85-0.04-1.69-0.02-2.53-0.07c-1.18-0.07-2.35-0.11-3.53-0.17c-1.22-0.06-2.43-0.15-3.64-0.25c-1.17-0.09-2.34-0.2-3.51-0.33
			c-1.41-0.16-2.83-0.31-4.23-0.56c-0.57-0.1-0.58-0.09-0.7-0.64c-0.37-1.75-0.84-3.47-1.41-5.16c-0.51-1.53-1.09-3.02-1.74-4.49
			c-0.89-2.02-1.91-3.97-3.06-5.86c-0.85-1.4-1.76-2.75-2.73-4.07C29.16,14.32,29.07,14.25,29.07,14.13L29.07,14.13z"/>
		<path class="st15" d="M29.15,74.51c0.64-0.94,1.32-1.85,1.94-2.8c1.35-2.07,2.53-4.24,3.58-6.47c0.94-2.01,1.72-4.09,2.39-6.2
			c0.04-0.12,0.07-0.24,0.1-0.36c0.11-0.41,0.14-0.44,0.58-0.38c1.17,0.15,2.34,0.24,3.51,0.33c1.28,0.1,2.57,0.19,3.85,0.26
			c1.22,0.06,2.43,0.11,3.65,0.17c0.97,0.05,1.94,0.02,2.91,0.08c2.19,0.13,4.38,0.03,6.57,0.09c0.76,0.02,1.52,0.07,2.29,0.05
			c2.73-0.1,5.47-0.01,8.2-0.09c1.09-0.03,2.19,0,3.28-0.08c0.79-0.05,1.58-0.03,2.37-0.08c1.12-0.07,2.24-0.11,3.36-0.17
			c0.87-0.05,1.74-0.1,2.61-0.17c0.55-0.05,1.1-0.06,1.65-0.13c0.37-0.05,0.38-0.02,0.49,0.34c0.39,1.27,0.83,2.53,1.32,3.76
			c0.87,2.18,1.88,4.29,3.04,6.33c1.07,1.9,2.26,3.72,3.56,5.46c0.02,0.03,0.04,0.07,0,0.13c-0.33-0.16-0.6-0.42-0.9-0.63
			c-1.55-1.12-3.15-2.17-4.81-3.13c-0.91-0.53-1.84-1.04-2.78-1.5c-2.93-1.44-5.96-2.61-9.11-3.47c-1.88-0.51-3.79-0.91-5.72-1.21
			c-1.12-0.17-2.25-0.28-3.38-0.37c-1.92-0.17-3.85-0.18-5.78-0.13c-0.99,0.03-1.99,0.11-2.98,0.21c-1.8,0.18-3.59,0.46-5.37,0.83
			c-2.11,0.44-4.17,1.03-6.19,1.74c-1.68,0.59-3.31,1.27-4.92,2.03c-2.64,1.25-5.14,2.73-7.53,4.4c-0.6,0.42-1.19,0.86-1.79,1.29
			C29.12,74.58,29.12,74.55,29.15,74.51z"/>
		<path class="st15" d="M96.28,9.19c0.12,0.2,0.08,0.34,0.08,0.47c0,6.98,0,13.96,0,20.94c0,0.06,0,0.11,0,0.17
			c0.02,0.21-0.06,0.32-0.28,0.38c-0.69,0.19-1.38,0.42-2.07,0.62c-1.56,0.45-3.11,0.89-4.67,1.32c-1.71,0.47-3.44,0.85-5.17,1.19
			c-0.57,0.11-1.14,0.21-1.77,0.33c0.99-4.86,2.71-9.41,5.07-13.72C89.84,16.59,92.79,12.71,96.28,9.19z"/>
		<path class="st15" d="M23.33,9.25c3.2,3.19,5.93,6.74,8.21,10.65c2.62,4.51,4.49,9.31,5.59,14.47c-0.56-0.1-1.06-0.18-1.56-0.27
			c-2.16-0.41-4.3-0.9-6.43-1.47c-1.67-0.45-3.33-0.93-5-1.39c-0.17-0.05-0.35-0.09-0.52-0.14c-0.37-0.11-0.37-0.12-0.37-0.52
			c0-3.55,0-7.1,0-10.66c0-3.39,0-6.77,0-10.16c0-0.15,0-0.3,0-0.46C23.28,9.29,23.31,9.27,23.33,9.25z"/>
		<path class="st15" d="M23.25,79.57c0-0.2,0-0.33,0-0.47c0-7.68,0-15.35,0-23.03c0-0.01,0-0.03,0-0.04c-0.01-0.61,0-0.53,0.51-0.38
			c2.4,0.66,4.82,1.24,7.27,1.69c1.39,0.26,2.78,0.46,4.18,0.67c0.25,0.04,0.49,0.06,0.74,0.09c0.2,0.03,0.21,0.11,0.17,0.28
			c-0.21,0.76-0.47,1.51-0.73,2.25c-0.82,2.3-1.81,4.53-2.96,6.69c-1.07,1.99-2.26,3.91-3.58,5.75c-0.92,1.27-1.89,2.5-2.9,3.69
			c-0.8,0.94-1.63,1.85-2.52,2.71C23.39,79.49,23.35,79.51,23.25,79.57z"/>
		<path class="st15" d="M96.35,79.6c-0.28-0.14-0.39-0.36-0.55-0.53c-2.58-2.59-4.82-5.47-6.78-8.56c-1.38-2.18-2.59-4.46-3.61-6.83
			c-0.69-1.59-1.31-3.21-1.81-4.87c-0.02-0.07-0.04-0.13-0.06-0.2c-0.06-0.15-0.01-0.24,0.16-0.25c0.56-0.06,1.13-0.11,1.69-0.17
			c0.74-0.09,1.48-0.18,2.22-0.29c1.08-0.16,2.16-0.34,3.23-0.54c0.84-0.16,1.68-0.35,2.52-0.54c0.92-0.21,1.82-0.46,2.73-0.72
			c0.08-0.02,0.15-0.07,0.26-0.02C96.35,63.9,96.35,71.72,96.35,79.6z"/>
		<path class="st16" d="M90.38,14.38c-0.03-0.03-0.06-0.06-0.09-0.1c0.07-0.1,0.13-0.2,0.29-0.22
			C90.54,14.21,90.47,14.3,90.38,14.38z"/>
		<path class="st17" d="M45.91,36.33c0.14-0.05,0.27-0.06,0.44,0C46.18,36.39,46.04,36.37,45.91,36.33z"/>
		<path class="st18" d="M29.15,74.51c0,0.04,0.01,0.08,0.01,0.11c-0.05,0.08-0.1,0.16-0.23,0.17
			C28.95,74.64,29.05,74.58,29.15,74.51z"/>
		<path class="st15" d="M29.08,14.13c-0.01-0.01-0.03-0.02-0.04-0.03c0.01,0,0.02,0,0.02,0.01C29.07,14.11,29.07,14.12,29.08,14.13
			C29.07,14.13,29.08,14.13,29.08,14.13z"/>
		<path class="st19" d="M28.59,35.79c0.65-0.04,1.26,0.11,1.87,0.2c0.73,0.11,1.46,0.25,2.2,0.38c0.91,0.15,1.82,0.28,2.73,0.44
			c0.9,0.15,1.79,0.32,2.68,0.48c0.99,0.18,1.98,0.36,2.97,0.55c0.38,0.07,0.77,0.03,1.16,0.03c1.01,0,2.01,0.12,3,0.31
			c0.74,0.14,1.5,0.23,2.24,0.36c1.07,0.18,2.15,0.38,3.18,0.76c0.72,0.27,1.34,0.7,1.62,1.45c0.21,0.57,0.38,1.17,0.11,1.77
			c-0.29,0.64-0.79,1.09-1.43,1.31c-0.76,0.26-1.54,0.4-2.36,0.22c-0.37-0.08-0.77-0.04-1.15-0.09c-0.96-0.14-1.93-0.11-2.9-0.09
			c-1.09,0.02-2.19-0.08-3.28-0.11c-0.79-0.03-1.59-0.1-2.39-0.2c-1.08-0.13-2.16-0.3-3.23-0.47c-1.76-0.28-3.5-0.65-5.2-1.18
			c-1.02-0.31-2.02-0.68-2.92-1.26c-0.67-0.43-1.26-0.95-1.57-1.71c-0.48-1.2,0.27-2.58,1.44-2.98
			C27.77,35.81,28.19,35.75,28.59,35.79z"/>
		<path class="st19" d="M102.04,36.44c0.04,0.69-0.29,1.26-0.67,1.79c-0.56,0.78-1.31,1.33-2.15,1.79
			c-1.37,0.76-2.82,1.28-4.34,1.62c-0.97,0.22-1.95,0.37-2.95,0.4c-0.54,0.02-1.07,0.01-1.6-0.03c-0.81-0.05-1.61-0.17-2.36-0.56
			c-0.98-0.5-1.16-1.46-0.72-2.28c0.18-0.33,0.4-0.64,0.74-0.82c0.28-0.15,0.45-0.41,0.7-0.58c0.7-0.48,1.47-0.83,2.24-1.18
			c0.96-0.43,1.94-0.81,2.95-1.12c1.4-0.43,2.81-0.82,4.25-1.1c0.89-0.17,1.79-0.09,2.64,0.24
			C101.37,34.86,102.18,35.58,102.04,36.44z"/>
		<path class="st19" d="M18.43,33.63c0.57-0.03,1.1,0.09,1.56,0.45c0.05,0.04,0.11,0.09,0.17,0.12c0.64,0.29,1.02,0.83,1.37,1.4
			c0.22,0.35,0.28,0.71,0.14,1.11c-0.23,0.65-0.56,1.24-1.17,1.61c-0.38,0.23-0.83,0.29-1.26,0.39c-0.39,0.08-0.8,0.14-1.19,0.14
			c-0.69-0.01-1.39-0.07-1.95-0.64c-0.52-0.53-0.88-1.11-0.85-1.86c0.05-1.03,0.64-2.02,1.69-2.39c0.33-0.12,0.65-0.25,0.98-0.31
			C18.09,33.6,18.26,33.63,18.43,33.63z"/>
		<path class="st20" d="M16.11,48.69c-0.34,0.01-0.65-0.13-0.95-0.26C15.06,48.4,15,48.32,15,48.21c0-0.12,0.06-0.21,0.18-0.16
			c0.36,0.16,0.73,0.26,1.1,0.37c0.09,0.03,0.2,0.07,0.17,0.19c-0.03,0.1-0.14,0.07-0.21,0.08C16.19,48.7,16.15,48.69,16.11,48.69z"
			/>
		<path class="st21" d="M53.65,43.06c-0.35,0.41-0.85,0.66-1.51,0.76C52.63,43.55,53.17,43.36,53.65,43.06z"/>
		<path class="st22" d="M9.03,39.75c-0.27-0.29-0.27-0.31,0.03-0.71C9.08,39.31,9.11,39.52,9.03,39.75z"/>
		<path class="st19" d="M50.52,10.21c0.29,0,0.58,0.01,0.87,0c0.72-0.04,1.43,0.07,2.14,0.19c0.58,0.09,1.17,0.21,1.74,0.37
			c1.06,0.3,2.03,0.77,2.89,1.49c0.47,0.39,0.87,0.8,1.14,1.35c0.43,0.88,0.11,1.96-0.65,2.52c-0.66,0.49-1.39,0.77-2.19,0.93
			c-0.88,0.18-1.77,0.33-2.66,0.31c-0.73-0.01-1.45-0.12-2.18-0.22c-0.89-0.12-1.77-0.29-2.63-0.52c-0.87-0.23-1.72-0.55-2.5-1
			c-0.61-0.35-1.11-0.84-1.46-1.44c-0.42-0.71-0.43-1.58,0.11-2.34c0.39-0.55,0.93-0.87,1.52-1.11c0.89-0.37,1.82-0.53,2.79-0.52
			C49.8,10.22,50.16,10.21,50.52,10.21z"/>
		<path class="st19" d="M39.35,10.96c0.58-0.07,1.01,0.3,1.33,0.76c0.58,0.85,0.54,1.95-0.23,2.65c-0.71,0.64-1.6,0.64-2.34,0.07
			c-0.4-0.31-0.67-0.71-0.8-1.22c-0.15-0.58,0.02-1.06,0.34-1.52c0.18-0.26,1.16-0.73,1.49-0.74
			C39.18,10.96,39.23,10.96,39.35,10.96z"/>
	</g>
</g>
</svg>
