<?xml version="1.0" encoding="utf-8"?>
<!-- Generator: Adobe Illustrator 23.0.1, SVG Export Plug-In . SVG Version: 6.00 Build 0)  -->
<svg version="1.1" id="Calque_1" xmlns="http://www.w3.org/2000/svg" xmlns:xlink="http://www.w3.org/1999/xlink" x="0px" y="0px"
	 viewBox="0 0 124.79 305.68" style="enable-background:new 0 0 124.79 305.68;" xml:space="preserve">
<style type="text/css">
	.st0{fill:#EF7961;}
	.st1{fill:#69150C;}
	.st2{fill:#F6C292;}
	.st3{fill:#DD3626;}
	.st4{fill:#135A73;}
	.st5{fill:#B9930C;}
	.st6{fill:#F1DFA8;}
	.st7{fill:#E1C26E;}
	.st8{fill:#E1C26F;}
	.st9{fill:#E1C36F;}
	.st10{fill:#E6D089;}
	.st11{fill:#EFDEA5;}
	.st12{fill:#D2B04A;}
	.st13{fill:#F0DFA8;}
	.st14{fill:#EFDDA3;}
	.st15{fill:#E7CE84;}
	.st16{fill:#E9D189;}
	.st17{fill:#E6CC81;}
</style>
<g>
	<path class="st0" d="M102.41,145.22c-3.7-5.57-11.83-4.44-13.13-4.16c-1.11,0.24-2.46,0.63-3.46,0.36
		c-0.75-0.2-0.85-0.71-1.37-1.46c-0.89-1.29-2.13-2.21-3.69-2.53c-1.24-0.26-2.47-0.12-3.72-0.21c-0.55-0.04-0.76-0.1-1.06-0.68
		c-0.55-1.07-0.39-2.49-0.44-3.64c-0.06-1.47-0.2-2.97-0.71-4.36c-2.05-5.54-7.84-9.21-13.71-9.06c-3.53,0.09-6.51,1.68-8.46,4.64
		c-1.49,2.27-1.98,4.95-2.23,7.62c-0.37,13.41,3.27,16.15,5.51,17.42c2.57,1.45,5.55,1.17,8.35,1.71c2.16,0.42,3.85,1.56,5.18,3.32
		c1.3,1.72,2.18,3.74,2.88,5.77c0.26,0.75,0.55,1.48,0.88,2.17c-0.6,1.11-0.53,2.66,0.47,3.52c3.31,2.83,7.78,3.02,11.59,1.05
		c1.69-0.88,3.2-2.2,4.44-3.63c0.08-0.09,0.68-0.81,1.15-1.38c0.41,0.12,0.81,0.22,1.22,0.3c0.15,0.05,0.29,0.1,0.43,0.14
		c4.08,1.17,8.23-1.49,10.24-4.94C104.8,153.72,104.66,148.6,102.41,145.22z"/>
	<path class="st1" d="M120.5,256.08c0.71-8.42-0.54-10.25-8.79-14.8c-8.76-4.83-8.65-2.28-14.9-12.65
		c-6.04-10.02-8.41-19.92-10.1-29.82c-1.61-9.44-6.12-18.66-6.08-28.25c0.04-10.3-3.29-8.76-6.02-12.49
		c-3.33-4.56-7.77-8.7-13.88-7.52c-0.2,0.04-0.39,0.09-0.59,0.14c-0.22-0.41-0.5-0.79-0.85-1.11c-1.98-1.82-4.83-1.83-6.81,0
		c-11.36,10.51-14.69,26.19-16.8,40.86c-1.17,8.1-4.05,13.73-5.49,21.81c-2.04,11.44-1.52,18.85-2.21,28.04
		c-0.71,9.4-3.49,15.05-0.13,22.72c1.15,2.62,1.92,2.92,4.01,3.79c1.53,0.64,3.32,0.62,3.9,0.58c1.24-0.09,2.49-0.11,3.73-0.08
		c5.32,0.14,10.51,1.17,15.84,0.49c1.52-0.19,3.03-0.43,4.54-0.68c0.58-0.1,1.17-0.2,1.76-0.29c0.17-0.03,0.34-0.05,0.51-0.08
		c-0.02,0.01,0.63-0.08,0.73-0.09c2.63-0.29,5.27-0.24,7.91-0.08c1.32,0.08,2.65,0.2,3.97,0.31c0.54,0.05,1.08,0.09,1.62,0.15
		c0.31,0.03,0.62,0.06,0.93,0.1c0.12,0.01,0.68,0.09,0.68,0.09c0.95,0.16,1.89,0.34,2.82,0.6c0.52,0.14,1.02,0.33,1.52,0.5
		c0.01,0,0.02,0.01,0.03,0.01c0.02,0.02,0.05,0.03,0.08,0.05c0.32,0.2,0.67,0.35,0.99,0.54c4.17,2.48,16.77,2.15,22.89,0.64
		C111.26,268.33,119.77,264.75,120.5,256.08z"/>
	<path class="st2" d="M73.61,150.74c-3.99-1.99-8.47-2.99-12.88-3.14c-4.31-0.14-8.45,0.32-12.34,2.3c-3.7,1.9-5.5,22.21-5.5,22.21
		s2.83,12.59,3.3,19.69c0.12,1.87-3.39,10.43-1.43,10.43c2.09,0,3.23-1.61,3.48-3.48c0.07-0.54,0.15-1.09,0.23-1.63
		c0.87,0.79,2.19,1.03,3.34,0.75c0.62,0.82,1.59,1.37,2.61,1.44c1.34,0.32,2.66-0.2,3.48-1.2c0.57,0.54,1.3,0.9,2,0.99
		c0.58,0.07,1.2-0.01,1.76-0.23c-0.01,1.51-0.02,3.02-0.02,4.53c0,1.2,0.49,2.07,1.21,2.62c0.18,1.51,1.52,2.77,2.99,2.94
		c1.52,0.18,3.56-16.04,3.79-17.78c1.33-9.85,1.43-9.05,2.76-18.9C72.41,172.29,80.31,154.07,73.61,150.74z"/>
	<path class="st2" d="M42.9,172.11c0,0-15.69-11.32-19.36-27.91c-3.74-16.89-1.79-25.88,1.81-36.53c1.17-3.45,6.14-14,10.83-11.39
		c2.98,1.66,0.04,6.58-1.32,10.83c-1.69,5.27-3.38,12.28-3.38,23.73c0,8.52,3.89,13.36,8.35,16.73c3.14,2.37,8.57,2.33,8.57,2.33"/>
	<path class="st2" d="M72.41,172.29c0,0,21.24-7.74,26.02-27.28c4.03-16.51,0.94-31.53-3.13-40.3c-1.53-3.3-6.42-12.04-11.11-9.43
		c-2.98,1.66,0,6.36,1.36,10.61c1.69,5.27,4.93,14.31,4.93,25.76c0,8.52-3.89,13.36-8.35,16.73c-3.14,2.37-8.57,2.33-8.57,2.33"/>
	<path class="st2" d="M63.31,140.33c-0.18-0.04-0.37-0.04-0.55,0c-0.37-0.24-0.87-0.27-1.19-0.01c-0.02-0.01-0.05-0.01-0.07-0.02
		c0-0.06,0.01-0.12,0.01-0.18c0.02-0.45-0.32-0.76-0.73-0.87c-0.23-0.84-1.61-1.1-1.93-0.07c-0.07,0.21-0.12,0.43-0.19,0.64
		c0,0-0.01,0-0.01-0.01c0.01-1.2-1.89-1.14-2.02,0.03c-0.47,4.16-0.84,8.33-1.11,12.51c-0.06,0.89,1.01,1.11,1.62,0.69
		c0.04,0.09,0.08,0.19,0.13,0.28c0.41,0.78,1.48,0.47,1.81-0.16c0.05,0.02,0.09,0.05,0.13,0.07c0.47,0.18,1.17-0.2,1.24-0.65
		c0.01-0.03,0.01-0.07,0.02-0.1c0.45,0.38,1.3,0.39,1.6-0.11c0.37-0.11,0.7-0.39,0.75-0.85l0.05-0.42c0.33-0.02,0.65-0.17,0.8-0.45
		c0.64-1.22,0.57-2.97,0.7-4.3c0.17-1.73,0.27-3.47,0.31-5.2C64.7,140.34,63.91,140.1,63.31,140.33z"/>
	<path class="st2" d="M56.68,123.41c2.1-1.65,5.28-1.95,7.72-0.52c0.45,0.17,0.89,0.47,1.28,0.9c3.45,3.81,3.03,10.13,1.58,14.37
		c-0.69,2-1.77,4.36-3.66,5.57c-0.86,0.55-1.78,0.76-2.68,0.71c-1.04,0.05-2.8,0.18-3.65-0.51c-0.43-0.33-1.17-0.87-1.75-1.94
		c-2.08-3.46-2.14-8.1-2.08-10.73C53.52,128.34,54.29,125.29,56.68,123.41z"/>
	<path class="st1" d="M41.61,289.86c-0.28,0.03-0.53,0.19-0.7,0.4c-0.9,0.41-5.51,8.81-5.08,10.04c0.35,0.99,1.48,1.06,2.55,0.89
		c0.31-0.05,0.61-0.13,0.9-0.24c3.36-1.66,4.78-4.64,5.6-5.87c0.61-0.91,0.94-1.95,0.86-3.05
		C45.39,287.37,43.69,289.65,41.61,289.86z"/>
	<path class="st2" d="M50.02,260.75c1.2-10.86,2.81-21.24,3.56-32.14c0.43-6.2,0.79-12.41,1.11-18.62c0.15-2.9-3.84-3.68-4.67-1.08
		c-1.21-0.27-2.6,0.27-2.89,1.8c-0.18-0.07-0.36-0.13-0.53-0.15c-1.42-0.19-2.37,0.8-2.71,2.06c-2.59,9.72-2.48,19.87-2.7,29.85
		c-0.22,10.2-0.29,42.17-0.42,47.93c-0.05,2.35,2.56,3.26,3.83,1.08C45.41,290.12,49.43,266.13,50.02,260.75z"/>
	<path class="st1" d="M70.67,289.9c-0.27,0.08-0.49,0.27-0.62,0.51c-0.82,0.55-3.95,9.62-3.32,10.75c0.51,0.92,1.64,0.8,2.67,0.45
		c0.3-0.1,0.58-0.23,0.84-0.38c3.03-2.2,3.94-5.38,4.53-6.72c0.45-1,0.6-2.08,0.34-3.15C73.98,286.81,72.68,289.34,70.67,289.9z"/>
	<path class="st2" d="M74.06,259.79c-0.64-10.9-0.81-21.41-1.9-32.28c-0.62-6.19-1.31-12.36-2.04-18.54
		c-0.34-2.89-4.41-2.98-4.78-0.28c-1.24-0.06-2.52,0.71-2.55,2.26c-0.19-0.04-0.37-0.07-0.55-0.06c-1.44,0.05-2.21,1.19-2.33,2.49
		c-0.92,10.01,0.9,20,2.36,29.88c1.5,10.09,6.81,41.62,7.65,47.32c0.35,2.33,3.07,2.79,3.96,0.42
		C74.45,289.51,74.38,265.19,74.06,259.79z"/>
	<path class="st0" d="M65.59,121.75c-0.36-0.45-1.01-0.68-1.71-0.37c-0.1,0.04-0.2,0.09-0.3,0.13c-0.2-0.16-0.45-0.27-0.76-0.31
		c-1.76-0.2-3.5,0.08-5.07,0.76c-2.41,0.73-4.56,2.07-5.85,4.46c-0.31,0.58-0.17,1.13,0.17,1.51c-0.63,0.8-1.12,1.75-1.56,2.85
		c-0.51,1.3,1.35,2.18,2.24,1.3c3.71-3.67,13.86-2.33,14.23-9.05C67.04,122.12,66.31,121.69,65.59,121.75z"/>
	<path class="st1" d="M72.72,150.38c0,0,6.8,0.49,9.67-2.19c3.89-3.64,7.46-6.86,8.1-16.56l9.83,1.92
		c-0.18,4.29-0.75,7.57-2.07,12.16c-5.84,20.43-24.56,27.18-24.56,27.18L72.72,150.38z"/>
	<path class="st1" d="M48.71,149.77c0,0-4.85,0.97-9.09-2.35c-4.19-3.28-7.1-6.1-8.14-16.41l-9.68,2.54
		c0.18,4.29,0.7,8.05,2.14,12.61c5.12,16.2,18.75,26.12,18.75,26.12l5.71-22.37"/>
	<path class="st3" d="M70.27,187.02c-0.38-3.16-0.88-6.3-1.52-9.41c-0.06-2.3-0.12-4.6-0.18-6.89c-0.03-1.26-0.94-2.35-2.2-2.5
		c-0.16-0.02-0.33-0.02-0.51-0.01c1.69-4.8,3.09-9.7,4.17-14.68c0.51-2.33-2.45-4.47-4.25-2.47c-2.34,2.6-4.69,5.2-7.08,7.74
		c-1.08-2.69-2.17-5.37-3.25-8.06c-0.23-0.57-0.58-1-0.99-1.29c-0.43-0.45-1.03-0.74-1.75-0.74c-1.26,0-2.68,1.17-2.54,2.54
		c0.29,2.79,0.86,5.48,1.83,8.1c-0.76,0.98-1.31,2.24-1.73,3.19c-0.74,1.68-1.3,3.44-2.12,5.09c-2.94,5.95-9.22,13.7-3.94,20.18
		c0.65,0.8,2,0.94,2.95,0.48c-0.06,0.47-0.12,0.93-0.18,1.4c-0.16,1.23,1.09,2.36,2.2,2.5c1.29,0.15,14.89-2.99,18.55-2.63
		C68.98,189.68,70.42,188.29,70.27,187.02z"/>
	<path class="st4" d="M70.94,188.76c-0.25-0.4-11.75,0-17.51,0c-2.62,0-9.48,0.47-9.2,2.33c-1.16,5.17-7.27,46.3-7.15,49.51
		c-0.52,7.16-1.05,14.32-1.57,21.48c-0.19,2.64-0.39,5.27-0.58,7.91c-0.15,2.06-0.88,4.86,0.33,6.73c1.33,2.07,18.75,0.79,18.81-0.7
		c0.09-2.2,2.28-35.46,1.96-48.91c0.07-0.59,0.15-1.17,0.23-1.75c0.11,1.3,0.23,2.6,0.33,3.89c0.33,4.01,3.78,44.93,3.92,46.41
		c0.13,1.38,1.26,2.44,2.71,2.06c2.83-0.74,14.41-3.03,15.41-5.54C79.11,271.01,71.48,188.72,70.94,188.76z"/>
	<path class="st1" d="M42.74,154.43c0,0-0.01,0.14-0.01,0.22c-0.24,5.98-1.32,11.61-2.58,17.74c-0.6,1.94-3.88,20.77-3.99,27.05
		c-0.04,2.2-6.36,26.5-4.24,26.78c1.97,0.26,9.24-6.6,12.91-25.61c1.85-9.57,4.4-18.73,7.97-27.77c1.81-4.58,3.15-9.2,3.4-14.15
		c0.18-3.5-0.19-7.07-1.06-10.5c-0.02-0.09-0.12-0.34-0.12-0.34s-2.64,0.2-6.62,2.05C45.21,151.39,42.74,154.43,42.74,154.43z"/>
	<path class="st1" d="M76.52,186.36c-1.35-9.14-2.66-18.33-2.52-27.89c0.04-2.48,0.16-4.75,0.39-6.98c0.01-0.09,0.03-0.26,0.03-0.26
		s-1.55-1.02-4.31-1.95c-2.27-0.76-4.15-1.1-4.15-1.1s-0.02,0.16-0.03,0.24c-0.97,7.19-0.91,14.49-0.28,21.72
		c0.43,5,1.12,9.97,1.83,14.94c0.36,2.5,0.74,5,1.1,7.5c0.36,2.5,0.61,4.24,0.9,6.59c0.68,5.52,1.98,15.71,3.18,21.14
		c2.76,12.4,5.59,26.44,7.98,26.33c2.39-0.11-1.18-28.38-1.18-30.85C79.44,205.91,77.96,196.11,76.52,186.36z"/>
	<g>
		<path class="st5" d="M10.57,34.78c0.64-0.67,1.33-1.28,2.11-1.79c2.19-1.42,4.55-1.88,7.11-1.32c0.83,0.18,1.67,0.36,2.51,0.54
			c0.08-0.17,0.04-0.33,0.04-0.49c0-7.19,0-14.37,0-21.56c0-0.42,0.09-0.79,0.42-1.07c0.33-0.29,0.7-0.37,1.11-0.24
			c0.17,0.06,0.35,0.08,0.53,0.07c4.99-0.03,9.98-0.07,14.98-0.09c3.2-0.02,6.4-0.02,9.6-0.04c2.54-0.01,5.08-0.03,7.61-0.05
			c6.54-0.04,13.07-0.04,19.61-0.04c0.08,0,0.17,0.01,0.25,0.01c0.02,0.54-0.8,2.02-1.23,2.24c-0.23,0.04-0.47,0.02-0.7,0.02
			c-4.27,0-8.55-0.04-12.82,0.01c-7.4,0.08-14.81,0.01-22.21,0.1c-4.25,0.05-8.49,0.01-12.74,0.06c-0.15,0-0.3-0.04-0.46,0.08
			c0.25,0.37,0.58,0.65,0.9,0.95c1.8,1.67,3.68,3.24,5.69,4.66c4.71,3.34,9.83,5.82,15.4,7.37c2.86,0.8,5.78,1.32,8.74,1.57
			c1.69,0.14,3.38,0.24,5.08,0.18c4.72-0.16,9.35-0.89,13.85-2.38c0.25-0.08,0.51-0.25,0.79-0.06c0.15,0.34,0.11,0.69,0.04,1.03
			c-0.1,0.19-0.3,0.23-0.48,0.29c-2.93,0.97-5.92,1.64-8.98,2.03c-2.29,0.29-4.58,0.45-6.88,0.4c-3.5-0.06-6.95-0.46-10.36-1.25
			c-4.12-0.95-8.06-2.4-11.81-4.35c-2.53-1.31-4.92-2.84-7.21-4.53c-0.16-0.12-0.27-0.27-0.43-0.38c-0.03-0.02-0.04-0.06-0.05-0.1
			c-0.06,0.07,0.05,0.05,0.05,0.1c0.37,0.29,0.59,0.69,0.85,1.06c2.72,3.86,4.91,8.01,6.48,12.47c0.69,1.95,1.25,3.94,1.7,5.96
			c0.13,0.58,0.14,0.59,0.71,0.67c2.07,0.3,4.15,0.55,6.24,0.72c2.02,0.17,4.03,0.33,6.06,0.41c1.47,0.06,2.94,0.1,4.42,0.16
			c3.67,0.15,7.33,0.06,11,0.05c1.54-0.01,3.08-0.11,4.62-0.2c2.28-0.14,4.56-0.35,6.83-0.61c0.81-0.09,1.61-0.23,2.42-0.33
			c0.32-0.04,0.38-0.26,0.44-0.52c0.42-2.03,0.97-4.02,1.65-5.98c1.27-3.65,2.93-7.11,4.98-10.38c0.7-1.11,1.43-2.19,2.18-3.19
			c-1.92,1.44-3.97,2.78-6.12,3.97c-2.23,1.24-4.55,2.29-6.95,3.19c-0.25,0.09-0.49,0.18-0.75,0.25c-0.24,0.06-0.41,0-0.43-0.28
			c0.03-0.32,0.06-0.64,0.23-0.93c0.15-0.15,0.35-0.22,0.54-0.29c5.63-2.07,10.68-5.12,15.23-9c0.95-0.81,1.89-1.65,2.77-2.54
			c0.1-0.1,0.21-0.18,0.27-0.31c-0.05-0.1-0.15-0.06-0.22-0.06c-3.1-0.05-6.2-0.11-9.3-0.09c-1.75,0.01-3.5,0-5.25,0
			c-0.19,0-0.39,0.01-0.58-0.03c-0.68-0.53-1.07-1.25-1.33-2.05c-0.02-0.07,0.01-0.13,0.06-0.18c3.93,0,7.86,0,11.79,0.02
			c1.67,0.01,3.34,0.04,5,0.07c0.4,0.01,0.8,0.03,1.2,0.05c0.27,0.02,0.54,0.02,0.82-0.04c0.7-0.15,1.36,0.39,1.39,1.11
			c0.01,0.12,0,0.25,0,0.37c0,7.16,0,14.31,0,21.47c0,0.16,0,0.33,0,0.53c0.54-0.13,1.05-0.25,1.55-0.36
			c0.85-0.18,1.69-0.4,2.56-0.47c1.93-0.16,3.72,0.3,5.37,1.29c2.03,1.22,3.49,2.97,4.55,5.07c1.12,2.24,1.55,4.61,1.33,7.1
			c-0.26,2.88-1.51,5.29-3.65,7.24c-1.47,1.34-3.15,2.35-4.93,3.22c-2.03,0.99-4.14,1.8-6.26,2.57c-0.12,0.04-0.23,0.08-0.35,0.12
			c-0.12,0.04-0.17,0.12-0.16,0.25c0.01,0.11,0,0.22,0,0.33c0,8.21,0,16.41,0.01,24.62c0,0.49-0.13,0.89-0.54,1.18
			c-0.22,0.16-0.48,0.26-0.74,0.19c-0.56-0.15-1.13-0.04-1.68-0.02c-0.94,0.03-1.87,0.05-2.81,0.06c-9.28,0.1-18.56,0.05-27.84,0.05
			c-5.23,0-10.45-0.04-15.68-0.06c-5.09-0.02-10.18-0.05-15.26-0.08c-3.52-0.02-7.03-0.05-10.55-0.07c-0.21,0-0.4,0.01-0.61,0.08
			c-0.71,0.22-1.45-0.31-1.5-1.06c-0.01-0.12,0-0.25,0-0.37c0-8.29,0-16.58,0-24.86c0-0.1,0-0.19,0-0.29c0-0.32,0-0.32-0.32-0.41
			c-1.44-0.41-2.89-0.79-4.33-1.22c-2.49-0.75-4.73-1.96-6.63-3.75c-1.99-1.87-3.29-4.13-3.77-6.83c-0.45-2.54-0.1-4.99,0.91-7.35
			c0.05-0.11,0.1-0.23,0.15-0.34c0.19-0.01,0.22,0.15,0.25,0.27c0.15,0.59,0.28,1.19,0.3,1.64c0.08-0.85,0.34-1.83,0.61-2.8
			c0.17-0.61,0.39-1.2,0.58-1.8C10.18,35.16,10.26,34.88,10.57,34.78z"/>
		<path class="st6" d="M75.29,10.88c0.21-0.18,0.32-0.44,0.44-0.68c0.26-0.48,0.5-0.96,0.7-1.47c0.39-1.06,0.68-2.14,0.87-3.25
			c0.1-0.58,0.16-1.17,0.22-1.75c0.09-0.89,0.13-1.78,0.22-2.66c0.02-0.26,0.01-0.52,0.02-0.78c0-0.19,0-0.38,0.03-0.57
			c0.07,0.42,0.06,0.84,0.12,1.26c0.05,0.32,0.07,0.65,0.09,0.98c0.05,1.19,0.19,2.38,0.43,3.55c0.16,0.77,0.32,1.53,0.51,2.29
			c0.08,0.33,0.16,0.67,0.4,0.94c-0.04,0.21,0.08,0.37,0.16,0.54c0.27,0.6,0.63,1.14,1.08,1.62c0.49,0.43,0.87,0.95,1.33,1.4
			c0.15,0.14,0.11,0.3-0.06,0.42c-0.11,0.08-0.23,0.15-0.36,0.2c-1.18,0.48-1.86,1.43-2.38,2.53c-0.74,1.58-1.05,3.27-1.32,4.98
			c-0.13,0.82-0.25,1.63-0.41,2.45c-0.03,0.17-0.07,0.32-0.19,0.45c-0.06,0.3-0.12,0.6-0.18,0.9c-0.09,0.25,0.1,0.51-0.01,0.77
			c-0.07,0.16-0.06,0.42-0.28,0.38c-0.19-0.04-0.14-0.29-0.14-0.47c0-0.1,0.05-0.19,0.1-0.26c0-0.36,0-0.71,0.01-1.07
			c-0.09-0.1-0.11-0.22-0.11-0.35c0.03-0.9-0.1-1.79-0.1-2.68c0-1.28-0.15-2.56-0.5-3.8c-0.2-0.7-0.44-1.4-1.05-1.83
			c-0.68-0.48-1.38-0.96-2.21-1.18c-0.09-0.02-0.19-0.04-0.28-0.07c-0.1-0.03-0.23-0.05-0.24-0.18c-0.01-0.14,0.11-0.18,0.2-0.23
			c0.17-0.09,0.35-0.17,0.52-0.26c0.72-0.39,1.37-0.88,1.87-1.53C74.94,11.23,75.08,11.01,75.29,10.88z"/>
		<path class="st6" d="M10.57,34.78c-0.17,0.2-0.28,0.43-0.36,0.68c-0.46,1.41-0.91,2.83-1.17,4.3c-0.03,0.17-0.01,0.36-0.1,0.52
			c-0.01,0.02-0.04,0.03-0.07,0.05c-0.1-0.64-0.2-1.28-0.35-1.91c-0.03-0.12-0.03-0.25-0.15-0.32c0.07-0.26-0.05-0.49-0.1-0.73
			c-0.15-0.78-0.43-1.5-0.84-2.18c-0.64-1.04-1.57-1.58-2.76-1.74c-0.13-0.02-0.28,0-0.4-0.13c0.65-0.24,1.2-0.61,1.67-1.11
			c0.55-0.58,0.93-1.26,1.25-1.98c0.47-1.05,0.79-2.14,0.97-3.27c0.09-0.58,0.17-1.17,0.22-1.76c0.04-0.55,0.07-1.1,0.08-1.65
			c0-0.05-0.01-0.11,0.11-0.15c0.04,0.36,0.1,0.72,0.12,1.07c0.13,1.78,0.51,3.51,1.31,5.12c0.41,0.82,0.95,1.55,1.7,2.1
			c0.22,0.17,0.46,0.3,0.76,0.28c0.08-0.01,0.16-0.02,0.23,0.03c0.03,0.13-0.09,0.12-0.15,0.15c-0.7,0.31-1.14,0.89-1.51,1.53
			c-0.17,0.3-0.37,0.58-0.47,0.92C10.51,34.68,10.49,34.73,10.57,34.78z"/>
		<path class="st7" d="M34.24,58.94c0-0.16-0.12-0.15-0.23-0.17c-0.86-0.16-1.73-0.32-2.59-0.49c-1.86-0.37-3.7-0.82-5.53-1.32
			c-0.4-0.11-0.79-0.23-1.19-0.33c-0.17-0.04-0.27-0.11-0.33-0.26c-0.14-0.31-0.41-0.48-0.73-0.57c-1.77-0.5-3.55-0.98-5.32-1.5
			c-1.26-0.37-2.45-0.9-3.58-1.59c-0.84-0.51-1.62-1.1-2.32-1.78c-0.69-0.66-1.27-1.41-1.77-2.23c-0.55-0.92-0.94-1.9-1.16-2.95
			c-0.22-1.06-0.28-2.11-0.17-3.2c0.22-2.1,0.99-3.97,2.26-5.64c1.2-1.58,2.72-2.72,4.69-3.19c0.97-0.23,1.94-0.2,2.91-0.01
			c1.32,0.25,2.63,0.56,3.94,0.9c0.32,0.08,0.62,0.08,0.87-0.12c0.2-0.16,0.38-0.12,0.58-0.07c1.14,0.32,2.27,0.65,3.41,0.97
			c2.61,0.73,5.23,1.41,7.89,1.93c1.16,0.23,2.32,0.44,3.49,0.63c1.08,0.17,2.17,0.33,3.27,0.44c1.13,0.12,2.26,0.27,3.4,0.39
			c0.82,0.08,1.64,0.12,2.47,0.18c1.01,0.08,2.03,0.15,3.04,0.23c0.04,0,0.08,0.01,0.12,0.01c0.95-0.01,1.9,0.08,2.85,0.11
			c0.89,0.03,1.79,0.03,2.68,0.08c2.95,0.14,5.9,0.05,8.85,0.07c0.68,0,1.35,0.02,2.03-0.02c0.85-0.05,1.71-0.04,2.56-0.09
			c0.97-0.06,1.95-0.08,2.92-0.16c0.86-0.08,1.73-0.12,2.59-0.21c0.68-0.07,1.37-0.13,2.05-0.2c0.81-0.08,1.61-0.2,2.41-0.3
			c0.95-0.12,1.9-0.27,2.85-0.43c1.23-0.2,2.46-0.44,3.68-0.7c2.35-0.5,4.67-1.15,6.98-1.81c1.08-0.31,2.16-0.64,3.24-0.97
			c0.24-0.07,0.44-0.09,0.67,0.05c0.26,0.16,0.55,0.14,0.84,0.06c1.22-0.33,2.45-0.62,3.68-0.91c0.88-0.2,1.77-0.26,2.67-0.19
			c0.65,0.05,1.27,0.25,1.86,0.51c1.47,0.63,2.62,1.68,3.57,2.94c1.08,1.43,1.78,3.05,2.05,4.82c0.31,1.99,0.18,3.96-0.7,5.82
			c-0.55,1.16-1.33,2.14-2.3,2.99c-1.43,1.26-3.07,2.19-4.79,2.99c-1.62,0.76-3.29,1.41-4.97,2.02c-0.56,0.2-1.12,0.39-1.68,0.58
			c-0.35,0.12-0.65,0.31-0.76,0.69c-0.05,0.16-0.17,0.2-0.3,0.24c-1.12,0.33-2.25,0.63-3.39,0.89c-1.17,0.27-2.34,0.5-3.52,0.7
			c-0.84,0.14-1.68,0.26-2.53,0.38c-0.84,0.11-1.69,0.22-2.53,0.31c-0.71,0.08-1.42,0.13-2.14,0.19c-0.92,0.08-1.83,0.15-2.75,0.23
			c-0.48,0.04-0.96,0.06-1.44,0.08c-0.78,0.03-1.57,0.1-2.35,0.12c-0.91,0.03-1.82,0.04-2.72,0.1c-0.84,0.05-1.68,0.03-2.52,0.07
			c-2.47,0.11-4.93,0.03-7.4,0.1c-1.36,0.04-2.73,0.08-4.09,0.03c-2.1-0.07-4.19,0-6.28-0.08c-0.91-0.04-1.82-0.02-2.73-0.07
			c-1.29-0.07-2.58-0.11-3.88-0.17c-0.88-0.04-1.76-0.09-2.63-0.16c-1.16-0.1-2.33-0.15-3.49-0.3c-0.54-0.07-1.1-0.09-1.64-0.17
			c-0.07-0.01-0.14,0.01-0.18,0.07c-0.18,0.02-0.26-0.13-0.36-0.24c-0.85-0.87-1.39-1.91-1.72-3.07c-0.62-2.2-0.97-4.44-1.15-6.71
			c-0.02-0.25,0.02-0.5,0.01-0.71c-0.09,1.89,0.01,3.81-0.06,5.72c-0.05,1.46-0.31,2.88-1.12,4.14
			C34.47,58.77,34.43,58.95,34.24,58.94z"/>
		<path class="st8" d="M96.25,82.42c-0.36,0.06-0.64,0.11-0.93,0.11c-2.15,0-4.3-0.02-6.45,0.02c-7.2,0.13-14.4,0.09-21.59,0.04
			c-7.05-0.05-14.09,0.02-21.14-0.08c-4.88-0.07-9.76,0.01-14.64-0.08c-1.82-0.03-3.64-0.01-5.46-0.06c0.39-0.88,6.11-5.56,8.5-7.06
			c3.14-1.97,6.4-3.66,9.88-4.95c3.48-1.29,7.07-2.18,10.75-2.62c9.41-1.11,18.39,0.37,26.93,4.51
			C87.39,74.8,92.07,78.2,96.25,82.42z"/>
		<path class="st8" d="M76.68,24.6c0,0.23,0,0.45,0,0.68c0.21-0.21,0.23-0.46,0.25-0.7c0.01-0.13-0.04-0.28,0.08-0.39
			c0.06,0.26,0.06,0.27,0.3,0.19c0.89-0.29,1.76-0.64,2.62-1c1.34-0.55,2.65-1.16,3.93-1.84c2.27-1.19,4.45-2.54,6.52-4.05
			c0.34-0.25,0.68-0.49,1.08-0.69c-0.18,0.26-0.36,0.53-0.55,0.79c-1.17,1.6-2.22,3.28-3.19,5.01c-0.68,1.21-1.32,2.45-1.89,3.72
			c-0.89,2-1.68,4.04-2.31,6.14c-0.44,1.46-0.82,2.94-1.12,4.44c-0.05,0.25-0.17,0.32-0.37,0.35c-0.43,0.06-0.87,0.12-1.31,0.18
			c-0.8,0.11-1.6,0.22-2.41,0.31c-0.68,0.08-1.37,0.13-2.05,0.19c-0.86,0.08-1.72,0.15-2.59,0.23c-0.48,0.04-0.96,0.05-1.44,0.08
			c-0.7,0.04-1.4,0.08-2.1,0.1c-4.02,0.15-8.05,0.1-12.07,0.07c-0.96-0.01-1.93-0.02-2.89-0.08c-0.65-0.04-1.29-0.03-1.94-0.07
			c-0.99-0.07-1.98-0.11-2.97-0.17c-1.08-0.06-2.17-0.15-3.25-0.25c-1.34-0.12-2.68-0.26-4.02-0.41c-1.02-0.12-2.04-0.27-3.06-0.41
			c-0.2-0.03-0.3-0.1-0.35-0.33c-0.39-1.86-0.88-3.69-1.48-5.49c-0.62-1.85-1.35-3.66-2.18-5.44c-1.06-2.27-2.3-4.42-3.66-6.51
			c-0.52-0.79-1.09-1.55-1.64-2.33c-0.06-0.08-0.13-0.15-0.12-0.25l0,0c0.53,0.29,0.99,0.69,1.48,1.04
			c1.32,0.93,2.66,1.81,4.05,2.63c1.22,0.72,2.47,1.39,3.76,2c2.53,1.2,5.14,2.19,7.83,2.95c1.42,0.4,2.84,0.75,4.29,1.02
			c0.98,0.19,1.97,0.33,2.97,0.46c0.97,0.13,1.94,0.17,2.91,0.3c0.04,0.01,0.08,0,0.12,0.01c1.54,0.06,3.08,0.15,4.62,0.07
			c1.01-0.05,2.03-0.1,3.04-0.2c1.03-0.1,2.05-0.23,3.07-0.37c0.87-0.13,1.73-0.31,2.59-0.48C73.09,25.71,74.9,25.2,76.68,24.6z"/>
		<path class="st8" d="M75.29,10.88c-0.27,0.55-0.68,0.99-1.14,1.39c-0.57,0.49-1.21,0.85-1.9,1.14c0.09,0.16,0.23,0.1,0.34,0.13
			c0.49,0.12,0.94,0.3,1.35,0.6c0.09,0.06,0.18,0.13,0.28,0.17c1.1,0.43,1.6,1.34,1.89,2.4c0.24,0.89,0.36,1.79,0.44,2.71
			c0.05,0.63,0.03,1.26,0.06,1.89c0.04,0.74,0.12,1.48,0.08,2.22c-0.16-0.03-0.3,0.03-0.44,0.08c-2.18,0.74-4.4,1.3-6.66,1.71
			c-1.05,0.19-2.11,0.35-3.18,0.45c-1.18,0.12-2.36,0.19-3.54,0.26c-1.01,0.06-2.01,0.08-3.01,0.04c-1.08-0.05-2.17-0.09-3.25-0.2
			c-1.16-0.12-2.32-0.26-3.47-0.45c-0.99-0.16-1.97-0.36-2.95-0.59c-2.42-0.56-4.78-1.3-7.08-2.23c-1.93-0.78-3.8-1.68-5.62-2.69
			c-2.35-1.31-4.57-2.81-6.7-4.46c-1.1-0.85-2.15-1.76-3.17-2.71c-0.46-0.43-0.93-0.87-1.38-1.31c-0.09-0.09-0.21-0.17-0.25-0.34
			c0.17-0.08,0.34-0.04,0.5-0.05c3.9-0.01,7.81,0.03,11.71-0.03c5.82-0.1,11.64,0.01,17.46-0.08c6.45-0.1,12.91-0.03,19.36-0.06
			C75.1,10.86,75.19,10.87,75.29,10.88z"/>
		<path class="st9" d="M39.94,60.51c0.07,0.16,0.21,0.16,0.35,0.16c1.17,0.06,2.33,0.21,3.49,0.27c0.89,0.05,1.78,0.11,2.68,0.16
			c1.26,0.07,2.53,0.11,3.79,0.17c0.92,0.05,1.85,0.02,2.77,0.07c2.41,0.14,4.82,0.04,7.23,0.08c0.36,0.01,0.72,0.09,1.07,0.05
			c0.7-0.08,1.4-0.04,2.11-0.05c1.9-0.01,3.81,0,5.71-0.03c1.32-0.02,2.64-0.05,3.97-0.1c0.76-0.03,1.51-0.02,2.27-0.07
			c1.17-0.07,2.34-0.11,3.5-0.17c0.84-0.04,1.67-0.11,2.51-0.16c0.56-0.03,1.12-0.11,1.68-0.15c0.39-0.03,0.4-0.01,0.51,0.37
			c0.95,3.16,2.25,6.18,3.81,9.09c1.17,2.19,2.51,4.27,3.99,6.26c0.04,0.05,0.1,0.09,0.08,0.18c-0.11,0.03-0.17-0.05-0.24-0.11
			c-1.92-1.47-3.94-2.77-6.04-3.96c-2.63-1.47-5.36-2.69-8.21-3.67c-2.27-0.78-4.58-1.39-6.93-1.82c-1.11-0.2-2.22-0.38-3.34-0.5
			c-1.05-0.12-2.11-0.18-3.16-0.26c-1.45-0.1-2.89-0.08-4.34-0.04c-1,0.03-2,0.11-3,0.21c-1.29,0.13-2.56,0.31-3.84,0.53
			c-1.31,0.23-2.61,0.52-3.9,0.86c-1.37,0.37-2.72,0.8-4.06,1.27c-1.38,0.49-2.72,1.05-4.05,1.66c-2.49,1.14-4.85,2.49-7.12,4.02
			c-0.92,0.62-1.82,1.29-2.72,1.94c-0.03-0.02-0.03-0.04-0.03-0.06c0.01-0.02,0.02-0.03,0.02-0.03c0.69-0.98,1.4-1.94,2.05-2.95
			c1.17-1.82,2.23-3.7,3.17-5.65c0.07-0.15,0.16-0.29,0.23-0.43c0.13,0.08,0.17,0.22,0.18,0.35c0.11,0.8,0.25,1.61,0.25,2.25
			c0.18-1.72,0.5-3.59,1.1-5.41c0.39-1.18,0.79-2.35,1.51-3.38c0.19-0.27,0.38-0.54,0.6-0.79C39.7,60.63,39.77,60.49,39.94,60.51z"
			/>
		<path class="st9" d="M97.29,11.74c0.12,0.22,0.08,0.36,0.08,0.49c0,6.92,0,13.84,0,20.76c0,0.08,0,0.17,0,0.25
			c0.01,0.18-0.07,0.27-0.25,0.32c-0.53,0.15-1.05,0.32-1.58,0.47c-1.6,0.46-3.19,0.93-4.8,1.37c-1.91,0.52-3.84,0.96-5.78,1.35
			c-0.47,0.09-0.94,0.16-1.48,0.25C85.58,27.19,90.29,18.87,97.29,11.74z"/>
		<path class="st9" d="M97.35,81.64c-0.15-0.02-0.21-0.12-0.28-0.2c-1.48-1.47-2.84-3.04-4.12-4.68c-1.43-1.84-2.73-3.77-3.9-5.78
			c-1.26-2.17-2.35-4.43-3.26-6.77c-0.4-1.04-0.76-2.1-1.1-3.16c-0.02-0.07-0.04-0.13-0.06-0.2c-0.06-0.15-0.01-0.24,0.16-0.25
			c0.56-0.06,1.12-0.11,1.68-0.17c0.74-0.09,1.47-0.18,2.21-0.28c1.07-0.16,2.14-0.34,3.21-0.54c0.84-0.16,1.67-0.34,2.5-0.53
			c0.91-0.21,1.81-0.46,2.71-0.71c0.08-0.02,0.15-0.07,0.26-0.02C97.35,66.1,97.35,73.86,97.35,81.64z"/>
		<path class="st9" d="M38.52,36.77c-3.41-0.57-6.69-1.35-9.94-2.28c-1.15-0.33-2.3-0.64-3.46-0.96c-0.38-0.11-0.39-0.11-0.39-0.51
			c0-6.99,0-13.98,0-20.97c0-0.07-0.02-0.14,0.03-0.19c0.78,0.47,4.34,4.6,6.17,7.32c1.8,2.67,3.36,5.46,4.65,8.41
			C36.86,30.52,37.83,33.57,38.52,36.77z"/>
		<path class="st9" d="M35.64,66.15c-0.06-0.03-0.12-0.09-0.17,0.01c-0.08,0.16-0.16,0.32-0.23,0.48c-1.18,2.62-2.59,5.11-4.2,7.48
			c-0.96,1.41-1.99,2.77-3.09,4.08c-0.91,1.09-1.86,2.14-2.85,3.16c-0.09,0.1-0.18,0.21-0.31,0.27c-0.11-0.06-0.06-0.17-0.06-0.26
			c0-7.73,0-15.47,0-23.2c0-0.04,0-0.08,0-0.12c0.01-0.27,0.02-0.27,0.3-0.2c0.92,0.24,1.83,0.49,2.75,0.72
			c1.73,0.43,3.48,0.8,5.24,1.12c0.13,0.02,0.27,0.06,0.4,0.09c0.02,0.25-0.18,0.32-0.34,0.42c-0.4,0.25-0.83,0.46-1.37,0.6
			c0.54,0.29,1,0.58,1.44,0.91c0.21,0.16,0.42,0.32,0.57,0.53c0.83,1.11,1.54,2.28,1.93,3.61C35.68,65.95,35.74,66.05,35.64,66.15z"
			/>
		<path class="st9" d="M77.2,23.29c0.21-1.19,0.39-2.38,0.59-3.57c0.25-1.53,0.58-3.06,1.28-4.46c0.4-0.82,0.89-1.59,1.68-2.1
			c0.32-0.21,0.68-0.35,1.03-0.54c0.22-0.12,0.22-0.13,0.05-0.32c-0.35-0.37-0.75-0.69-1.04-1.12c-0.07-0.1-0.13-0.21-0.2-0.31
			c0.9,0,1.79-0.01,2.69-0.01c3.01,0,6.01-0.02,9.02,0.02c1.27,0.02,2.53,0.05,3.8,0.07c0.05,0,0.11-0.02,0.16,0.07
			c-0.06,0.13-0.18,0.22-0.29,0.32c-2.06,2.05-4.28,3.93-6.65,5.61c-1.76,1.24-3.58,2.38-5.47,3.39c-2.02,1.08-4.1,2.02-6.25,2.8
			C77.45,23.18,77.32,23.24,77.2,23.29z"/>
		<path class="st6" d="M35.64,66.15c-0.31-0.93-0.61-1.85-1.18-2.66c-0.13-0.18-0.26-0.36-0.36-0.55c-0.45-0.84-1.19-1.34-1.99-1.8
			c-0.19-0.11-0.37-0.22-0.58-0.35c0.16-0.14,0.33-0.14,0.48-0.2c0.51-0.2,1.03-0.39,1.41-0.82c0.02-0.01,0.05-0.01,0.07-0.02
			c0.04-0.02,0.06-0.05,0.09-0.07c0.22-0.25,0.44-0.5,0.66-0.75c0.71-0.97,1.01-2.09,1.22-3.24c0.07-0.4,0.09-0.82,0.1-1.23
			c0.01-1.35,0.02-2.7,0-4.05c-0.01-0.58,0.09-1.15,0.09-1.73c0-0.09,0.02-0.19,0.11-0.25c0.06,0.01,0.05,0.05,0.05,0.09
			c-0.01,0.69,0.09,1.37,0.15,2.05c0.06,0.64,0.13,1.28,0.23,1.92c0.14,0.88,0.32,1.75,0.52,2.62c0.2,0.87,0.43,1.73,0.85,2.53
			c0.29,0.56,0.65,1.08,1.1,1.54c0.1,0.11,0.2,0.22,0.3,0.34c0.3,0.27,0.59,0.56,0.94,0.77c0.1,0.06,0.13,0.13,0.05,0.22
			c-0.9,0.97-1.52,2.1-1.97,3.34c-0.5,1.37-0.89,2.77-1.14,4.2c-0.11,0.65-0.23,1.29-0.28,1.95c-0.02,0.26-0.08,0.51-0.08,0.78
			c-0.13-0.04-0.14-0.14-0.15-0.23c-0.02-0.52-0.11-1.03-0.16-1.55c-0.04-0.44-0.11-0.87-0.19-1.3c0-0.05,0-0.09,0-0.14
			c-0.05-0.08,0-0.18-0.06-0.26C35.81,66.92,35.73,66.54,35.64,66.15z"/>
		<path class="st10" d="M8.02,44.95c0.01,0.02,0.04,0.05,0.04,0.07c0.05,0.81,0.05,1.62,0.01,2.43c-0.1-0.58-0.18-1.16-0.14-1.74
			C8.04,45.46,7.89,45.19,8.02,44.95z"/>
		<path class="st11" d="M8.02,44.95c-0.06,0.25,0.08,0.52-0.09,0.76c-0.03-0.34-0.02-0.67,0-1.06C8.04,44.76,8.01,44.86,8.02,44.95z
			"/>
		<path class="st12" d="M30.51,76.74c0,0.03,0,0.06,0,0.08c-0.02,0.05-0.05,0.1-0.11,0.11c-0.01,0-0.04-0.04-0.03-0.05
			C30.4,76.81,30.45,76.76,30.51,76.74z"/>
		<path class="st9" d="M35.9,67.3c0.09,0.07,0.08,0.16,0.06,0.26C35.89,67.49,35.89,67.4,35.9,67.3z"/>
		<path class="st8" d="M30.52,16.66c-0.01-0.01-0.03-0.02-0.04-0.03c0.01,0,0.02,0,0.02,0.01C30.51,16.64,30.51,16.65,30.52,16.66
			C30.51,16.66,30.52,16.66,30.52,16.66z"/>
		<path class="st9" d="M33.58,59.69c-0.02,0.04-0.05,0.07-0.09,0.07C33.51,59.74,33.55,59.72,33.58,59.69z"/>
		<path class="st6" d="M46.98,46.62c-0.74,0.02-1.48-0.1-2.22-0.15c-0.51-0.03-1.01-0.1-1.52-0.11c-0.64-0.02-1.29-0.05-1.93-0.14
			c-0.07-0.01-0.14-0.01-0.21-0.01c-0.94,0.01-1.87-0.11-2.79-0.19c-1.49-0.13-2.97-0.34-4.43-0.62c-1.17-0.23-2.35-0.43-3.52-0.65
			c-1.35-0.26-2.68-0.61-3.99-1.03c-1.14-0.36-2.04-1.07-2.81-1.95c-0.39-0.45-0.43-1.35-0.11-1.81c0.15-0.22,0.37-0.36,0.6-0.49
			c0.5-0.28,1.05-0.38,1.61-0.47c0.75-0.12,1.47,0.04,2.21,0.08c0.49,0.02,0.99,0.07,1.48,0.11c0.71,0.06,1.42,0.14,2.13,0.2
			c1.3,0.11,2.55,0.53,3.85,0.63c0.76,0.06,1.53,0.16,2.29,0.24c0.79,0.08,1.59,0.13,2.38,0.17c0.45,0.02,0.89,0.18,1.33,0.27
			c0.86,0.17,1.73,0.29,2.6,0.39c0.74,0.09,1.47,0.12,2.21,0.22c0.71,0.1,1.42,0.1,2.13,0.19c1.05,0.12,2.1,0.2,3.11,0.54
			c0.17,0.06,0.33,0.13,0.5,0.2c1.13,0.51,1.37,1.83,0.47,2.76c-0.36,0.37-0.79,0.65-1.27,0.83c-0.91,0.34-1.85,0.59-2.83,0.71
			C47.83,46.6,47.41,46.61,46.98,46.62z"/>
		<path class="st6" d="M103.23,42.97c-0.92,0.08-1.69-0.16-2.38-0.66c-0.07-0.05-0.13-0.1-0.19-0.16c-0.38-0.39-0.77-0.79-1.11-1.22
			c-0.55-0.69-0.59-1.52-0.26-2.31c0.58-1.42,1.67-2.25,3.15-2.58c0.75-0.17,1.5-0.08,2.24,0.12c0.49,0.13,0.98,0.29,1.43,0.54
			c0.8,0.46,1.4,1.06,1.57,2.01c0.22,1.26-0.18,2.31-1.12,3.15c-0.73,0.65-1.65,0.92-2.59,1.1
			C103.7,43.01,103.43,42.97,103.23,42.97z"/>
		<path class="st6" d="M17.1,42.98c-1.09,0.06-1.92-0.43-2.68-1.08c-0.39-0.33-0.78-0.65-0.99-1.14c-0.18-0.4-0.24-0.79-0.15-1.24
			c0.17-0.84,0.63-1.52,1.13-2.17c0.59-0.77,1.39-1.16,2.33-1.34c0.78-0.14,1.5,0.05,2.21,0.32c0.69,0.27,1.31,0.66,1.73,1.29
			c0.52,0.78,0.59,1.63,0.25,2.47c-0.46,1.13-1.27,1.98-2.35,2.56C18.1,42.9,17.6,43.01,17.1,42.98z"/>
		<path class="st6" d="M63.97,42.31c0.48,0.01,0.96-0.05,1.42,0.17c0.49,0.23,0.93,0.53,1.26,0.96c0.27,0.36,0.26,0.43-0.06,0.73
			c-0.44,0.41-0.99,0.63-1.56,0.79c-0.93,0.25-1.87,0.4-2.82,0.52c-0.98,0.13-1.94,0.08-2.89-0.2c-0.76-0.22-0.77-0.28-0.76-1.08
			c0.01-0.34,0.12-0.63,0.36-0.84c0.25-0.22,0.55-0.37,0.87-0.46c0.94-0.27,1.89-0.43,2.86-0.51C63.1,42.34,63.53,42.32,63.97,42.31
			z"/>
		<path class="st13" d="M15.79,47.25c-0.01,0.37-0.11,0.69-0.38,0.94c-0.19,0.18-0.36,0.37-0.58,0.53c-0.32,0.23-0.65,0.27-1.01,0.1
			c-0.15-0.07-0.3-0.14-0.44-0.22c-0.44-0.26-0.64-0.74-0.5-1.24c0.1-0.4,0.21-0.8,0.49-1.12c0.45-0.52,1.19-0.6,1.74-0.18
			C15.51,46.36,15.79,46.73,15.79,47.25z"/>
		<path class="st14" d="M9.94,44.1c0.03,0.48,0.13,0.95-0.03,1.42c-0.03,0.08-0.06,0.16-0.17,0.14c-0.09-0.01-0.08-0.1-0.08-0.17
			c0-0.31,0-0.63,0.01-0.94C9.68,44.37,9.76,44.22,9.94,44.1z"/>
		<path class="st6" d="M49.86,11.95c0.76,0,1.51-0.03,2.26,0.08c1.26,0.18,2.5,0.43,3.53,1.24c0.54,0.42,1.08,0.86,1.39,1.5
			c0.35,0.73,0.29,1.42-0.2,2.09c-0.32,0.44-0.73,0.75-1.19,1c-1.32,0.7-2.71,1.22-4.18,1.5c-0.84,0.16-1.69,0.17-2.54,0.05
			c-0.43-0.06-0.88-0.05-1.31-0.08c-1.72-0.12-3.36-0.51-4.92-1.24c-0.57-0.27-1.15-0.53-1.66-0.91c-0.4-0.3-0.75-0.66-1-1.08
			c-0.5-0.86-0.36-1.79,0.57-2.51c0.6-0.47,1.3-0.71,2.07-0.71c0.4,0,0.76-0.08,1.11-0.24c0.61-0.27,1.26-0.36,1.91-0.45
			c0.86-0.11,1.72-0.13,2.58-0.22C48.81,11.9,49.34,11.95,49.86,11.95z"/>
		<path class="st6" d="M61.86,16.39c0.07-1.11,0.66-1.89,1.62-2.39c0.9-0.46,1.8-0.39,2.64,0.19c0.64,0.45,0.95,1.41,0.75,2.17
			c-0.25,0.93-0.83,1.57-1.69,1.95c-1.13,0.5-2.46,0.13-3.07-0.89C61.93,17.12,61.87,16.91,61.86,16.39z"/>
		<path class="st6" d="M31.27,26.19c0.01,0.94-0.25,1.68-0.86,2.29c-0.52,0.52-1.16,0.63-1.83,0.44c-1.03-0.3-1.61-1.05-1.87-2.07
			c-0.14-0.53-0.09-1.07,0.02-1.59c0.07-0.37,0.23-0.68,0.66-0.76c0.18-0.03,0.27-0.19,0.36-0.33c0.45-0.69,1.11-0.93,1.89-0.8
			c0.4,0.06,0.73,0.3,0.97,0.65C31.05,24.71,31.3,25.46,31.27,26.19z"/>
		<path class="st15" d="M36.12,56.35c0.07,0.05,0.09,0.1,0.1,0.16c0,0.07,0,0.14-0.07,0.17c-0.03,0.01-0.08,0.01-0.11-0.01
			c-0.07-0.05-0.02-0.12,0-0.18C36.06,56.44,36.06,56.39,36.12,56.35z"/>
		<path class="st16" d="M42.36,42.75c0.71,0.08,1.43,0.1,2.13,0.27C43.76,43.12,43.06,42.92,42.36,42.75z"/>
		<path class="st17" d="M105.6,39.65c0.01-0.4-0.22-0.69-0.38-1C105.61,38.78,105.71,39.02,105.6,39.65z"/>
	</g>
</g>
</svg>
