<?xml version="1.0" encoding="utf-8"?>
<!-- Generator: Adobe Illustrator 23.0.1, SVG Export Plug-In . SVG Version: 6.00 Build 0)  -->
<svg version="1.1" id="Calque_1" xmlns="http://www.w3.org/2000/svg" xmlns:xlink="http://www.w3.org/1999/xlink" x="0px" y="0px"
	 viewBox="0 0 124.79 305.68" style="enable-background:new 0 0 124.79 305.68;" xml:space="preserve">
<style type="text/css">
	.st0{fill:#EF7961;}
	.st1{fill:#69150C;}
	.st2{fill:#F6C292;}
	.st3{fill:#DD3626;}
	.st4{fill:#135A73;}
	.st5{fill:#614E1A;}
	.st6{fill:#988760;}
	.st7{fill:#988860;}
	.st8{fill:#998860;}
	.st9{fill:#837145;}
	.st10{fill:#C7BA9D;}
</style>
<g>
	<path class="st0" d="M100.99,143.18c-3.7-5.57-11.83-4.44-13.13-4.16c-1.11,0.24-2.46,0.63-3.46,0.36
		c-0.75-0.2-0.85-0.71-1.37-1.46c-0.89-1.29-2.13-2.21-3.69-2.53c-1.24-0.26-2.47-0.12-3.72-0.21c-0.55-0.04-0.76-0.1-1.06-0.68
		c-0.55-1.07-0.39-2.49-0.44-3.64c-0.06-1.47-0.2-2.97-0.71-4.36c-2.05-5.54-7.84-9.21-13.71-9.06c-3.53,0.09-6.51,1.68-8.46,4.64
		c-1.49,2.27-1.98,4.95-2.23,7.62c-0.37,13.41,3.27,16.15,5.51,17.42c2.57,1.45,5.55,1.17,8.35,1.71c2.16,0.42,3.85,1.56,5.18,3.32
		c1.3,1.72,2.18,3.74,2.88,5.77c0.26,0.75,0.55,1.48,0.88,2.17c-0.6,1.11-0.53,2.66,0.47,3.52c3.31,2.83,7.78,3.02,11.59,1.05
		c1.69-0.88,3.2-2.2,4.44-3.63c0.08-0.09,0.68-0.81,1.15-1.38c0.41,0.12,0.81,0.22,1.22,0.3c0.15,0.05,0.29,0.1,0.43,0.14
		c4.08,1.17,8.23-1.49,10.24-4.94C103.38,151.69,103.23,146.56,100.99,143.18z"/>
	<path class="st1" d="M119.08,254.05c0.71-8.42-0.54-10.25-8.79-14.8c-8.76-4.83-8.65-2.28-14.9-12.65
		c-6.04-10.02-8.41-19.92-10.1-29.82c-1.61-9.44-6.12-18.66-6.08-28.25c0.04-10.3-3.29-8.76-6.02-12.49
		c-3.33-4.56-7.77-8.7-13.88-7.52c-0.2,0.04-0.39,0.09-0.59,0.14c-0.22-0.41-0.5-0.79-0.85-1.11c-1.98-1.82-4.83-1.83-6.81,0
		c-11.36,10.51-14.69,26.19-16.8,40.86c-1.17,8.1-4.05,13.73-5.49,21.81c-2.04,11.44-1.52,18.85-2.21,28.04
		c-0.71,9.4-3.49,15.05-0.13,22.72c1.15,2.62,1.92,2.92,4.01,3.79c1.53,0.64,3.32,0.62,3.9,0.58c1.24-0.09,2.49-0.11,3.73-0.08
		c5.32,0.14,10.51,1.17,15.84,0.49c1.52-0.19,3.03-0.43,4.54-0.68c0.58-0.1,1.17-0.2,1.76-0.29c0.17-0.03,0.34-0.05,0.51-0.08
		c-0.02,0.01,0.63-0.08,0.73-0.09c2.63-0.29,5.27-0.24,7.91-0.08c1.32,0.08,2.65,0.2,3.97,0.31c0.54,0.05,1.08,0.09,1.62,0.15
		c0.31,0.03,0.62,0.06,0.93,0.1c0.12,0.01,0.68,0.09,0.68,0.09c0.95,0.16,1.89,0.34,2.82,0.6c0.52,0.14,1.02,0.33,1.52,0.5
		c0.01,0,0.02,0.01,0.03,0.01c0.02,0.02,0.05,0.03,0.08,0.05c0.32,0.2,0.67,0.35,0.99,0.54c4.17,2.48,16.77,2.15,22.89,0.64
		C109.84,266.29,118.35,262.71,119.08,254.05z"/>
	<path class="st2" d="M72.19,148.7c-3.99-1.99-8.47-2.99-12.88-3.14c-4.31-0.14-8.45,0.32-12.34,2.3c-3.7,1.9-5.5,22.21-5.5,22.21
		s2.83,12.59,3.3,19.69c0.12,1.87-3.39,10.43-1.43,10.43c2.09,0,3.23-1.61,3.48-3.48c0.07-0.54,0.15-1.09,0.23-1.63
		c0.87,0.79,2.19,1.03,3.34,0.75c0.62,0.82,1.59,1.37,2.61,1.44c1.34,0.32,2.66-0.2,3.48-1.2c0.57,0.54,1.3,0.9,2,0.99
		c0.58,0.07,1.2-0.01,1.76-0.23c-0.01,1.51-0.02,3.02-0.02,4.53c0,1.2,0.49,2.07,1.21,2.62c0.18,1.51,1.52,2.77,2.99,2.94
		c1.52,0.18,3.56-16.04,3.79-17.78c1.33-9.85,1.43-9.05,2.76-18.9C70.99,170.26,78.89,152.04,72.19,148.7z"/>
	<path class="st2" d="M41.48,170.08c0,0-15.69-11.32-19.36-27.91c-3.74-16.89-1.79-25.88,1.81-36.53c1.17-3.45,6.14-14,10.83-11.39
		c2.98,1.66,0.04,6.58-1.32,10.83c-1.69,5.27-3.38,12.28-3.38,23.73c0,8.52,3.89,13.36,8.35,16.73c3.14,2.37,8.57,2.33,8.57,2.33"/>
	<path class="st2" d="M70.99,170.26c0,0,21.24-7.74,26.02-27.28c4.03-16.51,0.94-31.53-3.13-40.3c-1.53-3.3-6.42-12.04-11.11-9.43
		c-2.98,1.66,0,6.36,1.36,10.61c1.69,5.27,4.93,14.31,4.93,25.76c0,8.52-3.89,13.36-8.35,16.73c-3.14,2.37-8.57,2.33-8.57,2.33"/>
	<path class="st2" d="M61.89,138.3c-0.18-0.04-0.37-0.04-0.55,0c-0.37-0.24-0.87-0.27-1.19-0.01c-0.02-0.01-0.05-0.01-0.07-0.02
		c0-0.06,0.01-0.12,0.01-0.18c0.02-0.45-0.32-0.76-0.73-0.87c-0.23-0.84-1.61-1.1-1.93-0.07c-0.07,0.21-0.12,0.43-0.19,0.64
		c0,0-0.01,0-0.01-0.01c0.01-1.2-1.89-1.14-2.02,0.03c-0.47,4.16-0.84,8.33-1.11,12.51c-0.06,0.89,1.01,1.11,1.62,0.69
		c0.04,0.09,0.08,0.19,0.13,0.28c0.41,0.78,1.48,0.47,1.81-0.16c0.05,0.02,0.09,0.05,0.13,0.07c0.47,0.18,1.17-0.2,1.24-0.65
		c0.01-0.03,0.01-0.07,0.02-0.1c0.45,0.38,1.3,0.39,1.6-0.11c0.37-0.11,0.7-0.39,0.75-0.85l0.05-0.42c0.33-0.02,0.65-0.17,0.8-0.45
		c0.64-1.22,0.57-2.97,0.7-4.3c0.17-1.73,0.27-3.47,0.31-5.2C63.28,138.31,62.49,138.06,61.89,138.3z"/>
	<path class="st2" d="M55.26,121.37c2.1-1.65,5.28-1.95,7.72-0.52c0.45,0.17,0.89,0.47,1.28,0.9c3.45,3.81,3.03,10.13,1.58,14.37
		c-0.69,2-1.77,4.36-3.66,5.57c-0.86,0.55-1.78,0.76-2.68,0.71c-1.04,0.05-2.8,0.18-3.65-0.51c-0.43-0.33-1.17-0.87-1.75-1.94
		c-2.08-3.46-2.14-8.1-2.08-10.73C52.09,126.3,52.87,123.25,55.26,121.37z"/>
	<path class="st1" d="M40.19,287.83c-0.28,0.03-0.53,0.19-0.7,0.4c-0.9,0.41-5.51,8.81-5.08,10.04c0.35,0.99,1.48,1.06,2.55,0.89
		c0.31-0.05,0.61-0.13,0.9-0.24c3.36-1.66,4.78-4.64,5.6-5.87c0.61-0.91,0.94-1.95,0.86-3.05
		C43.97,285.34,42.27,287.62,40.19,287.83z"/>
	<path class="st2" d="M48.6,258.72c1.2-10.86,2.81-21.24,3.56-32.14c0.43-6.2,0.79-12.41,1.11-18.62c0.15-2.9-3.84-3.68-4.67-1.08
		c-1.21-0.27-2.6,0.27-2.89,1.8c-0.18-0.07-0.36-0.13-0.53-0.15c-1.42-0.19-2.37,0.8-2.71,2.06c-2.59,9.72-2.48,19.87-2.7,29.85
		c-0.22,10.2-0.29,42.17-0.42,47.93c-0.05,2.35,2.56,3.26,3.83,1.08C43.99,288.08,48,264.09,48.6,258.72z"/>
	<path class="st1" d="M69.25,287.86c-0.27,0.08-0.49,0.27-0.62,0.51c-0.82,0.55-3.95,9.62-3.32,10.75c0.51,0.92,1.64,0.8,2.67,0.45
		c0.3-0.1,0.58-0.23,0.84-0.38c3.03-2.2,3.94-5.38,4.53-6.72c0.45-1,0.6-2.08,0.34-3.15C72.56,284.77,71.26,287.3,69.25,287.86z"/>
	<path class="st2" d="M72.64,257.75c-0.64-10.9-0.81-21.41-1.9-32.28c-0.62-6.19-1.31-12.36-2.04-18.54
		c-0.34-2.89-4.41-2.98-4.78-0.28c-1.24-0.06-2.52,0.71-2.55,2.26c-0.19-0.04-0.37-0.07-0.55-0.06c-1.44,0.05-2.21,1.19-2.33,2.49
		c-0.92,10.01,0.9,20,2.36,29.88c1.5,10.09,6.81,41.62,7.65,47.32c0.35,2.33,3.07,2.79,3.96,0.42
		C73.03,287.48,72.96,263.15,72.64,257.75z"/>
	<path class="st0" d="M64.17,119.71c-0.36-0.45-1.01-0.68-1.71-0.37c-0.1,0.04-0.2,0.09-0.3,0.13c-0.2-0.16-0.45-0.27-0.76-0.31
		c-1.76-0.2-3.5,0.08-5.07,0.76c-2.41,0.73-4.56,2.07-5.85,4.46c-0.31,0.58-0.17,1.13,0.17,1.51c-0.63,0.8-1.12,1.75-1.56,2.85
		c-0.51,1.3,1.35,2.18,2.24,1.3c3.71-3.67,13.86-2.33,14.23-9.05C65.62,120.08,64.88,119.65,64.17,119.71z"/>
	<path class="st1" d="M71.3,148.35c0,0,6.8,0.49,9.67-2.19c3.89-3.64,7.46-6.86,8.1-16.56l9.83,1.92
		c-0.18,4.29-0.75,7.57-2.07,12.16c-5.84,20.43-24.56,27.18-24.56,27.18L71.3,148.35z"/>
	<path class="st1" d="M47.29,147.73c0,0-4.85,0.97-9.09-2.35c-4.19-3.28-7.1-6.1-8.14-16.41l-9.68,2.54
		c0.18,4.29,0.7,8.05,2.14,12.61c5.12,16.2,18.75,26.12,18.75,26.12l5.71-22.37"/>
	<path class="st3" d="M68.85,184.99c-0.38-3.16-0.88-6.3-1.52-9.41c-0.06-2.3-0.12-4.6-0.18-6.89c-0.03-1.26-0.94-2.35-2.2-2.5
		c-0.16-0.02-0.33-0.02-0.51-0.01c1.69-4.8,3.09-9.7,4.17-14.68c0.51-2.33-2.45-4.47-4.25-2.47c-2.34,2.6-4.69,5.2-7.08,7.74
		c-1.08-2.69-2.17-5.37-3.25-8.06c-0.23-0.57-0.58-1-0.99-1.29c-0.43-0.45-1.03-0.74-1.75-0.74c-1.26,0-2.68,1.17-2.54,2.54
		c0.29,2.79,0.86,5.48,1.83,8.1c-0.76,0.98-1.31,2.24-1.73,3.19c-0.74,1.68-1.3,3.44-2.12,5.09c-2.94,5.95-9.22,13.7-3.94,20.18
		c0.65,0.8,2,0.94,2.95,0.48c-0.06,0.47-0.12,0.93-0.18,1.4c-0.16,1.23,1.09,2.36,2.2,2.5c1.29,0.15,14.89-2.99,18.55-2.63
		C67.56,187.65,69,186.26,68.85,184.99z"/>
	<path class="st4" d="M69.52,186.73c-0.25-0.4-11.75,0-17.51,0c-2.62,0-9.48,0.47-9.2,2.33c-1.16,5.17-7.27,46.3-7.15,49.51
		c-0.52,7.16-1.05,14.32-1.57,21.48c-0.19,2.64-0.39,5.27-0.58,7.91c-0.15,2.06-0.88,4.86,0.33,6.73c1.33,2.07,18.75,0.79,18.81-0.7
		c0.09-2.2,2.28-35.46,1.96-48.91c0.07-0.59,0.15-1.17,0.23-1.75c0.11,1.3,0.23,2.6,0.33,3.89c0.33,4.01,3.78,44.93,3.92,46.41
		c0.13,1.38,1.26,2.44,2.71,2.06c2.83-0.74,14.41-3.03,15.41-5.54C77.69,268.98,70.06,186.68,69.52,186.73z"/>
	<path class="st1" d="M41.31,152.4c0,0-0.01,0.14-0.01,0.22c-0.24,5.98-1.32,11.61-2.58,17.74c-0.6,1.94-3.88,20.77-3.99,27.05
		c-0.04,2.2-6.36,26.5-4.24,26.78c1.97,0.26,9.24-6.6,12.91-25.61c1.85-9.57,4.4-18.73,7.97-27.77c1.81-4.58,3.15-9.2,3.4-14.15
		c0.18-3.5-0.19-7.07-1.06-10.5c-0.02-0.09-0.12-0.34-0.12-0.34s-2.64,0.2-6.62,2.05C43.79,149.35,41.31,152.4,41.31,152.4z"/>
	<path class="st1" d="M75.1,184.32c-1.35-9.14-2.66-18.33-2.52-27.89c0.04-2.48,0.16-4.75,0.39-6.98c0.01-0.09,0.03-0.26,0.03-0.26
		s-1.55-1.02-4.31-1.95c-2.27-0.76-4.15-1.1-4.15-1.1s-0.02,0.16-0.03,0.24c-0.97,7.19-0.91,14.49-0.28,21.72
		c0.43,5,1.12,9.97,1.83,14.94c0.36,2.5,0.74,5,1.1,7.5c0.36,2.5,0.61,4.24,0.9,6.59c0.68,5.52,1.98,15.71,3.18,21.14
		c2.76,12.4,5.59,26.44,7.98,26.33c2.39-0.11-1.18-28.38-1.18-30.85C78.02,203.87,76.54,194.08,75.1,184.32z"/>
	<g>
		<path class="st5" d="M20.85,29.5c0.06-0.2,0.03-0.37,0.03-0.53c0-7.22,0-14.44,0-21.65c0-0.46,0.09-0.84,0.47-1.14
			c0.32-0.25,0.67-0.32,1.05-0.19c0.17,0.06,0.35,0.08,0.53,0.08c5.72-0.04,11.44-0.07,17.15-0.1c16.06-0.1,32.12-0.14,48.18-0.11
			c2.51,0.01,5.02,0.05,7.54,0.11c0.26,0.01,0.53,0.04,0.79,0.05c0.16,0.01,0.33,0.02,0.49-0.03c0.78-0.24,1.49,0.4,1.51,1.11
			c0,0.12,0,0.25,0,0.37c0,7.2,0,14.41,0,21.61c0,0.16-0.03,0.33,0.03,0.49c0.87-0.19,1.74-0.38,2.6-0.58
			c3.38-0.79,6.28,0.16,8.76,2.48c2.05,1.91,3.29,4.3,3.85,7.03c0.38,1.86,0.35,3.72-0.11,5.57c-0.57,2.31-1.84,4.19-3.63,5.75
			c-1.56,1.36-3.34,2.38-5.2,3.24c-1.91,0.89-3.87,1.65-5.85,2.36c-0.55,0.19-0.45,0.07-0.45,0.62c0,8.22,0,16.43,0,24.65
			c0,0.14,0,0.28,0,0.42c-0.03,0.82-0.9,1.37-1.51,1.12c-0.09-0.04-0.18-0.05-0.28-0.05c-10.42,0.31-20.85,0.17-31.27,0.17
			c-7.01,0-14.02-0.04-21.03-0.08c-7.15-0.04-14.3-0.08-21.44-0.13c-0.25,0-0.49,0.02-0.73,0.09c-0.66,0.19-1.38-0.32-1.44-1.01
			c-0.01-0.15-0.01-0.31-0.01-0.46c0-8.37,0-16.74,0-25.11c0-0.65,0.06-0.49-0.5-0.66c-1.56-0.47-3.16-0.83-4.71-1.35
			c-2.62-0.88-4.94-2.25-6.83-4.29c-1.72-1.85-2.81-4.02-3.17-6.52c-0.45-3.14,0.21-6.06,1.86-8.77c0.87-1.43,1.97-2.65,3.34-3.61
			c2.26-1.57,4.73-2.1,7.43-1.51C19.14,29.14,19.98,29.32,20.85,29.5z"/>
		<path class="st6" d="M7.72,40.97c0.02-2.57,0.85-4.86,2.45-6.87c0.96-1.22,2.13-2.17,3.59-2.75c1.26-0.5,2.56-0.56,3.88-0.32
			c1.35,0.25,2.68,0.57,4,0.92c0.31,0.08,0.62,0.06,0.87-0.13c0.2-0.14,0.37-0.12,0.58-0.07c2.45,0.68,4.89,1.42,7.37,2.02
			c1.92,0.47,3.85,0.89,5.8,1.23c1.33,0.24,2.67,0.44,4.01,0.62c1.07,0.15,2.14,0.28,3.21,0.37c1.05,0.08,2.09,0.23,3.14,0.3
			c0.51,0.03,1.02,0.08,1.53,0.11c1.24,0.07,2.49,0.15,3.73,0.23c0.03,0,0.06,0,0.08,0c1.12-0.02,2.24,0.07,3.37,0.11
			c3.86,0.13,7.71,0.07,11.57,0.05c1.4-0.01,2.8-0.09,4.19-0.17c0.8-0.05,1.6-0.1,2.4-0.16c0.77-0.05,1.54-0.16,2.31-0.22
			c0.62-0.05,1.24-0.11,1.86-0.19c0.81-0.1,1.62-0.21,2.43-0.31c1.11-0.14,2.22-0.32,3.32-0.53c0.99-0.18,1.98-0.38,2.97-0.6
			c2.82-0.63,5.61-1.42,8.38-2.26c0.58-0.18,1.17-0.33,1.75-0.51c0.16-0.05,0.29-0.04,0.43,0.04c0.3,0.19,0.62,0.18,0.96,0.09
			c1.34-0.35,2.68-0.7,4.03-0.97c2.07-0.41,3.97-0.01,5.67,1.24c2.18,1.61,3.45,3.82,4.08,6.42c0.23,0.98,0.31,1.97,0.24,2.97
			c-0.08,1.14-0.31,2.25-0.78,3.29c-0.39,0.85-0.91,1.62-1.54,2.31c-1.13,1.23-2.48,2.17-3.94,2.96c-2.05,1.12-4.21,1.98-6.4,2.79
			c-0.66,0.25-1.33,0.47-2,0.7c-0.32,0.11-0.58,0.3-0.72,0.59c-0.11,0.25-0.29,0.34-0.53,0.41c-1.33,0.38-2.67,0.72-4.02,1.01
			c-1.23,0.26-2.47,0.48-3.71,0.68c-0.9,0.14-1.8,0.27-2.71,0.38c-0.92,0.1-1.84,0.22-2.76,0.28c-0.81,0.05-1.62,0.16-2.44,0.23
			c-0.43,0.04-0.86,0.05-1.28,0.07c-0.66,0.03-1.33,0.09-1.99,0.12c-1.55,0.06-3.1,0.13-4.65,0.19c-0.82,0.03-1.64,0.03-2.45,0.06
			c-2.79,0.13-5.58,0.05-8.36,0.1c-0.66,0.01-1.33,0.07-1.99,0.04c-2.39-0.11-4.77,0-7.16-0.09c-0.98-0.04-1.97-0.02-2.95-0.07
			c-1.29-0.07-2.57-0.1-3.86-0.17c-0.91-0.05-1.82-0.11-2.74-0.16c-1.02-0.06-2.04-0.14-3.06-0.25c-0.93-0.1-1.87-0.19-2.8-0.3
			c-0.95-0.11-1.89-0.23-2.84-0.37c-1.33-0.19-2.65-0.42-3.96-0.68c-1.65-0.33-3.3-0.71-4.93-1.14c-0.67-0.18-1.34-0.36-2-0.54
			c-0.18-0.05-0.35-0.1-0.43-0.29c-0.14-0.34-0.44-0.49-0.77-0.58c-0.89-0.26-1.79-0.5-2.68-0.76c-1.43-0.42-2.9-0.73-4.28-1.33
			c-1.3-0.57-2.52-1.28-3.62-2.19c-1.15-0.95-2.08-2.08-2.77-3.39c-0.51-0.96-0.83-1.99-0.99-3.07C7.74,41.99,7.73,41.48,7.72,40.97
			z"/>
		<path class="st7" d="M24.57,8.19c0.14,0,0.27,0,0.41,0c3.93-0.01,7.86,0.03,11.78-0.03c5.91-0.1,11.82-0.01,17.73-0.08
			c12.35-0.14,24.7-0.06,37.06-0.04c1.22,0,2.44,0.02,3.66,0.07c-0.69,1.03-4.92,4.8-8.66,7.2c-3.17,2.04-6.51,3.74-10.05,5.05
			c-3.55,1.31-7.2,2.18-10.95,2.63c-3.75,0.45-7.51,0.46-11.27,0.01c-3.75-0.44-7.41-1.3-10.96-2.59c-3.54-1.29-6.9-2.97-10.06-5.02
			c-3.17-2.06-6.1-4.41-8.74-7.12C24.54,8.24,24.55,8.21,24.57,8.19z"/>
		<path class="st7" d="M95.3,80.04c-0.43,0.03-0.77,0.08-1.11,0.08c-2.12,0.01-4.25-0.01-6.37,0.03c-6.85,0.12-13.71,0.1-20.56,0.04
			c-7.2-0.06-14.4,0.02-21.61-0.08c-5-0.07-9.99,0.01-14.98-0.08c-1.97-0.04-3.94-0.02-5.91-0.05c-0.07,0-0.13-0.01-0.21-0.01
			c0.64-0.92,4.65-4.42,7.53-6.37c2.73-1.85,5.59-3.46,8.61-4.76c3.04-1.3,6.17-2.3,9.41-2.96c3.24-0.66,6.5-0.99,9.81-0.99
			c3.29,0,6.54,0.34,9.77,1.01c3.24,0.67,6.37,1.67,9.4,2.98c3.03,1.31,5.89,2.91,8.6,4.78C90.4,75.53,92.91,77.65,95.3,80.04z"/>
		<path class="st7" d="M29.14,13.83c1.24,0.93,2.51,1.82,3.82,2.66c2.12,1.36,4.33,2.53,6.62,3.57c1.69,0.77,3.43,1.43,5.2,2
			c2.01,0.64,4.04,1.16,6.12,1.53c1.16,0.21,2.32,0.38,3.49,0.51c1.1,0.12,2.2,0.19,3.31,0.26c1.03,0.06,2.05,0.07,3.08,0.05
			c1.23-0.03,2.46-0.11,3.69-0.22c1.34-0.12,2.67-0.3,3.99-0.53c1.44-0.25,2.87-0.58,4.29-0.96c1.95-0.53,3.87-1.18,5.74-1.94
			c1.84-0.75,3.62-1.62,5.36-2.56c1.66-0.9,3.25-1.92,4.8-2.99c0.5-0.35,0.99-0.72,1.48-1.07c0.12-0.08,0.24-0.16,0.4-0.2
			c-0.11,0.15-0.22,0.31-0.33,0.46c-1.26,1.71-2.4,3.49-3.44,5.34c-0.69,1.22-1.33,2.47-1.91,3.74c-0.55,1.21-1.06,2.44-1.51,3.69
			c-0.71,1.93-1.28,3.89-1.74,5.89c-0.08,0.36-0.16,0.73-0.23,1.1c-0.05,0.25-0.17,0.39-0.43,0.42c-0.89,0.11-1.78,0.24-2.67,0.35
			c-0.89,0.11-1.78,0.22-2.68,0.31c-0.41,0.05-0.83,0.07-1.24,0.1c-1.06,0.08-2.12,0.16-3.19,0.24c-0.03,0-0.06,0.01-0.08,0
			c-0.72-0.02-1.44,0.06-2.16,0.09c-3.99,0.15-7.99,0.1-11.99,0.06c-0.98-0.01-1.97-0.02-2.95-0.08c-0.62-0.04-1.25-0.03-1.87-0.07
			c-1.04-0.07-2.07-0.11-3.11-0.17c-0.75-0.05-1.49-0.1-2.24-0.16c-0.74-0.06-1.48-0.16-2.23-0.22c-0.62-0.04-1.24-0.11-1.86-0.19
			c-0.84-0.1-1.67-0.21-2.51-0.31c-0.48-0.06-0.96-0.13-1.44-0.19c-0.39-0.05-0.42-0.08-0.5-0.47c-0.49-2.31-1.14-4.57-1.95-6.78
			c-0.71-1.91-1.51-3.79-2.44-5.6c-1.31-2.54-2.8-4.97-4.52-7.27c-0.07-0.09-0.12-0.19-0.18-0.28c-0.02-0.02-0.03-0.05-0.02-0.07
			C29.13,13.84,29.14,13.83,29.14,13.83z"/>
		<path class="st7" d="M29.14,74.31c0.19-0.42,0.51-0.75,0.76-1.13c0.96-1.38,1.87-2.78,2.71-4.23c0.72-1.25,1.38-2.54,1.99-3.84
			c0.63-1.34,1.2-2.71,1.7-4.11c0.32-0.89,0.61-1.78,0.89-2.68c0.11-0.35,0.14-0.37,0.5-0.33c1.21,0.15,2.42,0.25,3.63,0.34
			c0.79,0.06,1.57,0.11,2.36,0.17c1.05,0.07,2.1,0.11,3.15,0.17c0.69,0.04,1.39,0.01,2.08,0.08c0.94,0.09,1.89,0.03,2.83,0.08
			c2.45,0.14,4.91,0.07,7.36,0.08c3.17,0.01,6.35,0.02,9.52-0.03c1.12-0.02,2.25,0,3.37-0.08c0.78-0.05,1.55-0.03,2.33-0.07
			c1.15-0.07,2.29-0.12,3.44-0.17c1.22-0.05,2.43-0.16,3.64-0.25c0.23-0.02,0.46-0.07,0.7-0.08c0.19,0,0.29,0.04,0.35,0.25
			c0.5,1.61,1.06,3.21,1.72,4.77c0.69,1.64,1.47,3.23,2.32,4.79c0.83,1.54,1.75,3.02,2.74,4.46c0.34,0.49,0.69,0.97,1.04,1.45
			c0.07,0.1,0.13,0.2,0.16,0.35c-0.16-0.12-0.32-0.23-0.48-0.35c-1.77-1.32-3.61-2.53-5.53-3.61c-2.09-1.19-4.25-2.22-6.48-3.1
			c-1.73-0.68-3.49-1.26-5.28-1.75c-1.31-0.36-2.63-0.66-3.96-0.89c-1.03-0.19-2.07-0.35-3.12-0.46c-0.99-0.1-1.98-0.18-2.98-0.25
			c-1.68-0.12-3.36-0.09-5.03-0.04c-1.14,0.03-2.29,0.15-3.43,0.29c-2.19,0.25-4.35,0.65-6.48,1.19c-2.39,0.61-4.73,1.39-7,2.35
			c-1.46,0.61-2.89,1.29-4.28,2.04c-2.45,1.31-4.78,2.8-6.99,4.49C29.32,74.24,29.25,74.32,29.14,74.31L29.14,74.31z"/>
		<path class="st8" d="M96.31,8.92c0.09,0.2,0.06,0.34,0.06,0.47c0,6.97,0,13.94,0,20.91c0,0.07-0.01,0.14,0,0.21
			c0.03,0.22-0.08,0.32-0.28,0.38c-0.69,0.19-1.38,0.4-2.07,0.6c-1.45,0.41-2.9,0.83-4.35,1.24c-1.68,0.46-3.38,0.86-5.09,1.19
			c-0.69,0.14-1.38,0.26-2.14,0.41c0.6-2.97,1.47-5.79,2.59-8.53C87.64,19.42,91.42,13.83,96.31,8.92z"/>
		<path class="st8" d="M23.36,8.96c0.47,0.39,0.82,0.84,1.21,1.25c1.13,1.19,2.18,2.44,3.18,3.73c0.83,1.07,1.62,2.18,2.36,3.31
			c0.94,1.44,1.81,2.92,2.6,4.45c1.3,2.49,2.37,5.07,3.22,7.74c0.46,1.44,0.84,2.89,1.16,4.37c0.05,0.26,0.04,0.27-0.2,0.23
			c-1.85-0.32-3.69-0.7-5.52-1.14c-2.4-0.57-4.76-1.27-7.13-1.94c-0.23-0.06-0.45-0.15-0.68-0.19c-0.22-0.04-0.27-0.15-0.25-0.34
			c0.01-0.07,0-0.14,0-0.21c0-6.94,0-13.87,0-20.81C23.31,9.27,23.28,9.14,23.36,8.96z"/>
		<path class="st8" d="M23.37,55.24c4.21,1.19,8.48,2.07,12.86,2.59c-2.49,8.23-6.81,15.3-12.83,21.39
			C23.29,78.87,23.28,55.7,23.37,55.24z"/>
		<path class="st8" d="M96.35,55.8c0,7.81,0,15.62,0,23.43c-0.14,0.04-0.19-0.09-0.26-0.16c-0.88-0.87-1.69-1.79-2.5-2.73
			c-1.49-1.72-2.85-3.54-4.1-5.44c-1.33-2.03-2.51-4.15-3.54-6.35c-0.88-1.89-1.63-3.82-2.26-5.8c-0.06-0.19-0.21-0.41-0.12-0.59
			c0.09-0.19,0.35-0.07,0.54-0.1c1.67-0.2,3.35-0.39,5.01-0.67c2.29-0.38,4.56-0.86,6.8-1.52C96.05,55.83,96.19,55.79,96.35,55.8z"
			/>
		<path class="st9" d="M29.14,13.83c0,0.03-0.01,0.06-0.01,0.1c-0.08-0.05-0.15-0.11-0.2-0.22C29.05,13.69,29.11,13.75,29.14,13.83z
			"/>
		<path class="st7" d="M29.15,74.31c-0.01,0.01-0.03,0.03-0.04,0.04c0-0.01,0-0.02,0-0.03C29.12,74.31,29.13,74.31,29.15,74.31
			C29.14,74.31,29.15,74.31,29.15,74.31z"/>
		<path class="st10" d="M41.42,42.9c-1.54,0.03-3.06-0.19-4.57-0.45c-1.12-0.19-2.23-0.38-3.34-0.62c-0.86-0.19-1.72-0.41-2.56-0.71
			c-0.33-0.12-0.66-0.2-1-0.29c-0.53-0.15-1.08-0.31-1.54-0.62c-0.49-0.33-1.01-0.63-1.43-1.06c-0.99-1.02-0.61-2.48,0.51-3.1
			c0.22-0.12,0.46-0.19,0.72-0.1c0.08,0.03,0.16,0.05,0.24,0.04c0.76-0.04,1.48,0.18,2.21,0.31c1.84,0.32,3.66,0.74,5.5,1.01
			c1.46,0.22,2.91,0.51,4.37,0.74c0.76,0.12,1.54,0.19,2.3,0.28c0.59,0.07,1.18,0.16,1.77,0.22c0.55,0.05,1.1,0.11,1.65,0.2
			c0.6,0.09,1.2,0.22,1.74,0.51c0.82,0.45,1.03,1.31,0.51,2.08c-0.21,0.3-0.47,0.54-0.8,0.7c-0.59,0.3-1.22,0.43-1.87,0.53
			c-1.04,0.16-2.09,0.23-3.13,0.32C42.29,42.93,41.85,42.9,41.42,42.9z"/>
		<path class="st10" d="M17.88,32.9c0.85,0.06,1.74,0.27,2.61,0.63c0.61,0.25,1.18,0.56,1.63,1.05c0.5,0.54,0.79,1.19,0.77,1.92
			c-0.05,1.4-0.94,2.11-2.08,2.32c-1.01,0.18-1.95-0.08-2.85-0.5c-0.64-0.3-1.17-0.74-1.65-1.24c-0.64-0.68-1.01-1.47-0.72-2.42
			c0.24-0.81,0.68-1.45,1.56-1.7C17.35,32.9,17.57,32.92,17.88,32.9z"/>
	</g>
</g>
</svg>
