<?xml version="1.0" encoding="utf-8"?>
<!-- Generator: Adobe Illustrator 23.0.1, SVG Export Plug-In . SVG Version: 6.00 Build 0)  -->
<svg version="1.1" id="Calque_1" xmlns="http://www.w3.org/2000/svg" xmlns:xlink="http://www.w3.org/1999/xlink" x="0px" y="0px"
	 viewBox="0 0 113.85 301.57" style="enable-background:new 0 0 113.85 301.57;" xml:space="preserve">
<style type="text/css">
	.st0{fill:#A3D2F3;}
	.st1{fill:#8692C9;}
	.st2{fill:#EF7961;}
	.st3{fill:#69150C;}
	.st4{fill:#F6C292;}
	.st5{fill:#DD3626;}
	.st6{fill:#135A73;}
</style>
<g>
	<g>
		<g>
			<g>
				<path class="st0" d="M30.83,96.62c0,2.46-1.99,4.45-4.45,4.45s-4.45-1.99-4.45-4.45c0-2.46,4.45-9.73,4.45-9.73
					S30.83,94.17,30.83,96.62z"/>
			</g>
			<g>
				<path class="st0" d="M30.04,136.92c0,2.46-1.99,4.45-4.45,4.45s-4.45-1.99-4.45-4.45s4.45-9.73,4.45-9.73
					S30.04,134.46,30.04,136.92z"/>
			</g>
		</g>
		<g>
			<g>
				<path class="st0" d="M62.84,106.86c0,2.46-1.99,4.45-4.45,4.45c-2.46,0-4.45-1.99-4.45-4.45s4.45-9.73,4.45-9.73
					S62.84,104.4,62.84,106.86z"/>
			</g>
		</g>
		<g>
			<g>
				<path class="st0" d="M94.03,82.22c0,2.46-1.99,4.45-4.45,4.45s-4.45-1.99-4.45-4.45s4.45-9.73,4.45-9.73
					S94.03,79.76,94.03,82.22z"/>
			</g>
		</g>
		<g>
			<g>
				<path class="st0" d="M92.99,126.92c0,2.46-1.99,4.45-4.45,4.45c-2.46,0-4.45-1.99-4.45-4.45c0-2.46,4.45-9.73,4.45-9.73
					S92.99,124.46,92.99,126.92z"/>
			</g>
		</g>
	</g>
	<path class="st1" d="M106.28,31.16c-1.4-2.29-4.59-5.26-6.99-6.5c-4.63-2.39-9.94-2.53-14.31,0.02c0-0.47,0-0.94-0.01-1.38
		c-0.08-2.08-0.28-4.19-1.01-6.16c-0.57-1.54-1.35-2.98-2.3-4.3c-0.31-0.67-0.65-1.32-1.06-1.94c-2.74-4.19-6.96-6.43-11.95-6.56
		c-0.68-0.02-1.36,0.01-2.04,0.07c-0.68-0.05-1.36-0.08-2.04-0.07c-4.99,0.13-9.21,2.38-11.95,6.56c-0.41,0.62-0.75,1.28-1.06,1.94
		c-0.94,1.32-1.73,2.76-2.3,4.3c-0.72,1.96-0.93,4.08-1.01,6.16c-0.01,0.26-0.01,0.53-0.01,0.8c-4.15-1.93-8.97-1.64-13.21,0.56
		c-2.39,1.24-4.53,3.1-6.28,5.14c-0.11,0.12-0.97,1.14-1.63,1.95c-0.58-0.17-1.15-0.32-1.72-0.42c-0.21-0.07-0.41-0.14-0.61-0.2
		c-5.77-1.65-11.71,2.07-14.47,6.98c-2.05,3.63-3.46,5.4-3.87,11.77c-0.29,4.5,2.13,12.26,2.71,12.09c0.66,0.8,1.52,1.82,1.63,1.95
		c1.75,2.03,3.89,3.9,6.28,5.14c4.63,2.39,9.94,2.53,14.31-0.02c0,0.47,0,0.94,0.01,1.38c0.08,2.08,0.28,4.19,1.01,6.16
		c0.57,1.54,1.35,2.98,2.3,4.3c0.31,0.67,0.65,1.32,1.06,1.94c2.74,4.19,6.96,6.43,11.95,6.56c0.68,0.02,1.36-0.01,2.04-0.07
		c0.68,0.05,1.36,0.08,2.04,0.07c4.99-0.13,9.21-2.38,11.95-6.56c0.41-0.63,0.75-1.28,1.06-1.94c0.94-1.32,1.73-2.76,2.3-4.3
		c0.72-1.96,0.93-4.08,1.01-6.16c0.01-0.26,0.01-0.53,0.01-0.8c4.15,1.93,8.97,1.64,13.21-0.56c2.39-1.24,4.53-3.1,6.28-5.14
		c0.11-0.12,0.97-1.14,1.63-1.95c0.58,0.17,1.15,0.32,1.72,0.42c0.21,0.07,0.41,0.14,0.61,0.2c5.77,1.65,11.63-2.11,14.47-6.98
		c1.2-2.05,2.67-7.6,2.61-10.87C108.6,41.98,109.28,36.06,106.28,31.16z"/>
	<path class="st2" d="M91.03,140.66c-3.7-5.57-11.83-4.44-13.13-4.16c-1.11,0.24-2.46,0.63-3.46,0.36c-0.75-0.2-0.85-0.71-1.37-1.46
		c-0.89-1.29-2.13-2.21-3.69-2.53c-1.24-0.26-2.47-0.12-3.72-0.21c-0.55-0.04-0.76-0.1-1.06-0.68c-0.55-1.07-0.39-2.49-0.44-3.64
		c-0.06-1.47-0.2-2.97-0.71-4.36c-2.05-5.54-7.84-9.21-13.71-9.06c-3.53,0.09-6.51,1.68-8.46,4.64c-1.49,2.27-1.98,4.95-2.23,7.62
		c-0.37,13.41,3.27,16.15,5.51,17.42c2.57,1.45,5.55,1.17,8.35,1.71c2.16,0.42,3.85,1.56,5.18,3.32c1.3,1.72,2.18,3.74,2.88,5.77
		c0.26,0.75,0.55,1.48,0.88,2.17c-0.6,1.11-0.53,2.66,0.47,3.52c3.31,2.83,7.78,3.02,11.59,1.05c1.69-0.88,3.2-2.2,4.44-3.63
		c0.08-0.09,0.68-0.81,1.15-1.38c0.41,0.12,0.81,0.22,1.22,0.3c0.15,0.05,0.29,0.1,0.43,0.14c4.08,1.17,8.23-1.49,10.24-4.94
		C93.41,149.16,93.27,144.04,91.03,140.66z"/>
	<path class="st3" d="M86.59,262.55c-0.37-2.38-1.5-4.69-2.27-6.97c-3.18-9.49-5.43-19.26-7.31-29.08
		c-1.88-9.87-3.38-19.81-5.07-29.71c-1.61-9.44-3.1-19.13-6.08-28.25c-1.43-4.38-3.29-8.76-6.02-12.49
		c-3.33-4.56-7.77-8.7-13.88-7.52c-0.2,0.04-0.39,0.09-0.59,0.14c-0.22-0.41-0.5-0.79-0.85-1.11c-1.98-1.82-4.83-1.83-6.81,0
		c-11.36,10.51-14.69,26.19-16.8,40.86c-1.17,8.1-2.25,16.22-4.7,24.06c-2.39,7.63-5.67,14.95-7.93,22.62
		c-2.66,9.04-3.83,18.58-3.48,27.99c0.11,2.86,3.03,5.81,6.09,4.64c2.33-0.89,4.73-1.57,7.18-2.01c0.33-0.06,0.65-0.11,0.98-0.16
		c-0.22,0.03-0.8,0.09,0.2-0.03c0.58-0.06,1.16-0.12,1.74-0.16c1.24-0.09,2.49-0.11,3.73-0.08c5.32,0.14,10.51,1.17,15.84,0.49
		c1.52-0.19,3.03-0.43,4.54-0.68c0.58-0.1,1.17-0.2,1.76-0.29c0.17-0.03,0.34-0.05,0.51-0.08c-0.02,0.01,0.63-0.08,0.73-0.09
		c2.63-0.29,5.27-0.24,7.91-0.08c1.32,0.08,2.65,0.2,3.97,0.31c0.54,0.05,1.08,0.09,1.62,0.15c0.31,0.03,0.62,0.06,0.93,0.1
		c0.12,0.01,0.68,0.09,0.68,0.09c0.95,0.16,1.89,0.34,2.82,0.6c0.52,0.14,1.02,0.33,1.52,0.5c0.01,0,0.02,0.01,0.03,0.01
		c0.02,0.02,0.05,0.03,0.08,0.05c0.32,0.2,0.67,0.35,0.99,0.54c4.17,2.48,9.23,7.93,14.47,4.42
		C86.11,269.31,87.13,265.99,86.59,262.55z"/>
	<path class="st4" d="M74.17,203.83c-0.07-0.21,2.32-23.43,1.87-25.59c-1.74-8.41-7.13-28.73-13.82-32.06
		c-3.99-1.99-8.47-2.99-12.88-3.14c-4.31-0.14-8.45,0.32-12.34,2.3c-3.7,1.9-9.6,6.69-14.23,21c-1.61,4.97-2.57,9.99-3.34,15.14
		c-1.61,10.82-2.53,18.55-4.14,29.37c-0.18,1.22,0.82,2.9,2.3,2.3c3.21-1.3,3.52-0.63,3.86-3.81c0.08-0.78-1.26-2.43-0.87-4.79
		c1.11-6.6,4.74-17.57,5.86-21.47c1.51-4.17,3.59-11.34,5.06-15.53c-0.07,0.79,2.83,12.59,3.3,19.69
		c0.12,1.87-3.39,10.43-1.43,10.43c2.09,0,3.23-1.61,3.48-3.48c0.07-0.54,0.15-1.09,0.23-1.63c0.87,0.79,2.19,1.03,3.34,0.75
		c0.62,0.82,1.59,1.37,2.61,1.44c1.34,0.32,2.66-0.2,3.48-1.2c0.57,0.54,1.3,0.9,2,0.99c0.58,0.07,1.2-0.01,1.76-0.23
		c-0.01,1.51-0.02,3.02-0.02,4.53c0,1.2,0.49,2.07,1.21,2.62c0.18,1.51,1.52,2.77,2.99,2.94c1.52,0.18,3.56-16.04,3.79-17.78
		c1.34-9.85,1.43-9.05,2.76-18.9c3.25,3.82,7.2,11.41,8.33,16.13c0.11,0.46-1.61,20.47-1.39,21.25c0.68-0.03-0.01,0.19-0.01,0.28
		c-0.13,0.32,0.18,1.97,0.24,2.35c0.39,2.39,1.1,4.64,2.05,6.87C70.78,215.85,74.36,203.97,74.17,203.83z"/>
	<path class="st4" d="M51.92,135.77c-0.18-0.04-0.37-0.04-0.55,0c-0.37-0.24-0.87-0.27-1.19-0.01c-0.02-0.01-0.05-0.01-0.07-0.02
		c0-0.06,0.01-0.12,0.01-0.18c0.02-0.45-0.32-0.76-0.73-0.87c-0.23-0.84-1.61-1.1-1.93-0.07c-0.07,0.21-0.12,0.43-0.19,0.64
		c0,0-0.01,0-0.01-0.01c0.01-1.2-1.89-1.14-2.02,0.03c-0.47,4.16-0.84,8.33-1.11,12.51c-0.06,0.89,1.01,1.11,1.62,0.69
		c0.04,0.09,0.08,0.19,0.13,0.28c0.41,0.78,1.48,0.47,1.81-0.16c0.05,0.02,0.09,0.05,0.13,0.07c0.47,0.18,1.17-0.2,1.24-0.65
		c0.01-0.03,0.01-0.07,0.02-0.1c0.45,0.38,1.3,0.39,1.6-0.11c0.37-0.11,0.7-0.39,0.75-0.85l0.05-0.42c0.33-0.02,0.65-0.17,0.8-0.45
		c0.64-1.22,0.57-2.97,0.7-4.3c0.17-1.73,0.27-3.47,0.31-5.2C53.31,135.78,52.52,135.54,51.92,135.77z"/>
	<path class="st4" d="M45.29,118.85c2.1-1.65,5.28-1.95,7.72-0.52c0.45,0.17,0.89,0.47,1.28,0.9c3.45,3.81,3.03,10.13,1.58,14.37
		c-0.69,2-1.77,4.36-3.66,5.57c-0.86,0.55-1.78,0.76-2.68,0.71c-1.04,0.05-2.8,0.18-3.65-0.51c-0.43-0.33-1.17-0.87-1.75-1.94
		c-2.08-3.46-2.14-8.1-2.08-10.73C42.13,123.78,42.91,120.73,45.29,118.85z"/>
	<path class="st3" d="M30.22,285.3c-0.28,0.03-0.53,0.19-0.7,0.4c-0.9,0.41-5.51,8.81-5.08,10.04c0.35,0.99,1.48,1.06,2.55,0.89
		c0.31-0.05,0.61-0.13,0.9-0.24c3.36-1.66,4.78-4.64,5.6-5.87c0.61-0.91,0.94-1.95,0.86-3.05C34.01,282.81,32.3,285.09,30.22,285.3z
		"/>
	<path class="st4" d="M38.64,256.19c1.2-10.86,2.81-21.24,3.56-32.14c0.43-6.2,0.79-12.41,1.11-18.62c0.15-2.9-3.84-3.68-4.67-1.08
		c-1.21-0.27-2.6,0.27-2.89,1.8c-0.18-0.07-0.36-0.13-0.53-0.15c-1.42-0.19-2.37,0.8-2.71,2.06c-2.59,9.72-2.48,19.87-2.7,29.85
		c-0.22,10.2-0.29,42.17-0.42,47.93c-0.05,2.35,2.56,3.26,3.83,1.08C34.02,285.56,38.04,261.57,38.64,256.19z"/>
	<path class="st3" d="M59.28,285.34c-0.27,0.08-0.49,0.27-0.62,0.51c-0.82,0.55-3.95,9.62-3.32,10.75c0.51,0.92,1.64,0.8,2.67,0.45
		c0.3-0.1,0.58-0.23,0.84-0.38c3.03-2.2,3.94-5.38,4.53-6.72c0.45-1,0.6-2.08,0.34-3.15C62.59,282.25,61.29,284.78,59.28,285.34z"/>
	<path class="st4" d="M62.67,255.23c-0.64-10.9-0.81-21.41-1.9-32.28c-0.62-6.19-1.31-12.36-2.04-18.54
		c-0.34-2.89-4.41-2.98-4.78-0.28c-1.24-0.06-2.52,0.71-2.55,2.26c-0.19-0.04-0.37-0.07-0.55-0.06c-1.44,0.05-2.21,1.19-2.33,2.49
		c-0.92,10.01,0.9,20,2.36,29.88c1.5,10.09,6.81,41.62,7.65,47.32c0.35,2.33,3.07,2.79,3.96,0.42
		C63.07,284.95,62.99,260.63,62.67,255.23z"/>
	<path class="st2" d="M54.21,117.19c-0.36-0.45-1.01-0.68-1.71-0.37c-0.1,0.04-0.2,0.09-0.3,0.13c-0.2-0.16-0.45-0.27-0.76-0.31
		c-1.76-0.2-3.5,0.08-5.07,0.76c-2.41,0.73-4.56,2.07-5.85,4.46c-0.31,0.58-0.17,1.13,0.17,1.51c-0.63,0.8-1.12,1.75-1.56,2.85
		c-0.51,1.3,1.35,2.18,2.24,1.3c3.71-3.67,13.86-2.33,14.23-9.05C55.65,117.56,54.92,117.13,54.21,117.19z"/>
	<path class="st3" d="M75.18,225.04c-0.89-12.03-3.26-23.9-7.1-35.33c-0.08-1.15-0.13-2.29-0.16-3.45c-0.05-2.75-4.33-2.76-4.28,0
		c0.01,0.38,0.02,0.75,0.03,1.13c-0.25,0.33-0.38,0.77-0.33,1.32c0.91,10.09,2.5,20.11,4.78,29.98c0.26,1.12,1.33,1.59,2.33,1.49
		c0.18,1.61,0.33,3.23,0.45,4.85C71.1,227.77,75.38,227.8,75.18,225.04z"/>
	<path class="st3" d="M76.14,178.29c-1.74-8.41-7.13-28.73-13.82-32.06c-0.48-0.24-0.97-0.46-1.46-0.67
		c-0.14,0.18-0.27,0.38-0.35,0.6c-0.88,2.28-0.92,4.74-0.82,7.16c0.04,0.82,0.09,1.64,0.14,2.47c-0.9,1.05-0.57,2.31,0.24,3.02
		c0.06,0.67,0.13,1.35,0.2,2.02c0.07,0.65,0.37,1.19,0.78,1.56c-0.05,0.11-0.09,0.21-0.14,0.32c-0.54,1.22,0.11,3.01,1.41,3.25
		c0.1,0.48,0.39,0.93,0.8,1.26c-0.41,0.53-0.59,1.19-0.37,1.88c-0.14,0.09-0.28,0.17-0.41,0.26c2.95,4.08,5.35,10.72,6.35,14.85
		c0.03,0.13,0.36,1.56,0.18,4.03c2.16,0.15,4.59,0.6,6.67,1.23C75.99,184.17,76.33,179.23,76.14,178.29z"/>
	<path class="st3" d="M31.44,167.82c-0.03,0.32,0.89,2.38,2.03,5.19c0.43-0.74,0.2-1.62-0.34-2.24c1.77-1.38,0.48-4.04-1.47-3.84
		c0.35-0.82,0.11-1.79-0.45-2.43c1.25-0.86,2.51-1.7,3.79-2.52c2-1.28,0.75-4.59-1.65-3.91c-0.17,0.05-0.33,0.1-0.49,0.15
		c0.62-0.45,1.24-0.9,1.86-1.35c1.16-0.84,1.18-2.22,0.56-3.12c0.5-0.99,0.06-2.23-0.82-2.81c0.43-0.78,0.64-1.65,0.45-2.63
		c-0.08-0.42-0.31-0.76-0.61-1.01c-3.52,2.71-7.94,8.08-11.58,19.31c-1.61,4.97-2.57,9.99-3.34,15.14
		c-0.43,2.87-0.81,5.53-1.16,8.08c1.13-1.42,3.12-1.92,4.81-2.26c0.73-0.15,1.46-0.27,2.2-0.38c0.48-1.58,0.89-2.91,1.16-3.84
		C27.9,179.18,29.98,172.01,31.44,167.82z"/>
	<path class="st3" d="M25.57,198.47c-0.77-0.57-2.15-0.68-2.81,0.17c-0.11,0.14-0.22,0.29-0.33,0.44c0,0,0,0,0,0
		c0,0.01-0.01,0.01-0.01,0.02c-3.16,4.22-5.08,9.03-6.37,14.06c-0.3,0.85-0.58,1.7-0.82,2.58c-0.12,0.44-0.12,0.84-0.03,1.18
		c-0.07,0.37-0.14,0.75-0.21,1.12c-0.06,0.19-0.09,0.37-0.1,0.55c-0.07,0.37-0.13,0.74-0.19,1.11c-0.19,1.14,0.3,2.3,1.49,2.63
		c1.02,0.28,2.44-0.35,2.63-1.49c0.09-0.52,0.18-1.05,0.27-1.58c1.88-4.06,3.96-8.01,6.24-11.85c0.59-0.98,0.29-1.93-0.35-2.53
		c0.21-0.43,0.42-0.86,0.63-1.29c0.28-0.57,0.31-1.12,0.16-1.61c0.11-0.25,0.22-0.49,0.34-0.74
		C26.57,200.27,26.48,199.15,25.57,198.47z"/>
	<path class="st5" d="M58.88,182.46c-0.38-3.16-0.88-6.3-1.52-9.41c-0.06-2.3-0.12-4.6-0.18-6.89c-0.03-1.26-0.94-2.35-2.2-2.5
		c-0.16-0.02-0.33-0.02-0.51-0.01c1.69-4.8,3.09-9.7,4.17-14.68c0.51-2.33-2.45-4.47-4.25-2.47c-2.34,2.6-4.69,5.2-7.08,7.74
		c-1.08-2.69-2.17-5.37-3.25-8.06c-0.23-0.57-0.58-1-0.99-1.29c-0.43-0.45-1.03-0.74-1.75-0.74c-1.26,0-2.68,1.17-2.54,2.54
		c0.29,2.79,0.86,5.48,1.83,8.1c-0.76,0.98-1.31,2.24-1.73,3.19c-0.74,1.68-1.3,3.44-2.12,5.09c-2.94,5.95-9.22,13.7-3.94,20.18
		c0.65,0.8,2,0.94,2.95,0.48c-0.06,0.47-0.12,0.93-0.18,1.4c-0.16,1.23,1.09,2.36,2.2,2.5c1.29,0.15,14.89-2.99,18.55-2.63
		C57.6,185.12,59.03,183.73,58.88,182.46z"/>
	<path class="st6" d="M59.55,184.2c-0.25-0.4-11.75,0-17.51,0c-2.62,0-9.48,0.47-9.2,2.33c-1.16,5.17-7.27,46.3-7.15,49.51
		c-0.52,7.16-1.05,14.32-1.57,21.48c-0.19,2.64-0.39,5.27-0.58,7.91c-0.15,2.06-0.88,4.86,0.33,6.73c1.33,2.07,18.75,0.79,18.81-0.7
		c0.09-2.2,2.28-35.46,1.96-48.91c0.07-0.59,0.15-1.17,0.23-1.75c0.11,1.3,0.23,2.6,0.33,3.89c0.33,4.01,3.78,44.93,3.92,46.41
		c0.13,1.38,1.26,2.44,2.71,2.06c2.83-0.74,14.41-3.03,15.41-5.54C67.72,266.45,60.09,184.16,59.55,184.2z"/>
	<path class="st3" d="M31.35,149.87c0,0-0.01,0.14-0.01,0.22c-0.24,5.98-1.32,11.61-2.58,17.74c-0.6,1.94-3.88,20.77-3.99,27.05
		c-0.04,2.2-6.36,26.5-4.24,26.78c1.97,0.26,9.24-6.6,12.91-25.61c1.85-9.57,4.4-18.73,7.97-27.77c1.81-4.58,3.15-9.2,3.4-14.15
		c0.18-3.5-0.19-7.07-1.06-10.5c-0.02-0.09-0.12-0.34-0.12-0.34s-2.64,0.2-6.62,2.05C33.83,146.83,31.35,149.87,31.35,149.87z"/>
	<path class="st3" d="M65.14,181.8c-1.35-9.14-2.66-18.33-2.52-27.89c0.04-2.48,0.16-4.75,0.39-6.98c0.01-0.09,0.03-0.26,0.03-0.26
		s-1.55-1.02-4.31-1.95c-2.27-0.76-4.15-1.1-4.15-1.1s-0.02,0.16-0.03,0.24c-0.97,7.19-0.91,14.49-0.28,21.72
		c0.43,5,1.12,9.97,1.83,14.94c0.36,2.5,0.74,5,1.1,7.5c0.36,2.5,0.61,4.24,0.9,6.59c0.68,5.52,1.98,15.71,3.18,21.14
		c2.76,12.4,5.59,26.44,7.98,26.33c2.39-0.11-1.18-28.38-1.18-30.85C68.05,201.35,66.57,191.55,65.14,181.8z"/>
</g>
</svg>
