<?xml version="1.0" encoding="utf-8"?>
<!-- Generator: Adobe Illustrator 23.0.0, SVG Export Plug-In . SVG Version: 6.00 Build 0)  -->
<svg version="1.1" xmlns="http://www.w3.org/2000/svg" xmlns:xlink="http://www.w3.org/1999/xlink" x="0px" y="0px"
	 viewBox="0 0 595.28 841.89" style="enable-background:new 0 0 595.28 841.89;" xml:space="preserve">
<style type="text/css">
	.st0{display:none;}
	.st1{display:inline;}
	.st2{fill:none;stroke:#95D4EC;stroke-linecap:round;stroke-linejoin:round;}
	.st3{display:inline;fill:#E9F6FE;stroke:#3272B8;stroke-width:2;stroke-miterlimit:10;}
	.st4{fill:#E8F6FE;stroke:#3272B8;stroke-width:2;stroke-linejoin:round;stroke-miterlimit:10;}
	.st5{fill:#B9E2FA;stroke:#3272B8;stroke-width:2;stroke-linejoin:round;stroke-miterlimit:10;}
	.st6{fill:#FFFFFF;stroke:#3272B8;stroke-width:2;stroke-linejoin:round;stroke-miterlimit:10;}
	.st7{display:none;fill:#3272B8;}
	.st8{fill:#FFFFFF;stroke:#3272B8;stroke-width:2;stroke-linecap:round;stroke-linejoin:round;stroke-miterlimit:10;}
	.st9{fill:#B9E2FA;stroke:#3272B8;stroke-width:2;stroke-linecap:round;stroke-linejoin:round;stroke-miterlimit:10;}
	.st10{fill:#E9F6FE;stroke:#3272B8;stroke-width:2;stroke-linejoin:round;stroke-miterlimit:10;}
	.st11{fill:#E8F6FE;stroke:#3272B8;stroke-width:2;stroke-linecap:round;stroke-linejoin:round;stroke-miterlimit:10;}
	.st12{fill:#3272B8;}
	
		.st13{display:inline;fill:#B9E2FA;stroke:#3272B8;stroke-width:2;stroke-linecap:round;stroke-linejoin:round;stroke-miterlimit:10;}
	
		.st14{display:inline;fill:#FFFFFF;stroke:#3272B8;stroke-width:2;stroke-linecap:round;stroke-linejoin:round;stroke-miterlimit:10;}
	.st15{display:inline;fill:#E9F6FE;stroke:#3272B8;stroke-width:2;stroke-linejoin:round;stroke-miterlimit:10;}
	
		.st16{display:inline;fill:#E8F6FE;stroke:#3272B8;stroke-width:2;stroke-linecap:round;stroke-linejoin:round;stroke-miterlimit:10;}
	.st17{display:inline;fill:none;stroke:#E9F6FE;stroke-width:2;stroke-miterlimit:10;}
</style>
<g id="Calque_1" class="st0">
	<g class="st1">
		<line class="st2" x1="-51.28" y1="19.46" x2="-15.01" y2="-1.48"/>
		<line class="st2" x1="577.86" y1="843.37" x2="238.87" y2="647.65"/>
		<line class="st2" x1="8.69" y1="843.37" x2="347.68" y2="647.65"/>
		<line class="st2" x1="44.96" y1="843.37" x2="383.95" y2="647.65"/>
		<line class="st2" x1="81.23" y1="843.37" x2="420.22" y2="647.65"/>
		<line class="st2" x1="117.49" y1="843.37" x2="456.49" y2="647.65"/>
		<line class="st2" x1="153.76" y1="843.37" x2="492.75" y2="647.65"/>
		<line class="st2" x1="190.03" y1="843.37" x2="529.02" y2="647.65"/>
		<line class="st2" x1="226.3" y1="843.37" x2="565.29" y2="647.65"/>
		<line class="st2" x1="262.57" y1="843.37" x2="601.56" y2="647.65"/>
		<line class="st2" x1="480.18" y1="843.37" x2="601.56" y2="773.29"/>
		<line class="st2" x1="516.45" y1="843.37" x2="601.56" y2="794.23"/>
		<line class="st2" x1="552.72" y1="843.37" x2="601.56" y2="815.17"/>
		<line class="st2" x1="588.99" y1="843.37" x2="601.56" y2="836.11"/>
		<line class="st2" x1="178.9" y1="843.37" x2="-51.28" y2="710.47"/>
		<line class="st2" x1="215.17" y1="843.37" x2="-51.28" y2="689.53"/>
		<line class="st2" x1="251.44" y1="843.37" x2="-51.28" y2="668.59"/>
		<line class="st2" x1="287.71" y1="843.37" x2="-51.28" y2="647.65"/>
		<line class="st2" x1="142.64" y1="843.37" x2="-51.28" y2="731.41"/>
		<line class="st2" x1="106.37" y1="843.37" x2="-51.28" y2="752.35"/>
		<line class="st2" x1="33.83" y1="843.37" x2="-51.28" y2="794.23"/>
		<line class="st2" x1="-2.44" y1="843.37" x2="-51.28" y2="815.17"/>
		<line class="st2" x1="-38.71" y1="843.37" x2="-51.28" y2="836.11"/>
		<line class="st2" x1="469.06" y1="843.37" x2="130.07" y2="647.65"/>
		<line class="st2" x1="505.32" y1="843.37" x2="166.33" y2="647.65"/>
		<line class="st2" x1="541.59" y1="843.37" x2="202.6" y2="647.65"/>
		<line class="st2" x1="335.11" y1="843.37" x2="601.56" y2="689.53"/>
		<line class="st2" x1="371.38" y1="843.37" x2="601.56" y2="710.47"/>
		<line class="st2" x1="407.65" y1="843.37" x2="601.56" y2="731.41"/>
		<line class="st2" x1="443.91" y1="843.37" x2="601.56" y2="752.35"/>
		<line class="st2" x1="323.98" y1="843.37" x2="-15.01" y2="647.65"/>
		<line class="st2" x1="360.25" y1="843.37" x2="21.26" y2="647.65"/>
		<line class="st2" x1="396.52" y1="843.37" x2="57.53" y2="647.65"/>
		<line class="st2" x1="432.79" y1="843.37" x2="93.8" y2="647.65"/>
		<line class="st2" x1="298.84" y1="843.37" x2="601.56" y2="668.59"/>
		<line class="st2" x1="-33.14" y1="843.37" x2="-33.14" y2="647.65"/>
		<line class="st2" x1="-15.01" y1="843.37" x2="-15.01" y2="647.65"/>
		<line class="st2" x1="3.12" y1="843.37" x2="3.12" y2="647.65"/>
		<line class="st2" x1="21.26" y1="843.37" x2="21.26" y2="647.65"/>
		<line class="st2" x1="39.39" y1="843.37" x2="39.39" y2="647.65"/>
		<line class="st2" x1="57.53" y1="843.37" x2="57.53" y2="647.65"/>
		<line class="st2" x1="75.66" y1="843.37" x2="75.66" y2="647.65"/>
		<line class="st2" x1="93.8" y1="843.37" x2="93.8" y2="647.65"/>
		<line class="st2" x1="111.93" y1="843.37" x2="111.93" y2="647.65"/>
		<line class="st2" x1="130.07" y1="843.37" x2="130.07" y2="647.65"/>
		<line class="st2" x1="148.2" y1="843.37" x2="148.2" y2="647.65"/>
		<line class="st2" x1="166.33" y1="843.37" x2="166.33" y2="647.65"/>
		<line class="st2" x1="184.47" y1="843.37" x2="184.47" y2="647.65"/>
		<line class="st2" x1="202.6" y1="843.37" x2="202.6" y2="647.65"/>
		<line class="st2" x1="220.74" y1="843.37" x2="220.74" y2="647.65"/>
		<line class="st2" x1="238.87" y1="843.37" x2="238.87" y2="647.65"/>
		<line class="st2" x1="257.01" y1="843.37" x2="257.01" y2="647.65"/>
		<line class="st2" x1="275.14" y1="843.37" x2="275.14" y2="647.65"/>
		<line class="st2" x1="293.28" y1="843.37" x2="293.28" y2="647.65"/>
		<line class="st2" x1="311.41" y1="843.37" x2="311.41" y2="647.65"/>
		<line class="st2" x1="329.54" y1="843.37" x2="329.54" y2="647.65"/>
		<line class="st2" x1="347.68" y1="843.37" x2="347.68" y2="647.65"/>
		<line class="st2" x1="365.81" y1="843.37" x2="365.81" y2="647.65"/>
		<line class="st2" x1="383.95" y1="843.37" x2="383.95" y2="647.65"/>
		<line class="st2" x1="402.08" y1="843.37" x2="402.08" y2="647.65"/>
		<line class="st2" x1="420.22" y1="843.37" x2="420.22" y2="647.65"/>
		<line class="st2" x1="438.35" y1="843.37" x2="438.35" y2="647.65"/>
		<line class="st2" x1="456.49" y1="843.37" x2="456.49" y2="647.65"/>
		<line class="st2" x1="474.62" y1="843.37" x2="474.62" y2="647.65"/>
		<line class="st2" x1="492.75" y1="843.37" x2="492.75" y2="647.65"/>
		<line class="st2" x1="510.89" y1="843.37" x2="510.89" y2="647.65"/>
		<line class="st2" x1="529.02" y1="843.37" x2="529.02" y2="647.65"/>
		<line class="st2" x1="547.16" y1="843.37" x2="547.16" y2="647.65"/>
		<line class="st2" x1="565.29" y1="843.37" x2="565.29" y2="647.65"/>
		<line class="st2" x1="583.43" y1="843.37" x2="583.43" y2="647.65"/>
		<line class="st2" x1="70.1" y1="843.37" x2="-51.28" y2="773.29"/>
		<line class="st2" x1="-51.28" y1="668.59" x2="-15.01" y2="647.65"/>
		<line class="st2" x1="-51.28" y1="689.53" x2="21.26" y2="647.65"/>
		<line class="st2" x1="-51.28" y1="710.47" x2="57.53" y2="647.65"/>
		<line class="st2" x1="-51.28" y1="731.41" x2="93.8" y2="647.65"/>
		<line class="st2" x1="-51.28" y1="752.35" x2="130.07" y2="647.65"/>
		<line class="st2" x1="-51.28" y1="773.29" x2="166.33" y2="647.65"/>
		<line class="st2" x1="-51.28" y1="794.23" x2="202.6" y2="647.65"/>
		<line class="st2" x1="-51.28" y1="815.17" x2="238.87" y2="647.65"/>
		<line class="st2" x1="-51.28" y1="836.11" x2="275.14" y2="647.65"/>
		<line class="st2" x1="601.56" y1="689.53" x2="529.02" y2="647.65"/>
		<line class="st2" x1="601.56" y1="836.11" x2="275.14" y2="647.65"/>
		<line class="st2" x1="601.56" y1="815.17" x2="311.41" y2="647.65"/>
		<line class="st2" x1="601.56" y1="794.23" x2="347.68" y2="647.65"/>
		<line class="st2" x1="601.56" y1="773.29" x2="383.95" y2="647.65"/>
		<line class="st2" x1="601.56" y1="752.35" x2="420.22" y2="647.65"/>
		<line class="st2" x1="601.56" y1="731.41" x2="456.49" y2="647.65"/>
		<line class="st2" x1="601.56" y1="710.47" x2="492.75" y2="647.65"/>
		<line class="st2" x1="601.56" y1="668.59" x2="565.29" y2="647.65"/>
		<line class="st2" x1="583.43" y1="647.65" x2="583.43" y2="-1.48"/>
		<line class="st2" x1="565.29" y1="647.65" x2="565.29" y2="-1.48"/>
		<line class="st2" x1="547.16" y1="647.65" x2="547.16" y2="-1.48"/>
		<line class="st2" x1="529.02" y1="647.65" x2="529.02" y2="-1.48"/>
		<line class="st2" x1="510.89" y1="647.65" x2="510.89" y2="-1.48"/>
		<line class="st2" x1="492.75" y1="647.65" x2="492.75" y2="-1.48"/>
		<line class="st2" x1="474.62" y1="647.65" x2="474.62" y2="-1.48"/>
		<line class="st2" x1="456.49" y1="647.65" x2="456.49" y2="-1.48"/>
		<line class="st2" x1="438.35" y1="647.65" x2="438.35" y2="-1.48"/>
		<line class="st2" x1="420.22" y1="647.65" x2="420.22" y2="-1.48"/>
		<line class="st2" x1="402.08" y1="647.65" x2="402.08" y2="-1.48"/>
		<line class="st2" x1="383.95" y1="647.65" x2="383.95" y2="-1.48"/>
		<line class="st2" x1="365.81" y1="647.65" x2="365.81" y2="-1.48"/>
		<line class="st2" x1="347.68" y1="647.65" x2="347.68" y2="-1.48"/>
		<line class="st2" x1="329.54" y1="647.65" x2="329.54" y2="-1.48"/>
		<line class="st2" x1="311.41" y1="647.65" x2="311.41" y2="-1.48"/>
		<line class="st2" x1="293.28" y1="647.65" x2="293.28" y2="-1.48"/>
		<line class="st2" x1="275.14" y1="647.65" x2="275.14" y2="-1.48"/>
		<line class="st2" x1="257.01" y1="647.65" x2="257.01" y2="-1.48"/>
		<line class="st2" x1="238.87" y1="647.65" x2="238.87" y2="-1.48"/>
		<line class="st2" x1="220.74" y1="647.65" x2="220.74" y2="-1.48"/>
		<line class="st2" x1="202.6" y1="647.65" x2="202.6" y2="-1.48"/>
		<line class="st2" x1="184.47" y1="647.65" x2="184.47" y2="-1.48"/>
		<line class="st2" x1="166.33" y1="647.65" x2="166.33" y2="-1.48"/>
		<line class="st2" x1="148.2" y1="647.65" x2="148.2" y2="-1.48"/>
		<line class="st2" x1="130.07" y1="647.65" x2="130.07" y2="-1.48"/>
		<line class="st2" x1="111.93" y1="647.65" x2="111.93" y2="-1.48"/>
		<line class="st2" x1="93.8" y1="647.65" x2="93.8" y2="-1.48"/>
		<line class="st2" x1="75.66" y1="647.65" x2="75.66" y2="-1.48"/>
		<line class="st2" x1="57.53" y1="647.65" x2="57.53" y2="-1.48"/>
		<line class="st2" x1="39.39" y1="647.65" x2="39.39" y2="-1.48"/>
		<line class="st2" x1="21.26" y1="647.65" x2="21.26" y2="-1.48"/>
		<line class="st2" x1="3.12" y1="647.65" x2="3.12" y2="-1.48"/>
		<line class="st2" x1="-15.01" y1="647.65" x2="-15.01" y2="-1.48"/>
		<line class="st2" x1="-33.14" y1="647.65" x2="-33.14" y2="-1.48"/>
		<line class="st2" x1="-51.28" y1="396.38" x2="601.56" y2="19.46"/>
		<line class="st2" x1="-15.01" y1="647.65" x2="601.56" y2="291.68"/>
		<line class="st2" x1="21.26" y1="647.65" x2="601.56" y2="312.62"/>
		<line class="st2" x1="57.53" y1="647.65" x2="601.56" y2="333.56"/>
		<line class="st2" x1="93.8" y1="647.65" x2="601.56" y2="354.5"/>
		<line class="st2" x1="130.07" y1="647.65" x2="601.56" y2="375.44"/>
		<line class="st2" x1="166.33" y1="647.65" x2="601.56" y2="396.38"/>
		<line class="st2" x1="202.6" y1="647.65" x2="601.56" y2="417.32"/>
		<line class="st2" x1="238.87" y1="647.65" x2="601.56" y2="438.26"/>
		<line class="st2" x1="275.14" y1="647.65" x2="601.56" y2="459.2"/>
		<line class="st2" x1="311.41" y1="647.65" x2="601.56" y2="480.14"/>
		<line class="st2" x1="347.68" y1="647.65" x2="601.56" y2="501.08"/>
		<line class="st2" x1="383.95" y1="647.65" x2="601.56" y2="522.02"/>
		<line class="st2" x1="420.22" y1="647.65" x2="601.56" y2="542.96"/>
		<line class="st2" x1="456.49" y1="647.65" x2="601.56" y2="563.89"/>
		<line class="st2" x1="492.75" y1="647.65" x2="601.56" y2="584.83"/>
		<line class="st2" x1="529.02" y1="647.65" x2="601.56" y2="605.77"/>
		<line class="st2" x1="565.29" y1="647.65" x2="601.56" y2="626.71"/>
		<line class="st2" x1="-15.01" y1="647.65" x2="-51.28" y2="626.71"/>
		<line class="st2" x1="21.26" y1="647.65" x2="-51.28" y2="605.77"/>
		<line class="st2" x1="57.53" y1="647.65" x2="-51.28" y2="584.83"/>
		<line class="st2" x1="93.8" y1="647.65" x2="-51.28" y2="563.89"/>
		<line class="st2" x1="130.07" y1="647.65" x2="-51.28" y2="542.96"/>
		<line class="st2" x1="601.56" y1="291.68" x2="93.8" y2="-1.48"/>
		<line class="st2" x1="601.56" y1="312.62" x2="57.53" y2="-1.48"/>
		<line class="st2" x1="601.56" y1="333.56" x2="21.26" y2="-1.48"/>
		<line class="st2" x1="601.56" y1="354.5" x2="-15.01" y2="-1.48"/>
		<line class="st2" x1="-51.28" y1="480.14" x2="601.56" y2="103.22"/>
		<line class="st2" x1="-51.28" y1="459.2" x2="601.56" y2="82.28"/>
		<line class="st2" x1="-51.28" y1="438.26" x2="601.56" y2="61.34"/>
		<line class="st2" x1="-51.28" y1="417.32" x2="601.56" y2="40.4"/>
		<line class="st2" x1="601.56" y1="19.46" x2="565.29" y2="-1.48"/>
		<line class="st2" x1="601.56" y1="61.34" x2="492.75" y2="-1.48"/>
		<line class="st2" x1="601.56" y1="82.28" x2="456.49" y2="-1.48"/>
		<line class="st2" x1="601.56" y1="103.22" x2="420.22" y2="-1.48"/>
		<line class="st2" x1="601.56" y1="124.16" x2="383.95" y2="-1.48"/>
		<line class="st2" x1="601.56" y1="145.1" x2="347.68" y2="-1.48"/>
		<line class="st2" x1="601.56" y1="166.04" x2="311.41" y2="-1.48"/>
		<line class="st2" x1="601.56" y1="186.98" x2="275.14" y2="-1.48"/>
		<line class="st2" x1="601.56" y1="207.92" x2="238.87" y2="-1.48"/>
		<line class="st2" x1="601.56" y1="228.86" x2="202.6" y2="-1.48"/>
		<line class="st2" x1="601.56" y1="249.8" x2="166.33" y2="-1.48"/>
		<line class="st2" x1="601.56" y1="270.74" x2="130.07" y2="-1.48"/>
		<line class="st2" x1="601.56" y1="40.4" x2="529.02" y2="-1.48"/>
		<line class="st2" x1="166.33" y1="647.65" x2="-51.28" y2="522.02"/>
		<line class="st2" x1="202.6" y1="647.65" x2="-51.28" y2="501.08"/>
		<line class="st2" x1="238.87" y1="647.65" x2="-51.28" y2="480.14"/>
		<line class="st2" x1="275.14" y1="647.65" x2="-51.28" y2="459.2"/>
		<line class="st2" x1="311.41" y1="647.65" x2="-51.28" y2="438.26"/>
		<line class="st2" x1="347.68" y1="647.65" x2="-51.28" y2="417.32"/>
		<line class="st2" x1="383.95" y1="647.65" x2="-51.28" y2="396.38"/>
		<line class="st2" x1="420.22" y1="647.65" x2="-51.28" y2="375.44"/>
		<line class="st2" x1="456.49" y1="647.65" x2="-51.28" y2="354.5"/>
		<line class="st2" x1="492.75" y1="647.65" x2="-51.28" y2="333.56"/>
		<line class="st2" x1="529.02" y1="647.65" x2="-51.28" y2="312.62"/>
		<line class="st2" x1="565.29" y1="647.65" x2="-51.28" y2="291.68"/>
		<line class="st2" x1="601.56" y1="647.65" x2="-51.28" y2="270.74"/>
		<line class="st2" x1="601.56" y1="626.71" x2="-51.28" y2="249.8"/>
		<line class="st2" x1="601.56" y1="605.77" x2="-51.28" y2="228.86"/>
		<line class="st2" x1="601.56" y1="584.83" x2="-51.28" y2="207.92"/>
		<line class="st2" x1="601.56" y1="563.89" x2="-51.28" y2="186.98"/>
		<line class="st2" x1="601.56" y1="542.96" x2="-51.28" y2="166.04"/>
		<line class="st2" x1="601.56" y1="522.02" x2="-51.28" y2="145.1"/>
		<line class="st2" x1="601.56" y1="501.08" x2="-51.28" y2="124.16"/>
		<line class="st2" x1="601.56" y1="480.14" x2="-51.28" y2="103.22"/>
		<line class="st2" x1="601.56" y1="459.2" x2="-51.28" y2="82.28"/>
		<line class="st2" x1="601.56" y1="375.44" x2="-51.28" y2="-1.48"/>
		<line class="st2" x1="601.56" y1="396.38" x2="-51.28" y2="19.46"/>
		<line class="st2" x1="601.56" y1="417.32" x2="-51.28" y2="40.4"/>
		<line class="st2" x1="601.56" y1="438.26" x2="-51.28" y2="61.34"/>
		<line class="st2" x1="-51.28" y1="563.89" x2="601.56" y2="186.98"/>
		<line class="st2" x1="-51.28" y1="542.96" x2="601.56" y2="166.04"/>
		<line class="st2" x1="-51.28" y1="522.02" x2="601.56" y2="145.1"/>
		<line class="st2" x1="-51.28" y1="501.08" x2="601.56" y2="124.16"/>
		<line class="st2" x1="-51.28" y1="584.83" x2="601.56" y2="207.92"/>
		<line class="st2" x1="-51.28" y1="605.77" x2="601.56" y2="228.86"/>
		<line class="st2" x1="-51.28" y1="626.71" x2="601.56" y2="249.8"/>
		<line class="st2" x1="-51.28" y1="647.65" x2="601.56" y2="270.74"/>
		<line class="st2" x1="-51.28" y1="375.44" x2="601.56" y2="-1.48"/>
		<line class="st2" x1="-51.28" y1="354.5" x2="565.29" y2="-1.48"/>
		<line class="st2" x1="-51.28" y1="333.56" x2="529.02" y2="-1.48"/>
		<line class="st2" x1="-51.28" y1="312.62" x2="492.75" y2="-1.48"/>
		<line class="st2" x1="-51.28" y1="291.68" x2="456.49" y2="-1.48"/>
		<line class="st2" x1="-51.28" y1="270.74" x2="420.22" y2="-1.48"/>
		<line class="st2" x1="-51.28" y1="249.8" x2="383.95" y2="-1.48"/>
		<line class="st2" x1="-51.28" y1="228.86" x2="347.68" y2="-1.48"/>
		<line class="st2" x1="-51.28" y1="207.92" x2="311.41" y2="-1.48"/>
		<line class="st2" x1="-51.28" y1="186.98" x2="275.14" y2="-1.48"/>
		<line class="st2" x1="-51.28" y1="166.04" x2="238.87" y2="-1.48"/>
		<line class="st2" x1="-51.28" y1="145.1" x2="202.6" y2="-1.48"/>
		<line class="st2" x1="-51.28" y1="124.16" x2="166.33" y2="-1.48"/>
		<line class="st2" x1="-51.28" y1="103.22" x2="130.07" y2="-1.48"/>
		<line class="st2" x1="-51.28" y1="82.28" x2="93.8" y2="-1.48"/>
		<line class="st2" x1="-51.28" y1="61.34" x2="57.53" y2="-1.48"/>
		<line class="st2" x1="-51.28" y1="40.4" x2="21.26" y2="-1.48"/>
		<line class="st2" x1="-27.58" y1="843.37" x2="311.41" y2="647.65"/>
	</g>
</g>
<g id="Calque_9" class="st0">
	<path class="st3" d="M528.05,185.98c-12.43,0-22.5,10.07-22.5,22.5v522.93c0,12.43,10.07,22.5,22.5,22.5
		c12.43,0,22.5-10.07,22.5-22.5V208.48C550.55,196.05,540.47,185.98,528.05,185.98z"/>
</g>
<g id="Calque_11">
	<polygon class="st4" points="34.16,580.58 253.29,707.68 471.24,582.71 249.61,455.7 	"/>
	<polygon class="st5" points="34.66,580.58 253.78,707.68 253.85,716.16 35.53,588.99 	"/>
	<polygon class="st6" points="472.35,582.58 253.22,707.68 253.15,716.16 471.48,589.99 	"/>
</g>
<g id="Calque_5">
	<path class="st7" d="M515.47,322.39v406.54c0,6.94,5.64,12.58,12.58,12.58c6.94,0,12.58-5.64,12.58-12.58V322.39H515.47z"/>
	<polygon class="st8" points="181.1,587.63 218.61,565.97 235.27,462.52 181.1,493.8 	"/>
	<polygon class="st9" points="181.1,587.63 143.59,565.97 126.92,462.52 181.1,493.8 	"/>
	<path class="st8" d="M224.13,457.76c1.65,0.64,3.34,1.19,5.06,1.55c1.62,1.07,3.33,2.06,4.85,3.26c0.07,0.06,0.15,0.09,0.23,0.13
		l-0.66,47.6l-52.24,30.16v-50.55L224.13,457.76z"/>
	<path class="st8" d="M133.86,461.4c0.45,0.01,0.91,0.01,1.36,0.01c1.39,0.83,2.8,1.63,4.22,2.43c-1.64-0.12-3.28-0.15-4.94-0.03
		c0.61-0.31,0.96-1.17,0.32-1.69C134.5,461.87,134.18,461.63,133.86,461.4z"/>
	<path class="st8" d="M145.54,467.75c-2.51-0.42-4.99-1.01-7.38-1.86c2.03,0.09,4.06,0.34,6.07,0.65
		C144.68,466.94,145.11,467.34,145.54,467.75z"/>
	<path class="st9" d="M133.7,463.87c-0.11,0.01-0.23,0.02-0.34,0.03c-0.96,0.11-1.56,1.44-0.54,1.98
		c5.68,2.97,12.03,4.18,18.37,4.69c0.26,0.02,0.46-0.05,0.62-0.17l29.55,22.97v47.09l-52.24-30.16l-0.82-48.36
		C129.9,462.78,131.7,463.33,133.7,463.87z"/>
	<polygon class="st10" points="126.92,462.52 181.1,431.25 181.1,431.25 235.27,462.52 181.1,493.8 181.1,493.8 	"/>
	<polygon class="st10" points="224.68,462.52 181.1,437.36 137.51,462.52 181.1,487.69 	"/>
	<polygon class="st9" points="181.1,437.36 137.51,462.52 181.1,487.69 	"/>
	<circle class="st11" cx="143.59" cy="560.64" r="11.35"/>
	<circle class="st9" cx="143.59" cy="560.64" r="4.37"/>
	<polygon class="st11" points="111.16,385.84 164.28,355.27 164.28,355.46 170.85,358.93 170.48,420.06 164.26,416.45 
		164.22,399.57 164.2,416.56 170.42,420.16 117.59,450.9 111.08,447.13 	"/>
	<polygon class="st11" points="116.55,388.89 177.75,353.67 177.65,424.28 116.46,459.5 	"/>
	<polygon class="st11" points="173.06,421.62 173.15,361.62 121.14,391.55 121.06,451.56 	"/>
	<polygon class="st8" points="116.46,459.5 123.95,463.84 184.82,428.43 177.65,424.28 	"/>
	<polygon class="st11" points="177.82,353.55 185.32,357.89 184.89,428.31 177.72,424.16 	"/>
	<polygon class="st11" points="173.06,421.62 164.2,416.56 164.2,366.77 173.15,361.62 	"/>
	<polygon class="st8" points="121.06,451.56 173.06,421.62 164.2,416.56 121.07,441.11 	"/>
	<polygon class="st9" points="115.96,389.08 123.46,393.42 123.03,463.84 115.86,459.69 	"/>
	<polyline class="st11" points="115.96,389.08 177.82,353.55 185.32,357.89 123.46,393.42 115.96,389.08 	"/>
	<path class="st12" d="M217.29,466.79l-36.19,20.89L150,469.73c0,0,19.67-40.7,44.93-35.68
		C207.81,436.62,217.29,466.79,217.29,466.79z"/>
	<circle class="st12" cx="200.03" cy="436.98" r="5.73"/>
	<path class="st12" d="M200.03,436.98"/>
	<path class="st12" d="M200.03,436.98c0,0,4-0.84,5.73-15.35c1.73-14.51-2.86-15.04-2.86-15.04l-3.61,17.69L200.03,436.98z"/>
	<path class="st12" d="M198.11,435.89c0,0,13.76,6.73,23.42,2.77c9.66-3.96-16.66-4.5-16.66-4.5L198.11,435.89z"/>
	<path class="st12" d="M365.06,554.16c0,0,11.81,17.85,13.3,41.61c0,0,31.79,4.56,36.58-6.7
		C419.74,577.82,392.79,529.76,365.06,554.16z"/>
	<circle class="st12" cx="398.28" cy="555.09" r="5.19"/>
	<path class="st12" d="M397.35,531.06l-2.01,9.1c0,0,1.61,18.97,5.6,14.34C404.93,549.88,397.35,531.06,397.35,531.06z"/>
	<path class="st12" d="M398.28,555.09"/>
	<path class="st12" d="M411.02,549.02c-5.01-2.47-13.73,6.08-13.73,6.08l18.88-3.46"/>
</g>
<g id="Calque_6" class="st0">
	<polygon class="st13" points="275.5,608.82 237.99,587.16 221.33,483.71 275.5,514.99 	"/>
	<polygon class="st14" points="275.5,608.82 313.01,587.16 329.68,483.71 275.5,514.99 	"/>
	<polygon class="st13" points="275.24,561.66 223,531.49 222.16,471.2 275.24,511.1 	"/>
	<polygon class="st14" points="275.24,561.66 327.48,531.49 328.53,469.71 275.24,518.82 	"/>
	<polygon class="st15" points="329.68,483.71 275.5,452.43 275.5,452.43 221.33,483.71 275.5,514.99 275.5,514.99 	"/>
	<polygon class="st13" points="231.92,483.71 275.5,458.55 319.09,483.71 275.5,508.88 	"/>
	<polygon class="st16" points="275.5,458.55 319.09,483.71 275.5,508.88 	"/>
	<circle class="st16" cx="313.01" cy="581.82" r="11.35"/>
	<circle class="st13" cx="313.01" cy="581.82" r="4.37"/>
	<g class="st1">
		<polygon class="st11" points="275.3,439.23 336.45,474.53 275.3,509.84 214.15,474.53 		"/>
		<polygon class="st9" points="214.15,474.53 214.15,483.2 275.3,518.12 275.3,509.84 		"/>
		<polygon class="st8" points="336.59,474.53 336.59,483.2 275.44,518.12 275.44,509.84 		"/>
		<polygon class="st11" points="275.24,433.04 328.32,463.68 275.24,494.32 222.16,463.68 		"/>
		<polygon class="st9" points="222.16,463.68 222.16,471.2 275.24,501.51 275.24,494.32 		"/>
		<polygon class="st8" points="328.44,463.68 328.44,471.2 275.36,501.51 275.36,494.32 		"/>
	</g>
</g>
<g id="Calque_3">
	<path class="st7" d="M515.47,602.99v126.49c0,6.94,5.64,12.58,12.58,12.58c6.94,0,12.58-5.64,12.58-12.58V602.99H515.47z"/>
	<g>
		<polygon class="st9" points="275.37,608.82 237.86,587.16 221.2,483.71 275.37,514.99 		"/>
		<polygon class="st8" points="275.37,608.82 312.88,587.16 329.54,483.71 275.37,514.99 		"/>
		<path class="st9" d="M232.34,478.95c-1.65,0.64-3.34,1.19-5.06,1.55c-1.62,1.07-3.33,2.06-4.85,3.26
			c-0.07,0.06-0.15,0.09-0.23,0.13l0.66,47.6l52.24,30.16V511.1L232.34,478.95z"/>
		<path class="st8" d="M322.61,482.59c-0.45,0.01-0.91,0.01-1.36,0.01c-1.39,0.83-2.8,1.63-4.22,2.43c1.64-0.12,3.28-0.15,4.94-0.03
			c-0.61-0.31-0.96-1.17-0.32-1.69C321.97,483.05,322.29,482.82,322.61,482.59z"/>
		<path class="st8" d="M310.93,488.94c2.51-0.42,4.99-1.01,7.38-1.86c-2.03,0.09-4.06,0.34-6.07,0.65
			C311.79,488.12,311.35,488.52,310.93,488.94z"/>
		<path class="st8" d="M322.77,485.06c0.11,0.01,0.23,0.02,0.34,0.03c0.96,0.11,1.56,1.44,0.54,1.98
			c-5.68,2.97-12.03,4.18-18.37,4.69c-0.26,0.02-0.46-0.05-0.62-0.17l-29.55,22.97v47.09l52.24-30.16l0.82-48.36
			C326.57,483.97,324.77,484.52,322.77,485.06z"/>
		<polygon class="st10" points="329.54,483.71 275.37,452.43 275.37,452.43 221.2,483.71 275.37,514.99 275.37,514.99 		"/>
		<polygon class="st9" points="231.78,483.71 275.37,458.55 318.96,483.71 275.37,508.88 		"/>
		<polygon class="st11" points="275.37,458.55 318.96,483.71 275.37,508.88 		"/>
		<circle class="st11" cx="312.88" cy="581.82" r="11.35"/>
		<circle class="st9" cx="312.88" cy="581.82" r="4.37"/>
		<polygon class="st11" points="345.31,407.03 292.19,376.46 292.19,376.64 285.62,380.12 285.99,441.24 292.21,437.64 
			292.25,420.76 292.27,437.74 286.05,441.35 338.88,472.09 345.39,468.32 		"/>
		<polygon class="st11" points="339.92,410.08 278.72,374.86 278.81,445.47 340.01,480.69 		"/>
		<polygon class="st11" points="283.4,442.81 283.32,382.8 335.33,412.74 335.41,472.74 		"/>
		<polygon class="st8" points="340.01,480.69 332.51,485.03 271.65,449.62 278.81,445.47 		"/>
		<polygon class="st9" points="278.65,374.73 271.15,379.08 271.57,449.5 278.74,445.34 		"/>
		<polygon class="st9" points="283.4,442.81 292.27,437.74 292.27,387.95 283.32,382.8 		"/>
		<polygon class="st8" points="335.41,472.74 283.4,442.81 292.27,437.74 335.39,462.3 		"/>
		<polygon class="st8" points="340.51,410.26 333.01,414.61 333.44,485.03 340.6,480.87 		"/>
		<polyline class="st11" points="340.51,410.26 278.65,374.73 271.15,379.08 333.01,414.61 340.51,410.26 		"/>
	</g>
	<path class="st12" d="M275.37,508.88l-33.01-19.06c0,0,3.94-27.24,27.41-25.7c17.21,1.13,38.58,25.71,38.58,25.71L275.37,508.88z"
		/>
	<circle class="st12" cx="254.33" cy="470.59" r="5.68"/>
	<path class="st12" d="M258.06,443.66c5.91-10.6,2.55,11.87,2.55,11.87l-8.9,15.94C251.71,471.47,251.15,456.04,258.06,443.66z"/>
	<path class="st12" d="M251.98,469.36c0,0-0.7-7.11-14.66-10.88c-13.96-3.78,2.86,9.57,2.86,9.57S246.87,470.69,251.98,469.36z"/>
</g>
<g id="Calque_4">
	<path class="st7" d="M515.47,463.91v265.77c0,6.94,5.64,12.58,12.58,12.58c6.94,0,12.58-5.64,12.58-12.58V463.91H515.47z"/>
	<circle class="st12" cx="300.68" cy="449.5" r="5.68"/>
	<path class="st12" d="M275.58,464.19c0,0,8.63-22.94,24.17-16.54c10.51,4.33,20.13,35.66,20.13,35.66l-10.12,5.47
		C309.77,488.78,292.04,467.55,275.58,464.19z"/>
	<path class="st12" d="M300.68,449.18c0,0,6.09-9.07,14.15-9.41c8.06-0.34,9.47,2.15,9.47,2.15s-6.64,3.82-9.98,5.25
		C310.99,448.59,300.68,449.18,300.68,449.18z"/>
	<path class="st12" d="M295.58,423.52c0,0-2.18,10.81,0.62,16.88c2.8,6.07,3.85,9.33,3.85,9.33s3.08-9.09,2.47-11.61
		C301.9,435.59,295.58,423.52,295.58,423.52z"/>
	<path class="st12" d="M343.3,547.07c-1.6,0.68-3.2,1.34-4.82,1.96c-3.62,1.39-10.93,5.8-17.14,19.57
		c-8.65,19.16-11.09,34.02-0.05,44.49c7.86,7.45,22.53,4.29,30.33,1.85c3.23-1.01,6.53-1.76,9.87-2.34
		c5.06-0.87,12.69-3.3,14.89-10.09C379.65,592.45,366.41,537.22,343.3,547.07z"/>
	<circle class="st12" cx="340.12" cy="547.36" r="5.79"/>
	<path class="st12" d="M356.09,520.68c0,0-0.14,0.9-0.5,2.37c-1.11,4.58-4.28,14.75-11.67,20.74c-9.76,7.91,1.79-14.12,1.79-14.12"
		/>
	<path class="st12" d="M341.6,547.36c0,0-6.7-3.72-8.5-10.4s1.58-9.59,1.58-9.59l4.99,9.99L341.6,547.36z"/>
</g>
<g id="Calque_8">
	<path class="st7" d="M528.03,743.15c-6.94,0-12.58-5.64-12.58-12.58V207.64c0-6.94,5.64-12.58,12.58-12.58
		c6.94,0,12.58,5.64,12.58,12.58v522.93C540.61,737.51,534.97,743.15,528.03,743.15z"/>
	<path class="st12" d="M188.01,432.25c0,0-20.81-12.05-31.6-2.94c-10.79,9.11-6.42,36.94-6.42,36.94S167.79,432.65,188.01,432.25z"
		/>
	<circle class="st12" cx="152.37" cy="433.82" r="5.04"/>
	<path class="st12" d="M158.35,402.19c0,0,4.48,17.78-3.06,31.23s-2.16-17.8-2.16-17.8L158.35,402.19z"/>
	<path class="st12" d="M127.12,429.21l11.91,1.14c0.1,0.01,0.2,0.03,0.3,0.06c1.36,0.43,11.75,3.79,13.54,5.39
		c1.81,1.62-11.44-20.1-26.45-9.22C125.35,427.37,125.78,429.08,127.12,429.21z"/>
	<path class="st12" d="M194.66,592.7c0,0-25.34,15.08-42.25-1.44s15.64-48.83,15.64-48.83s15.39-14.32,23.9-9.99
		c8.51,4.33,11.44,31.07,14.85,36.53C210.22,574.42,205.54,584.03,194.66,592.7z"/>
	<circle class="st12" cx="174.86" cy="537.11" r="6.04"/>
	<path class="st12" d="M172.86,537.11c0,0,0.86-14.99,12.45-19.22C202.72,511.55,172.86,537.11,172.86,537.11z"/>
	<path class="st12" d="M172.86,537.11l2.58-16.8l-2.58-11.43c0,0-6.03,4.26,0,30.31"/>
	<path class="st12" d="M350.69,544.7c0,0,12.87-16.29,33.25,0.81c0,0-14.34-0.1-20.34,7.67C363.6,553.18,358.09,544.5,350.69,544.7z
		"/>
</g>
<g id="Calque_10" class="st0">
	<line class="st17" x1="515.47" y1="322.39" x2="540.62" y2="322.39"/>
	<line class="st17" x1="515.47" y1="463.9" x2="540.62" y2="463.9"/>
	<line class="st17" x1="515.47" y1="602.9" x2="540.62" y2="602.9"/>
</g>
</svg>
