<?xml version="1.0" encoding="utf-8"?>
<!-- Generator: Adobe Illustrator 23.0.0, SVG Export Plug-In . SVG Version: 6.00 Build 0)  -->
<svg version="1.1" xmlns="http://www.w3.org/2000/svg" xmlns:xlink="http://www.w3.org/1999/xlink" x="0px" y="0px"
	 viewBox="0 0 447.53 370.6" style="enable-background:new 0 0 447.53 370.6;" xml:space="preserve">
<style type="text/css">
	.st0{display:none;}
	.st1{display:inline;}
	.st2{fill:none;stroke:#95D4EC;stroke-linecap:round;stroke-linejoin:round;}
	.st3{display:inline;fill:#E9F6FE;stroke:#3272B8;stroke-width:2;stroke-miterlimit:10;}
	.st4{fill:#E8F6FE;stroke:#3272B8;stroke-width:2;stroke-linejoin:round;stroke-miterlimit:10;}
	.st5{fill:#B9E2FA;stroke:#3272B8;stroke-width:2;stroke-linejoin:round;stroke-miterlimit:10;}
	.st6{fill:#FFFFFF;stroke:#3272B8;stroke-width:2;stroke-linejoin:round;stroke-miterlimit:10;}
	.st7{fill:#3272B8;}
	
		.st8{display:inline;fill:#FFFFFF;stroke:#3272B8;stroke-width:2;stroke-linecap:round;stroke-linejoin:round;stroke-miterlimit:10;}
	
		.st9{display:inline;fill:#B9E2FA;stroke:#3272B8;stroke-width:2;stroke-linecap:round;stroke-linejoin:round;stroke-miterlimit:10;}
	.st10{display:inline;fill:#E9F6FE;stroke:#3272B8;stroke-width:2;stroke-linejoin:round;stroke-miterlimit:10;}
	
		.st11{display:inline;fill:#E8F6FE;stroke:#3272B8;stroke-width:2;stroke-linecap:round;stroke-linejoin:round;stroke-miterlimit:10;}
	.st12{display:inline;fill:#3272B8;}
	.st13{fill:#B9E2FA;stroke:#3272B8;stroke-width:2;stroke-linecap:round;stroke-linejoin:round;stroke-miterlimit:10;}
	.st14{fill:#FFFFFF;stroke:#3272B8;stroke-width:2;stroke-linecap:round;stroke-linejoin:round;stroke-miterlimit:10;}
	.st15{fill:#E8F6FE;stroke:#3272B8;stroke-width:2;stroke-linecap:round;stroke-linejoin:round;stroke-miterlimit:10;}
	.st16{fill:#B7C1C7;}
	.st17{display:inline;enable-background:new    ;}
	.st18{enable-background:new    ;}
	.st19{clip-path:url(#SVGID_2_);enable-background:new    ;}
	.st20{fill:#265284;}
	.st21{fill:#265487;}
	.st22{fill:#27568A;}
	.st23{fill:#255181;}
	.st24{fill:#244F7E;}
	.st25{clip-path:url(#SVGID_4_);enable-background:new    ;}
	.st26{fill:#234D7B;}
	.st27{fill:#224B78;}
	.st28{fill:#214975;}
	.st29{clip-path:url(#SVGID_6_);enable-background:new    ;}
	.st30{fill:#AEB8BE;}
	.st31{fill:#ABB4BA;}
	.st32{fill:#A7B0B5;}
	.st33{clip-path:url(#SVGID_8_);enable-background:new    ;}
	.st34{fill:#949CA0;}
	.st35{fill:#98A0A5;}
	.st36{fill:#9CA4A9;}
	.st37{fill:#A0A8AD;}
	.st38{fill:#A3ACB1;}
	.st39{display:none;fill:#3272B8;}
	.st40{fill:#E9F6FE;stroke:#3272B8;stroke-width:2;stroke-linejoin:round;stroke-miterlimit:10;}
	.st41{clip-path:url(#SVGID_10_);enable-background:new    ;}
	.st42{clip-path:url(#SVGID_12_);enable-background:new    ;}
	.st43{clip-path:url(#SVGID_14_);enable-background:new    ;}
	.st44{clip-path:url(#SVGID_16_);enable-background:new    ;}
	.st45{clip-path:url(#SVGID_18_);enable-background:new    ;}
	.st46{fill:#D3DFE7;}
	.st47{clip-path:url(#SVGID_20_);enable-background:new    ;}
	.st48{fill:#2F68A7;}
	.st49{display:inline;fill:none;stroke:#E9F6FE;stroke-width:2;stroke-miterlimit:10;}
</style>
<g id="Calque_1" class="st0">
	<g class="st1">
		<line class="st2" x1="-81.48" y1="-329.77" x2="-45.22" y2="-350.71"/>
		<line class="st2" x1="547.66" y1="494.14" x2="208.67" y2="298.42"/>
		<line class="st2" x1="-21.52" y1="494.14" x2="317.47" y2="298.42"/>
		<line class="st2" x1="14.75" y1="494.14" x2="353.74" y2="298.42"/>
		<line class="st2" x1="51.02" y1="494.14" x2="390.01" y2="298.42"/>
		<line class="st2" x1="87.29" y1="494.14" x2="426.28" y2="298.42"/>
		<line class="st2" x1="123.56" y1="494.14" x2="462.55" y2="298.42"/>
		<line class="st2" x1="159.83" y1="494.14" x2="498.82" y2="298.42"/>
		<line class="st2" x1="196.1" y1="494.14" x2="535.09" y2="298.42"/>
		<line class="st2" x1="232.36" y1="494.14" x2="571.36" y2="298.42"/>
		<line class="st2" x1="449.98" y1="494.14" x2="571.36" y2="424.06"/>
		<line class="st2" x1="486.25" y1="494.14" x2="571.36" y2="445"/>
		<line class="st2" x1="522.52" y1="494.14" x2="571.36" y2="465.94"/>
		<line class="st2" x1="558.78" y1="494.14" x2="571.36" y2="486.88"/>
		<line class="st2" x1="148.7" y1="494.14" x2="-81.48" y2="361.24"/>
		<line class="st2" x1="184.97" y1="494.14" x2="-81.48" y2="340.3"/>
		<line class="st2" x1="221.24" y1="494.14" x2="-81.48" y2="319.36"/>
		<line class="st2" x1="257.51" y1="494.14" x2="-81.48" y2="298.42"/>
		<line class="st2" x1="112.43" y1="494.14" x2="-81.48" y2="382.18"/>
		<line class="st2" x1="76.16" y1="494.14" x2="-81.48" y2="403.12"/>
		<line class="st2" x1="3.62" y1="494.14" x2="-81.48" y2="445"/>
		<line class="st2" x1="-32.64" y1="494.14" x2="-81.48" y2="465.94"/>
		<line class="st2" x1="-68.91" y1="494.14" x2="-81.48" y2="486.88"/>
		<line class="st2" x1="438.85" y1="494.14" x2="99.86" y2="298.42"/>
		<line class="st2" x1="475.12" y1="494.14" x2="136.13" y2="298.42"/>
		<line class="st2" x1="511.39" y1="494.14" x2="172.4" y2="298.42"/>
		<line class="st2" x1="304.9" y1="494.14" x2="571.36" y2="340.3"/>
		<line class="st2" x1="341.17" y1="494.14" x2="571.36" y2="361.24"/>
		<line class="st2" x1="377.44" y1="494.14" x2="571.36" y2="382.18"/>
		<line class="st2" x1="413.71" y1="494.14" x2="571.36" y2="403.12"/>
		<line class="st2" x1="293.77" y1="494.14" x2="-45.22" y2="298.42"/>
		<line class="st2" x1="330.04" y1="494.14" x2="-8.95" y2="298.42"/>
		<line class="st2" x1="366.31" y1="494.14" x2="27.32" y2="298.42"/>
		<line class="st2" x1="402.58" y1="494.14" x2="63.59" y2="298.42"/>
		<line class="st2" x1="268.63" y1="494.14" x2="571.36" y2="319.36"/>
		<line class="st2" x1="-63.35" y1="494.14" x2="-63.35" y2="298.42"/>
		<line class="st2" x1="-45.22" y1="494.14" x2="-45.22" y2="298.42"/>
		<line class="st2" x1="-27.08" y1="494.14" x2="-27.08" y2="298.42"/>
		<line class="st2" x1="-8.95" y1="494.14" x2="-8.95" y2="298.42"/>
		<line class="st2" x1="9.19" y1="494.14" x2="9.19" y2="298.42"/>
		<line class="st2" x1="27.32" y1="494.14" x2="27.32" y2="298.42"/>
		<line class="st2" x1="45.46" y1="494.14" x2="45.46" y2="298.42"/>
		<line class="st2" x1="63.59" y1="494.14" x2="63.59" y2="298.42"/>
		<line class="st2" x1="81.73" y1="494.14" x2="81.73" y2="298.42"/>
		<line class="st2" x1="99.86" y1="494.14" x2="99.86" y2="298.42"/>
		<line class="st2" x1="117.99" y1="494.14" x2="117.99" y2="298.42"/>
		<line class="st2" x1="136.13" y1="494.14" x2="136.13" y2="298.42"/>
		<line class="st2" x1="154.26" y1="494.14" x2="154.26" y2="298.42"/>
		<line class="st2" x1="172.4" y1="494.14" x2="172.4" y2="298.42"/>
		<line class="st2" x1="190.53" y1="494.14" x2="190.53" y2="298.42"/>
		<line class="st2" x1="208.67" y1="494.14" x2="208.67" y2="298.42"/>
		<line class="st2" x1="226.8" y1="494.14" x2="226.8" y2="298.42"/>
		<line class="st2" x1="244.94" y1="494.14" x2="244.94" y2="298.42"/>
		<line class="st2" x1="263.07" y1="494.14" x2="263.07" y2="298.42"/>
		<line class="st2" x1="281.2" y1="494.14" x2="281.2" y2="298.42"/>
		<line class="st2" x1="299.34" y1="494.14" x2="299.34" y2="298.42"/>
		<line class="st2" x1="317.47" y1="494.14" x2="317.47" y2="298.42"/>
		<line class="st2" x1="335.61" y1="494.14" x2="335.61" y2="298.42"/>
		<line class="st2" x1="353.74" y1="494.14" x2="353.74" y2="298.42"/>
		<line class="st2" x1="371.88" y1="494.14" x2="371.88" y2="298.42"/>
		<line class="st2" x1="390.01" y1="494.14" x2="390.01" y2="298.42"/>
		<line class="st2" x1="408.15" y1="494.14" x2="408.15" y2="298.42"/>
		<line class="st2" x1="426.28" y1="494.14" x2="426.28" y2="298.42"/>
		<line class="st2" x1="444.41" y1="494.14" x2="444.41" y2="298.42"/>
		<line class="st2" x1="462.55" y1="494.14" x2="462.55" y2="298.42"/>
		<line class="st2" x1="480.68" y1="494.14" x2="480.68" y2="298.42"/>
		<line class="st2" x1="498.82" y1="494.14" x2="498.82" y2="298.42"/>
		<line class="st2" x1="516.95" y1="494.14" x2="516.95" y2="298.42"/>
		<line class="st2" x1="535.09" y1="494.14" x2="535.09" y2="298.42"/>
		<line class="st2" x1="553.22" y1="494.14" x2="553.22" y2="298.42"/>
		<line class="st2" x1="39.89" y1="494.14" x2="-81.48" y2="424.06"/>
		<line class="st2" x1="-81.48" y1="319.36" x2="-45.22" y2="298.42"/>
		<line class="st2" x1="-81.48" y1="340.3" x2="-8.95" y2="298.42"/>
		<line class="st2" x1="-81.48" y1="361.24" x2="27.32" y2="298.42"/>
		<line class="st2" x1="-81.48" y1="382.18" x2="63.59" y2="298.42"/>
		<line class="st2" x1="-81.48" y1="403.12" x2="99.86" y2="298.42"/>
		<line class="st2" x1="-81.48" y1="424.06" x2="136.13" y2="298.42"/>
		<line class="st2" x1="-81.48" y1="445" x2="172.4" y2="298.42"/>
		<line class="st2" x1="-81.48" y1="465.94" x2="208.67" y2="298.42"/>
		<line class="st2" x1="-81.48" y1="486.88" x2="244.94" y2="298.42"/>
		<line class="st2" x1="571.36" y1="340.3" x2="498.82" y2="298.42"/>
		<line class="st2" x1="571.36" y1="486.88" x2="244.94" y2="298.42"/>
		<line class="st2" x1="571.36" y1="465.94" x2="281.2" y2="298.42"/>
		<line class="st2" x1="571.36" y1="445" x2="317.47" y2="298.42"/>
		<line class="st2" x1="571.36" y1="424.06" x2="353.74" y2="298.42"/>
		<line class="st2" x1="571.36" y1="403.12" x2="390.01" y2="298.42"/>
		<line class="st2" x1="571.36" y1="382.18" x2="426.28" y2="298.42"/>
		<line class="st2" x1="571.36" y1="361.24" x2="462.55" y2="298.42"/>
		<line class="st2" x1="571.36" y1="319.36" x2="535.09" y2="298.42"/>
		<line class="st2" x1="553.22" y1="298.42" x2="553.22" y2="-350.71"/>
		<line class="st2" x1="535.09" y1="298.42" x2="535.09" y2="-350.71"/>
		<line class="st2" x1="516.95" y1="298.42" x2="516.95" y2="-350.71"/>
		<line class="st2" x1="498.82" y1="298.42" x2="498.82" y2="-350.71"/>
		<line class="st2" x1="480.68" y1="298.42" x2="480.68" y2="-350.71"/>
		<line class="st2" x1="462.55" y1="298.42" x2="462.55" y2="-350.71"/>
		<line class="st2" x1="444.41" y1="298.42" x2="444.41" y2="-350.71"/>
		<line class="st2" x1="426.28" y1="298.42" x2="426.28" y2="-350.71"/>
		<line class="st2" x1="408.15" y1="298.42" x2="408.15" y2="-350.71"/>
		<line class="st2" x1="390.01" y1="298.42" x2="390.01" y2="-350.71"/>
		<line class="st2" x1="371.88" y1="298.42" x2="371.88" y2="-350.71"/>
		<line class="st2" x1="353.74" y1="298.42" x2="353.74" y2="-350.71"/>
		<line class="st2" x1="335.61" y1="298.42" x2="335.61" y2="-350.71"/>
		<line class="st2" x1="317.47" y1="298.42" x2="317.47" y2="-350.71"/>
		<line class="st2" x1="299.34" y1="298.42" x2="299.34" y2="-350.71"/>
		<line class="st2" x1="281.2" y1="298.42" x2="281.2" y2="-350.71"/>
		<line class="st2" x1="263.07" y1="298.42" x2="263.07" y2="-350.71"/>
		<line class="st2" x1="244.94" y1="298.42" x2="244.94" y2="-350.71"/>
		<line class="st2" x1="226.8" y1="298.42" x2="226.8" y2="-350.71"/>
		<line class="st2" x1="208.67" y1="298.42" x2="208.67" y2="-350.71"/>
		<line class="st2" x1="190.53" y1="298.42" x2="190.53" y2="-350.71"/>
		<line class="st2" x1="172.4" y1="298.42" x2="172.4" y2="-350.71"/>
		<line class="st2" x1="154.26" y1="298.42" x2="154.26" y2="-350.71"/>
		<line class="st2" x1="136.13" y1="298.42" x2="136.13" y2="-350.71"/>
		<line class="st2" x1="117.99" y1="298.42" x2="117.99" y2="-350.71"/>
		<line class="st2" x1="99.86" y1="298.42" x2="99.86" y2="-350.71"/>
		<line class="st2" x1="81.73" y1="298.42" x2="81.73" y2="-350.71"/>
		<line class="st2" x1="63.59" y1="298.42" x2="63.59" y2="-350.71"/>
		<line class="st2" x1="45.46" y1="298.42" x2="45.46" y2="-350.71"/>
		<line class="st2" x1="27.32" y1="298.42" x2="27.32" y2="-350.71"/>
		<line class="st2" x1="9.19" y1="298.42" x2="9.19" y2="-350.71"/>
		<line class="st2" x1="-8.95" y1="298.42" x2="-8.95" y2="-350.71"/>
		<line class="st2" x1="-27.08" y1="298.42" x2="-27.08" y2="-350.71"/>
		<line class="st2" x1="-45.22" y1="298.42" x2="-45.22" y2="-350.71"/>
		<line class="st2" x1="-63.35" y1="298.42" x2="-63.35" y2="-350.71"/>
		<line class="st2" x1="-81.48" y1="47.14" x2="571.36" y2="-329.77"/>
		<line class="st2" x1="-45.22" y1="298.42" x2="571.36" y2="-57.56"/>
		<line class="st2" x1="-8.95" y1="298.42" x2="571.36" y2="-36.62"/>
		<line class="st2" x1="27.32" y1="298.42" x2="571.36" y2="-15.68"/>
		<line class="st2" x1="63.59" y1="298.42" x2="571.36" y2="5.26"/>
		<line class="st2" x1="99.86" y1="298.42" x2="571.36" y2="26.2"/>
		<line class="st2" x1="136.13" y1="298.42" x2="571.36" y2="47.14"/>
		<line class="st2" x1="172.4" y1="298.42" x2="571.36" y2="68.08"/>
		<line class="st2" x1="208.67" y1="298.42" x2="571.36" y2="89.02"/>
		<line class="st2" x1="244.94" y1="298.42" x2="571.36" y2="109.96"/>
		<line class="st2" x1="281.2" y1="298.42" x2="571.36" y2="130.9"/>
		<line class="st2" x1="317.47" y1="298.42" x2="571.36" y2="151.84"/>
		<line class="st2" x1="353.74" y1="298.42" x2="571.36" y2="172.78"/>
		<line class="st2" x1="390.01" y1="298.42" x2="571.36" y2="193.72"/>
		<line class="st2" x1="426.28" y1="298.42" x2="571.36" y2="214.66"/>
		<line class="st2" x1="462.55" y1="298.42" x2="571.36" y2="235.6"/>
		<line class="st2" x1="498.82" y1="298.42" x2="571.36" y2="256.54"/>
		<line class="st2" x1="535.09" y1="298.42" x2="571.36" y2="277.48"/>
		<line class="st2" x1="-45.22" y1="298.42" x2="-81.48" y2="277.48"/>
		<line class="st2" x1="-8.95" y1="298.42" x2="-81.48" y2="256.54"/>
		<line class="st2" x1="27.32" y1="298.42" x2="-81.48" y2="235.6"/>
		<line class="st2" x1="63.59" y1="298.42" x2="-81.48" y2="214.66"/>
		<line class="st2" x1="99.86" y1="298.42" x2="-81.48" y2="193.72"/>
		<line class="st2" x1="571.36" y1="-57.56" x2="63.59" y2="-350.71"/>
		<line class="st2" x1="571.36" y1="-36.62" x2="27.32" y2="-350.71"/>
		<line class="st2" x1="571.36" y1="-15.68" x2="-8.95" y2="-350.71"/>
		<line class="st2" x1="571.36" y1="5.26" x2="-45.22" y2="-350.71"/>
		<line class="st2" x1="-81.48" y1="130.9" x2="571.36" y2="-246.01"/>
		<line class="st2" x1="-81.48" y1="109.96" x2="571.36" y2="-266.95"/>
		<line class="st2" x1="-81.48" y1="89.02" x2="571.36" y2="-287.89"/>
		<line class="st2" x1="-81.48" y1="68.08" x2="571.36" y2="-308.83"/>
		<line class="st2" x1="571.36" y1="-329.77" x2="535.09" y2="-350.71"/>
		<line class="st2" x1="571.36" y1="-287.89" x2="462.55" y2="-350.71"/>
		<line class="st2" x1="571.36" y1="-266.95" x2="426.28" y2="-350.71"/>
		<line class="st2" x1="571.36" y1="-246.01" x2="390.01" y2="-350.71"/>
		<line class="st2" x1="571.36" y1="-225.07" x2="353.74" y2="-350.71"/>
		<line class="st2" x1="571.36" y1="-204.13" x2="317.47" y2="-350.71"/>
		<line class="st2" x1="571.36" y1="-183.19" x2="281.2" y2="-350.71"/>
		<line class="st2" x1="571.36" y1="-162.26" x2="244.94" y2="-350.71"/>
		<line class="st2" x1="571.36" y1="-141.32" x2="208.67" y2="-350.71"/>
		<line class="st2" x1="571.36" y1="-120.38" x2="172.4" y2="-350.71"/>
		<line class="st2" x1="571.36" y1="-99.44" x2="136.13" y2="-350.71"/>
		<line class="st2" x1="571.36" y1="-78.5" x2="99.86" y2="-350.71"/>
		<line class="st2" x1="571.36" y1="-308.83" x2="498.82" y2="-350.71"/>
		<line class="st2" x1="136.13" y1="298.42" x2="-81.48" y2="172.78"/>
		<line class="st2" x1="172.4" y1="298.42" x2="-81.48" y2="151.84"/>
		<line class="st2" x1="208.67" y1="298.42" x2="-81.48" y2="130.9"/>
		<line class="st2" x1="244.94" y1="298.42" x2="-81.48" y2="109.96"/>
		<line class="st2" x1="281.2" y1="298.42" x2="-81.48" y2="89.02"/>
		<line class="st2" x1="317.47" y1="298.42" x2="-81.48" y2="68.08"/>
		<line class="st2" x1="353.74" y1="298.42" x2="-81.48" y2="47.14"/>
		<line class="st2" x1="390.01" y1="298.42" x2="-81.48" y2="26.2"/>
		<line class="st2" x1="426.28" y1="298.42" x2="-81.48" y2="5.26"/>
		<line class="st2" x1="462.55" y1="298.42" x2="-81.48" y2="-15.68"/>
		<line class="st2" x1="498.82" y1="298.42" x2="-81.48" y2="-36.62"/>
		<line class="st2" x1="535.09" y1="298.42" x2="-81.48" y2="-57.56"/>
		<line class="st2" x1="571.36" y1="298.42" x2="-81.48" y2="-78.5"/>
		<line class="st2" x1="571.36" y1="277.48" x2="-81.48" y2="-99.44"/>
		<line class="st2" x1="571.36" y1="256.54" x2="-81.48" y2="-120.38"/>
		<line class="st2" x1="571.36" y1="235.6" x2="-81.48" y2="-141.32"/>
		<line class="st2" x1="571.36" y1="214.66" x2="-81.48" y2="-162.26"/>
		<line class="st2" x1="571.36" y1="193.72" x2="-81.48" y2="-183.19"/>
		<line class="st2" x1="571.36" y1="172.78" x2="-81.48" y2="-204.13"/>
		<line class="st2" x1="571.36" y1="151.84" x2="-81.48" y2="-225.07"/>
		<line class="st2" x1="571.36" y1="130.9" x2="-81.48" y2="-246.01"/>
		<line class="st2" x1="571.36" y1="109.96" x2="-81.48" y2="-266.95"/>
		<line class="st2" x1="571.36" y1="26.2" x2="-81.48" y2="-350.71"/>
		<line class="st2" x1="571.36" y1="47.14" x2="-81.48" y2="-329.77"/>
		<line class="st2" x1="571.36" y1="68.08" x2="-81.48" y2="-308.83"/>
		<line class="st2" x1="571.36" y1="89.02" x2="-81.48" y2="-287.89"/>
		<line class="st2" x1="-81.48" y1="214.66" x2="571.36" y2="-162.26"/>
		<line class="st2" x1="-81.48" y1="193.72" x2="571.36" y2="-183.19"/>
		<line class="st2" x1="-81.48" y1="172.78" x2="571.36" y2="-204.13"/>
		<line class="st2" x1="-81.48" y1="151.84" x2="571.36" y2="-225.07"/>
		<line class="st2" x1="-81.48" y1="235.6" x2="571.36" y2="-141.32"/>
		<line class="st2" x1="-81.48" y1="256.54" x2="571.36" y2="-120.38"/>
		<line class="st2" x1="-81.48" y1="277.48" x2="571.36" y2="-99.44"/>
		<line class="st2" x1="-81.48" y1="298.42" x2="571.36" y2="-78.5"/>
		<line class="st2" x1="-81.48" y1="26.2" x2="571.36" y2="-350.71"/>
		<line class="st2" x1="-81.48" y1="5.26" x2="535.09" y2="-350.71"/>
		<line class="st2" x1="-81.48" y1="-15.68" x2="498.82" y2="-350.71"/>
		<line class="st2" x1="-81.48" y1="-36.62" x2="462.55" y2="-350.71"/>
		<line class="st2" x1="-81.48" y1="-57.56" x2="426.28" y2="-350.71"/>
		<line class="st2" x1="-81.48" y1="-78.5" x2="390.01" y2="-350.71"/>
		<line class="st2" x1="-81.48" y1="-99.44" x2="353.74" y2="-350.71"/>
		<line class="st2" x1="-81.48" y1="-120.38" x2="317.47" y2="-350.71"/>
		<line class="st2" x1="-81.48" y1="-141.32" x2="281.2" y2="-350.71"/>
		<line class="st2" x1="-81.48" y1="-162.26" x2="244.94" y2="-350.71"/>
		<line class="st2" x1="-81.48" y1="-183.19" x2="208.67" y2="-350.71"/>
		<line class="st2" x1="-81.48" y1="-204.13" x2="172.4" y2="-350.71"/>
		<line class="st2" x1="-81.48" y1="-225.07" x2="136.13" y2="-350.71"/>
		<line class="st2" x1="-81.48" y1="-246.01" x2="99.86" y2="-350.71"/>
		<line class="st2" x1="-81.48" y1="-266.95" x2="63.59" y2="-350.71"/>
		<line class="st2" x1="-81.48" y1="-287.89" x2="27.32" y2="-350.71"/>
		<line class="st2" x1="-81.48" y1="-308.83" x2="-8.95" y2="-350.71"/>
		<line class="st2" x1="-57.79" y1="494.14" x2="281.2" y2="298.42"/>
	</g>
</g>
<g id="Calque_9" class="st0">
	<path class="st3" d="M497.84-163.25c-12.43,0-22.5,10.07-22.5,22.5v522.93c0,12.43,10.07,22.5,22.5,22.5
		c12.43,0,22.5-10.07,22.5-22.5v-522.93C520.34-153.18,510.27-163.25,497.84-163.25z"/>
</g>
<g id="Calque_11">
	<polygon class="st4" points="3.96,231.35 223.08,358.45 441.04,233.47 219.41,106.47 	"/>
	<polygon class="st5" points="4.45,231.35 223.58,358.45 223.65,366.92 5.32,239.76 	"/>
	<polygon class="st6" points="442.14,233.35 223.02,358.45 222.94,366.92 441.27,240.76 	"/>
</g>
<g id="Calque_5" class="st0">
	<path class="st7" d="M485.26-26.85v406.54c0,6.94,5.64,12.58,12.58,12.58c6.94,0,12.58-5.64,12.58-12.58V-26.85H485.26z"/>
	<polygon class="st8" points="150.89,238.4 188.4,216.74 205.06,113.29 150.89,144.57 	"/>
	<polygon class="st9" points="150.89,238.4 113.38,216.74 96.72,113.29 150.89,144.57 	"/>
	<path class="st8" d="M193.92,108.53c1.65,0.64,3.34,1.19,5.06,1.55c1.62,1.07,3.33,2.06,4.85,3.26c0.07,0.06,0.15,0.09,0.23,0.13
		l-0.66,47.6l-52.24,30.16v-50.55L193.92,108.53z"/>
	<path class="st8" d="M103.65,112.17c0.45,0.01,0.91,0.01,1.36,0.01c1.39,0.83,2.8,1.63,4.22,2.43c-1.64-0.12-3.28-0.15-4.94-0.03
		c0.61-0.31,0.96-1.17,0.32-1.69C104.29,112.63,103.97,112.4,103.65,112.17z"/>
	<path class="st8" d="M115.33,118.52c-2.51-0.42-4.99-1.01-7.38-1.86c2.03,0.09,4.06,0.34,6.07,0.65
		C114.47,117.7,114.91,118.11,115.33,118.52z"/>
	<path class="st9" d="M103.49,114.64c-0.11,0.01-0.23,0.02-0.34,0.03c-0.96,0.11-1.56,1.44-0.54,1.98
		c5.68,2.97,12.03,4.18,18.37,4.69c0.26,0.02,0.46-0.05,0.62-0.17l29.55,22.97v47.09l-52.24-30.16l-0.82-48.36
		C99.69,113.55,101.49,114.1,103.49,114.64z"/>
	<polygon class="st10" points="96.72,113.29 150.89,82.01 150.89,82.01 205.06,113.29 150.89,144.57 150.89,144.57 	"/>
	<polygon class="st10" points="194.48,113.29 150.89,88.13 107.3,113.29 150.89,138.46 	"/>
	<polygon class="st9" points="150.89,88.13 107.3,113.29 150.89,138.46 	"/>
	<circle class="st11" cx="113.38" cy="211.4" r="11.35"/>
	<circle class="st9" cx="113.38" cy="211.4" r="4.37"/>
	<polygon class="st11" points="80.96,36.61 134.07,6.04 134.07,6.22 140.64,9.7 140.28,70.82 134.05,67.22 134.01,50.34 
		133.99,67.33 140.21,70.93 87.38,101.67 80.87,97.9 	"/>
	<polygon class="st11" points="86.35,39.66 147.54,4.44 147.45,75.05 86.25,110.27 	"/>
	<polygon class="st11" points="142.86,72.39 142.94,12.39 90.93,42.32 90.85,102.32 	"/>
	<polygon class="st8" points="86.25,110.27 93.75,114.61 154.62,79.2 147.45,75.05 	"/>
	<polygon class="st11" points="147.61,4.32 155.11,8.66 154.69,79.08 147.52,74.92 	"/>
	<polygon class="st11" points="142.86,72.39 133.99,67.33 133.99,17.54 142.94,12.39 	"/>
	<polygon class="st8" points="90.85,102.32 142.86,72.39 133.99,67.33 90.87,91.88 	"/>
	<polygon class="st9" points="85.75,39.85 93.25,44.19 92.83,114.61 85.66,110.45 	"/>
	<polyline class="st11" points="85.75,39.85 147.61,4.32 155.11,8.66 93.25,44.19 85.75,39.85 	"/>
	<path class="st12" d="M187.08,117.56l-36.19,20.89l-31.1-17.96c0,0,19.67-40.7,44.93-35.68
		C177.61,87.39,187.08,117.56,187.08,117.56z"/>
	<circle class="st12" cx="169.83" cy="87.74" r="5.73"/>
	<path class="st12" d="M169.83,87.74"/>
	<path class="st12" d="M169.83,87.74c0,0,4-0.84,5.73-15.35s-2.86-15.04-2.86-15.04l-3.61,17.69L169.83,87.74z"/>
	<path class="st12" d="M167.9,86.66c0,0,13.76,6.73,23.42,2.77c9.66-3.96-16.66-4.5-16.66-4.5L167.9,86.66z"/>
	<path class="st12" d="M334.86,204.93c0,0,11.81,17.85,13.3,41.61c0,0,31.79,4.56,36.58-6.7
		C389.53,228.59,362.59,180.53,334.86,204.93z"/>
	<circle class="st12" cx="368.08" cy="205.85" r="5.19"/>
	<path class="st12" d="M367.14,181.83l-2.01,9.1c0,0,1.61,18.97,5.6,14.34C374.72,200.64,367.14,181.83,367.14,181.83z"/>
	<path class="st12" d="M368.08,205.85"/>
	<path class="st12" d="M380.81,199.79c-5.01-2.47-13.73,6.08-13.73,6.08l18.88-3.46"/>
	<g class="st1">
		<path class="st13" d="M120.5,207.46c-0.27-0.51-0.56-0.99-0.88-1.46c-0.29-0.42-0.6-0.81-0.92-1.19
			c-0.05-0.06-0.11-0.12-0.16-0.18c-0.24-0.27-0.5-0.53-0.75-0.78c-0.13-0.13-0.26-0.26-0.4-0.38c-0.22-0.2-0.46-0.38-0.7-0.56
			c-1.62-1.24-3.5-2.1-5.5-2.38c-0.31-0.04-0.61-0.07-0.91-0.08c-0.1,0-0.19,0-0.28-0.01c-0.21,0-0.41-0.01-0.61,0
			c-0.1,0-0.21,0.01-0.31,0.02c-0.2,0.01-0.39,0.03-0.58,0.06c-0.09,0.01-0.19,0.02-0.28,0.04c-0.24,0.04-0.47,0.09-0.71,0.14
			c-0.04,0.01-0.08,0.02-0.12,0.03c-0.28,0.07-0.54,0.16-0.81,0.25c-0.08,0.03-0.15,0.06-0.23,0.09c-0.19,0.07-0.38,0.15-0.56,0.24
			c-0.16,0.07-0.31,0.15-0.46,0.23l4.1-2.23c0.11-0.06,0.22-0.12,0.34-0.17c0.04-0.02,0.09-0.03,0.13-0.05
			c0.18-0.09,0.37-0.17,0.56-0.24c0.08-0.03,0.15-0.06,0.23-0.09c0.26-0.1,0.53-0.18,0.81-0.25c0.01,0,0.01,0,0.02-0.01
			c0.03-0.01,0.07-0.01,0.11-0.02c0.23-0.06,0.47-0.11,0.71-0.14c0.09-0.02,0.19-0.03,0.28-0.04c0.19-0.03,0.39-0.05,0.59-0.06
			c0.1-0.01,0.21-0.01,0.31-0.02c0.2-0.01,0.41-0.01,0.61,0c0.09,0,0.19,0,0.28,0.01c0.3,0.02,0.6,0.04,0.91,0.08
			c0.01,0,0.03,0.01,0.04,0.01l0.03-0.02c1.12,0.17,2.19,0.51,3.2,1c0.34,0.16,0.67,0.35,0.99,0.54c0.04,0.02,0.08,0.05,0.12,0.08
			c0.22,0.14,0.45,0.28,0.66,0.43c0.02,0.02,0.04,0.03,0.06,0.05c0.43,0.31,0.85,0.64,1.24,1c0,0,0.01,0.01,0.01,0.01
			c0.01,0.01,0.01,0.02,0.02,0.02c2.79,2.55,4.62,6.32,4.62,10.3c0.01,4.22-2.03,7.65-5.1,9.32l-4.1,2.23
			c0.25-0.13,0.47-0.3,0.71-0.45l-0.87,0.46c3.09-1.64,5.16-5.05,5.19-9.27c0.01-1.61-0.27-3.2-0.8-4.68
			C121.09,208.68,120.81,208.06,120.5,207.46z"/>
		<path class="st14" d="M100.49,210.28c-0.41,6.54,4.11,12.86,10.12,14.11c6,1.25,11.2-3.05,11.62-9.59
			c0.41-6.54-4.11-12.86-10.12-14.1C106.11,199.44,100.91,203.74,100.49,210.28z"/>
		<g>
			<path class="st15" d="M110.77,207.57c-1.27-0.18-2.42,0.21-3.26,1c-0.83,0.78-1.35,1.95-1.34,3.32l0,0
				c0,1.37,0.52,2.69,1.36,3.71c0.84,1.02,1.99,1.73,3.26,1.92c1.27,0.17,2.42-0.22,3.25-1c0.84-0.79,1.35-1.95,1.34-3.33
				c0-1.37-0.52-2.69-1.36-3.7C113.19,208.46,112.04,207.75,110.77,207.57z"/>
		</g>
	</g>
</g>
<g id="Calque_6" class="st0">
	<polygon class="st9" points="245.3,259.58 207.79,237.93 191.13,134.48 245.3,165.75 	"/>
	<polygon class="st8" points="245.3,259.58 282.81,237.93 299.47,134.48 245.3,165.75 	"/>
	<polygon class="st9" points="245.03,212.42 192.79,182.26 191.96,121.97 245.03,161.87 	"/>
	<polygon class="st8" points="245.03,212.42 297.28,182.26 298.33,120.48 245.03,169.59 	"/>
	<polygon class="st10" points="299.47,134.48 245.3,103.2 245.3,103.2 191.13,134.48 245.3,165.75 245.3,165.75 	"/>
	<polygon class="st9" points="201.71,134.48 245.3,109.31 288.89,134.48 245.3,159.64 	"/>
	<polygon class="st11" points="245.3,109.31 288.89,134.48 245.3,159.64 	"/>
	<g class="st1">
		<polygon class="st16" points="294.08,232.41 289.97,230.18 290.86,230.05 294.97,232.29 		"/>
	</g>
	<g class="st17">
		<defs>
			<path id="SVGID_1_" class="st18" d="M279.92,242.81l-4.1-2.23c1.42,0.77,3.11,1.1,4.92,0.85c2.55-0.37,4.85-1.8,6.53-3.83
				l4.1,2.23c-1.68,2.03-3.98,3.46-6.53,3.83C283.02,243.91,281.34,243.58,279.92,242.81z"/>
		</defs>
		<clipPath id="SVGID_2_">
			<use xlink:href="#SVGID_1_"  style="overflow:visible;"/>
		</clipPath>
		<g class="st19">
			<path class="st20" d="M279.92,242.81l-4.1-2.23c0.09,0.05,0.18,0.1,0.28,0.14l4.1,2.23C280.1,242.9,280.01,242.86,279.92,242.81"
				/>
			<path class="st21" d="M280.19,242.95l-4.1-2.23c0.46,0.23,0.94,0.41,1.45,0.54l4.1,2.23
				C281.13,243.36,280.65,243.18,280.19,242.95"/>
			<path class="st22" d="M281.64,243.49l-4.1-2.23c1,0.26,2.07,0.33,3.2,0.17c0.94-0.14,1.85-0.42,2.71-0.82l4.1,2.23
				c-0.86,0.4-1.76,0.68-2.71,0.82C283.71,243.81,282.63,243.75,281.64,243.49"/>
			<path class="st21" d="M287.54,242.84l-4.1-2.23c0.52-0.24,1.02-0.53,1.5-0.86l4.1,2.23C288.56,242.3,288.06,242.59,287.54,242.84
				"/>
			<path class="st20" d="M289.04,241.97l-4.1-2.23c0.39-0.27,0.76-0.57,1.12-0.89l4.1,2.23
				C289.8,241.41,289.43,241.71,289.04,241.97"/>
			<path class="st23" d="M290.16,241.09l-4.1-2.23c0.33-0.3,0.65-0.62,0.94-0.95l4.1,2.23
				C290.81,240.47,290.49,240.79,290.16,241.09"/>
			<path class="st24" d="M291.1,240.13l-4.1-2.23c0.09-0.1,0.18-0.2,0.26-0.31l4.1,2.23C291.28,239.93,291.19,240.03,291.1,240.13"
				/>
		</g>
	</g>
	<g class="st17">
		<defs>
			<path id="SVGID_3_" class="st18" d="M285.7,222.38l4.1,2.23c0.58,0.31,1.11,0.7,1.59,1.15c1.66,1.56,2.69,3.9,2.69,6.65
				c-0.01,2.75-1.04,5.38-2.71,7.42l-4.1-2.23c1.67-2.04,2.71-4.67,2.71-7.42c0.01-2.75-1.02-5.09-2.69-6.65
				C286.81,223.08,286.27,222.69,285.7,222.38z"/>
		</defs>
		<clipPath id="SVGID_4_">
			<use xlink:href="#SVGID_3_"  style="overflow:visible;"/>
		</clipPath>
		<g class="st25">
			<path class="st24" d="M291.36,239.83l-4.1-2.23c0.19-0.23,0.37-0.47,0.54-0.72l4.1,2.23
				C291.74,239.36,291.55,239.6,291.36,239.83"/>
			<path class="st26" d="M291.91,239.11l-4.1-2.23c0.28-0.39,0.53-0.8,0.76-1.23l4.1,2.23
				C292.44,238.31,292.18,238.72,291.91,239.11"/>
			<path class="st27" d="M292.67,237.88l-4.1-2.23c0.27-0.5,0.5-1.02,0.7-1.55l4.1,2.23C293.17,236.86,292.93,237.38,292.67,237.88"
				/>
			<path class="st28" d="M293.37,236.33l-4.1-2.23c0.46-1.24,0.71-2.56,0.71-3.92c0.01-2.75-1.02-5.09-2.69-6.65
				c-0.48-0.45-1.01-0.84-1.59-1.15l4.1,2.23c0.58,0.31,1.11,0.7,1.59,1.15c1.66,1.56,2.69,3.9,2.69,6.65
				C294.07,233.76,293.82,235.09,293.37,236.33"/>
		</g>
	</g>
	<g class="st17">
		<defs>
			<path id="SVGID_5_" class="st18" d="M280.77,221.53c1.81-0.25,3.5,0.07,4.92,0.84l4.1,2.23c-1.42-0.77-3.11-1.1-4.92-0.84
				C283.64,223.09,282,222.2,280.77,221.53z"/>
		</defs>
		<clipPath id="SVGID_6_">
			<use xlink:href="#SVGID_5_"  style="overflow:visible;"/>
		</clipPath>
		<g class="st29">
			<path class="st30" d="M284.88,223.76l-4.1-2.23c1.13-0.16,2.21-0.09,3.2,0.17l4.1,2.23C287.08,223.67,286,223.61,284.88,223.76"
				/>
			<path class="st31" d="M288.08,223.93l-4.1-2.23c0.5,0.13,0.99,0.31,1.44,0.54l4.1,2.23
				C289.07,224.24,288.58,224.06,288.08,223.93"/>
			<path class="st32" d="M289.52,224.46l-4.1-2.23c0.09,0.05,0.18,0.09,0.28,0.14l4.1,2.23
				C289.71,224.56,289.62,224.51,289.52,224.46"/>
		</g>
	</g>
	<g class="st17">
		<defs>
			<path id="SVGID_7_" class="st18" d="M280.77,221.53c0.16,0.03,0.34,0.18,0.48,0.26c0.15,0.08,0.36,0.19,0.51,0.28
				c0.35,0.19,0.71,0.39,1.06,0.58c0.68,0.37,1.37,0.74,2.05,1.12c-2.55,0.36-4.85,1.79-6.52,3.83c-1.68,2.03-2.71,4.66-2.71,7.41
				s1.02,5.09,2.69,6.66c0.48,0.45,1.01,0.84,1.58,1.15l-4.1-2.23c-0.57-0.31-1.11-0.7-1.58-1.15c-1.67-1.57-2.69-3.91-2.69-6.66
				c0.01-2.75,1.04-5.37,2.71-7.41C275.92,223.32,278.23,221.89,280.77,221.53z"/>
		</defs>
		<clipPath id="SVGID_8_">
			<use xlink:href="#SVGID_7_"  style="overflow:visible;"/>
		</clipPath>
		<g class="st33">
			<path class="st34" d="M279.92,242.81l-4.1-2.23c-0.57-0.31-1.11-0.7-1.58-1.15c-1.67-1.57-2.69-3.91-2.69-6.66
				c0-1.36,0.25-2.68,0.71-3.92l4.1,2.23c-0.46,1.24-0.71,2.56-0.71,3.92c-0.01,2.75,1.02,5.09,2.69,6.66
				C278.81,242.11,279.34,242.5,279.92,242.81"/>
			<path class="st35" d="M276.35,231.08l-4.1-2.23c0.19-0.53,0.43-1.04,0.69-1.54l4.1,2.23
				C276.78,230.04,276.55,230.55,276.35,231.08"/>
			<path class="st36" d="M277.05,229.54l-4.1-2.23c0.23-0.42,0.47-0.82,0.75-1.21l4.1,2.23
				C277.52,228.72,277.27,229.13,277.05,229.54"/>
			<path class="st37" d="M277.79,228.34l-4.1-2.23c0.18-0.26,0.37-0.5,0.57-0.74c0.09-0.12,0.19-0.23,0.29-0.34l4.1,2.23
				c-0.1,0.11-0.2,0.23-0.29,0.34C278.16,227.83,277.97,228.08,277.79,228.34"/>
			<path class="st38" d="M278.65,227.25l-4.1-2.23c0.29-0.33,0.61-0.65,0.93-0.94l4.1,2.23
				C279.25,226.6,278.94,226.92,278.65,227.25"/>
			<path class="st32" d="M279.58,226.31l-4.1-2.23c0.35-0.32,0.72-0.61,1.11-0.88l4.1,2.23C280.3,225.7,279.93,225.99,279.58,226.31
				"/>
			<path class="st31" d="M280.69,225.43l-4.1-2.23c0.47-0.33,0.97-0.61,1.48-0.85l4.1,2.23
				C281.65,224.82,281.16,225.11,280.69,225.43"/>
			<path class="st30" d="M282.17,224.58l-4.1-2.23c0.86-0.4,1.77-0.68,2.71-0.82l4.1,2.23C283.93,223.9,283.02,224.18,282.17,224.58
				"/>
		</g>
	</g>
	<g class="st1">
		<polygon class="st15" points="245.1,89.99 306.25,125.3 245.1,160.6 183.95,125.3 		"/>
		<polygon class="st13" points="183.95,125.3 183.95,133.96 245.1,168.89 245.1,160.6 		"/>
		<polygon class="st14" points="306.39,125.3 306.39,133.96 245.24,168.89 245.24,160.6 		"/>
		<polygon class="st15" points="245.03,83.8 298.11,114.45 245.03,145.09 191.96,114.45 		"/>
		<polygon class="st13" points="191.96,114.45 191.96,121.97 245.03,152.28 245.03,145.09 		"/>
		<polygon class="st14" points="298.23,114.45 298.23,121.97 245.16,152.28 245.16,145.09 		"/>
	</g>
	<g class="st1">
		<path class="st13" d="M275.56,228.76c0.27-0.51,0.56-0.99,0.88-1.46c0.29-0.42,0.6-0.81,0.92-1.19c0.05-0.06,0.11-0.12,0.16-0.18
			c0.24-0.27,0.5-0.53,0.75-0.78c0.13-0.13,0.26-0.26,0.4-0.38c0.22-0.2,0.46-0.38,0.7-0.56c1.62-1.24,3.5-2.1,5.5-2.38
			c0.31-0.04,0.61-0.07,0.91-0.08c0.1,0,0.19,0,0.28-0.01c0.21,0,0.41-0.01,0.61,0c0.1,0,0.21,0.01,0.31,0.02
			c0.2,0.01,0.39,0.03,0.58,0.06c0.09,0.01,0.19,0.02,0.28,0.04c0.24,0.04,0.47,0.09,0.71,0.14c0.04,0.01,0.08,0.02,0.12,0.03
			c0.28,0.07,0.54,0.16,0.81,0.25c0.08,0.03,0.15,0.06,0.23,0.09c0.19,0.07,0.38,0.15,0.56,0.24c0.16,0.07,0.31,0.15,0.46,0.23
			l-4.1-2.23c-0.11-0.06-0.22-0.12-0.34-0.17c-0.04-0.02-0.09-0.03-0.13-0.05c-0.18-0.09-0.37-0.17-0.56-0.24
			c-0.08-0.03-0.15-0.06-0.23-0.09c-0.26-0.1-0.53-0.18-0.81-0.25c-0.01,0-0.01,0-0.02-0.01c-0.03-0.01-0.07-0.01-0.11-0.02
			c-0.23-0.06-0.47-0.11-0.71-0.14c-0.09-0.02-0.19-0.03-0.28-0.04c-0.19-0.03-0.39-0.05-0.59-0.06c-0.1-0.01-0.21-0.01-0.31-0.02
			c-0.2-0.01-0.41-0.01-0.61,0c-0.09,0-0.19,0-0.28,0.01c-0.3,0.02-0.6,0.04-0.91,0.08c-0.01,0-0.03,0.01-0.04,0.01l-0.03-0.02
			c-1.12,0.17-2.19,0.51-3.2,1c-0.34,0.16-0.67,0.35-0.99,0.54c-0.04,0.02-0.08,0.05-0.12,0.08c-0.22,0.14-0.45,0.28-0.66,0.43
			c-0.02,0.02-0.04,0.03-0.06,0.05c-0.43,0.31-0.85,0.64-1.24,1c0,0-0.01,0.01-0.01,0.01c-0.01,0.01-0.01,0.02-0.02,0.02
			c-2.79,2.55-4.62,6.32-4.62,10.3c-0.01,4.22,2.03,7.65,5.1,9.32l4.1,2.23c-0.25-0.13-0.47-0.3-0.71-0.45l0.87,0.46
			c-3.09-1.64-5.16-5.05-5.19-9.27c-0.01-1.61,0.27-3.2,0.8-4.68C274.97,229.98,275.25,229.36,275.56,228.76z"/>
		<path class="st14" d="M283.94,222c-6,1.25-10.53,7.56-10.12,14.1s5.61,10.84,11.62,9.59c6.01-1.25,10.54-7.56,10.12-14.11
			C295.15,225.04,289.95,220.75,283.94,222z"/>
		<g>
			<path class="st15" d="M285.29,228.87c1.27-0.18,2.42,0.21,3.26,1c0.83,0.78,1.35,1.95,1.34,3.32l0,0c0,1.37-0.52,2.69-1.36,3.71
				c-0.84,1.02-1.99,1.73-3.26,1.92c-1.27,0.17-2.42-0.22-3.25-1c-0.84-0.79-1.35-1.95-1.34-3.33c0-1.37,0.52-2.69,1.36-3.7
				C282.87,229.76,284.02,229.05,285.29,228.87z"/>
		</g>
	</g>
</g>
<g id="Calque_3">
	<path class="st39" d="M485.26,253.75v126.49c0,6.94,5.64,12.58,12.58,12.58c6.94,0,12.58-5.64,12.58-12.58V253.75H485.26z"/>
	<g>
		<polygon class="st13" points="245.17,259.58 207.66,237.93 190.99,134.48 245.17,165.75 		"/>
		<polygon class="st14" points="245.17,259.58 282.68,237.93 299.34,134.48 245.17,165.75 		"/>
		<path class="st13" d="M202.13,129.72c-1.65,0.64-3.34,1.19-5.06,1.55c-1.62,1.07-3.33,2.06-4.85,3.26
			c-0.07,0.06-0.15,0.09-0.23,0.13l0.66,47.6l52.24,30.16v-50.55L202.13,129.72z"/>
		<path class="st14" d="M292.4,133.35c-0.45,0.01-0.91,0.01-1.36,0.01c-1.39,0.83-2.8,1.63-4.22,2.43c1.64-0.12,3.28-0.15,4.94-0.03
			c-0.61-0.31-0.96-1.17-0.32-1.69C291.76,133.82,292.08,133.59,292.4,133.35z"/>
		<path class="st14" d="M280.73,139.71c2.51-0.42,4.99-1.01,7.38-1.86c-2.03,0.09-4.06,0.34-6.07,0.65
			C281.59,138.89,281.15,139.29,280.73,139.71z"/>
		<path class="st14" d="M292.56,135.83c0.11,0.01,0.23,0.02,0.34,0.03c0.96,0.11,1.56,1.44,0.54,1.98
			c-5.68,2.97-12.03,4.18-18.37,4.69c-0.26,0.02-0.46-0.05-0.62-0.17l-29.55,22.97v47.09l52.24-30.16l0.82-48.36
			C296.36,134.73,294.57,135.29,292.56,135.83z"/>
		<polygon class="st40" points="299.34,134.48 245.17,103.2 245.17,103.2 190.99,134.48 245.17,165.75 245.17,165.75 		"/>
		<polygon class="st13" points="201.58,134.48 245.17,109.31 288.75,134.48 245.17,159.64 		"/>
		<polygon class="st15" points="245.17,109.31 288.75,134.48 245.17,159.64 		"/>
		<g>
			<g>
				<g class="st18">
					<g>
						<polygon class="st16" points="293.94,232.41 289.84,230.18 290.73,230.05 294.83,232.29 						"/>
					</g>
					<g class="st18">
						<defs>
							<path id="SVGID_9_" class="st18" d="M279.78,242.8l-4.1-2.23c1.43,0.78,3.12,1.1,4.93,0.85c2.55-0.37,4.85-1.8,6.52-3.83
								l4.1,2.23c-1.67,2.03-3.97,3.46-6.52,3.83C282.89,243.91,281.2,243.58,279.78,242.8z"/>
						</defs>
						<clipPath id="SVGID_10_">
							<use xlink:href="#SVGID_9_"  style="overflow:visible;"/>
						</clipPath>
						<g class="st41">
							<path class="st20" d="M279.78,242.8l-4.1-2.23c0.09,0.05,0.18,0.1,0.28,0.14l4.1,2.23
								C279.96,242.9,279.87,242.85,279.78,242.8"/>
							<path class="st21" d="M280.06,242.95l-4.1-2.23c0.46,0.23,0.95,0.41,1.45,0.54l4.1,2.23
								C281,243.35,280.52,243.17,280.06,242.95"/>
							<path class="st22" d="M281.51,243.49l-4.1-2.23c1,0.26,2.07,0.33,3.2,0.17c0.94-0.14,1.85-0.42,2.7-0.82l4.1,2.23
								c-0.85,0.4-1.76,0.68-2.7,0.82C283.58,243.81,282.51,243.74,281.51,243.49"/>
							<path class="st21" d="M287.42,242.84l-4.1-2.23c0.52-0.24,1.02-0.53,1.49-0.86l4.1,2.23
								C288.43,242.31,287.93,242.59,287.42,242.84"/>
							<path class="st20" d="M288.91,241.98l-4.1-2.23c0.39-0.27,0.76-0.56,1.11-0.88l4.1,2.23
								C289.67,241.41,289.29,241.71,288.91,241.98"/>
							<path class="st23" d="M290.02,241.1l-4.1-2.23c0.33-0.3,0.64-0.61,0.94-0.95l4.1,2.23
								C290.66,240.48,290.35,240.8,290.02,241.1"/>
							<path class="st24" d="M290.95,240.15l-4.1-2.23c0.09-0.11,0.19-0.21,0.27-0.32l4.1,2.23
								C291.14,239.94,291.05,240.04,290.95,240.15"/>
						</g>
					</g>
					<g class="st18">
						<defs>
							<path id="SVGID_11_" class="st18" d="M285.56,222.37l4.1,2.23c0.58,0.31,1.11,0.7,1.59,1.16c1.66,1.56,2.69,3.9,2.69,6.65
								c-0.01,2.75-1.04,5.38-2.71,7.42l-4.1-2.23c1.67-2.04,2.71-4.67,2.71-7.42c0.01-2.75-1.02-5.09-2.69-6.65
								C286.67,223.07,286.14,222.69,285.56,222.37z"/>
						</defs>
						<clipPath id="SVGID_12_">
							<use xlink:href="#SVGID_11_"  style="overflow:visible;"/>
						</clipPath>
						<g class="st42">
							<path class="st24" d="M291.23,239.83l-4.1-2.23c0.19-0.23,0.37-0.47,0.54-0.72l4.1,2.23
								C291.6,239.36,291.42,239.6,291.23,239.83"/>
							<path class="st26" d="M291.77,239.11l-4.1-2.23c0.28-0.39,0.53-0.8,0.76-1.23l4.1,2.23
								C292.3,238.31,292.05,238.72,291.77,239.11"/>
							<path class="st27" d="M292.53,237.88l-4.1-2.23c0.27-0.5,0.5-1.02,0.7-1.55l4.1,2.23
								C293.03,236.86,292.8,237.38,292.53,237.88"/>
							<path class="st28" d="M293.23,236.33l-4.1-2.23c0.46-1.24,0.71-2.56,0.71-3.92c0.01-2.75-1.02-5.09-2.69-6.65
								c-0.48-0.45-1.02-0.84-1.59-1.16l4.1,2.23c0.58,0.31,1.11,0.7,1.59,1.16c1.66,1.56,2.69,3.9,2.69,6.65
								C293.94,233.76,293.69,235.09,293.23,236.33"/>
						</g>
					</g>
					<g class="st18">
						<defs>
							<path id="SVGID_13_" class="st18" d="M280.65,221.53c1.81-0.25,3.49,0.07,4.91,0.84l4.1,2.23c-1.42-0.77-3.1-1.09-4.91-0.84
								C283.52,223.09,281.88,222.2,280.65,221.53z"/>
						</defs>
						<clipPath id="SVGID_14_">
							<use xlink:href="#SVGID_13_"  style="overflow:visible;"/>
						</clipPath>
						<g class="st43">
							<path class="st30" d="M284.75,223.76l-4.1-2.23c1.13-0.16,2.21-0.09,3.2,0.17l4.1,2.23
								C286.95,223.67,285.88,223.6,284.75,223.76"/>
							<path class="st31" d="M287.95,223.93l-4.1-2.23c0.5,0.13,0.98,0.31,1.44,0.53l4.1,2.23
								C288.93,224.24,288.45,224.06,287.95,223.93"/>
							<path class="st32" d="M289.39,224.46l-4.1-2.23c0.09,0.05,0.18,0.09,0.27,0.14l4.1,2.23
								C289.57,224.55,289.48,224.51,289.39,224.46"/>
						</g>
					</g>
					<g class="st18">
						<defs>
							<path id="SVGID_15_" class="st18" d="M286.52,220.61l4.1,2.23c-1.7-0.92-3.71-1.31-5.87-1.01l-4.1-2.23
								C282.81,219.3,284.82,219.69,286.52,220.61z"/>
						</defs>
						<clipPath id="SVGID_16_">
							<use xlink:href="#SVGID_15_"  style="overflow:visible;"/>
						</clipPath>
						<g class="st44">
							<path class="st22" d="M284.75,221.83l-4.1-2.23c1.33-0.19,2.61-0.11,3.8,0.19l4.1,2.23
								C287.37,221.72,286.09,221.65,284.75,221.83"/>
							<path class="st21" d="M288.55,222.03l-4.1-2.23c0.61,0.16,1.19,0.37,1.74,0.64l4.1,2.23
								C289.73,222.4,289.15,222.18,288.55,222.03"/>
							<path class="st20" d="M290.28,222.67l-4.1-2.23c0.11,0.06,0.22,0.11,0.33,0.17l4.1,2.23
								C290.51,222.78,290.4,222.73,290.28,222.67"/>
						</g>
					</g>
					<g class="st18">
						<defs>
							<path id="SVGID_17_" class="st18" d="M274.12,225.36c1.68-2.04,3.98-3.47,6.53-3.83l4.1,2.23c-2.55,0.36-4.85,1.79-6.53,3.83
								c-1.67,2.03-2.71,4.66-2.71,7.41s1.02,5.09,2.69,6.66c0.48,0.45,1.01,0.83,1.58,1.14l-4.1-2.23c-0.57-0.31-1.1-0.7-1.58-1.14
								c-1.66-1.57-2.69-3.91-2.69-6.66C271.41,230.02,272.45,227.39,274.12,225.36z"/>
						</defs>
						<clipPath id="SVGID_18_">
							<use xlink:href="#SVGID_17_"  style="overflow:visible;"/>
						</clipPath>
						<g class="st45">
							<path class="st34" d="M279.78,242.8l-4.1-2.23c-0.57-0.31-1.1-0.7-1.58-1.14c-1.66-1.57-2.69-3.91-2.69-6.66
								c0-1.35,0.26-2.68,0.71-3.91l4.1,2.23c-0.45,1.24-0.71,2.56-0.71,3.91c-0.01,2.75,1.02,5.09,2.69,6.66
								C278.68,242.11,279.21,242.49,279.78,242.8"/>
							<path class="st35" d="M276.22,231.09l-4.1-2.23c0.2-0.53,0.43-1.05,0.7-1.55l4.1,2.23
								C276.65,230.04,276.42,230.56,276.22,231.09"/>
							<path class="st36" d="M276.92,229.54l-4.1-2.23c0.23-0.42,0.48-0.83,0.75-1.22l4.1,2.23
								C277.4,228.71,277.14,229.12,276.92,229.54"/>
							<path class="st37" d="M277.67,228.32l-4.1-2.23c0.18-0.25,0.36-0.49,0.55-0.73c0.09-0.11,0.18-0.22,0.28-0.33l4.1,2.23
								c-0.09,0.11-0.19,0.22-0.28,0.33C278.03,227.83,277.84,228.07,277.67,228.32"/>
							<path class="st38" d="M278.5,227.27l-4.1-2.23c0.3-0.34,0.61-0.65,0.94-0.95l4.1,2.23
								C279.11,226.61,278.8,226.93,278.5,227.27"/>
							<path class="st32" d="M279.44,226.32l-4.1-2.23c0.35-0.32,0.73-0.61,1.11-0.88l4.1,2.23
								C280.17,225.7,279.79,226,279.44,226.32"/>
							<path class="st31" d="M280.55,225.44l-4.1-2.23c0.47-0.33,0.97-0.61,1.48-0.86l4.1,2.23
								C281.52,224.82,281.03,225.11,280.55,225.44"/>
							<path class="st30" d="M282.04,224.58l-4.1-2.23c0.86-0.4,1.77-0.68,2.71-0.82l4.1,2.23
								C283.8,223.9,282.89,224.18,282.04,224.58"/>
						</g>
					</g>
					<g>
						<path class="st46" d="M284.75,223.76c2.55-0.36,4.84,0.43,6.51,2c1.66,1.56,2.69,3.9,2.69,6.65l0.89-0.12l-0.89,0.12
							c-0.01,2.75-1.04,5.38-2.71,7.42c-1.67,2.03-3.97,3.46-6.52,3.83c-2.55,0.35-4.84-0.43-6.52-2c-1.66-1.57-2.69-3.91-2.69-6.66
							s1.04-5.38,2.71-7.41C279.9,225.55,282.2,224.12,284.75,223.76z"/>
					</g>
					<g class="st18">
						<defs>
							<path id="SVGID_19_" class="st18" d="M278.83,244.57l-4.1-2.23c-3.07-1.67-5.11-5.09-5.1-9.32
								c0.01-6.55,4.94-12.56,11.02-13.42l4.1,2.23c-6.08,0.85-11.01,6.86-11.02,13.42C273.72,239.47,275.76,242.89,278.83,244.57z"
								/>
						</defs>
						<clipPath id="SVGID_20_">
							<use xlink:href="#SVGID_19_"  style="overflow:visible;"/>
						</clipPath>
						<g class="st47">
							<path class="st28" d="M278.83,244.57l-4.1-2.23c-3.07-1.67-5.11-5.09-5.1-9.32c0-1.61,0.3-3.2,0.85-4.68l4.1,2.23
								c-0.54,1.48-0.84,3.06-0.85,4.68C273.72,239.47,275.76,242.89,278.83,244.57"/>
							<path class="st27" d="M274.58,230.58l-4.1-2.23c0.23-0.64,0.51-1.26,0.83-1.85l4.1,2.23
								C275.09,229.32,274.81,229.94,274.58,230.58"/>
							<path class="st26" d="M275.41,228.73l-4.1-2.23c0.27-0.5,0.57-0.99,0.9-1.45l4.1,2.23
								C275.98,227.74,275.68,228.22,275.41,228.73"/>
							<path class="st24" d="M276.31,227.27l-4.1-2.23c0.31-0.44,0.64-0.86,0.99-1.26l4.1,2.23
								C276.95,226.41,276.62,226.83,276.31,227.27"/>
							<path class="st23" d="M277.3,226.02l-4.1-2.23c0.35-0.4,0.73-0.78,1.12-1.13l4.1,2.23
								C278.03,225.24,277.65,225.62,277.3,226.02"/>
							<path class="st20" d="M278.42,224.88l-4.1-2.23c0.42-0.38,0.87-0.73,1.33-1.05l4.1,2.23
								C279.29,224.15,278.84,224.5,278.42,224.88"/>
							<path class="st21" d="M279.75,223.83l-4.1-2.23c0.57-0.39,1.17-0.74,1.79-1.03l4.1,2.23
								C280.91,223.09,280.32,223.44,279.75,223.83"/>
							<path class="st22" d="M281.53,222.8l-4.1-2.23c1.02-0.48,2.1-0.81,3.22-0.97l4.1,2.23
								C283.63,221.99,282.55,222.32,281.53,222.8"/>
						</g>
					</g>
					<g>
						<path class="st48" d="M284.75,221.83c6.07-0.85,10.98,3.77,10.97,10.33s-4.94,12.56-11.01,13.42
							c-6.08,0.85-10.99-3.77-10.98-10.33C273.74,228.7,278.67,222.69,284.75,221.83z M291.23,239.83c1.67-2.04,2.71-4.67,2.71-7.42
							c0.01-2.75-1.02-5.09-2.69-6.65c-1.66-1.57-3.96-2.36-6.51-2s-4.85,1.79-6.53,3.83c-1.67,2.03-2.71,4.66-2.71,7.41
							c-0.01,2.75,1.02,5.09,2.69,6.66c1.67,1.56,3.97,2.35,6.51,2C287.26,243.29,289.56,241.86,291.23,239.83"/>
					</g>
				</g>
			</g>
		</g>
		<circle class="st13" cx="282.68" cy="232.59" r="4.37"/>
		<polygon class="st15" points="315.1,57.8 261.98,27.22 261.98,27.41 255.41,30.89 255.78,92.01 262,88.4 262.04,71.53 
			262.07,88.51 255.84,92.12 308.67,122.85 315.18,119.08 		"/>
		<polygon class="st15" points="309.71,60.85 248.51,25.62 248.61,96.23 309.81,131.46 		"/>
		<polygon class="st15" points="253.2,93.58 253.12,33.57 305.12,63.5 305.2,123.51 		"/>
		<polygon class="st14" points="309.81,131.46 302.31,135.8 241.44,100.39 248.61,96.23 		"/>
		<polygon class="st13" points="248.44,25.5 240.95,29.84 241.37,100.26 248.54,96.11 		"/>
		<polygon class="st13" points="253.2,93.58 262.07,88.51 262.07,38.72 253.12,33.57 		"/>
		<polygon class="st14" points="305.2,123.51 253.2,93.58 262.07,88.51 305.19,113.06 		"/>
		<polygon class="st14" points="310.3,61.03 302.81,65.37 303.23,135.79 310.4,131.64 		"/>
		<polyline class="st15" points="310.3,61.03 248.44,25.5 240.95,29.84 302.81,65.37 310.3,61.03 		"/>
	</g>
	<path class="st7" d="M245.17,159.64l-33.01-19.06c0,0,3.94-27.24,27.41-25.7c17.21,1.13,38.58,25.71,38.58,25.71L245.17,159.64z"/>
	<circle class="st7" cx="224.13" cy="121.36" r="5.68"/>
	<path class="st7" d="M227.85,94.43c5.91-10.6,2.55,11.87,2.55,11.87l-8.9,15.94C221.51,122.24,220.94,106.81,227.85,94.43z"/>
	<path class="st7" d="M221.78,120.13c0,0-0.7-7.11-14.66-10.88c-13.96-3.78,2.86,9.57,2.86,9.57S216.67,121.46,221.78,120.13z"/>
	<g>
		<path class="st13" d="M275.56,228.74c0.27-0.51,0.56-0.99,0.88-1.46c0.29-0.42,0.6-0.81,0.92-1.19c0.05-0.06,0.11-0.12,0.16-0.18
			c0.24-0.27,0.5-0.53,0.75-0.78c0.13-0.13,0.26-0.26,0.4-0.38c0.22-0.2,0.46-0.38,0.7-0.56c1.62-1.24,3.5-2.1,5.5-2.38
			c0.31-0.04,0.61-0.07,0.91-0.08c0.1,0,0.19,0,0.28-0.01c0.21,0,0.41-0.01,0.61,0c0.1,0,0.21,0.01,0.31,0.02
			c0.2,0.01,0.39,0.03,0.58,0.06c0.09,0.01,0.19,0.02,0.28,0.04c0.24,0.04,0.47,0.09,0.71,0.14c0.04,0.01,0.08,0.02,0.12,0.03
			c0.28,0.07,0.54,0.16,0.81,0.25c0.08,0.03,0.15,0.06,0.23,0.09c0.19,0.07,0.38,0.15,0.56,0.24c0.16,0.07,0.31,0.15,0.46,0.23
			l-4.1-2.23c-0.11-0.06-0.22-0.12-0.34-0.17c-0.04-0.02-0.09-0.03-0.13-0.05c-0.18-0.09-0.37-0.17-0.56-0.24
			c-0.08-0.03-0.15-0.06-0.23-0.09c-0.26-0.1-0.53-0.18-0.81-0.25c-0.01,0-0.01,0-0.02-0.01c-0.03-0.01-0.07-0.01-0.11-0.02
			c-0.23-0.06-0.47-0.11-0.71-0.14c-0.09-0.02-0.19-0.03-0.28-0.04c-0.19-0.03-0.39-0.05-0.59-0.06c-0.1-0.01-0.21-0.01-0.31-0.02
			c-0.2-0.01-0.41-0.01-0.61,0c-0.09,0-0.19,0-0.28,0.01c-0.3,0.02-0.6,0.04-0.91,0.08c-0.01,0-0.03,0.01-0.04,0.01l-0.03-0.02
			c-1.12,0.17-2.19,0.51-3.2,1c-0.34,0.16-0.67,0.35-0.99,0.54c-0.04,0.02-0.08,0.05-0.12,0.08c-0.22,0.14-0.45,0.28-0.66,0.43
			c-0.02,0.02-0.04,0.03-0.06,0.05c-0.43,0.31-0.85,0.64-1.24,1c0,0-0.01,0.01-0.01,0.01c-0.01,0.01-0.01,0.02-0.02,0.02
			c-2.79,2.55-4.62,6.32-4.62,10.3c-0.01,4.22,2.03,7.65,5.1,9.32l4.1,2.23c-0.25-0.13-0.47-0.3-0.71-0.45l0.87,0.46
			c-3.09-1.64-5.16-5.05-5.19-9.27c-0.01-1.61,0.27-3.2,0.8-4.68C274.97,229.96,275.24,229.34,275.56,228.74z"/>
		<path class="st14" d="M283.94,221.97c-6,1.25-10.53,7.56-10.12,14.1c0.41,6.54,5.61,10.84,11.62,9.59
			c6.01-1.25,10.54-7.56,10.12-14.11C295.15,225.02,289.95,220.73,283.94,221.97z"/>
		<g>
			<path class="st15" d="M285.29,228.85c1.27-0.18,2.42,0.21,3.26,1c0.83,0.78,1.35,1.95,1.34,3.32l0,0c0,1.37-0.52,2.69-1.36,3.71
				c-0.84,1.02-1.99,1.73-3.26,1.92c-1.27,0.17-2.42-0.22-3.25-1c-0.84-0.79-1.35-1.95-1.34-3.33s0.52-2.69,1.36-3.7
				C282.87,229.74,284.02,229.03,285.29,228.85z"/>
		</g>
	</g>
</g>
<g id="Calque_4" class="st0">
	<path class="st7" d="M485.26,114.68v265.77c0,6.94,5.64,12.58,12.58,12.58c6.94,0,12.58-5.64,12.58-12.58V114.68H485.26z"/>
	<circle class="st12" cx="270.48" cy="100.27" r="5.68"/>
	<path class="st12" d="M245.37,114.96c0,0,8.63-22.94,24.17-16.54c10.51,4.33,20.13,35.66,20.13,35.66l-10.12,5.47
		C279.56,139.54,261.84,118.31,245.37,114.96z"/>
	<path class="st12" d="M270.48,99.94c0,0,6.09-9.07,14.15-9.41c8.06-0.34,9.47,2.15,9.47,2.15s-6.64,3.82-9.98,5.25
		C280.79,99.36,270.48,99.94,270.48,99.94z"/>
	<path class="st12" d="M265.38,74.28c0,0-2.18,10.81,0.62,16.88s3.85,9.33,3.85,9.33s3.08-9.09,2.47-11.61
		C271.7,86.35,265.38,74.28,265.38,74.28z"/>
	<path class="st12" d="M313.1,197.84c-1.6,0.68-3.2,1.34-4.82,1.96c-3.62,1.39-10.93,5.8-17.14,19.57
		c-8.65,19.16-11.09,34.02-0.05,44.49c7.86,7.45,22.53,4.29,30.33,1.85c3.23-1.01,6.53-1.76,9.87-2.34
		c5.06-0.87,12.69-3.3,14.89-10.09C349.44,243.21,336.2,187.99,313.1,197.84z"/>
	<circle class="st12" cx="309.92" cy="198.12" r="5.79"/>
	<path class="st12" d="M325.89,171.45c0,0-0.14,0.9-0.5,2.37c-1.11,4.58-4.28,14.75-11.67,20.74c-9.76,7.91,1.79-14.12,1.79-14.12"
		/>
	<path class="st12" d="M311.39,198.12c0,0-6.7-3.72-8.5-10.4c-1.8-6.68,1.58-9.59,1.58-9.59l4.99,9.99L311.39,198.12z"/>
</g>
<g id="Calque_8" class="st0">
	<path class="st7" d="M497.82,393.92c-6.94,0-12.58-5.64-12.58-12.58v-522.93c0-6.94,5.64-12.58,12.58-12.58
		c6.94,0,12.58,5.64,12.58,12.58v522.93C510.4,388.28,504.76,393.92,497.82,393.92z"/>
	<path class="st12" d="M157.81,83.01c0,0-20.81-12.05-31.6-2.94s-6.42,36.94-6.42,36.94S137.59,83.41,157.81,83.01z"/>
	<circle class="st12" cx="122.17" cy="84.58" r="5.04"/>
	<path class="st12" d="M128.15,52.96c0,0,4.48,17.78-3.06,31.23s-2.16-17.8-2.16-17.8L128.15,52.96z"/>
	<path class="st12" d="M96.92,79.97l11.91,1.14c0.1,0.01,0.2,0.03,0.3,0.06c1.36,0.43,11.75,3.79,13.54,5.39
		c1.81,1.62-11.44-20.1-26.45-9.22C95.14,78.13,95.58,79.85,96.92,79.97z"/>
	<path class="st12" d="M164.46,243.47c0,0-25.34,15.08-42.25-1.44c-16.91-16.52,15.64-48.83,15.64-48.83s15.39-14.32,23.9-9.99
		c8.51,4.33,11.44,31.07,14.85,36.53C180.01,225.19,175.33,234.8,164.46,243.47z"/>
	<circle class="st12" cx="144.66" cy="187.87" r="6.04"/>
	<path class="st12" d="M142.66,187.87c0,0,0.86-14.99,12.45-19.22C172.51,162.31,142.66,187.87,142.66,187.87z"/>
	<path class="st12" d="M142.66,187.87l2.58-16.8l-2.58-11.43c0,0-6.03,4.26,0,30.31"/>
	<path class="st12" d="M320.49,195.46c0,0,12.87-16.29,33.25,0.81c0,0-14.34-0.1-20.34,7.67
		C333.4,203.95,327.88,195.27,320.49,195.46z"/>
</g>
<g id="Calque_10" class="st0">
	<line class="st49" x1="485.26" y1="-26.85" x2="510.42" y2="-26.85"/>
	<line class="st49" x1="485.26" y1="114.66" x2="510.42" y2="114.66"/>
	<line class="st49" x1="485.26" y1="253.66" x2="510.42" y2="253.66"/>
</g>
</svg>
